<?xml version="1.0" encoding="UTF-8"?>
<!-- Generator: Adobe Illustrator 28.0.0, SVG Export Plug-In . SVG Version: 6.00 Build 0)  -->
<svg xmlns="http://www.w3.org/2000/svg" xmlns:xlink="http://www.w3.org/1999/xlink" version="1.1" id="Layer_2_00000109727552309076759380000003559361490835111553_" x="0px" y="0px" viewBox="0 0 801.2 831.3" style="enable-background:new 0 0 801.2 831.3;" xml:space="preserve">
<style type="text/css">
	.st0{opacity:0.39;enable-background:new    ;}
	.st1{fill:#FFFFFF;}
	.st2{fill:#262F3E;}
	.st3{fill:#F7981D;}
</style>
<g id="Layer_1_2_">
	<ellipse class="st0" cx="401" cy="286.1" rx="262.8" ry="266.3"></ellipse>
	<circle class="st1" cx="401" cy="278.3" r="261.4"></circle>
</g>
<g>
	<g>
		<g>
			<path class="st2" d="M331.2,253.8c0,4,0.4,7.2,1.2,9.5c0.9,2.4,1.9,4.9,3.4,7.7c0.5,0.9,0.7,1.7,0.7,2.5c0,1.1-0.6,2.1-2,3.2     l-6.7,4.5c-1,0.6-1.9,1-2.8,1c-1.1,0-2.1-0.5-3.2-1.5c-1.5-1.6-2.8-3.3-3.9-5c-1.1-1.8-2.1-3.9-3.3-6.3     c-8.4,9.9-18.9,14.8-31.5,14.8c-9,0-16.2-2.6-21.4-7.7c-5.2-5.1-7.9-12-7.9-20.6c0-9.1,3.2-16.5,9.7-22.1s15.2-8.4,26.2-8.4     c3.6,0,7.4,0.3,11.4,0.9c4,0.5,8,1.4,12.3,2.4v-7.8c0-8.1-1.7-13.8-5-17.1c-3.4-3.3-9.2-4.9-17.5-4.9c-3.7,0-7.6,0.4-11.6,1.4     s-7.8,2.1-11.6,3.6c-1.7,0.7-3,1.2-3.7,1.4s-1.3,0.3-1.7,0.3c-1.5,0-2.2-1.1-2.2-3.3v-5.2c0-1.7,0.2-3,0.7-3.7s1.5-1.5,3-2.2     c3.7-1.9,8.2-3.5,13.5-4.8c5.2-1.4,10.8-2,16.7-2c12.7,0,22.1,2.9,28.1,8.7c5.9,5.8,8.9,14.6,8.9,26.4v34.7h0.2L331.2,253.8     L331.2,253.8z M287.7,270.1c3.5,0,7.2-0.6,11-1.9c3.9-1.3,7.3-3.6,10.2-6.9c1.7-2,3-4.3,3.6-6.9s1.1-5.7,1.1-9.3v-4.5     c-3.1-0.7-6.4-1.4-9.9-1.8c-3.4-0.4-6.7-0.6-10.1-0.6c-7.2,0-12.4,1.4-16,4.3c-3.5,2.9-5.2,7-5.2,12.3c0,5,1.3,8.8,4,11.4     C279.1,268.8,282.8,270.1,287.7,270.1z M373.8,281.6c-1.9,0-3.2-0.3-4.1-1.1c-0.9-0.6-1.6-2.1-2.2-4.2l-25.2-82.8     c-0.6-2.1-1-3.5-1-4.3c0-1.7,0.9-2.7,2.6-2.7h10.5c2,0,3.4,0.3,4.2,1.1c0.9,0.6,1.5,2.1,2.1,4.2l18,70.9l16.7-70.9     c0.5-2.1,1.2-3.5,2-4.2s2.4-1.1,4.3-1.1h8.6c2,0,3.4,0.3,4.3,1.1c0.9,0.6,1.6,2.1,2,4.2l16.9,71.8l18.5-71.8     c0.6-2.1,1.4-3.5,2.1-4.2c0.9-0.6,2.2-1.1,4.2-1.1h10c1.7,0,2.7,0.9,2.7,2.7c0,0.5-0.1,1.1-0.2,1.7c-0.1,0.6-0.3,1.5-0.7,2.7     l-25.8,82.8c-0.6,2.1-1.4,3.5-2.2,4.2c-0.9,0.6-2.2,1.1-4.1,1.1h-9.2c-2,0-3.4-0.3-4.3-1.1c-0.9-0.7-1.6-2.1-2-4.3l-16.6-69.1     l-16.5,69c-0.5,2.1-1.2,3.5-2,4.3c-0.9,0.7-2.4,1.1-4.3,1.1L373.8,281.6L373.8,281.6z M511.4,284.5c-5.6,0-11.1-0.6-16.5-1.9     s-9.5-2.7-12.3-4.3c-1.7-1-2.9-2-3.3-3s-0.6-2-0.6-3v-5.5c0-2.2,0.9-3.3,2.5-3.3c0.6,0,1.3,0.1,1.9,0.3c0.6,0.2,1.6,0.6,2.7,1.1     c3.6,1.6,7.6,2.9,11.8,3.7c4.3,0.9,8.5,1.3,12.7,1.3c6.7,0,12-1.2,15.6-3.5c3.6-2.4,5.6-5.8,5.6-10.2c0-3-1-5.5-2.9-7.5     s-5.6-3.9-10.8-5.6l-15.5-4.8c-7.8-2.5-13.6-6.1-17.1-10.9c-3.5-4.7-5.4-10-5.4-15.5c0-4.5,1-8.5,2.9-11.9s4.5-6.4,7.7-8.8     c3.2-2.5,6.9-4.3,11.1-5.6c4.3-1.3,8.8-1.8,13.5-1.8c2.4,0,4.8,0.1,7.2,0.4c2.5,0.3,4.7,0.7,7,1.2c2.1,0.5,4.2,1.1,6.1,1.7     c1.9,0.6,3.4,1.3,4.5,1.9c1.5,0.9,2.6,1.7,3.2,2.7c0.6,0.9,1,2,1,3.5v5c0,2.2-0.9,3.4-2.5,3.4c-0.9,0-2.2-0.4-4.1-1.3     c-6.1-2.8-13-4.2-20.6-4.2c-6.1,0-10.9,1-14.2,3c-3.3,2-5,5.1-5,9.5c0,3,1.1,5.6,3.2,7.6s6.1,4.1,11.8,5.9l15.2,4.8     c7.7,2.5,13.3,5.9,16.6,10.3c3.3,4.4,4.9,9.4,4.9,15c0,4.6-1,8.8-2.8,12.4c-1.9,3.6-4.5,6.9-7.8,9.4c-3.3,2.7-7.3,4.6-11.9,6     C521.9,283.8,516.9,284.5,511.4,284.5z"></path>
			<path class="st3" d="M531.6,336.6c-35.2,26-86.4,39.8-130.5,39.8c-61.7,0-117.3-22.8-159.3-60.7c-3.3-3-0.3-7.1,3.6-4.7     c45.4,26.4,101.4,42.3,159.4,42.3c39.1,0,82.1-8.1,121.6-24.9C532.4,325.8,537.4,332.3,531.6,336.6z M546.3,319.9     c-4.5-5.8-29.8-2.8-41.2-1.4c-3.4,0.4-4-2.6-0.9-4.8c20.1-14.1,53.2-10.1,57.1-5.4c3.9,4.8-1.1,37.9-19.9,53.8     c-2.9,2.5-5.7,1.2-4.4-2C541.3,349.5,550.8,325.6,546.3,319.9z"></path>
		</g>
		<g>
			<g>
				<path class="st3" d="M570.3,111.3c-45.1-45.1-105.1-69.9-168.8-69.9s-123.7,24.8-168.8,69.9s-69.9,105.1-69.9,168.8      c0,63.8,24.8,123.7,69.9,168.8s105.1,69.9,168.8,69.9s123.7-24.8,168.8-69.9s69.9-105,69.9-168.8S615.4,156.4,570.3,111.3z       M401.5,501.6c-122.1,0-221.4-99.3-221.4-221.4S279.4,58.7,401.5,58.7S622.9,158,622.9,280.1S523.6,501.6,401.5,501.6z"></path>
			</g>
		</g>
	</g>
</g>
<g>
	<path class="st1" d="M282.2,679l36.1-78.1c0.3-0.7,0.9-1.3,2-1.3h1.2c1.2,0,1.6,0.6,2,1.3l35.7,78.1c0.7,1.5-0.2,3-2,3h-10.1   c-1.7,0-2.6-0.7-3.4-2.3l-5.7-12.5h-34.7l-5.7,12.5c-0.5,1.2-1.5,2.3-3.4,2.3h-10.1C282.4,682,281.5,680.5,282.2,679z M332.3,654.3   l-11.6-25.5h-0.3L309,654.3H332.3z"></path>
	<path class="st1" d="M359,603.6c-0.5-1.6,0.5-2.8,2.1-2.8h10.7c0.9,0,1.9,0.8,2.1,1.6l12.1,46.3h0.5l18.4-47.8   c0.2-0.7,0.8-1.3,2-1.3h2.1c1.2,0,1.7,0.6,2,1.3l18.6,47.8h0.5l11.8-46.3c0.2-0.8,1.2-1.6,2.1-1.6h10.7c1.6,0,2.6,1.2,2.1,2.8   l-21.9,78c-0.2,0.9-1.2,1.6-2.1,1.6h-1.9c-1,0-1.7-0.6-2-1.3L408,629.4h-0.6l-20.5,52.5c-0.3,0.7-0.8,1.3-2,1.3H383   c-0.9,0-1.9-0.7-2.1-1.6L359,603.6z"></path>
	<path class="st1" d="M465.7,670.7l4.2-7.2c0.9-1.6,2.9-1.6,3.9-0.8c0.6,0.3,10,7.2,17.5,7.2c6,0,10.6-3.9,10.6-8.9   c0-5.9-5-10-14.7-13.9c-10.9-4.4-21.8-11.4-21.8-25.1c0-10.3,7.7-22.3,26.1-22.3c11.8,0,20.9,6,23.2,7.8c1.2,0.7,1.5,2.7,0.7,3.8   l-4.4,6.6c-0.9,1.4-2.7,2.3-4.1,1.4c-0.9-0.6-9.7-6.4-16.1-6.4c-6.6,0-10.2,4.4-10.2,8.1c0,5.5,4.3,9.2,13.7,13   c11.3,4.5,24.2,11.3,24.2,26.2c0,11.9-10.3,23-26.7,23c-14.6,0-23.2-6.8-25.5-9C465.3,673.1,464.7,672.5,465.7,670.7z"></path>
</g>
</svg>
