<?xml version="1.0" encoding="UTF-8"?>
<!-- Generator: Adobe Illustrator 28.0.0, SVG Export Plug-In . SVG Version: 6.00 Build 0)  -->
<svg xmlns="http://www.w3.org/2000/svg" xmlns:xlink="http://www.w3.org/1999/xlink" version="1.1" id="Layer_1" x="0px" y="0px" viewBox="0 0 801.2 831.3" style="enable-background:new 0 0 801.2 831.3;" xml:space="preserve">
<style type="text/css">
	.st0{opacity:0.39;enable-background:new    ;}
	.st1{fill:#FFFFFF;}
	.st2{fill:#2386C7;}
</style>
<g id="Layer_1_1_">
	<ellipse class="st0" cx="401" cy="286.1" rx="262.8" ry="266.3"></ellipse>
	<circle class="st1" cx="401" cy="278.3" r="261.4"></circle>
	<g>
		<path class="st1" d="M197.9,601.4c0.1-0.9,0.8-1.7,2.1-1.7h1.9c0.9,0,1.6,0.5,2,1.2l25.5,54.8c0.2,0,0.2,0,0.3,0l25.5-54.8    c0.3-0.7,0.9-1.2,2-1.2h1.9c1.3,0,2,0.8,2.1,1.7l13.7,78c0.3,1.6-0.6,2.7-2.1,2.7h-10.6c-1,0-2-0.9-2.2-1.7l-6.8-44    c-0.1,0-0.3,0-0.3,0l-20.3,45.6c-0.2,0.7-0.9,1.3-2,1.3h-2.1c-1,0-1.6-0.6-2-1.3l-20.5-45.6c0,0-0.2,0-0.3,0l-6.7,44    c-0.1,0.8-1,1.7-2.1,1.7h-10.4c-1.5,0-2.4-1-2.2-2.7L197.9,601.4z"></path>
		<path class="st1" d="M284.8,611.2c0-4.4,3.5-8,7.9-8c4.5,0,8.1,3.6,8.1,8c0,4.4-3.6,8-8.1,8C288.2,619.2,284.8,615.6,284.8,611.2z     M285.8,637.8c0-1.3,1-2.2,2.2-2.2h9.6c1.2,0,2.2,0.9,2.2,2.2v42c0,1.2-1,2.2-2.2,2.2H288c-1.2,0-2.2-1-2.2-2.2V637.8z"></path>
		<path class="st1" d="M334.9,634.5c7.2,0,12.8,2.9,17.2,8.2c0.8,1,0.6,2.4-0.6,3.2l-5.3,5.1c-1,0.9-2.1,0.3-2.9-0.3    c-1.9-2.1-4.8-3.7-8-3.7c-6.3,0-11.4,5.3-11.4,11.8c0,6.6,5,11.8,11.3,11.8c5,0,7.2-2.4,9.3-4.4c0.8-0.8,2-1,2.9-0.3l5,4.3    c1.2,0.9,1.6,2.1,0.8,3.2c-3.9,6.1-10.1,9.7-18.3,9.7c-13.1,0-24.6-10.4-24.6-24.4C310.2,645.1,321.9,634.5,334.9,634.5z"></path>
		<path class="st1" d="M363.2,637.8c0-1.3,1-2.2,2.2-2.2h4.4c1,0,1.7,0.6,2.1,1.5l1.6,4.5c1.6-2.3,5.9-7.2,13.1-7.2    c5.5,0,10.3,1.7,8.9,4.6l-4.3,7.5c-0.6,1-1.7,1.5-2.7,1c-0.3-0.1-2.1-0.7-3.4-0.7c-4.6,0-7.4,3.1-8.2,4.8v28.1    c0,1.6-1,2.2-2.7,2.2h-8.9c-1.2,0-2.2-1-2.2-2.2V637.8z"></path>
		<path class="st1" d="M422.6,634.5c13.1,0,23.8,11.1,23.8,24.2c0,13.3-10.7,24.5-23.8,24.5s-23.8-11.1-23.8-24.5    C398.8,645.6,409.5,634.5,422.6,634.5z M422.6,670.7c6.1,0,11.1-5.3,11.1-11.9c0-6.5-5-11.7-11.1-11.7c-6.3,0-11.1,5.2-11.1,11.7    C411.4,665.3,416.3,670.7,422.6,670.7z"></path>
		<path class="st1" d="M454.1,676.5l3.1-6.3c0.5-1.2,1.6-1.4,2.7-0.8c0,0,5.2,2.8,10.6,2.8c2.3,0,3.9-0.9,3.9-2.9    c0-2.1-1.6-3.4-7.8-5.8c-8.9-3.5-13.1-8.2-13.1-15.3s5.2-13.7,17.1-13.7c6.8,0,11.8,2,14.3,3.6c1,0.7,1.6,2,1,3.1l-2.9,5.9    c-0.6,1-1.9,1.2-2.8,0.8c0,0-5.2-2.4-9.6-2.4c-2.8,0-3.9,1.2-3.9,2.7c0,2.1,2.1,2.8,6.4,4.5c8.9,3.5,15.7,7.3,15.7,16.4    c0,7.7-6.7,14.2-18.4,14.2c-7.7,0-13-2.4-15.4-4.3C454.1,678.3,453.7,677.4,454.1,676.5z"></path>
		<path class="st1" d="M519.1,634.5c13.1,0,23.8,11.1,23.8,24.2c0,13.3-10.7,24.5-23.8,24.5s-23.8-11.1-23.8-24.5    C495.3,645.6,506,634.5,519.1,634.5z M519.1,670.7c6.1,0,11.1-5.3,11.1-11.9c0-6.5-5-11.7-11.1-11.7c-6.3,0-11.1,5.2-11.1,11.7    C507.9,665.3,512.8,670.7,519.1,670.7z"></path>
		<path class="st1" d="M556,647.8H552c-1.3,0-2.2-1-2.2-2.2v-7.8c0-1.3,0.9-2.2,2.2-2.2h3.9v-12.5c0-15.3,9.4-23.4,21.7-23.4    c6.1,0,11.6,2.7,13.7,4.5c0.7,0.6,0.9,1.9,0.5,2.7l-3.9,7.4c-0.5,0.9-1.7,1.2-2.8,0.6c-1.5-0.9-4.3-2.3-6.8-2.3    c-5,0-7.8,3.8-7.8,10.6v12.5h11.6c1.3,0,2.2,0.9,2.2,2.2v7.8c0,1.2-0.9,2.2-2.2,2.2h-11.6v32c0,1.2-1,2.2-2.2,2.2h-10.1    c-1.2,0-2.2-1-2.2-2.2V647.8z"></path>
		<path class="st1" d="M595.5,647.8h-3.9c-1.2,0-2.1-1-2.1-2.2v-7.8c0-1.3,0.9-2.2,2.1-2.2h3.9v-12.9c0-1.2,1-2.2,2.2-2.2l9.5-0.1    c1.2,0,2.1,1,2.1,2.2v13h10.2c1.3,0,2.2,0.9,2.2,2.2v7.8c0,1.2-0.9,2.2-2.2,2.2h-10.2v18.6c0,3.2,1.7,3.7,3.6,3.7    c2,0,4.4-0.8,5.7-1.3c1.3-0.5,2.2,0.1,2.6,1.3l2.3,7.3c0.5,1.2-0.1,2.3-1.3,2.8c-0.6,0.3-8.1,3-13.8,3c-8.9,0-12.9-5.6-12.9-15    V647.8z"></path>
		<path class="st1" d="M268.2,799l36.1-78.1c0.3-0.7,0.9-1.3,2-1.3h1.2c1.2,0,1.6,0.6,2,1.3l35.7,78.1c0.7,1.5-0.2,3-2,3h-10.1    c-1.7,0-2.6-0.7-3.4-2.3l-5.7-12.5h-34.7l-5.7,12.5c-0.5,1.2-1.5,2.3-3.4,2.3h-10.1C268.5,802,267.5,800.5,268.2,799z     M318.3,774.3l-11.6-25.5h-0.3L295,774.3H318.3z"></path>
		<path class="st1" d="M348.6,798.7l16.5-30.4V768h-13.2c-1.2,0-2.1-1-2.1-2.2v-8c0-1.3,0.9-2.2,2.1-2.2h30.6c1.7,0,2.9,1.6,2,3.1    l-16.8,30.6v0.3h12.5c1.3,0,2.2,0.9,2.2,2.2v7.9c0,1.2-0.9,2.2-2.2,2.2h-29.3c-1.2,0-2.2-1-2.2-2.2V798.7z"></path>
		<path class="st1" d="M393.7,757.8c0-1.3,1-2.2,2.2-2.2h9.5c1.2,0,2.2,0.9,2.2,2.2v22.9c0,6.1,3.1,10,8.5,10c4.9,0,8.6-4.5,9.3-8.7    v-24.1c0-1.7,0.7-2.2,2.6-2.2h8.8c1.2,0,2.2,0.9,2.2,2.2v42c0,1.2-1,2.2-2.2,2.2h-4.3c-1.2,0-1.9-0.8-2.2-1.7l-1.4-3.8    c-2.1,1.9-6.4,6.7-15.5,6.7c-14.4,0-19.6-11-19.6-22.9V757.8z"></path>
		<path class="st1" d="M452.9,757.8c0-1.3,1-2.2,2.2-2.2h4.4c1,0,1.7,0.6,2.1,1.5l1.6,4.5c1.6-2.3,5.9-7.2,13.1-7.2    c5.5,0,10.3,1.7,8.9,4.6l-4.3,7.5c-0.6,1-1.7,1.5-2.7,1c-0.3-0.1-2.1-0.7-3.4-0.7c-4.6,0-7.4,3.1-8.2,4.8v28.1    c0,1.6-1,2.2-2.7,2.2h-8.9c-1.2,0-2.2-1-2.2-2.2V757.8z"></path>
		<path class="st1" d="M512.3,754.5c11.9,0,21.7,9,21.7,21.6c0,0.8-0.1,2.3-0.2,3.1c-0.1,1.2-1.2,2-2.2,2h-29.7    c0.3,4.8,4.4,10.1,11.1,10.1c3.6,0,7-1.4,9-2.9c1.2-0.7,2.2-0.9,3,0l4.8,5.5c0.8,0.8,1,2.1-0.1,3c-3.8,3.6-9.7,6.4-17.3,6.4    c-13.9,0-23.8-11-23.8-24.4C488.6,765.7,498.5,754.5,512.3,754.5z M520.4,773c-0.3-4.3-4.1-7.9-8.5-7.9c-4.6,0-8.5,3.5-9,7.9    H520.4z"></path>
	</g>
</g>
<g>
	<g>
		<g>
			<path class="st2" d="M568.4,112.3c-45.1-45.1-105.1-69.9-168.8-69.9s-123.7,24.8-168.8,69.9s-69.9,105.1-69.9,168.8     c0,63.8,24.8,123.7,69.9,168.8s105.1,69.9,168.8,69.9s123.7-24.8,168.8-69.9s69.9-105,69.9-168.8S613.5,157.4,568.4,112.3z      M399.6,502.5c-122.1,0-221.4-99.3-221.4-221.4S277.5,59.7,399.6,59.7S621,159,621,281.1S521.7,502.5,399.6,502.5z"></path>
		</g>
	</g>
	<path class="st2" d="M387,370.8l79.6-14.1l0.7-0.2l-40.9-48.7c-13.7-16.3-27.4-32.6-40.9-48.9c0-0.2,42.3-116.7,42.5-117.1   c0.1-0.1,28.9,49.5,69.8,120.4L568,383.8l0.5,0.9H438.3H308.1L387,370.8L387,370.8z M230.8,355.9c0-0.1,19.3-33.6,42.9-74.5   l42.9-74.3l50-41.9c27.5-23.1,50-42,50.1-42c-0.2,0.7-0.5,1.4-0.8,2l-54.3,116.4l-53.3,114.3l-38.8,0.1   C248.2,356,230.8,356,230.8,355.9L230.8,355.9z"></path>
</g>
</svg>
