<?xml version="1.0" encoding="UTF-8"?>
<!-- Generator: Adobe Illustrator 28.0.0, SVG Export Plug-In . SVG Version: 6.00 Build 0)  -->
<svg xmlns="http://www.w3.org/2000/svg" xmlns:xlink="http://www.w3.org/1999/xlink" version="1.1" id="Layer_1" x="0px" y="0px" viewBox="0 0 801.2 831.3" style="enable-background:new 0 0 801.2 831.3;" xml:space="preserve">
<style type="text/css">
	.st0{opacity:0.39;enable-background:new    ;}
	.st1{fill:#FFFFFF;}
	.st2{fill-rule:evenodd;clip-rule:evenodd;fill:#5F96CE;}
	.st3{fill:#054E86;}
	.st4{fill:#0062A1;}
</style>
<ellipse class="st0" cx="401" cy="286.1" rx="262.8" ry="266.3"></ellipse>
<circle class="st1" cx="401" cy="278.3" r="261.4"></circle>
<g>
	<g>
		<g>
			<path class="st2" d="M400.6,234.4c-25,0-45.2,20.2-45.2,45.2c0,8.2,2.2,15.8,6,22.4l78.3-45.1     C431.9,243.5,417.3,234.4,400.6,234.4z"></path>
			<path class="st2" d="M309.8,279.6c0-50.1,40.6-90.8,90.8-90.8c33.6,0,62.9,18.2,78.6,45.3l54.7-31.5c-2.2-3.9-5.5-7.1-9.9-9.6     c-36.4-21-72.8-41.9-109.2-62.9c-9.8-5.7-19.3-5.5-29,0.3c-14.5,8.5-87,50.1-108.6,62.6c-8.9,5.2-13.2,13-13.2,23.3     c0,42.2,0,84.4,0,126.6c0,5.1,1.1,9.5,3.2,13.4l54.7-31.5C314.2,311.5,309.8,296,309.8,279.6z"></path>
		</g>
		<g>
			<path class="st3" d="M361.4,302c7.8,13.6,22.4,22.8,39.2,22.8c16.9,0,31.6-9.3,39.4-23l-39-22.6L361.4,302z"></path>
			<path class="st3" d="M400.6,370.4c-33.7,0-63.1-18.3-78.7-45.6l-54.7,31.5c2.2,4,5.5,7.3,10,9.9c21.6,12.5,94.1,54.1,108.6,62.6     c9.7,5.7,19.2,6,29.1,0.3c36.4-21,72.8-41.9,109.2-62.9c4.5-2.6,7.8-5.9,10-9.9l-54.6-31.7C463.8,351.9,434.3,370.4,400.6,370.4z     "></path>
		</g>
		<path class="st4" d="M537.2,216.3c0-5.2-1.1-9.7-3.3-13.6L401,279.2l133.1,77.1c2.1-3.9,3.2-8.3,3.2-13.4    C537.3,342.9,537.3,258.5,537.2,216.3z M492,284.7h-10.4v10.4h-10.4v-10.4h-10.4v-10.4h10.4v-10.4h10.4v10.4H492V284.7z     M529.9,284.7h-10.4v10.4h-10.4v-10.4h-10.4v-10.4h10.4v-10.4h10.4v10.4h10.4V284.7z"></path>
		<g>
			<polygon class="st1" points="519.5,263.9 509.1,263.9 509.1,274.3 498.7,274.3 498.7,284.7 509.1,284.7 509.1,295.1 519.5,295.1      519.5,284.7 529.9,284.7 529.9,274.3 519.5,274.3    "></polygon>
			<polygon class="st1" points="481.6,263.9 471.2,263.9 471.2,274.3 460.8,274.3 460.8,284.7 471.2,284.7 471.2,295.1 481.6,295.1      481.6,284.7 492,284.7 492,274.3 481.6,274.3    "></polygon>
			<path class="st1" d="M440,301.8c-7.8,13.7-22.5,23-39.4,23c-16.8,0-31.4-9.2-39.2-22.8c-3.8-6.6-6-14.3-6-22.4     c0-25,20.2-45.2,45.2-45.2c16.7,0,31.3,9.1,39.1,22.5l39.5-22.7c-15.7-27.1-45-45.3-78.6-45.3c-50.1,0-90.8,40.6-90.8,90.8     c0,16.4,4.4,31.9,12,45.2c15.7,27.2,45.1,45.6,78.7,45.6c33.7,0,63.2-18.4,78.8-45.8L440,301.8z"></path>
		</g>
	</g>
	<g>
		<g>
			<path class="st3" d="M569.4,110.8c-45.1-45.1-105.1-69.9-168.8-69.9s-123.7,24.8-168.8,69.9s-69.9,105.1-69.9,168.8     c0,63.8,24.8,123.7,69.9,168.8s105.1,69.9,168.8,69.9s123.7-24.8,168.8-69.9s69.9-105,69.9-168.8S614.5,155.9,569.4,110.8z      M400.6,501c-122.1,0-221.4-99.3-221.4-221.4S278.5,58.2,400.6,58.2S622,157.5,622,279.6S522.7,501,400.6,501z"></path>
		</g>
	</g>
</g>
<g>
	<path class="st1" d="M347.6,599.7c11.7,0,20.2,3.7,28.1,10.8c1,0.9,1,2.3,0.1,3.2l-7.1,7.3c-0.8,0.9-2,0.9-2.9,0   c-4.9-4.3-11.4-6.8-17.9-6.8c-14.8,0-25.9,12.4-25.9,27c0,14.5,11.1,26.8,26,26.8c7,0,12.9-2.7,17.7-6.6c0.9-0.8,2.2-0.7,2.9,0   l7.2,7.4c0.9,0.8,0.7,2.3-0.1,3.1c-7.9,7.7-17.9,11.3-28.2,11.3c-23.2,0-41.9-18.4-41.9-41.6C305.8,618.4,324.4,599.7,347.6,599.7z   "></path>
	<path class="st1" d="M405.1,648.2h-16.9c-1.2,0-2.2-1-2.2-2.2v-8.1c0-1.2,1-2.2,2.2-2.2h16.9v-17.1c0-1.2,1-2.1,2.2-2.1h8.1   c1.2,0,2.2,0.9,2.2,2.1v17.1h17.1c1.2,0,2.1,1,2.1,2.2v8.1c0,1.2-0.9,2.2-2.1,2.2h-17.1v16.9c0,1.2-1,2.1-2.2,2.1h-8.1   c-1.2,0-2.2-0.9-2.2-2.1V648.2z"></path>
	<path class="st1" d="M466.8,648.2h-16.9c-1.2,0-2.2-1-2.2-2.2v-8.1c0-1.2,1-2.2,2.2-2.2h16.9v-17.1c0-1.2,1-2.1,2.2-2.1h8.1   c1.2,0,2.2,0.9,2.2,2.1v17.1h17.1c1.2,0,2.1,1,2.1,2.2v8.1c0,1.2-0.9,2.2-2.1,2.2h-17.1v16.9c0,1.2-1,2.1-2.2,2.1H469   c-1.2,0-2.2-0.9-2.2-2.1V648.2z"></path>
</g>
</svg>
