<?xml version="1.0" encoding="UTF-8"?>
<!-- Generator: Adobe Illustrator 28.0.0, SVG Export Plug-In . SVG Version: 6.00 Build 0)  -->
<svg xmlns="http://www.w3.org/2000/svg" xmlns:xlink="http://www.w3.org/1999/xlink" version="1.1" id="Layer_1" x="0px" y="0px" viewBox="0 0 801.2 831.3" style="enable-background:new 0 0 801.2 831.3;" xml:space="preserve">
<style type="text/css">
	.st0{opacity:0.39;enable-background:new    ;}
	.st1{fill:#FFFFFF;}
	.st2{fill:#4DA8DC;}
</style>
<g id="Layer_1_1_">
	<ellipse class="st0" cx="401" cy="286.1" rx="262.8" ry="266.3"></ellipse>
	<circle class="st1" cx="401" cy="278.3" r="261.4"></circle>
</g>
<g>
	<path class="st1" d="M316.2,599.7c11.7,0,20.2,3.7,28.1,10.8c1,0.9,1,2.3,0.1,3.2l-7.1,7.3c-0.8,0.9-2,0.9-2.9,0   c-4.9-4.3-11.4-6.8-17.9-6.8c-14.8,0-25.9,12.4-25.9,27c0,14.5,11.1,26.8,26,26.8c7,0,12.9-2.7,17.7-6.6c0.9-0.8,2.2-0.7,2.9,0   l7.2,7.4c0.9,0.8,0.7,2.3-0.1,3.1c-7.9,7.7-17.9,11.3-28.2,11.3c-23.2,0-41.9-18.4-41.9-41.6C274.3,618.4,293,599.7,316.2,599.7z"></path>
	<path class="st1" d="M354.8,670.7l4.2-7.2c0.9-1.6,2.9-1.6,3.9-0.8c0.6,0.3,10,7.2,17.5,7.2c6,0,10.6-3.9,10.6-8.9   c0-5.9-5-10-14.7-13.9c-10.9-4.4-21.8-11.4-21.8-25.1c0-10.3,7.7-22.3,26.1-22.3c11.8,0,20.9,6,23.2,7.8c1.2,0.7,1.5,2.7,0.7,3.8   l-4.4,6.6c-0.9,1.4-2.7,2.3-4.1,1.4c-0.9-0.6-9.7-6.4-16.1-6.4c-6.6,0-10.2,4.4-10.2,8.1c0,5.5,4.3,9.2,13.7,13   c11.3,4.5,24.2,11.3,24.2,26.2c0,11.9-10.3,23-26.7,23c-14.6,0-23.2-6.8-25.5-9C354.4,673.1,353.8,672.5,354.8,670.7z"></path>
	<path class="st1" d="M417.7,670.7l4.2-7.2c0.9-1.6,2.9-1.6,3.9-0.8c0.6,0.3,10,7.2,17.5,7.2c6,0,10.6-3.9,10.6-8.9   c0-5.9-5-10-14.7-13.9c-10.9-4.4-21.8-11.4-21.8-25.1c0-10.3,7.7-22.3,26.1-22.3c11.8,0,20.9,6,23.2,7.8c1.2,0.7,1.5,2.7,0.7,3.8   l-4.4,6.6c-0.9,1.4-2.7,2.3-4.1,1.4c-0.9-0.6-9.7-6.4-16.1-6.4c-6.6,0-10.2,4.4-10.2,8.1c0,5.5,4.3,9.2,13.7,13   c11.3,4.5,24.2,11.3,24.2,26.2c0,11.9-10.3,23-26.7,23c-14.6,0-23.2-6.8-25.5-9C417.2,673.1,416.7,672.5,417.7,670.7z"></path>
	<path class="st1" d="M479.1,670l5.9-5.7c1-0.9,2.1-0.9,3,0c0.3,0.5,7.2,6.3,14.3,6.3c6.3,0,12.3-4.5,12.3-10.9   c0-6-5.6-11.5-16-11.5H492c-1.3,0-2.2-0.9-2.2-2.3v-7.3c0-1.5,0.8-2.3,2.2-2.3h6.5c9.5,0,14.4-4.8,14.4-10.7   c0-6.4-5.3-10.7-11.3-10.7c-6,0-9.7,3.2-11.7,5.6c-0.8,0.9-2.1,1-3.1,0.1l-5.7-5.3c-0.9-0.8-0.8-2.2,0-3c0,0,8.8-10.2,21.8-10.2   c13.5,0,24.7,8.2,24.7,21.2c0,8.9-6.7,15.7-11.9,18.1v0.3c5.5,2.3,14,8.6,14,18.9c0,13.1-10.7,22.6-26.7,22.6   c-14.5,0-21.6-7.3-24.1-10.3C478.2,672.1,478.4,670.8,479.1,670z"></path>
</g>
<g id="Layer_2_1_">
	<path class="st2" d="M400.6,39.5c-131.9,0-238.8,106.9-238.8,238.8s106.9,238.8,238.8,238.8s238.8-106.9,238.8-238.8   S532.5,39.5,400.6,39.5z M492.1,357.2l-119,39.5l-103.3-39.5l10.5-52.7h44l-4.3,21.8l62.5,23.8l71.9-23.8l10.1-50.2H285.6l8.6-44   h179l5.6-28.3H299.9l8.7-44h222.8L492.1,357.2z"></path>
</g>
</svg>
