<?xml version="1.0" encoding="UTF-8"?>
<!-- Generator: Adobe Illustrator 28.0.0, SVG Export Plug-In . SVG Version: 6.00 Build 0)  -->
<svg xmlns="http://www.w3.org/2000/svg" xmlns:xlink="http://www.w3.org/1999/xlink" version="1.1" id="Layer_1" x="0px" y="0px" viewBox="0 0 801.2 831.3" style="enable-background:new 0 0 801.2 831.3;" xml:space="preserve">
<style type="text/css">
	.st0{opacity:0.39;enable-background:new    ;}
	.st1{fill:#FFFFFF;}
	.st2{fill:#23262E;}
</style>
<g id="Layer_1_00000175309585603884489280000014239297855855849862_">
	<ellipse class="st0" cx="401" cy="286.1" rx="262.8" ry="266.3"></ellipse>
	<circle class="st1" cx="401" cy="278.3" r="261.4"></circle>
</g>
<g id="Layer_2_00000158027287057166041760000001818717506177405845_">
	<path class="st2" d="M400.6,39.5c-131.9,0-238.8,106.9-238.8,238.8s106.9,238.8,238.8,238.8s238.8-106.9,238.8-238.8   S532.5,39.5,400.6,39.5z M334.1,335.1c16.2,0,26.8-4.1,35.5-7.9l5.1-2.2l7.2,31.7l-3.1,1.6c-9,4.7-27.6,10.2-50.3,10.2   c-52.7,0-88-36.2-88-90.1c0-55.1,38.9-93.6,94.6-93.6c19.2,0,35.9,4.9,44.3,9.1l3.4,1.7l-9.6,32.8l-5-2.9c-5.9-3.4-16.4-7.4-33-7.4   c-33.2,0-54.6,23.1-54.6,58.8C280.5,311.7,302.1,335.1,334.1,335.1z M512.6,313.9c-20.5,53.9-35.9,86.9-58.8,106.7   c-18,15.9-34.8,19.9-39.6,20.8l-4.1,0.7L400,408.2l4.3-1.4c4.1-1.3,14.8-5.3,25.1-14c9.7-7.7,18.8-19.8,24.4-32.3   c0.7-1.6,2-4.5,2-5.4c0-1.4-1.3-5-1.8-6.4l-64.5-160.6h43.2l37.8,102c2.3,6.8,4.7,14.1,6.8,20.9c2-6.8,4.3-14.3,6.7-21.5   l34.3-101.4h42.2L512.6,313.9z"></path>
</g>
<g>
	<path class="st1" d="M267.8,599.7c11.7,0,20.2,3.7,28.1,10.8c1,0.9,1,2.3,0.1,3.2l-7.1,7.3c-0.8,0.9-2,0.9-2.9,0   c-4.9-4.3-11.4-6.8-17.9-6.8c-14.8,0-25.9,12.4-25.9,27c0,14.5,11.1,26.8,26,26.8c7,0,12.9-2.7,17.7-6.6c0.9-0.8,2.2-0.7,2.9,0   l7.2,7.4c0.9,0.8,0.7,2.3-0.1,3.1c-7.9,7.7-17.9,11.3-28.2,11.3c-23.2,0-41.9-18.4-41.9-41.6C225.9,618.4,244.6,599.7,267.8,599.7z   "></path>
	<path class="st1" d="M297.7,638.7c-0.7-1.5,0.2-3,2-3h10.4c1,0,1.6,0.6,2,1.3l11.7,26.2h0.1l11.6-26.2c0.6-1.2,1.4-1.3,2.8-1.3h9.3   c1.9,0,2.8,1.5,2,3l-35.5,76.8c-0.3,0.7-1,1.4-2,1.4h-10c-1.7,0-2.8-1.5-2-3.1l16.5-34.9L297.7,638.7z"></path>
	<path class="st1" d="M371.7,714.6c0,1.4-0.7,2.2-2.8,2.2h-9.3c-1.2,0-2.2-1-2.2-2.2v-76.8c0-1.3,1-2.2,2.2-2.2h4.5   c0.8,0,1.6,0.5,2,1.4l1.5,3.8c1.7-2.3,7.4-6.4,15-6.4c12.8,0,22.4,11,22.4,24.4c0,13.7-10.4,24.4-23,24.4c-4.5,0-8.7-1.6-10.3-2.6   V714.6z M380.2,670.7c6.5,0,11.3-5.3,11.3-11.8S387,647,380.6,647c-5.9,0-8.8,4.6-9.5,7.1V668C371.1,668,374.4,670.7,380.2,670.7z"></path>
	<path class="st1" d="M415.4,637.8c0-1.3,1-2.2,2.2-2.2h4.4c1,0,1.7,0.6,2.1,1.5l1.6,4.5c1.6-2.3,5.9-7.2,13.1-7.2   c5.5,0,10.3,1.7,8.9,4.6l-4.3,7.5c-0.6,1-1.7,1.5-2.7,1c-0.3-0.1-2.1-0.7-3.4-0.7c-4.6,0-7.4,3.1-8.2,4.8v28.1c0,1.6-1,2.2-2.7,2.2   h-8.9c-1.2,0-2.2-1-2.2-2.2V637.8z"></path>
	<path class="st1" d="M474.8,634.5c11.9,0,21.7,9,21.7,21.6c0,0.8-0.1,2.3-0.2,3.1c-0.1,1.2-1.2,2-2.2,2h-29.7   c0.3,4.8,4.4,10.1,11.1,10.1c3.6,0,7-1.4,9-2.9c1.2-0.7,2.2-0.9,3,0l4.8,5.5c0.8,0.8,1,2.1-0.1,3c-3.8,3.6-9.7,6.4-17.3,6.4   c-13.9,0-23.8-11-23.8-24.4C451.2,645.7,461,634.5,474.8,634.5z M482.9,653c-0.3-4.3-4.1-7.9-8.5-7.9c-4.6,0-8.5,3.5-9,7.9H482.9z"></path>
	<path class="st1" d="M503.7,676.5l3.1-6.3c0.5-1.2,1.6-1.4,2.7-0.8c0,0,5.2,2.8,10.6,2.8c2.3,0,3.9-0.9,3.9-2.9   c0-2.1-1.6-3.4-7.8-5.8c-8.9-3.5-13.1-8.2-13.1-15.3s5.2-13.7,17.1-13.7c6.8,0,11.8,2,14.3,3.6c1,0.7,1.6,2,1,3.1l-2.9,5.9   c-0.6,1-1.9,1.2-2.8,0.8c0,0-5.2-2.4-9.6-2.4c-2.8,0-3.9,1.2-3.9,2.7c0,2.1,2.1,2.8,6.4,4.5c8.9,3.5,15.7,7.3,15.7,16.4   c0,7.7-6.7,14.2-18.4,14.2c-7.7,0-13-2.4-15.4-4.3C503.7,678.3,503.2,677.4,503.7,676.5z"></path>
	<path class="st1" d="M545.9,676.5l3.1-6.3c0.5-1.2,1.6-1.4,2.7-0.8c0,0,5.2,2.8,10.6,2.8c2.3,0,3.9-0.9,3.9-2.9   c0-2.1-1.6-3.4-7.8-5.8c-8.9-3.5-13.1-8.2-13.1-15.3s5.2-13.7,17.1-13.7c6.8,0,11.8,2,14.3,3.6c1,0.7,1.6,2,1,3.1l-2.9,5.9   c-0.6,1-1.9,1.2-2.8,0.8c0,0-5.2-2.4-9.6-2.4c-2.8,0-3.9,1.2-3.9,2.7c0,2.1,2.1,2.8,6.4,4.5c8.9,3.5,15.7,7.3,15.7,16.4   c0,7.7-6.7,14.2-18.4,14.2c-7.7,0-13-2.4-15.4-4.3C545.9,678.3,545.5,677.4,545.9,676.5z"></path>
</g>
</svg>
