<?xml version="1.0" encoding="UTF-8"?>
<!-- Generator: Adobe Illustrator 28.0.0, SVG Export Plug-In . SVG Version: 6.00 Build 0)  -->
<svg xmlns="http://www.w3.org/2000/svg" xmlns:xlink="http://www.w3.org/1999/xlink" version="1.1" id="Layer_1" x="0px" y="0px" viewBox="0 0 801.2 831.3" style="enable-background:new 0 0 801.2 831.3;" xml:space="preserve">
<style type="text/css">
	.st0{opacity:0.39;enable-background:new    ;}
	.st1{fill:#FFFFFF;}
	.st2{fill-rule:evenodd;clip-rule:evenodd;fill:#253338;}
	.st3{fill-rule:evenodd;clip-rule:evenodd;fill:#394D55;}
	.st4{fill:#01A9D9;}
	.st5{fill:#29B7EA;}
	.st6{fill:#038AB8;}
	.st7{fill:#009AC5;}
	.st8{fill-rule:evenodd;clip-rule:evenodd;fill:#00ABD3;}
	.st9{fill-rule:evenodd;clip-rule:evenodd;fill:#21C2EE;}
	.st10{fill-rule:evenodd;clip-rule:evenodd;fill:#D3ECF0;}
	.st11{fill:#BFDBE0;}
	.st12{fill:#D3ECF0;}
</style>
<g id="Layer_1_1_">
	<ellipse class="st0" cx="401" cy="286.1" rx="262.8" ry="266.3"></ellipse>
	<circle class="st1" cx="401" cy="278.3" r="261.4"></circle>
</g>
<g id="Layer_2_1_">
	<g>
		<ellipse class="st2" cx="400.6" cy="279.9" rx="238.8" ry="238.8"></ellipse>
		<g>
			<path id="outline_1_" class="st3" d="M431.3,238.9h35.2v36h17.8c8.2,0,16.7-1.5,24.4-4.1c3.8-1.3,8.1-3.1,11.9-5.4     c-5-6.5-7.5-14.7-8.2-22.7c-1-11,1.2-25.3,8.6-33.9l3.7-4.3l4.4,3.5c11.1,8.9,20.4,21.4,22.1,35.6c13.4-3.9,29-3,40.8,3.8     l4.8,2.8l-2.5,5c-10,19.4-30.8,25.5-51.1,24.4c-30.5,75.9-96.8,111.8-177.2,111.8c-41.5,0-79.7-15.5-101.4-52.4l-0.4-0.6L261,332     c-7.3-16.2-9.8-34-8.1-51.8l0.5-5.3h30.1v-36h35.2v-35.2h70.4v-35.2h42.2L431.3,238.9L431.3,238.9z"></path>
			<g id="body_colors_1_">
				<path class="st4" d="M545.3,252.2c2.4-18.3-11.4-32.7-19.9-39.6c-9.8,11.3-11.3,41,4.1,53.6c-8.6,7.6-26.7,14.5-45.2,14.5H258.8      c-1.8,19.3,1.6,37.1,9.3,52.4l2.6,4.7c1.6,2.8,3.4,5.4,5.3,8l0,0c9.3,0.6,17.8,0.8,25.6,0.6l0,0c15.4-0.3,27.9-2.2,37.4-5.4      c1.4-0.5,3,0.3,3.4,1.7c0.5,1.4-0.3,3-1.7,3.4c-1.3,0.4-2.6,0.8-3.9,1.2l0,0c-7.5,2.1-15.5,3.6-25.9,4.2c0.6,0-0.6,0.1-0.6,0.1      c-0.4,0-0.8,0.1-1.1,0.1c-4.1,0.2-8.5,0.3-13,0.3c-4.9,0-9.8-0.1-15.2-0.4l-0.1,0.1c18.8,21.1,48.2,33.8,85,33.8      c77.9,0,144-34.5,173.3-112.1c20.8,2.1,40.7-3.2,49.8-20.9C574.6,244.1,556,246.8,545.3,252.2z"></path>
				<path class="st5" d="M545.3,252.2c2.4-18.3-11.4-32.7-19.9-39.6c-9.8,11.3-11.3,41,4.1,53.6c-8.6,7.6-26.7,14.5-45.2,14.5H272.1      c-0.9,29.6,10.1,52.1,29.5,65.7l0,0c15.4-0.3,27.9-2.2,37.4-5.4c1.4-0.5,3,0.3,3.4,1.7c0.5,1.4-0.3,3-1.7,3.4      c-1.3,0.4-2.6,0.8-3.9,1.2l0,0c-7.5,2.1-16.2,3.8-26.5,4.4l-0.3-0.2c26.5,13.6,65,13.6,109.1-3.4c49.4-19,95.4-55.2,127.5-96.6      C546.2,251.7,545.8,251.9,545.3,252.2z"></path>
				<path class="st6" d="M259.2,304.2c1.4,10.4,4.4,20.1,8.9,28.9l2.6,4.7c1.6,2.8,3.4,5.4,5.3,8c9.3,0.6,17.8,0.8,25.6,0.6      c15.4-0.3,27.9-2.2,37.4-5.4c1.4-0.5,3,0.3,3.4,1.7c0.5,1.4-0.3,3-1.7,3.4c-1.3,0.4-2.6,0.8-3.9,1.2l0,0      c-7.5,2.1-16.2,3.7-26.5,4.3c-0.4,0-1,0-1.3,0c-4.1,0.2-8.4,0.4-12.9,0.4c-4.9,0-9.9-0.1-15.4-0.4      c18.8,21.1,48.3,33.8,85.2,33.8c66.7,0,124.8-25.3,158.5-81.3L259.2,304.2L259.2,304.2z"></path>
				<path class="st7" d="M274.2,304.2c4,18.2,13.6,32.5,27.5,42.2c15.4-0.3,27.9-2.2,37.4-5.4c1.4-0.5,3,0.3,3.4,1.7      c0.5,1.4-0.3,3-1.7,3.4c-1.3,0.4-2.6,0.8-3.9,1.2l0,0c-7.5,2.1-16.3,3.7-26.7,4.3c26.5,13.6,64.9,13.4,109-3.5      c26.7-10.2,52.3-25.5,75.4-43.9L274.2,304.2L274.2,304.2z"></path>
			</g>
			<g id="Containers_1_">
				<path class="st8" d="M314.9,247.3h2.4v25.4h-2.4V247.3z M310.3,247.3h2.5v25.4h-2.5V247.3z M305.7,247.3h2.5v25.4h-2.5V247.3z       M301.1,247.3h2.5v25.4h-2.5V247.3z M296.5,247.3h2.5v25.4h-2.5V247.3z M291.9,247.3h2.4v25.4h-2.4V247.3z M289.4,244.7h30.5      v30.5h-30.5V244.7z"></path>
				<path class="st8" d="M350.1,212.1h2.4v25.4h-2.4V212.1z M345.5,212.1h2.5v25.4h-2.5V212.1z M340.9,212.1h2.5v25.4h-2.5V212.1z       M336.3,212.1h2.5v25.4h-2.5V212.1z M331.6,212.1h2.5v25.4h-2.5V212.1z M327.1,212.1h2.4v25.4h-2.4V212.1z M324.6,209.5h30.5      V240h-30.5V209.5z"></path>
				<path class="st9" d="M350.1,247.3h2.4v25.4h-2.4V247.3z M345.5,247.3h2.5v25.4h-2.5V247.3z M340.9,247.3h2.5v25.4h-2.5V247.3z       M336.3,247.3h2.5v25.4h-2.5V247.3z M331.6,247.3h2.5v25.4h-2.5V247.3z M327.1,247.3h2.4v25.4h-2.4V247.3z M324.6,244.7h30.5      v30.5h-30.5V244.7z"></path>
				<path class="st8" d="M385.3,247.3h2.4v25.4h-2.4V247.3z M380.7,247.3h2.5v25.4h-2.5V247.3z M376.1,247.3h2.5v25.4h-2.5V247.3z       M371.5,247.3h2.5v25.4h-2.5V247.3z M366.8,247.3h2.5v25.4h-2.5V247.3z M362.3,247.3h2.4v25.4h-2.4V247.3z M359.8,244.7h30.5      v30.5h-30.5V244.7z"></path>
				<path class="st9" d="M385.3,212.1h2.4v25.4h-2.4V212.1z M380.7,212.1h2.5v25.4h-2.5V212.1z M376.1,212.1h2.5v25.4h-2.5V212.1z       M371.5,212.1h2.5v25.4h-2.5V212.1z M366.8,212.1h2.5v25.4h-2.5V212.1z M362.3,212.1h2.4v25.4h-2.4V212.1z M359.8,209.5h30.5      V240h-30.5V209.5z"></path>
				<path class="st9" d="M420.5,247.3h2.4v25.4h-2.4V247.3z M415.9,247.3h2.5v25.4h-2.5V247.3z M411.3,247.3h2.5v25.4h-2.5V247.3z       M406.6,247.3h2.5v25.4h-2.5V247.3z M402,247.3h2.5v25.4H402V247.3z M397.5,247.3h2.4v25.4h-2.4V247.3z M395,244.7h30.5v30.5      H395V244.7z"></path>
				<path class="st8" d="M420.5,212.1h2.4v25.4h-2.4V212.1z M415.9,212.1h2.5v25.4h-2.5V212.1z M411.3,212.1h2.5v25.4h-2.5V212.1z       M406.6,212.1h2.5v25.4h-2.5V212.1z M402,212.1h2.5v25.4H402V212.1z M397.5,212.1h2.4v25.4h-2.4V212.1z M395,209.5h30.5V240H395      V209.5z"></path>
				<path class="st9" d="M420.5,176.9h2.4v25.4h-2.4V176.9z M415.9,176.9h2.5v25.4h-2.5V176.9z M411.3,176.9h2.5v25.4h-2.5V176.9z       M406.6,176.9h2.5v25.4h-2.5V176.9z M402,176.9h2.5v25.4H402V176.9z M397.5,176.9h2.4v25.4h-2.4V176.9z M395,174.3h30.5v30.5      H395V174.3z"></path>
				<path class="st8" d="M455.7,247.3h2.4v25.4h-2.4V247.3z M451.1,247.3h2.5v25.4h-2.5V247.3z M446.4,247.3h2.5v25.4h-2.5V247.3z       M441.8,247.3h2.5v25.4h-2.5V247.3z M437.2,247.3h2.5v25.4h-2.5V247.3z M432.7,247.3h2.4v25.4h-2.4V247.3z M430.1,244.7h30.5      v30.5h-30.5V244.7z"></path>
			</g>
			<path class="st10" d="M353.2,324.6c4.6,0,8.4,3.8,8.4,8.4s-3.8,8.4-8.4,8.4s-8.4-3.8-8.4-8.4     C344.8,328.4,348.5,324.6,353.2,324.6"></path>
			<path class="st3" d="M353.2,327c0.8,0,1.5,0.1,2.2,0.4c-0.7,0.4-1.2,1.2-1.2,2.1c0,1.4,1.1,2.5,2.5,2.5c0.9,0,1.7-0.5,2.2-1.3     c0.3,0.7,0.5,1.5,0.5,2.3c0,3.3-2.7,6-6,6s-6-2.7-6-6C347.1,329.7,349.8,327,353.2,327"></path>
			<path class="st3" d="M204.4,307.2h184.3h22.8h184.3c-8.5-2.2-27-5.1-23.9-16.2c-15.5,17.9-52.9,12.6-62.3,3.7     c-10.5,15.2-71.6,9.4-75.9-2.4c-13.2,15.4-54,15.4-67.1,0c-4.3,11.9-65.4,17.7-75.9,2.4c-9.4,8.8-46.8,14.2-62.3-3.7     C231.3,302.1,212.9,305.1,204.4,307.2"></path>
			<path class="st11" d="M375.5,385.3c-20.8-9.9-32.3-23.3-38.6-38c-7.7,2.2-17,3.6-27.8,4.2c-4.1,0.2-8.4,0.3-12.9,0.3     c-5.2,0-10.6-0.2-16.4-0.5c19.1,19.1,42.6,33.8,86.1,34.1C369.2,385.5,372.4,385.4,375.5,385.3z"></path>
			<path class="st12" d="M344.6,360.8c-2.9-3.9-5.7-8.8-7.7-13.5c-7.7,2.2-17,3.6-27.9,4.2C316.5,355.5,327.1,359.3,344.6,360.8z"></path>
		</g>
	</g>
</g>
<g>
	<path class="st1" d="M245.7,603c0-1.2,0.9-2.2,2.1-2.2h27.5c22.4,0,40.7,18.2,40.7,40.5c0,22.5-18.3,40.7-40.7,40.7h-27.5   c-1.2,0-2.1-1-2.1-2.2V603z M273.9,667.9c15.1,0,26.1-11.4,26.1-26.6c0-15.1-11-26.4-26.1-26.4h-13.2v53H273.9z"></path>
	<path class="st1" d="M346.3,634.5c13.1,0,23.8,11.1,23.8,24.2c0,13.3-10.7,24.5-23.8,24.5c-13.1,0-23.8-11.1-23.8-24.5   C322.5,645.6,333.2,634.5,346.3,634.5z M346.3,670.7c6.1,0,11.1-5.3,11.1-11.9c0-6.5-5-11.7-11.1-11.7c-6.3,0-11.1,5.2-11.1,11.7   C335.2,665.3,340,670.7,346.3,670.7z"></path>
	<path class="st1" d="M401.5,634.5c7.2,0,12.8,2.9,17.2,8.2c0.8,1,0.6,2.4-0.6,3.2l-5.3,5.1c-1,0.9-2.1,0.3-2.9-0.3   c-1.9-2.1-4.8-3.7-8-3.7c-6.3,0-11.4,5.3-11.4,11.8c0,6.6,5,11.8,11.3,11.8c5,0,7.2-2.4,9.3-4.4c0.8-0.8,2-1,2.9-0.3l5,4.3   c1.2,0.9,1.6,2.1,0.8,3.2c-3.9,6.1-10.1,9.7-18.3,9.7c-13.1,0-24.6-10.4-24.6-24.4C376.8,645.1,388.5,634.5,401.5,634.5z"></path>
	<path class="st1" d="M429.8,603c0-1.2,1-2.2,2.2-2.2h9.9c1.2,0,2.2,1,2.2,2.2v50.2l16-16.2c0.8-0.7,1.6-1.4,2.9-1.4h10.6   c2,0,2.7,2.1,1.5,3.4l-17.3,17.6l20.6,22.2c1.2,1.3,0.5,3.2-1.5,3.2h-12.5c-0.7,0-1.6-0.5-2-0.9l-18.3-20.9v19.6   c0,1.2-1,2.2-2.2,2.2H432c-1.2,0-2.2-1-2.2-2.2V603z"></path>
	<path class="st1" d="M505.8,634.5c11.9,0,21.7,9,21.7,21.6c0,0.8-0.1,2.3-0.2,3.1c-0.1,1.2-1.2,2-2.2,2h-29.7   c0.3,4.8,4.4,10.1,11.1,10.1c3.6,0,7-1.4,9-2.9c1.2-0.7,2.2-0.9,3,0l4.8,5.5c0.8,0.8,1,2.1-0.1,3c-3.8,3.6-9.7,6.4-17.3,6.4   c-13.9,0-23.8-11-23.8-24.4C482.1,645.7,492,634.5,505.8,634.5z M513.9,653c-0.3-4.3-4.1-7.9-8.5-7.9c-4.6,0-8.5,3.5-9,7.9H513.9z"></path>
	<path class="st1" d="M537.2,637.8c0-1.3,1-2.2,2.2-2.2h4.4c1,0,1.7,0.6,2.1,1.5l1.6,4.5c1.6-2.3,5.9-7.2,13.1-7.2   c5.5,0,10.3,1.7,8.9,4.6l-4.3,7.5c-0.6,1-1.7,1.5-2.7,1c-0.3-0.1-2.1-0.7-3.4-0.7c-4.6,0-7.4,3.1-8.2,4.8v28.1c0,1.6-1,2.2-2.7,2.2   h-8.9c-1.2,0-2.2-1-2.2-2.2V637.8z"></path>
</g>
</svg>
