<?xml version="1.0" encoding="UTF-8"?>
<!-- Generator: Adobe Illustrator 28.0.0, SVG Export Plug-In . SVG Version: 6.00 Build 0)  -->
<svg xmlns="http://www.w3.org/2000/svg" xmlns:xlink="http://www.w3.org/1999/xlink" version="1.1" id="Layer_1" x="0px" y="0px" viewBox="0 0 801.2 831.3" style="enable-background:new 0 0 801.2 831.3;" xml:space="preserve">
<style type="text/css">
	.st0{opacity:0.39;enable-background:new    ;}
	.st1{fill:#FFFFFF;}
	.st2{fill:#E94435;}
	.st3{fill:#547DBE;}
	.st4{fill:#34A751;}
	.st5{fill:#F8BB15;}
</style>
<g id="Layer_1_00000148659249003338330220000001752844545002231973_">
	<ellipse class="st0" cx="401" cy="286.1" rx="262.8" ry="266.3"></ellipse>
	<circle class="st1" cx="401" cy="278.3" r="261.4"></circle>
</g>
<g>
	<path class="st1" d="M135.9,599.7c10.4,0,20.4,4.1,28.3,10.8c0.9,0.9,1,2.3,0.1,3.2l-7.2,7.5c-0.9,0.9-2,0.9-3,0   c-5-4.4-11.1-6.7-17.5-6.7c-14.5,0-26,12.4-26,26.9c0,14.4,11.5,26.6,26.1,26.6c6.5,0,11.5-2,13.8-2.9v-9.9h-9.3   c-1.3,0-2.2-0.9-2.2-2.1V644c0-1.3,0.9-2.2,2.2-2.2h22.3c1.2,0,2.1,1,2.1,2.2v29.7c0,0.9-0.5,1.5-0.9,1.9c0,0-11.9,7.5-28.8,7.5   c-23.1,0-41.6-18.3-41.6-41.5C94.3,618.4,112.9,599.7,135.9,599.7z"></path>
	<path class="st1" d="M198.3,634.5c13.1,0,23.8,11.1,23.8,24.2c0,13.3-10.7,24.5-23.8,24.5c-13.1,0-23.8-11.1-23.8-24.5   C174.6,645.6,185.2,634.5,198.3,634.5z M198.3,670.7c6.1,0,11.1-5.3,11.1-11.9c0-6.5-5-11.7-11.1-11.7c-6.3,0-11.1,5.2-11.1,11.7   C187.2,665.3,192.1,670.7,198.3,670.7z"></path>
	<path class="st1" d="M252.6,634.5c13.1,0,23.8,11.1,23.8,24.2c0,13.3-10.7,24.5-23.8,24.5c-13.1,0-23.8-11.1-23.8-24.5   C228.9,645.6,239.5,634.5,252.6,634.5z M252.6,670.7c6.1,0,11.1-5.3,11.1-11.9c0-6.5-5-11.7-11.1-11.7c-6.3,0-11.1,5.2-11.1,11.7   C241.5,665.3,246.4,670.7,252.6,670.7z"></path>
	<path class="st1" d="M290.6,665.6c0,0-3.5-3.9-3.5-10.9c0-10.8,8.7-20.2,20.2-20.2h21.1c1.3,0,2.2,0.9,2.2,2.2v3.8   c0,0.8-0.5,1.7-1.3,2l-6.5,2.1c0,0,4.6,3.6,4.6,11.8c0,9.2-7.7,18.2-19.8,18.2c-4.4,0-7.4-0.9-9.3-0.9c-1.6,0-4.3,1.6-4.3,4.4   c0,2.4,2.1,3.9,4.6,3.9h14.8c10.6,0,19.1,6,19.1,16.2c0,10.7-8.6,19.7-25.4,19.7c-17.2,0-23.7-8.5-23.7-15.9c0-7,5.8-10.3,7-11   v-0.3c-2-0.6-8.7-3.7-8.7-12.2C281.9,669.5,290.6,665.6,290.6,665.6z M307.1,706.4c6.5,0,10.8-2.9,10.8-7.3c0-2.1-1.6-5.7-8.5-5.7   c-2.6,0-5.1,0.1-7.5,0.5c-1.4,0.5-5,2.1-5,5.7C296.9,703.6,300.9,706.4,307.1,706.4z M307.6,663.6c4.8,0,8-3.5,8-8.4   c0-4.9-3.2-8.4-8-8.4c-4.6,0-8.1,3.5-8.1,8.4C299.5,660.1,303,663.6,307.6,663.6z"></path>
	<path class="st1" d="M340.3,603c0-1.2,1-2.2,2.2-2.2h9.7c1.2,0,2.2,1,2.2,2.2v76.8c0,1.2-1,2.2-2.2,2.2h-9.7c-1.2,0-2.2-1-2.2-2.2   V603z"></path>
	<path class="st1" d="M388.6,634.5c11.9,0,21.7,9,21.7,21.6c0,0.8-0.1,2.3-0.2,3.1c-0.1,1.2-1.2,2-2.2,2h-29.7   c0.3,4.8,4.4,10.1,11.1,10.1c3.6,0,7-1.4,9-2.9c1.2-0.7,2.2-0.9,3,0l4.8,5.5c0.8,0.8,1,2.1-0.1,3c-3.8,3.6-9.7,6.4-17.3,6.4   c-13.9,0-23.8-11-23.8-24.4C364.9,645.7,374.8,634.5,388.6,634.5z M396.7,653c-0.3-4.3-4.1-7.9-8.5-7.9c-4.6,0-8.5,3.5-9,7.9H396.7   z"></path>
	<path class="st1" d="M485.2,599.7c11.7,0,20.2,3.7,28.1,10.8c1,0.9,1,2.3,0.1,3.2l-7.1,7.3c-0.8,0.9-2,0.9-2.9,0   c-4.9-4.3-11.4-6.8-17.9-6.8c-14.8,0-25.9,12.4-25.9,27c0,14.5,11.1,26.8,26,26.8c7,0,12.9-2.7,17.7-6.6c0.9-0.8,2.2-0.7,2.9,0   l7.2,7.4c0.9,0.8,0.7,2.3-0.1,3.1c-7.9,7.7-17.9,11.3-28.2,11.3c-23.2,0-41.9-18.4-41.9-41.6C443.3,618.4,462,599.7,485.2,599.7z"></path>
	<path class="st1" d="M523.7,603c0-1.2,1-2.2,2.2-2.2h9.7c1.2,0,2.2,1,2.2,2.2v76.8c0,1.2-1,2.2-2.2,2.2h-9.7c-1.2,0-2.2-1-2.2-2.2   V603z"></path>
	<path class="st1" d="M572,634.5c13.1,0,23.8,11.1,23.8,24.2c0,13.3-10.7,24.5-23.8,24.5s-23.8-11.1-23.8-24.5   C548.2,645.6,558.9,634.5,572,634.5z M572,670.7c6.1,0,11.1-5.3,11.1-11.9c0-6.5-5-11.7-11.1-11.7c-6.3,0-11.1,5.2-11.1,11.7   C560.8,665.3,565.7,670.7,572,670.7z"></path>
	<path class="st1" d="M605.3,637.8c0-1.3,1-2.2,2.2-2.2h9.5c1.2,0,2.2,0.9,2.2,2.2v22.9c0,6.1,3.1,10,8.5,10c4.9,0,8.6-4.5,9.3-8.7   v-24.1c0-1.7,0.7-2.2,2.6-2.2h8.8c1.2,0,2.2,0.9,2.2,2.2v42c0,1.2-1,2.2-2.2,2.2H644c-1.2,0-1.9-0.8-2.2-1.7l-1.4-3.8   c-2.1,1.9-6.4,6.7-15.5,6.7c-14.4,0-19.6-11-19.6-22.9V637.8z"></path>
	<path class="st1" d="M683.9,634.5c4.6,0,8.2,1.3,10.3,2.1V603c0-1.2,1-2.2,2.2-2.2h9.9c1.2,0,2.2,1,2.2,2.2v76.8   c0,1.2-1,2.2-2.2,2.2h-4.5c-1,0-1.9-0.9-2.2-2.2l-1.2-3.6c0,0-5.5,7-15.2,7c-12.6,0-22.3-11-22.3-24.4   C660.9,645.3,670.1,634.5,683.9,634.5z M685,670.7c6.1,0,8.9-4.8,9.7-7.5v-13.5c0,0-3.2-2.7-9-2.7c-6.5,0-11.3,5.3-11.3,11.8   S678.8,670.7,685,670.7z"></path>
</g>
<g id="Layer_2_00000022536738031296266080000014356803361447518861_">
	<g>
		<path class="st2" d="M575.4,116.9C531.9,70.3,472.9,43.3,409.2,41S284.7,61.4,238,104.8c-46.7,43.5-73.7,102.5-76,166.2    s20.4,124.5,63.8,171.2s102.5,73.7,166.2,75.9s124.5-20.4,171.2-63.8s73.7-102.5,75.9-166.2C641.5,224.4,618.8,163.6,575.4,116.9z     M392.7,500.9c-122-4.4-217.7-107.2-213.3-229.2S286.5,53.9,408.5,58.3s217.7,107.2,213.3,229.2S514.7,505.3,392.7,500.9z"></path>
		<g>
			<path class="st2" d="M453.1,216.5l25.4-25.4l1.7-10.7c-46.2-42-119.7-37.3-161.4,9.9c-11.6,13.1-20.2,29.5-24.8,46.4l9.1-1.3     l50.8-8.4l3.9-4c22.6-24.8,60.7-28.1,86.8-7L453.1,216.5z"></path>
			<path class="st3" d="M514.7,236c-5.8-21.5-17.8-40.8-34.5-55.6L444.6,216c15,12.3,23.6,30.8,23.2,50.2v6.3     c17.5,0,31.7,14.2,31.7,31.7s-14.2,31.3-31.7,31.3h-63.5l-6.2,6.8v38l6.2,6h63.5c45.5,0.4,82.7-35.9,83.1-81.4     C551.1,277.4,537.5,251.5,514.7,236"></path>
			<path class="st4" d="M341,386.4h63.4v-50.8H341c-4.5,0-8.9-1-13-2.8l-9,2.8L293.4,361l-2.2,8.6C305.5,380.4,323,386.5,341,386.4"></path>
			<path class="st5" d="M341,221.8c-45.5,0.3-82.2,37.4-82,82.9c0.2,25.4,12,49.4,32.2,64.9l36.8-36.8c-16-7.2-23-26-15.8-41.9     c7.2-16,26-23,41.9-15.8c7,3.2,12.7,8.8,15.8,15.8l36.8-36.8C391,233.6,366.7,221.7,341,221.8"></path>
		</g>
		<path class="st3" d="M621.5,264.3c0.5,7.7,0.7,15.4,0.4,23.2c-3.1,85.2-54.1,157.5-126.1,192l4.4,17.3    c22.9-10.5,44.2-24.7,63.2-42.4c46.7-43.4,73.7-102.5,75.9-166.2c0.3-8.6,0.1-17.2-0.5-25.7L621.5,264.3z"></path>
		<path class="st4" d="M520.7,486.1l-8.8-15.1c-35,20.4-75.9,31.5-119.2,29.9c-63.9-2.3-120.5-31.6-159.4-76.4l-13.2,11.4    c1.9,2.1,3.8,4.3,5.7,6.4C269.2,489,328.3,516,392,518.2C437.8,519.8,482.1,508.6,520.7,486.1z"></path>
		<path class="st5" d="M233.5,450.1l11.1-13.6c-42.2-42-67.6-100.8-65.3-164.9c2.3-63.1,30.9-119.2,74.8-158l-11.5-13.1    c-1.6,1.4-3.1,2.8-4.7,4.2C191.3,148.3,164.3,207.3,162,271s20.4,124.5,63.8,171.2C228.3,445,230.9,447.6,233.5,450.1z"></path>
	</g>
</g>
</svg>
