<?xml version="1.0" encoding="UTF-8"?>
<!-- Generator: Adobe Illustrator 28.0.0, SVG Export Plug-In . SVG Version: 6.00 Build 0)  -->
<svg xmlns="http://www.w3.org/2000/svg" xmlns:xlink="http://www.w3.org/1999/xlink" version="1.1" id="Layer_2_00000180354112255821621480000007585107003288372154_" x="0px" y="0px" viewBox="0 0 801.2 831.3" style="enable-background:new 0 0 801.2 831.3;" xml:space="preserve">
<style type="text/css">
	.st0{opacity:0.39;enable-background:new    ;}
	.st1{fill:#FFFFFF;}
	.st2{fill:#EA4435;}
	.st3{fill:#F8BB15;}
	.st4{fill:#547DBE;}
	.st5{fill:#FFCE40;}
	.st6{fill:#DA4535;}
	.st7{fill:#EDECED;}
</style>
<g id="Layer_1_2_">
	<ellipse class="st0" cx="401" cy="286.1" rx="262.8" ry="266.3"></ellipse>
	<circle class="st1" cx="401" cy="278.3" r="261.4"></circle>
</g>
<path class="st2" d="M563.3,104.8C516.6,61.3,455.8,38.6,392,40.9c-63.7,2.3-122.8,29.3-166.2,75.9C182.4,163.5,159.7,224.3,162,288  s29.3,122.8,75.9,166.2c46.7,43.4,107.5,66.1,171.2,63.8s122.8-29.3,166.2-75.9c43.4-46.7,66.1-107.5,63.8-171.2  C636.9,207.2,609.9,148.2,563.3,104.8z M551.5,117.4c89.4,83.2,94.4,223.6,11.2,313s-223.6,94.4-313,11.2s-94.4-223.6-11.2-313  C321.7,39.3,462.1,34.3,551.5,117.4z"></path>
<path class="st3" d="M161.9,277.1l17.4,1.8c-0.2,59.6,23.5,119,70.5,162.7c46.2,43,106.1,62.4,164.6,58.8l1.1,17.4  c-2.1,0.1-4.2,0.2-6.3,0.3c-63.7,2.3-124.5-20.4-171.2-63.8s-73.7-102.5-75.9-166.2C161.9,284.4,161.8,280.8,161.9,277.1z"></path>
<path class="st4" d="M179.3,281.1c-0.4-54.6,19.2-109.4,59.2-152.4c77.5-83.3,204.7-93.3,294-27L543,87.9  c-43.4-32.4-96.1-48.9-151-47c-63.7,2.3-122.8,29.3-166.2,75.9c-41.9,45-64.5,103.2-64,164.4L179.3,281.1z"></path>
<path id="XMLID_26_" class="st4" d="M353.9,198.5h155.9l-25.5-44c-3.5-6.2-9.7-10.6-17.6-10.6H334.5c-7,0-14.1,3.5-17.6,10.6  l-40.5,71.3l77.5,134.8V198.5"></path>
<path id="XMLID_28_" class="st5" d="M353.9,360.6l-77.5-134.8l-25.5,44c-3.5,6.2-3.5,14.1,0,20.3L317,404.6  c3.5,6.2,10.6,10.6,17.6,10.6h81.9l78.4-135.6L353.9,360.6"></path>
<path id="XMLID_29_" class="st6" d="M509.8,198.5H353.9l140,81l-78.4,135.6h51.1c7,0,14.1-3.5,17.6-10.6l66.1-115.4  c3.5-6.2,3.5-14.1,0-20.3L509.8,198.5"></path>
<path class="st7" d="M447.3,198.5h-93.4l-46.7,81l46.7,81.1h93.4l46.7-81.1L447.3,198.5z M399.7,319.8c-22.3,0-40.3-18-40.3-40.3  s18-40.3,40.3-40.3s40.3,18,40.3,40.3S422,319.8,399.7,319.8z"></path>
<g>
	<path class="st1" d="M135.9,599.7c10.4,0,20.4,4.1,28.3,10.8c0.9,0.9,1,2.3,0.1,3.2l-7.2,7.5c-0.9,0.9-2,0.9-3,0   c-5-4.4-11.1-6.7-17.5-6.7c-14.5,0-26,12.4-26,26.9c0,14.4,11.5,26.6,26.1,26.6c6.5,0,11.5-2,13.8-2.9v-9.9h-9.3   c-1.3,0-2.2-0.9-2.2-2.1V644c0-1.3,0.9-2.2,2.2-2.2h22.3c1.2,0,2.1,1,2.1,2.2v29.7c0,0.9-0.5,1.5-0.9,1.9c0,0-11.9,7.5-28.8,7.5   c-23.1,0-41.6-18.3-41.6-41.5C94.3,618.4,112.9,599.7,135.9,599.7z"></path>
	<path class="st1" d="M198.3,634.5c13.1,0,23.8,11.1,23.8,24.2c0,13.3-10.7,24.5-23.8,24.5s-23.8-11.1-23.8-24.5   C174.6,645.6,185.2,634.5,198.3,634.5z M198.3,670.7c6.1,0,11.1-5.3,11.1-11.9c0-6.5-5-11.7-11.1-11.7c-6.3,0-11.1,5.2-11.1,11.7   S192.1,670.7,198.3,670.7z"></path>
	<path class="st1" d="M252.6,634.5c13.1,0,23.8,11.1,23.8,24.2c0,13.3-10.7,24.5-23.8,24.5c-13.1,0-23.8-11.1-23.8-24.5   C228.9,645.6,239.5,634.5,252.6,634.5z M252.6,670.7c6.1,0,11.1-5.3,11.1-11.9c0-6.5-5-11.7-11.1-11.7c-6.3,0-11.1,5.2-11.1,11.7   S246.4,670.7,252.6,670.7z"></path>
	<path class="st1" d="M290.6,665.6c0,0-3.5-3.9-3.5-10.9c0-10.8,8.7-20.2,20.2-20.2h21.1c1.3,0,2.2,0.9,2.2,2.2v3.8   c0,0.8-0.5,1.7-1.3,2l-6.5,2.1c0,0,4.6,3.6,4.6,11.8c0,9.2-7.7,18.2-19.8,18.2c-4.4,0-7.4-0.9-9.3-0.9c-1.6,0-4.3,1.6-4.3,4.4   c0,2.4,2.1,3.9,4.6,3.9h14.8c10.6,0,19.1,6,19.1,16.2c0,10.7-8.6,19.7-25.4,19.7c-17.2,0-23.7-8.5-23.7-15.9c0-7,5.8-10.3,7-11   v-0.3c-2-0.6-8.7-3.7-8.7-12.2C281.9,669.5,290.6,665.6,290.6,665.6z M307.1,706.4c6.5,0,10.8-2.9,10.8-7.3c0-2.1-1.6-5.7-8.5-5.7   c-2.6,0-5.1,0.1-7.5,0.5c-1.4,0.5-5,2.1-5,5.7C296.9,703.6,300.9,706.4,307.1,706.4z M307.6,663.6c4.8,0,8-3.5,8-8.4   s-3.2-8.4-8-8.4c-4.6,0-8.1,3.5-8.1,8.4S303,663.6,307.6,663.6z"></path>
	<path class="st1" d="M340.3,603c0-1.2,1-2.2,2.2-2.2h9.7c1.2,0,2.2,1,2.2,2.2v76.8c0,1.2-1,2.2-2.2,2.2h-9.7c-1.2,0-2.2-1-2.2-2.2   V603z"></path>
	<path class="st1" d="M388.6,634.5c11.9,0,21.7,9,21.7,21.6c0,0.8-0.1,2.3-0.2,3.1c-0.1,1.2-1.2,2-2.2,2h-29.7   c0.3,4.8,4.4,10.1,11.1,10.1c3.6,0,7-1.4,9-2.9c1.2-0.7,2.2-0.9,3,0l4.8,5.5c0.8,0.8,1,2.1-0.1,3c-3.8,3.6-9.7,6.4-17.3,6.4   c-13.9,0-23.8-11-23.8-24.4C364.9,645.7,374.8,634.5,388.6,634.5z M396.7,653c-0.3-4.3-4.1-7.9-8.5-7.9c-4.6,0-8.5,3.5-9,7.9H396.7   z"></path>
	<path class="st1" d="M485.2,599.7c11.7,0,20.2,3.7,28.1,10.8c1,0.9,1,2.3,0.1,3.2l-7.1,7.3c-0.8,0.9-2,0.9-2.9,0   c-4.9-4.3-11.4-6.8-17.9-6.8c-14.8,0-25.9,12.4-25.9,27c0,14.5,11.1,26.8,26,26.8c7,0,12.9-2.7,17.7-6.6c0.9-0.8,2.2-0.7,2.9,0   l7.2,7.4c0.9,0.8,0.7,2.3-0.1,3.1c-7.9,7.7-17.9,11.3-28.2,11.3c-23.2,0-41.9-18.4-41.9-41.6C443.3,618.4,462,599.7,485.2,599.7z"></path>
	<path class="st1" d="M523.7,603c0-1.2,1-2.2,2.2-2.2h9.7c1.2,0,2.2,1,2.2,2.2v76.8c0,1.2-1,2.2-2.2,2.2h-9.7c-1.2,0-2.2-1-2.2-2.2   V603z"></path>
	<path class="st1" d="M572,634.5c13.1,0,23.8,11.1,23.8,24.2c0,13.3-10.7,24.5-23.8,24.5s-23.8-11.1-23.8-24.5   C548.2,645.6,558.9,634.5,572,634.5z M572,670.7c6.1,0,11.1-5.3,11.1-11.9c0-6.5-5-11.7-11.1-11.7c-6.3,0-11.1,5.2-11.1,11.7   C560.8,665.3,565.7,670.7,572,670.7z"></path>
	<path class="st1" d="M605.3,637.8c0-1.3,1-2.2,2.2-2.2h9.5c1.2,0,2.2,0.9,2.2,2.2v22.9c0,6.1,3.1,10,8.5,10c4.9,0,8.6-4.5,9.3-8.7   v-24.1c0-1.7,0.7-2.2,2.6-2.2h8.8c1.2,0,2.2,0.9,2.2,2.2v42c0,1.2-1,2.2-2.2,2.2H644c-1.2,0-1.9-0.8-2.2-1.7l-1.4-3.8   c-2.1,1.9-6.4,6.7-15.5,6.7c-14.4,0-19.6-11-19.6-22.9V637.8z"></path>
	<path class="st1" d="M683.9,634.5c4.6,0,8.2,1.3,10.3,2.1V603c0-1.2,1-2.2,2.2-2.2h9.9c1.2,0,2.2,1,2.2,2.2v76.8   c0,1.2-1,2.2-2.2,2.2h-4.5c-1,0-1.9-0.9-2.2-2.2l-1.2-3.6c0,0-5.5,7-15.2,7c-12.6,0-22.3-11-22.3-24.4   C660.9,645.3,670.1,634.5,683.9,634.5z M685,670.7c6.1,0,8.9-4.8,9.7-7.5v-13.5c0,0-3.2-2.7-9-2.7c-6.5,0-11.3,5.3-11.3,11.8   S678.8,670.7,685,670.7z"></path>
	<path class="st1" d="M208.6,723c0-1.2,0.9-2.2,2.2-2.2H238c14.3,0,26,11.6,26,25.6c0,14.4-11.7,26.1-25.9,26.1h-14.5v27.3   c0,1.2-1,2.2-2.2,2.2h-10.7c-1.3,0-2.2-1-2.2-2.2L208.6,723L208.6,723z M237.1,758.4c6.5,0,11.9-5.2,11.9-12.1   c0-6.4-5.5-11.3-11.9-11.3h-13.5v23.3L237.1,758.4L237.1,758.4z"></path>
	<path class="st1" d="M272.2,723c0-1.2,1-2.2,2.2-2.2h9.7c1.2,0,2.2,1,2.2,2.2v76.8c0,1.2-1,2.2-2.2,2.2h-9.7c-1.2,0-2.2-1-2.2-2.2   V723z"></path>
	<path class="st1" d="M315.5,772.7c4.6,0,8.5,1.3,8.5,1.3c0.1-5.9-1.7-8-6-8s-10.3,0.9-13,1.7c-1.6,0.5-2.4-0.6-2.7-2.1l-1-6   c-0.3-1.7,0.6-2.6,1.6-2.9c0.9-0.3,8.4-2.2,15.8-2.2c14.5,0,17.9,7.5,17.9,20.2v25.2c0,1.2-1,2.2-2.2,2.2h-4.2   c-0.8,0-1.4-0.3-2-1.6l-1.4-3.1c-2.7,2.4-7,5.9-14.2,5.9c-9.3,0-15.7-6-15.7-15.9C296.9,779.1,303.7,772.7,315.5,772.7z    M315.7,793.3c3.7,0,7.3-3.1,8-4.5v-6.4c0,0-3.1-1.4-6.5-1.4c-4.5,0-7.5,2.6-7.5,6.3C309.7,790.8,312.1,793.3,315.7,793.3z"></path>
	<path class="st1" d="M352.3,767.8h-3.9c-1.2,0-2.1-1-2.1-2.2v-7.8c0-1.3,0.9-2.2,2.1-2.2h3.9v-12.9c0-1.2,1-2.2,2.2-2.2l9.5-0.1   c1.2,0,2.1,1,2.1,2.2v13h10.2c1.3,0,2.2,0.9,2.2,2.2v7.8c0,1.2-0.9,2.2-2.2,2.2h-10.2v18.6c0,3.2,1.7,3.7,3.6,3.7   c2,0,4.4-0.8,5.7-1.3c1.3-0.5,2.2,0.1,2.6,1.3l2.3,7.3c0.5,1.2-0.1,2.3-1.3,2.8c-0.6,0.3-8.1,3-13.8,3c-8.9,0-12.9-5.6-12.9-15   L352.3,767.8L352.3,767.8z"></path>
	<path class="st1" d="M392.6,767.8h-3.9c-1.3,0-2.2-1-2.2-2.2v-7.8c0-1.3,0.9-2.2,2.2-2.2h3.9v-12.5c0-15.3,9.4-23.4,21.7-23.4   c6.1,0,11.6,2.7,13.7,4.5c0.7,0.6,0.9,1.9,0.5,2.7l-3.9,7.4c-0.5,0.9-1.7,1.2-2.8,0.6c-1.5-0.9-4.3-2.3-6.8-2.3   c-5,0-7.8,3.8-7.8,10.6v12.5h11.6c1.3,0,2.2,0.9,2.2,2.2v7.8c0,1.2-0.9,2.2-2.2,2.2h-11.6v32c0,1.2-1,2.2-2.2,2.2h-10.1   c-1.2,0-2.2-1-2.2-2.2v-32.1H392.6z"></path>
	<path class="st1" d="M449.9,754.5c13.1,0,23.8,11.1,23.8,24.2c0,13.3-10.7,24.5-23.8,24.5s-23.8-11.1-23.8-24.5   C426.2,765.6,436.8,754.5,449.9,754.5z M449.9,790.7c6.1,0,11.1-5.3,11.1-11.9c0-6.5-5-11.7-11.1-11.7c-6.3,0-11.1,5.2-11.1,11.7   S443.7,790.7,449.9,790.7z"></path>
	<path class="st1" d="M484,757.8c0-1.3,1-2.2,2.2-2.2h4.4c1,0,1.7,0.6,2.1,1.5l1.6,4.5c1.6-2.3,5.9-7.2,13.1-7.2   c5.5,0,10.3,1.7,8.9,4.6l-4.3,7.5c-0.6,1-1.7,1.5-2.7,1c-0.3-0.1-2.1-0.7-3.4-0.7c-4.6,0-7.4,3.1-8.2,4.8v28.1c0,1.6-1,2.2-2.7,2.2   h-8.9c-1.2,0-2.2-1-2.2-2.2L484,757.8L484,757.8z"></path>
	<path class="st1" d="M523.6,757.8c0-1.3,1-2.2,2.2-2.2h4.3c1,0,1.7,0.6,2,1.3l1.6,4.4c2-2.2,7.3-6.8,15.5-6.8   c6.6,0,11.3,2.6,15.1,7.2c2-2.1,8-7.2,16.4-7.2c14.8,0,20.3,11,20.3,23.2v22.2c0,1.2-0.9,2.2-2.2,2.2h-9.4c-1.3,0-2.2-1-2.2-2.2   v-23c0-6-2.9-9.9-8.7-9.9c-6.7,0-9.7,4.9-9.7,4.9s0.1,2.3,0.1,4.4v23.5c0,1.2-1,2.2-2.2,2.2H558c-1.3,0-2.2-1-2.2-2.2v-23   c0-6-2.7-9.9-8.6-9.9c-5.8,0-8.6,4.2-9.7,7.3v25.5c0,1.2-1,2.2-2.2,2.2h-9.4c-1.2,0-2.2-1-2.2-2.2L523.6,757.8L523.6,757.8z"></path>
</g>
</svg>
