<?xml version="1.0" encoding="UTF-8"?>
<!-- Generator: Adobe Illustrator 28.0.0, SVG Export Plug-In . SVG Version: 6.00 Build 0)  -->
<svg xmlns="http://www.w3.org/2000/svg" xmlns:xlink="http://www.w3.org/1999/xlink" version="1.1" id="Layer_1" x="0px" y="0px" viewBox="0 0 801.2 831.3" style="enable-background:new 0 0 801.2 831.3;" xml:space="preserve">
<style type="text/css">
	.st0{opacity:0.39;enable-background:new    ;}
	.st1{fill:#FFFFFF;}
	.st2{fill-rule:evenodd;clip-rule:evenodd;}
	.st3{fill-rule:evenodd;clip-rule:evenodd;fill:#F5EA14;}
	.st4{fill:none;stroke:#1E1917;stroke-width:0.216;stroke-miterlimit:10;}
	.st5{fill-rule:evenodd;clip-rule:evenodd;fill:#FBF8CD;}
	.st6{fill-rule:evenodd;clip-rule:evenodd;fill:#C9CB2C;}
</style>
<g id="Layer_1_1_">
	<ellipse class="st0" cx="401" cy="286.1" rx="262.8" ry="266.3"></ellipse>
	<circle class="st1" cx="401" cy="278.3" r="261.4"></circle>
</g>
<g id="Layer_2_1_">
	<g>
		<path d="M569.4,110.8c-45.1-45.1-105.1-69.9-168.8-69.9c-63.8,0-123.7,24.8-168.8,69.9s-69.9,105.1-69.9,168.8    c0,63.8,24.8,123.7,69.9,168.8s105.1,69.9,168.8,69.9c63.8,0,123.7-24.8,168.8-69.9s69.9-105,69.9-168.8S614.5,155.9,569.4,110.8z    "></path>
		<g>
			<path class="st2" d="M246.6,314.7c-1.6,4.4-3.2,8.8-4.8,13.2c-4,4-8,7.9-12,11.9c-4.4,4.3-5.3,4.3-4.3,10.4     c1.2,7.2,4.7,14.6,11,21c6.7,6.7,20.8,16.2,30.9,11.7c-0.9,3.4-2.2,7-3.8,10.5c-6.8,14.9,9.8,17.8,21.3,20.9     c9.6,2.6,33.2,9.5,36.7-3.1c1.5-5.7,1.8-8.8,1.2-14.2c3-6.7,4-7.7,6.4-11.4c3.4-5,3.2-7,2.4-13.2c-0.1-1.2-0.3-2.5-0.5-3.9     c11.5,1.7,22.5,1.7,33.7,0.3c-3.4,2-6.8,3.7-11.3,6c-10.7,5.5-0.6,21.7,4,28.8c9.7,14.9,18.4,25.2,34.7,16.3     c5.5-3,5.9-6.1,9.3-11.3c1.9-1,11.7-9.3,17.5-14c2.2,2.6,6.4,3.1,12.8,3.6c3.2,0.2,15.8,0.2,19.2,0.2c10,0.1,16-1,16.8-11.9     c0.4-5.2,0.1-6.3-2.4-10.8c-0.2-5.7-0.3-11.4-0.5-17.1c-0.2-6.4-1.4-10.4-3.9-16.4c-2.3-5.5-3.6-10.1-6.3-15.4     c0.4-2.1,0.7-4.2,0.9-6.5c3.4,3.3,6.8,6.6,10.2,9.8c6.5,6.3,11.9,11.4,21.8,10.9c10.3-0.5,22.1-8.6,25.1-18.6c1-3.3,2-6.6,3-10     c15.6,2.9,33.7,2.3,47.3-5c19.9-10.6,29.2-32,31.5-54.6c1.9-18.3-1.7-49.1-10.4-65.7c-2.6-4.9-14.1-11.1-19.2-6     c-3.8,3.9-6.5,9.8-10.6,13.3c-3.2,2.7-7.2,4.1-10.6,5.5c-2.7-7.3-6.5-12.9-11.3-18.5c-3.8-4.5-7.3-6.7-12.3-9.8     c-9.8-6.1-17.4-13.9-26.3-21.2c-27-22.2-50.2-21.6-83.8-7.4c-16,6.8-23.8,15.9-33.6,29.1c-5.9,0.3-10,1.5-16.3,7     c-4.6,4.1-9,8.3-13.1,12.7c-31.4,5-50.9,11-71.6,29.3c-8.4,7.5-14.5,15.7-19.3,25c-4.4,4.9-8.8,9.9-14.7,12.1     c-4.1,1.6-4,1.6-5.5-2.3c4.9-3.7,4.8-10.6,5.3-16.8c3.1,0.1,4.2,3.6,6.3,6.3c1.2-5.5,2-14.1-3.9-17.1c0.9-2.5,2-5.1,3-7.9     c-8.6,1.5-38.1,21.3-22.3,36.5c1,4.2,1.8,7.1,3.2,9.9c3.6,7.5,11.7,8.8,18.7,6c-1.9,8.9-2.3,18.5-1.2,32     C245.5,308.1,246,311.4,246.6,314.7"></path>
			<polygon class="st3" points="348.2,195.1 322,199.3 298.1,209.8 277.7,222.6 258.4,246.2 247.5,257.8 236.9,261.6 234.1,254.8      239,247.8 240.1,237.8 243.4,238 247,241.2 246,231.1 242,228.4 242.2,224.6 232.8,229.9 224.3,239.9 222.5,248.9 226.1,256.1      229.5,268.2 236.4,271.5 243.7,271.1 250.5,267.2 246,290.4 250.5,316.3 245.5,328.3 229,346.1 231.9,356.7 239.7,369      254.5,379.4 262.3,380.5 271.1,380.8 265.6,403.1 285.6,411.3 310.5,414.6 319,409 319.7,394 329.2,378.2 329.8,365.8      352.8,367.4 374.1,365.4 352.8,378.2 356.4,393.6 369.8,414.6 382.9,420.2 393.4,415.9 397.7,407.4 419.6,390.7 423.9,394.3      458.3,395.6 465.2,390 465.8,380.2 463.5,375.9 461.9,349.4 450.4,326.5 452.4,316.3 459.3,319.9 478.6,337.9 488.1,338.6      498.6,334.3 509.1,326.5 514.3,309.4 545.1,311.4 563.8,304.2 578.8,290.1 589.7,269.8 592.3,245.9 590,218 584.1,193.1      578.2,185.2 570,182.6 555.6,198.4 542.5,202.9 531,183.9 519.5,173.4 513.3,169.5 488.4,148.9 468.4,138.1 448.4,136.4      425.2,140.4 404.9,147.9 390.8,159.4 379.6,172.8 368.2,176.1    "></polygon>
			<polygon class="st4" points="348.2,195.1 322,199.3 298.1,209.8 277.7,222.6 258.4,246.2 247.5,257.8 236.9,261.6 234.1,254.8      239,247.8 240.1,237.8 243.4,238 247,241.2 246,231.1 242,228.4 242.2,224.6 232.8,229.9 224.3,239.9 222.5,248.9 226.1,256.1      229.5,268.2 236.4,271.5 243.7,271.1 250.5,267.2 246,290.4 250.5,316.3 245.5,328.3 229,346.1 231.9,356.7 239.7,369      254.5,379.4 262.3,380.5 271.1,380.8 265.6,403.1 285.6,411.3 310.5,414.6 319,409 319.7,394 329.2,378.2 329.8,365.8      352.8,367.4 374.1,365.4 352.8,378.2 356.4,393.6 369.8,414.6 382.9,420.2 393.4,415.9 397.7,407.4 419.6,390.7 423.9,394.3      458.3,395.6 465.2,390 465.8,380.2 463.5,375.9 461.9,349.4 450.4,326.5 452.4,316.3 459.3,319.9 478.6,337.9 488.1,338.6      498.6,334.3 509.1,326.5 514.3,309.4 545.1,311.4 563.8,304.2 578.8,290.1 589.7,269.8 592.3,245.9 590,218 584.1,193.1      578.2,185.2 570,182.6 555.6,198.4 542.5,202.9 531,183.9 519.5,173.4 513.3,169.5 488.4,148.9 468.4,138.1 448.4,136.4      425.2,140.4 404.9,147.9 390.8,159.4 379.6,172.8 368.2,176.1    "></polygon>
			<path class="st5" d="M272.2,254.2c-22.5,26.2-17.5,57.9-11.2,89.1c-3.3-8.4-6.6-16.8-10-25.2c-1.2-7.7-2.4-15.4-3.7-23.1     c0.3-7.9,0.7-15.7,1-23.6c3.1-7.5,6.3-15,9.4-22.5c4.7-7,9.4-14,14.2-21c7.3-6.1,14.7-12.2,22-18.4c8-3.3,16.1-6.6,24.1-10     c9.4-1.2,18.9-2.4,28.3-3.7c-8.7,10-17.5,19.9-26.2,29.9C299.1,232.6,286.7,237.2,272.2,254.2"></path>
			<path class="st5" d="M377.9,174.4c-15.6,15.2-24.1,26.7-34.1,44.5c-7.1,12.8-15.1,25-22.5,37.6c-3.8,6.4-4.1,11.7-5.3,19     c-3.7-4.4-7.3-8.7-11-13.1c1.7-5.2,3.5-10.5,5.2-15.7c5.9-10.7,11.9-21.3,17.8-32c12.6-12.4,25.2-24.8,37.8-37.2     C369.8,176.5,373.8,175.5,377.9,174.4"></path>
			<path class="st5" d="M454.9,136.7c-12.5,4.7-33.3,6.2-34.7,20.6c-1,10.2,0.8,15.3,6.9,26.1c-15.2-15.7-18.9-13.3-48.2-8.4     c4.2-5.9,8.4-11.9,12.6-17.8c7.3-4.5,14.7-9.1,22-13.6c9.4-2.1,18.9-4.2,28.3-6.3C446.2,137,450.6,136.8,454.9,136.7"></path>
			<path class="st6" d="M489.4,330.7c4.2,2.6,4.1,4.4,3.4,6.2c3.3-1.3,6.6-2.6,9.8-3.9c2.1-2.9,4.3-5.7,6.4-8.6     c1.6-4.1,3.2-8.1,4.7-12.2c-2-1.5-4-3-6.1-4.6c-8.8,1.1-17.6,2.3-26.5,3.4c-0.7,1.8-1.3,3.6-2,5.3c0.2,2.5,0.4,5.1,0.6,7.6     c0.8,1.5,1.7,3,2.5,4.5c1.3,0.7,2.6,1.3,3.9,2C487.4,330.6,488.4,330.7,489.4,330.7"></path>
			<path class="st6" d="M487,285.5c-13.3,3.8-13.2,4.9-17.1,18C475.1,295.3,478.9,291.1,487,285.5"></path>
			<path class="st6" d="M575.1,187.1c-2.4,1.1-4.7,1.6-6.1,3.8c-3.2,4.6-5.9,8.5-11.1,11.8c-2.6,1.6-5.4,2.7-8.2,3.6     c-2.3,0.7-3.7,0.1-5.7,1.5c1.2,0.2,2.3,0.4,3.5,0.6c2.6,0,5.2,0,7.8,0c3.2-2,6.4-3.9,9.6-5.9c1.9-2,3.8-3.9,5.6-5.9     C572,193.4,573.6,190.2,575.1,187.1"></path>
			<path class="st6" d="M363.9,216.5c-5.2,14.3-9.8,26.5-17.7,39.4c10.1-10.9,16.3-20.2,22.1-32.5c2.3-4.8,2.7-10.4,9-8.3     c0.3,4.8,1.3,9.6,1.6,14.4c3.4-24.3,13-34.5,35.2-43.9c-6.3,0.8-12.6,1.5-18.9,2.3c-5.9,1.3-11.8,2.6-17.7,3.9     c-2.9,4.2-5.8,8.4-8.7,12.7C367.1,208.4,365.5,212.5,363.9,216.5"></path>
			<path class="st6" d="M407,215.9c4.8,22.6,11.7,44.2,14.7,67.1c1.9,14.9,2.2,22-5.3,34.9c-8.2-0.5-13.3,0.4-21.2,3     c-31.5,10.3-49.6,25.5-70.9-5.1c6.8,3.2,13.6,6.4,20.3,9.6c4.8-0.9,9.7-1.9,14.5-2.9c8.5-5,17.1-9.9,25.6-14.9     c6.7-1.3,13.3-2.6,20-3.9c2.2-9,4.3-18,6.5-27c-1.6-11.9-3.2-23.8-4.8-35.7c-0.2-5.6-0.4-11.3-0.6-16.9     C406.2,221.4,406.6,218.7,407,215.9"></path>
			<path class="st6" d="M461.3,355.5c-2.6,18.3,6.1,28.2,2.5,33.2c-1,1.4-2.4,3.9-4,4.6c-5.5,2.4-13.2-0.5-13.7,1     c-6.1,0-12.2,0-18.3,0c-2.4-1-4.9-2.1-7.3-3.1c3.8-4.4,7.5-8.8,11.3-13.2c3.7-8,7.3-15.9,11-23.9c2.3-8.1,4.7-16.1,7-24.2     c1.2,0,2.4,0,3.7,0C456,338.4,458.7,347,461.3,355.5"></path>
			<path class="st6" d="M430.6,302.2c1.5,8.3,4.1,10.3,8,18.4c-2.6,13.1-6.8,28.8-11.8,40.4c-2.1,4.9-3.8,7.6-7.6,11.4     c-6.3,6.4-12.7,11.9-19.9,17.5c-5.2,4-8.8,2-15.1,1.1c-2.7,4.9-3.5,7.6-8.4,10.1c-7.7,3.8-14.5-4.4-20.5-9.3     c4.3,6.8,8.7,13.6,13,20.4c3,2.8,6,5.6,9,8.4c2.5,0.4,5.1,0.8,7.6,1.1c3.4-2.1,6.8-4.1,10.1-6.2c1.8-3.4,3.6-6.8,5.3-10.1     c3.8-2.8,7.5-5.6,11.3-8.4c4.6-3.9,9.2-7.9,13.8-11.8c2.9-4.1,5.8-8.3,8.7-12.4c2.6-4.9,5.3-9.8,7.9-14.6     c3.4-10.1,6.8-20.3,10.1-30.4c0.3-3.8,0.6-7.7,0.8-11.5c-4.2-1.9-8.4-3.8-12.7-5.6C437.1,307.6,433.7,305.1,430.6,302.2"></path>
			<path class="st6" d="M329.6,360.9c14.2,0,29.2-0.8,42.2-6.8c3.7-5.5,7.3-10,11.8-14.9c-4.1,7.7-5.4,12.1-6.5,20.8     c-1.4,2.1-2.8,4.1-4.2,6.2c-10.7,0.3-21.4,0.6-32.1,0.8c-3.5-0.4-6.9-0.8-10.4-1.1c-0.4-0.4-0.8-0.8-1.1-1.1     C329.4,363.5,329.5,362.2,329.6,360.9"></path>
			<path class="st6" d="M327.6,351c-0.4-3.3-0.7-6.7-1.1-10c-2.4,14.6-1.8,24.4-8.6,37.5c-5,5.8-11.2,11.1-18.3,13.9     c0.6,3.6,0.8,5.8,0.4,8.5c-1.2,9.5-20.2,5.3-28,4.9c12.5,3.2,25,6.4,37.5,9.6c2.8-1.1,5.6-2.3,8.4-3.4c0.9-5.4,1.9-10.9,2.8-16.3     c2.6-4.9,5.3-9.8,7.9-14.6c0.5-3,0.9-6,1.4-9C329.3,365.1,328.5,358,327.6,351"></path>
			<path class="st6" d="M306.5,268.6c-0.4,7.1-0.9,10.1,2.3,16.3c4,8,8.9,15.5,13.2,23.3c0.5-5.3,0.9-10.5,1.4-15.8     C317.8,284.5,312.2,276.5,306.5,268.6"></path>
			<path class="st6" d="M248.8,322.2c-1.2,2.6-2.4,5.2-3.7,7.8c3.4,11.3,6.3,18.4,12.7,28.3c-1.1,4-1.9,5.7-4.5,9     c-5.6-0.9-10.6-1.1-16.3-1.1c6.3,4.9,12.6,9.8,18.9,14.6c3.1-0.6,6.2-1.1,9.3-1.7c3.1-3.1,6.2-6.2,9.3-9.3     c-4.4-6.8-8.8-13.7-13.2-20.5C257.1,340.3,252.9,331.2,248.8,322.2"></path>
			<path class="st6" d="M575.2,183.3c3.8,17.2,8.8,33.1,8.3,50.7c-0.6,21.6-4.8,49-24.8,62c-22.5,14.6-48.8,7.7-73.4,1.4     c10,4.1,20.1,8.3,30.1,12.4c9.4,0.5,18.8,0.9,28.1,1.4c6.4-1.9,12.8-3.8,19.1-5.6c5-4.1,9.9-8.3,14.9-12.4     c3.8-7.9,7.5-15.8,11.3-23.6c1.4-9.1,2.8-18.2,4.2-27.3c-1.1-8.9-2.3-17.8-3.4-26.7c-2.1-8.8-4.1-17.6-6.2-26.5     C580.7,187.3,577.9,185.3,575.2,183.3"></path>
			<path class="st6" d="M240.1,234.7c-10.2,6.6-14.2,9.5-13.1,21.8c1,3.7,2,7.4,3,11c1.4,1,2.9,1.9,4.3,2.9c1.8,0.6,3.6,1.2,5.3,1.8     c3.2-0.8,6.4-1.5,9.7-2.3c1.7-5.1,3.3-10.2,5-15.4c-4.6,2.2-9.1,4.5-13.7,6.7c-1.1,0-2.1,0-3.2,0c-1.2-1.8-2.4-3.6-3.6-5.5     c1.4-2.1,2.9-4.2,4.3-6.3c0.8-4,1.5-8,2.3-12.1c1,0.3,1.9,0.6,2.9,0.9c1.2,0.9,2.4,1.9,3.6,2.8c-0.2-2.1-0.3-4.2-0.5-6.3     c-0.8-1.4-1.6-2.7-2.4-4.1c-0.8-0.7-1.6-1.4-2.4-2C241.1,230.7,240.6,232.7,240.1,234.7"></path>
			<path class="st6" d="M468.8,137.8c9,8.4,20.1,15.7,27.4,26c2.8,4,5.9,6,0,11.6c6.3-1.8,8.6-1.6,13.7-1     c9.2,1.1,17.8,14.1,18.3,23.5c-0.1,0.9-2.5,2.9-9.6,4.8c-0.1,0.3-4-0.5-3.9-0.3c0.7,2,1.7,2.3,3.2,3.3c0.3,2.2,0.5,5.7,2.1,8.2     c4.5-0.1,8.8,0.4,13.2,1.3c1.5,2.4,1.2,4.9,1.1,7.3c1.7-0.3,3.4-0.6,5.1-0.8c-0.5-3.8-0.9-7.7-1.4-11.5c1.5-2.5,3-5.1,4.5-7.6     c-2.2-4.9-4.3-9.8-6.5-14.6c-4.1-3.9-8.3-7.9-12.4-11.8c-0.4,0-0.8,0-1.2-0.1c-4.6-2.8-9.3-5.7-13.9-8.5     c-7.6-6.2-15.1-12.4-22.7-18.6C480,145.1,474.4,141.5,468.8,137.8"></path>
			<path class="st6" d="M484,207.1c-0.5,0.8-1.2,2.2-2.1,3.1c3.8,3.6,5.6,5.9,7,11c-4.3,2.1-8.5,4.2-12.8,6.3     c-3.6,3.5-7.2,6.9-10.8,10.4c-4.7-2.6-5.9-4.5-8.2-9.4c-2.7,0.7-5.2,1.4-7.4,0.6c1.4,0,2.3-0.3,3.7-1.2c2.3-2.4,4.6-4.8,6.9-7.1     c4.1-3.1,8.1-6.1,12.2-9.2c2.7-0.9,5.3-1.7,8-2.6C481.3,208.5,483,207.5,484,207.1"></path>
			<path class="st6" d="M495.8,219.8c-13.6,7.3-26.5,14.6-33.5,28.5C462.3,230.7,480,223,495.8,219.8"></path>
			<path class="st6" d="M459.6,185.2c-10.1,6.9-17.2,20.7-16.3,34.2c-3.3-11.7-2.1-22.7,7.9-30.8c1.7-0.8,3.4-1.7,5.1-2.5     C457.5,185.8,458.6,185.5,459.6,185.2"></path>
			<g>
				<path d="M595.1,217.1c-1.8-11.5-4.9-22.7-9-30.7c-0.5-1-1.3-2-2.2-2.9c-2.1-2.1-5.2-4-8.4-5.1c-3.4-1.2-6.9-1.4-9.8,0.1      c-0.7,0.4-1.4,0.9-2,1.5c-1.8,1.9-3.4,4.1-4.9,6.4c-1.7,2.5-3.5,5-5.5,6.8c-2.4,2.1-5.4,3.3-8.2,4.4c-1.2-3-2.7-5.8-4.3-8.3      c-1.9-3.1-4.1-6-6.6-8.9c-2-2.4-3.9-4.1-6-5.7c-2.1-1.6-4.2-2.9-6.7-4.5c-6.7-4.2-12.4-9.2-18.2-14.3c-2.6-2.3-5.3-4.7-7.9-6.8      c-13.8-11.4-26.7-16.9-40.5-17.8c-13.7-0.9-28.2,2.9-45.3,10.1c-8.2,3.5-14.4,7.6-19.7,12.5c-5.1,4.7-9.4,10.2-14.2,16.5      c-2.8,0.2-5.2,0.6-7.7,1.6c-2.8,1.1-5.5,2.9-8.9,5.8c-2.4,2.1-4.6,4.2-6.8,6.3l0,0c-2,2-4,4-6,6c-15.6,2.5-28.2,5.3-39.6,9.7      c-11.6,4.5-21.8,10.7-32.4,20c-4.3,3.8-8,7.8-11.3,12.1c-3.2,4.2-5.9,8.6-8.3,13.2c-2.1,2.3-4.2,4.7-6.5,6.7      c-2.2,2-4.6,3.7-7.2,4.7l0,0c-1.5,0.6-2.2,0.9-2.3,0.9s-0.1-0.3-0.2-0.7c3.8-3.6,4.4-8.9,4.8-14.2c0.5,0.5,0.9,1.2,1.4,1.9      c0.5,0.8,1,1.6,1.6,2.4l2.6,3.3l0.9-4.1c0.8-3.4,1.3-8,0.4-11.9c-0.6-2.6-1.8-4.8-3.8-6.4c0.2-0.5,0.4-1,0.6-1.5      c0.7-1.7,1.3-3.4,1.9-5l1.1-3.2l-3.3,0.6c-4.4,0.8-14,6-20.7,13c-2.5,2.6-4.6,5.5-6.1,8.5c-1.5,3.1-2.1,6.4-1.6,9.7      c0.5,2.9,1.9,5.6,4.5,8.3c0.5,1.9,0.9,3.6,1.4,5.1c0.5,1.7,1.1,3.2,1.8,4.7c2,4.1,5.1,6.6,8.7,7.7c2.9,0.9,6.1,1,9.3,0.3      c-0.6,3.6-1,7.3-1.2,11.3c-0.2,5.3,0,11.2,0.6,18c0.1,1.5,0.3,3.1,0.6,4.9c0.2,1.5,0.5,3,0.7,4.5c-0.6,1.6-1.2,3.2-1.8,4.8      c-0.9,2.5-1.8,5-2.7,7.5c-2,2-4,4-6,6c-1.9,1.9-3.8,3.7-5.6,5.6c-0.2,0.2-0.8,0.8-1.4,1.3c-3.8,3.7-4.6,4.4-3.5,10.8      c0.7,4,2,8,4,11.8c1.9,3.6,4.4,7,7.6,10.3c4,4,10.6,9,17.5,11.7c3.9,1.5,8,2.2,11.8,1.6c-0.2,0.6-0.3,1.2-0.6,1.8      c-0.6,1.7-1.3,3.3-2,4.9c-4.7,10.3,0.1,15.6,7.6,19c3.7,1.7,8.2,2.9,12.3,3.9c0.8,0.2,1.7,0.4,2.7,0.7c4.9,1.3,13.3,3.7,21,4.2      c8.4,0.5,16-1.2,18-8.8c0.8-3,1.3-5.3,1.5-7.5c0.2-2.1,0.1-4.2-0.1-6.8c2.4-5.3,3.4-6.8,5.2-9.4c0.3-0.5,0.8-1.1,0.9-1.3      c1.9-2.8,2.8-4.8,3.1-7c0.3-2.1,0-4.3-0.3-7.6c0-0.3-0.1-0.8-0.2-1.4c4.9,0.6,9.8,1,14.6,1c2.5,0,4.9-0.1,7.4-0.2      c-0.6,0.3-1.3,0.7-2,1c-0.3,0.2-0.6,0.3-0.9,0.5c-6.5,3.3-6.8,9.7-4.7,16.2c1.8,5.9,5.6,11.9,8,15.5c5,7.7,9.7,14.2,15.5,17.7      c6,3.7,12.9,4.1,21.8-0.7c4.5-2.5,6-5,7.9-8.3c0.6-1,1.2-2.1,2-3.3c1.9-1.2,6.5-5.1,11.1-8.9c1.6-1.3,3.1-2.6,4.9-4      c1.2,0.9,2.7,1.5,4.4,1.9c2.3,0.5,5,0.8,8.3,1c2.4,0.2,10.4,0.2,15.6,0.2c1.6,0,2.9,0,3.7,0c5.3,0,9.6-0.2,12.9-2.1      c3.5-2,5.5-5.4,6-11.7c0.2-2.8,0.2-4.5-0.2-6.2c-0.4-1.6-1.1-3.1-2.3-5.3c-0.1-2.7-0.1-5.4-0.2-8.1c-0.1-2.9-0.2-5.7-0.2-8.6      c-0.1-3.4-0.5-6.1-1.1-8.8c-0.7-2.7-1.6-5.2-2.9-8.3c-0.9-2.1-1.6-4-2.3-5.9l-1.9,0.7l0,0l0.3-0.1l1.6-0.6l0,0      c-1.1-3-2.2-5.9-3.7-9.1c0.1-0.6,0.2-1.3,0.3-1.9c1,1,2,1.9,3,2.9l4.4,4.2c3.3,3.2,6.4,6.1,10,8.3c3.7,2.2,7.9,3.5,13.3,3.2      c5.6-0.3,11.7-2.6,16.7-6.3c4.8-3.6,8.7-8.3,10.3-13.7c0.5-1.5,0.9-3.1,1.4-4.6c0.4-1.2,0.7-2.5,1.1-3.7      c7.9,1.3,16.4,1.8,24.6,0.9c7.9-0.8,15.6-2.9,22.2-6.4c9.7-5.2,17-12.8,22.2-21.9l0,0c5.8-10.1,9.1-22.1,10.4-34.3      C597.6,243.4,597.1,230,595.1,217.1z M480.8,308.6c-2.3,7.8-6,20.5,4.5,22.9c4,0.9,5.9,0.8,11.5-2.2c-4.6,1-6.9,0.8-10.1,0.2      c-2.9-0.5-4.4-2.3-5.2-4.5c1,0.7,2.6,1.1,5.4,1.8c7.8,1.9,15.3-1.9,16.8-7.3c0.9-3.2,0.7-4.8,2.5-9.2c1.6,0.5,3.3,1,5,1.4      c-1,3.2-1.9,6.3-2.9,9.5c-2.5,8.2-12.3,14.9-21,14.7c-8-0.1-13.1-5.2-18.6-10.1c-3.8-3.4-7.5-6.6-11.1-9.9      c-10-3.1-18-6.8-27.2-13.7c6.6,7.7,11.1,12,20.3,15.9c-1.3,13.6-6.1,23.6-10.1,36.6c-1.8,5.9-16.3,29.5-20.3,31.9      c-2.9,1.6-20.7,16.7-24.1,18.7c-2.5,3.3-4.7,7.9-8.5,9.9c-11.5,6.1-18.8-5.5-25-15.4c-2.8-4.5-10.6-17.3-3.8-20.9      c6.4-3.4,10-5.8,16.6-10.1c1,1.8,2.6,3.5,3.7,5.2c-0.2-1.9-0.5-3.8-0.7-5.8c-0.4-3.5-0.4-6.3-0.1-9.8c0.3-3.4,0.5-6.8,0.8-10.2      c-1,3.4-3,6.9-3.9,10.3c-0.4,1.4-0.7,2.5-0.9,3.5c-14.7,3-29.3,3.2-44.1,0.6c-0.9-5.5-2.1-11.1-3-15.2      c-0.3,4.6-0.1,17.2-0.1,24.2c0,5.5-0.2,7.3-3.1,12c-2.6,4.4-3.8,5.3-7.5,12.7c0.3,4.6,0.3,7.7-0.9,12.1      c-2.1,7.3-22.8,1.7-28.2,0.2c-6.7-1.8-20.6-4.6-17.1-13.5c3.1-7.9,5-16.2,6.5-27.3c-12.3-17.8-23.8-42.1-26-63.6      c-1.7-16.7-0.7-27,2.9-37.3c5.7-16.2,13.8-30.3,26.6-41.6c17.4-15.2,33.6-21.4,59.1-25.2c-6.1,6.8-12.2,14.1-18.8,21.8      c-6.7,7.9-10.6,15.8-14.9,24.4c-5.9,11.9-5.7,16.4,2,26.8c6.7,9,10.3,13,13.2,21.8c-2.4,5-3.3,9.2-4.1,16      c8.2,9,14.3,15.1,22.2,17c7.8,1.9,14.3,1.5,21.3-2.1c15.5-7.9,29.8-18.2,47.3-18.6c8.1-19.9,7.3-36.5,3.4-55.8      c-2.7-13.1-3.7-25.6-4.5-39c-3.3,13.8-3.9,25.9-1.5,39.7c2.9,16.6,5.2,34.9-2.9,49.4c-15.8,1.2-29.4,10.8-43.6,18.2      c-5.7,3-11.7,3.3-18,1.5c-5.9-1.6-9.9-5.5-16.2-12.8c-0.1-7.3,1.6-10.7,4.9-17.4c5.4-10.7,11.4-20.6,18-31.1      c-8,9.7-15.6,17.8-22,27.5c-2.4-6.9-5.9-10.4-11.6-18.1c-5.6-7.6-6.2-10.9-2-19.7s7.8-16.5,14.9-24.3      c12.4-13.4,23.7-28.2,37.2-41.4c7.3-7.1,10.3-6.9,20.1-8.4c8.8-1.3,17.4-3,26.4-5.1c-8.7,0.8-17.1,1.1-25.5,1.3      c-0.1,0-0.2,0-0.3,0c8.3-10.6,13.1-16.5,26.6-22.4c33.3-14.4,54.4-16,80.5,6c6.8,5.7,12.7,11.2,19.5,16.1      c-2.5,0.2-4.6,0.7-7.5,1.8c3.5-0.7,7.4,0,11,0.6c1,0.7,2,1.3,3.1,1.9c4.8,2.9,7.6,4.4,10.9,9c3.5,4.8,6.4,9.6,8.9,15      c-1.7-0.6-3.1-1.1-4.3-1.5c-0.9-0.4-1.9-0.7-3-0.8c-2.1-0.2-4.1,0.3-5.8,1.3c-0.1,0-0.1,0.1-0.2,0.1c-2.7,1.3-6.8,2.8-9.6,3.2      c1.4,0.5,4.6,0.7,6,0.1c0.2-0.1,0.4-0.1,0.6-0.2c-0.7,1.1-1.1,2.4-1.2,3.8c-0.2,1.8,0.2,3.6,1,5.2l0,0c0.3,0.6,0.6,1.1,1,1.5      c-1.3,0.5-2.6,1-3.9,1.6c6.2-0.9,11.8-1.1,17.8-0.3c0.4,1.9,0.8,3.9,1.2,6c-0.7,0.1-1.5,0.1-2.2,0.2c-0.1,0-0.1,0-0.2,0      c-2.9-2.3-6-1.9-10.4-0.9c-13.2,3-10.1,10.5-16.2,21.7c6.3-7.7,5.9-15.8,16.2-18.3c2.4-0.6,4-1.3,5.7-1      c-2.9,1.5-5.5,3.9-6.5,6.7c-2.8,8-1.1,14.7-4.2,22.2c3.9-6.7,4.1-13.2,7.5-20.2c1.2-2.5,5.8-6.6,8.6-6.6c0.8,0,1.5,0,2.3-0.1      c0.7,4.4,1.1,8.9,0.8,12.5c-0.5,6.7-2.2,16.6-3.3,20.4c3.5-4.5,5.1-14,6.6-20.7c1.6-7,1.2-15.3-0.2-22.8      c-1.9-10.3,8.7-8.6,14.8-13.4c4.5-3.6,7.6-9.2,11.7-13.3c4.1-4,10.6,1.9,12.2,5.8c7,16.9,10.2,43.5,8.3,60.6      c-2.1,19.1-11.3,40-28.2,49.5c-21.5,12-46.9,4.7-68.3-2.5c-4.6-1.5-7.7-3.8-11.8-6.3C481.8,298.4,482.3,303.6,480.8,308.6z       M461.8,384.8c-0.7,7.9-3.3,8.4-10.3,8.3c-3.2-0.1-15.7-0.1-18.9-0.4c-4.5-0.4-7-0.8-8.4-1.8c7.1-5.2,19.1-26.6,21.4-34      c2.5-7.8,5.2-14.6,7.2-21.8c0.9,3,1.7,6,3,9.2c2.3,5.3,3.4,8.6,3.5,14.4c0.2,6,0.3,12.1,0.5,18.1      C461.9,380.3,462.2,381,461.8,384.8z M267.4,383L267.4,383L267.4,383L267.4,383z M249.1,325c4.5,15.5,12.1,30.8,20.6,43.6      c0,0.1,0,0.1,0,0.2c-0.5,2.2-1.1,4.4-2.4,6.1c-6.1,8.1-21.5-3.8-25.9-8.3c-4.9-5-8.1-10.9-8.9-16.4c-0.6-4,0-4.1,2.8-7      c3.8-3.8,7.6-7.7,11.4-11.5C247.5,329.4,248.3,327.2,249.1,325z M240.5,227.4c-1.2,2.5-2,4.3-2.5,6.3      c-2.4,8.3,1.1,15.8-6.5,21.8c3.6,7.2,3.4,10,11.7,6.7c3.2-1.3,5.8-3.1,8.2-5.2c-1.1,2.9-2.2,5.9-3.1,9c-0.2,0.5-0.3,1-0.5,1.5      c-5.9,2.5-13.7,4.1-16.7-2.1c-1.4-3-2.3-6-3.3-9.8C218,245.5,232.6,232.2,240.5,227.4z M245.3,238.1c-1.2-1.2-2.2-2-3.7-1.8      c0.1-1,0.3-2,0.6-2.9c0.1-0.5,0.3-0.9,0.4-1.4C244.6,233.1,245.1,235.2,245.3,238.1z M537.8,200.3c0.4,0.8,0.7,1.6,1.1,2.4      c-0.3,0.2-0.6,0.4-0.8,0.7c-0.5-1.1-1.2-2.1-2-3C536.6,200.4,537.2,200.3,537.8,200.3z M256.2,246.2L256.2,246.2L256.2,246.2      L256.2,246.2L256.2,246.2z M241.3,239.2L241.3,239.2L241.3,239.2L241.3,239.2L241.3,239.2z M331.2,368.5L331.2,368.5      L331.2,368.5L331.2,368.5L331.2,368.5z M419.1,394.7L419.1,394.7L419.1,394.7L419.1,394.7L419.1,394.7z M465.5,375.8      L465.5,375.8L465.5,375.8L465.5,375.8z M454.8,326.8L454.8,326.8L454.8,326.8L454.8,326.8L454.8,326.8z M241.6,258.3      L241.6,258.3L241.6,258.3L241.6,258.3L241.6,258.3l-0.1-0.2L241.6,258.3z M584.5,286.5L584.5,286.5L584.5,286.5L584.5,286.5z"></path>
				<path d="M207.1,255.9c1.6-17.6,5-25.2,17.5-38.4C208.9,228.6,205,233.6,207.1,255.9z"></path>
				<path d="M386.8,131.3c-9.4,2.3-11.2,4-14,13.2C377.3,137.8,379.9,135.6,386.8,131.3z"></path>
				<path d="M203.1,241.6c1.7-7.9,3.3-10.9,8.2-17.4C203.4,229.7,202.4,232,203.1,241.6z"></path>
				<path d="M401.6,130c-18.6,4.6-24.1,7.8-30.3,29.4C379.2,143.5,385.2,137.7,401.6,130z"></path>
				<path d="M471.4,295c-0.4,2.6-1,5.9-1.4,8.6c1.1-3,2.5-6.5,3.8-9.3c1.4-3,2.2-3.3,5.1-4.9c2.1-1.1,5.9-2.7,7.9-3.8      c-2.1,0.4-6,1.1-8.1,1.5C473,288,472.3,289.4,471.4,295z"></path>
				<path d="M484.9,221.7c-0.1-1.3-0.5-2.6-1.1-3.9c-1.4-3-3.9-5.1-6.8-6.2c2.6-1.4,5.2-2.9,7.2-4.7c-5.9,2.7-12.8,2.1-17.8,5.5      c-4.5,3-10.6,12.6-15.1,16.6c3.3-1.3,6.4-3.5,9.4-5.8c0,1.7,0.4,3.5,1.2,5.1c1.2,2.5,3.1,4.4,5.3,5.5c-1.6,2.1-3,4.6-4,7.2      c8.6-10.2,21.1-17.9,32.9-21.2C492.8,219.8,488.9,220.4,484.9,221.7z"></path>
				<path d="M556.8,209.2c10.7-3.8,15.9-12.4,18.4-22.6c-4.2,8.5-10.7,15.6-19.5,19.9c-4.7,2.3-7.7,1.5-13,1      C548.2,209.1,551.6,211.1,556.8,209.2z"></path>
				<path d="M441.7,208.6c2-8.8,5.5-17.3,19.2-23.8C442.8,189.3,439.4,196.9,441.7,208.6z"></path>
				<path d="M373.8,192.8c-6.6,6.6-13.1,29.1-15.1,38c3.2-7.5,11.4-28.4,17.6-33.7c1.7-1.5,2.9-2.4,4.2-3c-4.5,7.5-4.1,9.3-2.6,19.3      c1.3-10.2,4.8-14.1,10.6-21.7c6.3-1.6,12.3-3.5,18.7-6c-7.3,0.8-14.6,1.6-22,2.3C379.2,188.6,378.2,188.5,373.8,192.8z"></path>
			</g>
			<path class="st5" d="M464.2,231.1c-1.2-2.5-0.1-5.6,2.4-6.8s5.6-0.1,6.8,2.4c0.1,0.2,0.2,0.5,0.3,0.7c-2.4,1.8-4.6,3.9-6.5,6.4     C465.9,233.4,464.8,232.4,464.2,231.1"></path>
			<path class="st5" d="M520.8,209.2c0.2-2.1,2-3.6,4.1-3.4c2.1,0.2,3.6,2.1,3.4,4.2c0,0.4-0.2,0.9-0.3,1.2     c-1.9,0.3-3.8,0.9-5.8,1.6C521.3,212,520.7,210.4,520.8,209.2"></path>
		</g>
	</g>
</g>
<g>
	<path class="st1" d="M232.8,603c0-1.2,1-2.2,2.2-2.2h10.8c1.3,0,2.2,1,2.2,2.2v30.7h37.8V603c0-1.2,0.9-2.2,2.2-2.2h10.7   c1.2,0,2.2,1,2.2,2.2v76.8c0,1.2-1,2.2-2.2,2.2H288c-1.3,0-2.2-1-2.2-2.2v-32H248v32c0,1.2-0.9,2.2-2.2,2.2H235   c-1.2,0-2.2-1-2.2-2.2V603z"></path>
	<path class="st1" d="M330.8,652.7c4.6,0,8.5,1.3,8.5,1.3c0.1-5.9-1.7-8-6-8s-10.3,0.9-13,1.7c-1.6,0.5-2.4-0.6-2.7-2.1l-1-6   c-0.3-1.7,0.6-2.6,1.6-2.9c0.9-0.3,8.4-2.2,15.8-2.2c14.5,0,17.9,7.5,17.9,20.2v25.2c0,1.2-1,2.2-2.2,2.2h-4.2   c-0.8,0-1.4-0.3-2-1.6l-1.4-3.1c-2.7,2.4-7,5.9-14.2,5.9c-9.3,0-15.7-6-15.7-15.9C312.3,659.1,319,652.7,330.8,652.7z M331,673.3   c3.7,0,7.3-3.1,8-4.5v-6.4c0,0-3.1-1.4-6.5-1.4c-4.5,0-7.5,2.6-7.5,6.3C325,670.8,327.5,673.3,331,673.3z"></path>
	<path class="st1" d="M384.6,634.5c4.6,0,8.2,1.3,10.3,2.1V603c0-1.2,1-2.2,2.2-2.2h9.9c1.2,0,2.2,1,2.2,2.2v76.8   c0,1.2-1,2.2-2.2,2.2h-4.5c-1,0-1.9-0.9-2.2-2.2l-1.2-3.6c0,0-5.5,7-15.2,7c-12.6,0-22.3-11-22.3-24.4   C361.7,645.3,370.8,634.5,384.6,634.5z M385.7,670.7c6.1,0,8.9-4.8,9.7-7.5v-13.5c0,0-3.2-2.7-9-2.7c-6.5,0-11.3,5.3-11.3,11.8   S379.5,670.7,385.7,670.7z"></path>
	<path class="st1" d="M443.3,634.5c13.1,0,23.8,11.1,23.8,24.2c0,13.3-10.7,24.5-23.8,24.5s-23.8-11.1-23.8-24.5   C419.6,645.6,430.2,634.5,443.3,634.5z M443.3,670.7c6.1,0,11.1-5.3,11.1-11.9c0-6.5-5-11.7-11.1-11.7c-6.3,0-11.1,5.2-11.1,11.7   C432.2,665.3,437.1,670.7,443.3,670.7z"></path>
	<path class="st1" d="M497.6,634.5c13.1,0,23.8,11.1,23.8,24.2c0,13.3-10.7,24.5-23.8,24.5s-23.8-11.1-23.8-24.5   C473.8,645.6,484.5,634.5,497.6,634.5z M497.6,670.7c6.1,0,11.1-5.3,11.1-11.9c0-6.5-5-11.7-11.1-11.7c-6.3,0-11.1,5.2-11.1,11.7   C486.5,665.3,491.4,670.7,497.6,670.7z"></path>
	<path class="st1" d="M546,714.6c0,1.4-0.7,2.2-2.8,2.2h-9.3c-1.2,0-2.2-1-2.2-2.2v-76.8c0-1.3,1-2.2,2.2-2.2h4.5   c0.8,0,1.6,0.5,2,1.4l1.5,3.8c1.7-2.3,7.4-6.4,15-6.4c12.8,0,22.4,11,22.4,24.4c0,13.7-10.4,24.4-23,24.4c-4.5,0-8.7-1.6-10.3-2.6   V714.6z M554.5,670.7c6.5,0,11.3-5.3,11.3-11.8s-4.4-11.8-10.8-11.8c-5.9,0-8.8,4.6-9.5,7.1V668C545.4,668,548.7,670.7,554.5,670.7   z"></path>
</g>
</svg>
