<?xml version="1.0" encoding="UTF-8"?>
<!-- Generator: Adobe Illustrator 28.0.0, SVG Export Plug-In . SVG Version: 6.00 Build 0)  -->
<svg xmlns="http://www.w3.org/2000/svg" xmlns:xlink="http://www.w3.org/1999/xlink" version="1.1" id="Layer_3" x="0px" y="0px" viewBox="0 0 801.2 831.3" style="enable-background:new 0 0 801.2 831.3;" xml:space="preserve">
<style type="text/css">
	.st0{opacity:0.39;enable-background:new    ;}
	.st1{fill:#FFFFFF;}
	.st2{fill:#E46525;}
</style>
<ellipse class="st0" cx="401" cy="286.1" rx="262.8" ry="266.3"></ellipse>
<circle class="st1" cx="401" cy="278.3" r="261.4"></circle>
<g>
	<polygon class="st2" points="435.2,282.7 431.8,318.7 400.7,327 369.8,318.7 367.7,296.6 340.1,296.6 343.6,340.5 400.7,356.2    401.3,356.2 401.3,356.1 457.9,340.5 465.8,254.6 364.2,254.6 361.9,226.1 468.2,226.1 470.7,198.5 331.3,198.5 338.7,282.7  "></polygon>
	<path class="st2" d="M401,39.5c-131.9,0-238.8,106.9-238.8,238.8S269.1,517.1,401,517.1s238.8-106.9,238.8-238.8   S532.9,39.5,401,39.5z M491.9,378.9l-91.2,25.6l-90.5-25.6L290,152.1h222.1L491.9,378.9z"></path>
</g>
<g>
	<path class="st1" d="M216.7,603c0-1.2,1-2.2,2.2-2.2h10.8c1.3,0,2.2,1,2.2,2.2v30.7h37.8V603c0-1.2,0.9-2.2,2.2-2.2h10.7   c1.2,0,2.2,1,2.2,2.2v76.8c0,1.2-1,2.2-2.2,2.2h-10.7c-1.3,0-2.2-1-2.2-2.2v-32h-37.8v32c0,1.2-0.9,2.2-2.2,2.2h-10.8   c-1.2,0-2.2-1-2.2-2.2V603z"></path>
	<path class="st1" d="M316.8,614.8h-17.7c-1.3,0-2.2-1-2.2-2.2V603c0-1.2,0.9-2.2,2.2-2.2h50.7c1.3,0,2.2,1,2.2,2.2v9.5   c0,1.2-0.9,2.2-2.2,2.2H332v65.1c0,1.2-1,2.2-2.2,2.2H319c-1.2,0-2.2-1-2.2-2.2V614.8z"></path>
	<path class="st1" d="M371.1,601.4c0.1-0.9,0.8-1.7,2.1-1.7h1.9c0.9,0,1.6,0.5,2,1.2l25.5,54.8c0.2,0,0.2,0,0.3,0l25.5-54.8   c0.3-0.7,0.9-1.2,2-1.2h1.9c1.3,0,2,0.8,2.1,1.7l13.7,78c0.3,1.6-0.6,2.7-2.1,2.7h-10.6c-1,0-2-0.9-2.2-1.7l-6.8-44   c-0.1,0-0.3,0-0.3,0l-20.3,45.6c-0.2,0.7-0.9,1.3-2,1.3h-2.1c-1,0-1.6-0.6-2-1.3l-20.5-45.6c0,0-0.2,0-0.3,0l-6.7,44   c-0.1,0.8-1,1.7-2.1,1.7h-10.4c-1.5,0-2.4-1-2.2-2.7L371.1,601.4z"></path>
	<path class="st1" d="M463.9,603c0-1.2,0.9-2.2,2.2-2.2h10.7c1.2,0,2.2,1,2.2,2.2v65.1h29.6c1.3,0,2.2,1,2.2,2.2v9.5   c0,1.2-0.9,2.2-2.2,2.2h-42.5c-1.3,0-2.2-1-2.2-2.2V603z"></path>
	<path class="st1" d="M544,669.6l5.8-5.7c0.8-0.7,1.9-0.9,2.8-0.1c0.5,0.5,7.2,6.5,15,6.5c7.9,0,13.5-6.4,13.5-13.7   c0-7.2-4.9-13-14-13h-17.9c-2.3,0-3.6-2.2-3.6-4.1v-34.2c0-1.2,0.9-2.2,2.2-2.2h36.7c1.3,0,2.2,1,2.2,2.2v7.9   c0,1.2-0.9,2.2-2.2,2.2h-25.8v15.4h10c16.5,0,26.6,10.6,26.6,25.8c0,14.5-12.1,26.6-28.1,26.6c-12.4,0-20-6.1-22.9-9.6   C542.7,671.8,542.6,671,544,669.6z"></path>
</g>
</svg>
