<?xml version="1.0" encoding="UTF-8"?>
<!-- Generator: Adobe Illustrator 28.0.0, SVG Export Plug-In . SVG Version: 6.00 Build 0)  -->
<svg xmlns="http://www.w3.org/2000/svg" xmlns:xlink="http://www.w3.org/1999/xlink" version="1.1" id="Layer_1" x="0px" y="0px" viewBox="0 0 801.2 831.3" style="enable-background:new 0 0 801.2 831.3;" xml:space="preserve">
<style type="text/css">
	.st0{opacity:0.39;enable-background:new    ;}
	.st1{fill:#FFFFFF;}
	.st2{fill:#264A71;}
</style>
<g id="Layer_1_1_">
	<ellipse class="st0" cx="401" cy="286.1" rx="262.8" ry="266.3"></ellipse>
	<circle class="st1" cx="401" cy="278.3" r="261.4"></circle>
</g>
<g id="Layer_2_1_">
	<g>
		<g>
			<path class="st2" d="M336.4,147.1c-10.8,0-19.5,8.7-19.5,19.6c0,10.8,8.7,19.6,19.5,19.6s19.5-8.8,19.5-19.6     C355.9,155.8,347.2,147.1,336.4,147.1"></path>
			<path class="st2" d="M464.8,147.1c-10.8,0-19.5,8.7-19.5,19.6c0,10.8,8.7,19.6,19.5,19.6s19.5-8.8,19.5-19.6     C484.3,155.8,475.6,147.1,464.8,147.1"></path>
			<path class="st2" d="M400.6,129.3c-10.8,0-19.5,8.7-19.5,19.6c0,10.8,8.7,19.6,19.5,19.6s19.5-8.8,19.5-19.6     C420.1,138,411.4,129.3,400.6,129.3"></path>
			<path class="st2" d="M511,201.6c-1.1-0.8-2.4-1.3-3.7-1.3c-0.7,0-1.5,0.1-2.2,0.4c-13.2,5.1-26.7,8.9-38.9,11.8     c-2.5,0.6-4.5,2.4-5.4,4.7c-8.9,24.5-31.8,47.8-55.7,72.2c-1,0.9-2.3,2.1-4.5,2.1s-3.5-1.2-4.5-2.1     c-23.9-24.4-46.8-47.6-55.7-72.1c-0.8-2.2-2.9-4.1-5.4-4.7c-12.3-2.9-25.7-6.8-39-11.9c-0.7-0.3-1.5-0.4-2.2-0.4     c-1.3,0-2.6,0.4-3.7,1.2c-1.7,1.3-2.6,3.4-2.4,5.4c2,20.4,10.1,40.3,24.6,61.1c13.6,19.6,31.4,37.8,48.6,55.3     c31.7,32.3,61.7,62.9,64.3,98.3c0.2,3.2,2.9,5.7,6.1,5.7h37.2c1.7,0,3.3-0.7,4.4-1.9c1.2-1.2,1.8-2.8,1.7-4.5     c-1.2-23.7-10.1-47.4-27.2-72.5c-3.6-5.3-7.4-10.4-11.5-15.4c-1.6-2-1-4.6,0.3-5.9c1.2-1.3,2.5-2.5,3.7-3.8     c17.2-17.5,35-35.7,48.7-55.3c14.5-20.9,22.6-40.6,24.6-61C513.6,205,512.6,202.9,511,201.6"></path>
			<path class="st2" d="M360.6,350.9c-0.9-0.9-2.2-1.9-4.3-1.9c-2.8,0-4.4,1.9-5.1,2.9c-15.7,23.8-23.8,46.3-24.9,69     c-0.1,1.7,0.5,3.3,1.7,4.5s2.8,1.9,4.5,1.9h37.2c3.2,0,5.9-2.5,6.1-5.7c0.8-10.9,4.2-21.8,10.4-33.3c2.1-4,0.5-7.7-0.8-9.3     C379.3,371.1,371.8,362.6,360.6,350.9"></path>
			<path class="st2" d="M400.6,219.9c11.7,0,18.4-0.7,20.8-0.7c2.9,0,5.6,2.4,5.6,5.7c0,1-0.2,1.7-0.5,2.3     c-1.5,4.1-8.6,19-21.7,31.8c-1.5,1.4-3.1,1.7-4.3,1.7l0,0c-1.1,0-2.8-0.3-4.3-1.7c-13.1-12.8-20.2-27.7-21.7-31.8     c-0.2-0.6-0.5-1.3-0.5-2.3c0-3.3,2.8-5.7,5.6-5.7C382.1,219.2,388.9,219.9,400.6,219.9L400.6,219.9"></path>
		</g>
		<g>
			<g>
				<g>
					<path class="st2" d="M569.4,109.5c-45.1-45.1-105.1-69.9-168.8-69.9s-123.7,24.8-168.8,69.9s-69.9,105.1-69.9,168.8       c0,63.8,24.8,123.7,69.9,168.8S336.9,517,400.6,517s123.7-24.8,168.8-69.9s69.9-105,69.9-168.8S614.5,154.6,569.4,109.5z        M400.6,499.7c-122.1,0-221.4-99.3-221.4-221.4S278.5,56.9,400.6,56.9S622,156.2,622,278.3S522.7,499.7,400.6,499.7z"></path>
				</g>
			</g>
		</g>
	</g>
</g>
<g>
	<path class="st1" d="M318.5,671.8l6-6.1c1.3-1.2,2.4-0.9,3.5,0.1c1.5,1.6,3.8,3.7,7.7,3.7c4.5,0,9.3-3.7,9.3-11.7V603   c0-1.2,0.9-2.2,2.2-2.2H358c1.3,0,2.2,1,2.2,2.2v54.8c0,16.1-10.8,25.4-24.4,25.4c-10.1,0-15.7-6-17.6-8.5   C317.6,673.8,317.8,672.6,318.5,671.8z"></path>
	<path class="st1" d="M373.8,611.2c0-4.4,3.5-8,7.9-8c4.5,0,8.1,3.6,8.1,8c0,4.4-3.6,8-8.1,8C377.3,619.2,373.8,615.6,373.8,611.2z    M374.8,637.8c0-1.3,1-2.2,2.2-2.2h9.6c1.2,0,2.2,0.9,2.2,2.2v42c0,1.2-1,2.2-2.2,2.2H377c-1.2,0-2.2-1-2.2-2.2V637.8z"></path>
	<path class="st1" d="M402.8,637.8c0-1.3,1-2.2,2.2-2.2h4.4c1,0,1.7,0.6,2.1,1.5l1.6,4.5c1.6-2.3,5.9-7.2,13.1-7.2   c5.5,0,10.3,1.7,8.9,4.6l-4.3,7.5c-0.6,1-1.7,1.5-2.7,1c-0.3-0.1-2.1-0.7-3.4-0.7c-4.6,0-7.4,3.1-8.2,4.8v28.1c0,1.6-1,2.2-2.7,2.2   H405c-1.2,0-2.2-1-2.2-2.2V637.8z"></path>
	<path class="st1" d="M457.5,652.7c4.6,0,8.5,1.3,8.5,1.3c0.1-5.9-1.7-8-6-8s-10.3,0.9-13,1.7c-1.6,0.5-2.4-0.6-2.7-2.1l-1-6   c-0.3-1.7,0.6-2.6,1.6-2.9c0.9-0.3,8.4-2.2,15.8-2.2c14.5,0,17.9,7.5,17.9,20.2v25.2c0,1.2-1,2.2-2.2,2.2h-4.2   c-0.8,0-1.4-0.3-2-1.6l-1.4-3.1c-2.7,2.4-7,5.9-14.2,5.9c-9.3,0-15.7-6-15.7-15.9C439,659.1,445.7,652.7,457.5,652.7z M457.8,673.3   c3.7,0,7.3-3.1,8-4.5v-6.4c0,0-3.1-1.4-6.5-1.4c-4.5,0-7.5,2.6-7.5,6.3C451.7,670.8,454.2,673.3,457.8,673.3z"></path>
</g>
</svg>
