<?xml version="1.0" encoding="UTF-8"?>
<!-- Generator: Adobe Illustrator 28.0.0, SVG Export Plug-In . SVG Version: 6.00 Build 0)  -->
<svg xmlns="http://www.w3.org/2000/svg" xmlns:xlink="http://www.w3.org/1999/xlink" version="1.1" id="Layer_1" x="0px" y="0px" viewBox="0 0 801.2 831.3" style="enable-background:new 0 0 801.2 831.3;" xml:space="preserve">
<style type="text/css">
	.st0{opacity:0.39;enable-background:new    ;}
	.st1{fill:#FFFFFF;}
	.st2{fill:#0469AC;}
	.st3{fill:#121B28;}
</style>
<g id="Layer_1_00000065791155150450650890000006304618012293102493_">
	<ellipse class="st0" cx="401" cy="286.1" rx="262.8" ry="266.3"></ellipse>
	<circle class="st1" cx="401" cy="278.3" r="261.4"></circle>
</g>
<g>
	<path class="st1" d="M248.1,637.8c0-1.3,1-2.2,2.2-2.2h9.7c1.2,0,2.2,0.9,2.2,2.2v56.7c0,15.3-9.3,23.4-21.6,23.4   c-6.1,0-11.7-2.7-13.7-4.5c-0.8-0.6-0.9-1.9-0.5-2.7l3.8-7.4c0.5-0.9,1.7-1.2,2.8-0.6c1.5,0.9,4.3,2.3,6.8,2.3   c5.2,0,8.1-3.8,8.1-10.6V637.8z M247.2,611.2c0-4.4,3.5-8,7.9-8c4.5,0,8.1,3.6,8.1,8c0,4.4-3.6,8-8.1,8   C250.7,619.2,247.2,615.6,247.2,611.2z"></path>
	<path class="st1" d="M313.8,599.7c23.2,0,41.8,18.7,41.8,41.9c0,15.8-9.2,29.7-22.6,37.1l14.5,22.9c1,1.6,0,3.5-1.9,3.5h-12.3   c-0.5,0-1.5-0.5-1.9-1.2l-12.4-21c-1.9,0.2-3.8,0.3-5.2,0.3c-23.2,0-41.6-18.4-41.6-41.6C272.1,618.4,290.6,599.7,313.8,599.7z    M313.8,668.1c14.6,0,26.7-11.9,26.7-26.6c0-14.6-12.1-26.8-26.7-26.8s-26.6,12.2-26.6,26.8C287.2,656.2,299.1,668.1,313.8,668.1z"></path>
	<path class="st1" d="M364.8,637.8c0-1.3,1-2.2,2.2-2.2h9.5c1.2,0,2.2,0.9,2.2,2.2v22.9c0,6.1,3.1,10,8.5,10c4.9,0,8.6-4.5,9.3-8.7   v-24.1c0-1.7,0.7-2.2,2.6-2.2h8.8c1.2,0,2.2,0.9,2.2,2.2v42c0,1.2-1,2.2-2.2,2.2h-4.3c-1.2,0-1.9-0.8-2.2-1.7l-1.4-3.8   c-2.1,1.9-6.4,6.7-15.5,6.7c-14.4,0-19.6-11-19.6-22.9V637.8z"></path>
	<path class="st1" d="M444.1,634.5c11.9,0,21.7,9,21.7,21.6c0,0.8-0.1,2.3-0.2,3.1c-0.1,1.2-1.2,2-2.2,2h-29.7   c0.3,4.8,4.4,10.1,11.1,10.1c3.6,0,7-1.4,9-2.9c1.2-0.7,2.2-0.9,3,0l4.8,5.5c0.8,0.8,1,2.1-0.1,3c-3.8,3.6-9.7,6.4-17.3,6.4   c-13.9,0-23.8-11-23.8-24.4C420.5,645.7,430.3,634.5,444.1,634.5z M452.3,653c-0.3-4.3-4.1-7.9-8.5-7.9c-4.6,0-8.5,3.5-9,7.9H452.3   z"></path>
	<path class="st1" d="M475.6,637.8c0-1.3,1-2.2,2.2-2.2h4.4c1,0,1.7,0.6,2.1,1.5l1.6,4.5c1.6-2.3,5.9-7.2,13.1-7.2   c5.5,0,10.3,1.7,8.9,4.6l-4.3,7.5c-0.6,1-1.7,1.5-2.7,1c-0.3-0.1-2.1-0.7-3.4-0.7c-4.6,0-7.4,3.1-8.2,4.8v28.1c0,1.6-1,2.2-2.7,2.2   h-8.9c-1.2,0-2.2-1-2.2-2.2V637.8z"></path>
	<path class="st1" d="M511.1,638.7c-0.7-1.5,0.2-3,2-3h10.4c1,0,1.6,0.6,2,1.3l11.7,26.2h0.1l11.6-26.2c0.6-1.2,1.4-1.3,2.8-1.3h9.3   c1.9,0,2.8,1.5,2,3l-35.5,76.8c-0.3,0.7-1,1.4-2,1.4h-10c-1.7,0-2.8-1.5-2-3.1l16.5-34.9L511.1,638.7z"></path>
</g>
<g id="Layer_2_00000146485196753168725620000003295435177049637052_">
	<g>
		<g transform="matrix(.945094 0 0 .945094 6.301403 4.347014)">
			<path class="st2" d="M334.8,183.5c-16.8,24.6-14.7,56.5-1.9,82.6l0.9,1.9l0.6,1.2c0.1,0.2,0.3,0.5,0.4,0.7     c0.2,0.4,0.4,0.8,0.6,1.2l1.2,2.1l0.7,1.2l1.4,2.3l0.6,1c0.6,1,1.4,2,2.1,3c0,0,0,0.1,0.1,0.1c0.1,0.2,0.2,0.3,0.3,0.5     c0.6,0.9,1.3,1.7,1.9,2.5l0.7,0.9l1.7,2.2l0.7,0.8c0.8,1,1.6,1.9,2.4,2.8l0.1,0.1l0.1,0.1c0.8,0.9,1.6,1.8,2.5,2.6l0.8,0.8l2,2     l0.8,0.8c0.9,0.8,1.8,1.7,2.7,2.5l0.5,0.4l2.4,2.1l1,0.8l2,1.6l1.1,0.8l3.1,2.3c0.1,0.1,0.1,0.1,0.2,0.2c0.7,0.5,1.5,1,2.2,1.5     l1,0.7l3.5,2.2l1,0.5l2.6,1.5c0.5,0.3,1,0.5,1.4,0.8l1.9,1l0.4,0.2l0.8,0.4l3,1.4l0.6,0.3c1.1,0.5,2.3,1,3.4,1.5l0.8,0.3l3.3,1.2     l0.4,0.1c1.2,0.4,2.4,0.8,3.6,1.2l0.9,0.3c1.3,0.4,2.5,0.8,3.7,1.1c81.2,15.1,104.8-49.6,104.8-49.6     c-19.8,26.3-55,33.2-88.3,25.5c-1.3-0.3-2.5-0.7-3.7-1.1l-0.9-0.3c-1.2-0.4-2.4-0.8-3.6-1.2l-0.5-0.2c-1.1-0.4-2.1-0.8-3.2-1.2     l-0.9-0.4c-1.1-0.5-2.3-0.9-3.4-1.4l-0.7-0.3l-2.9-1.4l-0.8-0.4c-0.7-0.4-1.5-0.8-2.2-1.2l-1.5-0.8c-0.9-0.5-1.8-1-2.7-1.5     l-0.9-0.5c-1.2-0.7-2.3-1.4-3.5-2.2c-0.3-0.2-0.6-0.4-0.9-0.6l-2.5-1.7l-0.8-0.6l-2.3-1.7l-1-0.8l-2.1-1.7l-0.9-0.8l-2.6-2.2     c-0.1-0.1-0.2-0.2-0.3-0.2c-0.9-0.8-1.9-1.7-2.8-2.6l-0.8-0.8l-2-2l-0.8-0.8c-0.8-0.9-1.6-1.7-2.4-2.6l-0.1-0.1     c-0.8-0.9-1.7-1.9-2.5-2.9l-0.6-0.8l-1.8-2.2l-0.7-0.8l-2-2.8c-18.5-25.7-25.1-61.1-10.4-90.2 M386.9,162.8     c-12.1,17.8-11.5,41.6-2,60.4c1.6,3.2,3.4,6.2,5.4,9.1c1.8,2.7,3.8,5.8,6.2,7.9c0.9,1,1.8,1.9,2.7,2.9c0.2,0.2,0.5,0.5,0.7,0.7     c0.9,0.9,1.8,1.8,2.8,2.6l0.1,0.1c1.1,0.9,2.2,1.9,3.3,2.8l0.7,0.6c1.1,0.9,2.2,1.7,3.4,2.5c0,0,0.1,0,0.1,0.1     c0.5,0.4,1,0.7,1.6,1c0.2,0.2,0.5,0.3,0.7,0.5c0.8,0.5,1.7,1.1,2.5,1.6l0.4,0.2l2.2,1.3c0.3,0.1,0.5,0.3,0.8,0.4l1.6,0.8     c0.1,0,0.2,0.1,0.2,0.1c1.1,0.5,2.1,1,3.3,1.5c0.2,0.1,0.5,0.2,0.7,0.3c0.9,0.4,1.8,0.7,2.7,1.1l1.1,0.4c0.8,0.3,1.6,0.6,2.4,0.9     l1.1,0.4c1.2,0.4,2.3,0.8,3.5,1c62.7,10.6,77.1-38.6,77.1-38.6c-13,19.1-38.3,28.3-65.3,21.1c-1.2-0.3-2.4-0.7-3.5-1     c-0.4-0.1-0.7-0.2-1.1-0.3c-0.8-0.3-1.7-0.6-2.5-0.9l-1.1-0.4c-0.9-0.3-1.8-0.7-2.7-1.1c-0.2-0.1-0.5-0.2-0.7-0.3     c-1.1-0.5-2.2-1-3.3-1.5c-0.6-0.3-1.1-0.6-1.6-0.9l-0.9-0.5c-0.7-0.4-1.4-0.8-2.1-1.2l-0.5-0.3c-0.8-0.5-1.7-1-2.5-1.6     c-0.3-0.2-0.5-0.3-0.8-0.5l-1.6-1.1c-1.1-0.8-2.3-1.7-3.4-2.5l-0.8-0.6c-11.8-9.5-21.2-22.4-25.6-37.2     c-4.7-15.3-3.7-32.4,4.4-46.2 M430.7,147.3c-7.2,10.7-7.9,24-2.9,35.9c5.2,12.6,16,22.4,28.5,27.1c0.5,0.2,1,0.4,1.6,0.5l0.7,0.2     c0.7,0.2,1.5,0.5,2.2,0.7c34.6,6.8,44-18.1,46.5-21.7c-8.2,12.1-22,15-39,10.8c-1.3-0.3-2.8-0.8-4.1-1.3     c-1.7-0.6-3.3-1.3-4.9-2.1c-3-1.5-5.9-3.3-8.5-5.3c-15.2-11.7-24.6-34.1-14.7-52.3"></path>
			<g>
				<path class="st3" d="M354.3,375l-2.3,8.3L354.3,375L354.3,375z M366.3,393.1h-2.6H366.3z M365.7,405.5l-15.5,0.1L365.7,405.5z       M368.9,393.1h-2.6H368.9z M367.1,404.4l2.7-10.3L367.1,404.4z M424.1,357.1l-5,23.6L424.1,357.1z M411.1,357.1l-3.8,17.6      L411.1,357.1z"></path>
				<path class="st3" d="M423.2,356h-10.7c-0.6,0-1.2,0.5-1.3,1.1l-7.6,35.3c-0.1,0.6-0.7,1.1-1.3,1.1h-7.6c-7.5,0-6.7-5.2-5.1-12.3      V381l0.9-4.9l0.4-2l3.5-16.9c0.1-0.6-0.3-1.1-0.9-1.1h-11c-0.6,0-1.2,0.5-1.3,1.1l-5,23.6c-2.7,12.5-2,24.4,12.8,24.7h0.4h23.3      c0.6,0,1.2-0.5,1.3-1.1l10-47.2C424.2,356.5,423.8,356,423.2,356L423.2,356z M466,393.5c0.6,0,1,0.5,0.9,1.1l-1,5.1       M464.8,404.8l1-5.1L464.8,404.8z M463.5,405.9l-19.8,0.1L463.5,405.9z"></path>
				<path class="st3" d="M437.3,387c0-0.6,0.6-1.5,1.2-1.5h-1.3C436.5,391.5,437.3,387,437.3,387z M444.7,406h-0.2H444.7z       M466,393.5c0.6,0,1,0.5,0.9,1.1l-1.2,5.9 M449.8,406L449.8,406L449.8,406z M447.1,406H447H447.1z M446.3,406H446H446.3z       M445.5,406h-0.2H445.5z M447,406h-0.7H447z"></path>
				<path class="st3" d="M449.7,406h-2.6H449.7z M463.5,405.9l-13.7,0.1L463.5,405.9z M464.8,404.8l0.9-4.3L464.8,404.8L464.8,404.8      z M446,406h-0.5H446L446,406z M444.5,406h-0.8H444.5z M445.3,406h-0.6H445.3z M288.1,387.1l1.7-7.4l-1.9,8.5l-0.2,1.1      L288.1,387.1L288.1,387.1z M308.1,355.9h-11.8c-0.6,0-1.2,0.5-1.3,1.1l-2.2,9.8c-0.1,0.4,0.1,0.9,0.6,1c0.1,0,0.2,0,0.3,0h11.9      c0.6,0,1.2-0.5,1.3-1.1l2.2-9.9C309.1,356.3,308.7,355.9,308.1,355.9L308.1,355.9z M305.5,372.3l-3.5,16L305.5,372.3z       M271.3,425.3l9.7,0.1C278.1,425.4,273.4,425.4,271.3,425.3L271.3,425.3z"></path>
				<path class="st3" d="M291.4,372.3l-1.7,7.4L291.4,372.3z M304.7,371.2h-11.9c-0.6,0-1.2,0.5-1.3,1.1l-3.3,14.8l-0.5,2.1      l-3.2,15.1c-0.2,0.7-0.3,1.4-0.6,2.1c0,0-2.2,6.6-6,6.5l-3.7-0.1c-0.6,0-1.2,0.4-1.3,1l-2.5,10.4c-0.1,0.4,0.1,0.9,0.5,1      c0.1,0,0.2,0,0.3,0l9.7,0.1c9.3,0,14.2-5.2,17.4-20l7.1-33C305.7,371.7,305.3,371.3,304.7,371.2L304.7,371.2z M473.6,405.4      c-0.6,0-1-0.5-0.9-1.1l8.9-41.9 M486,404.3l3.6-17.9L486,404.3z"></path>
				<path class="st3" d="M472.9,404.8c-0.1-0.3,0-1,0.1-1.6l4.2-19.9l-4.5,20.9c-0.1,0.6,0.3,1.1,0.9,1.1h1.1      C474.1,405.4,472.9,405.1,472.9,404.8z M485.3,405.1c-0.3,0.1-1.1,0.2-1.7,0.2h1.1c0.6,0,1.2-0.5,1.3-1.1l0.2-1.1      C486.1,403.8,485.6,405,485.3,405.1L485.3,405.1z M487.8,395.3l1.6-7.9L487.8,395.3z M523.1,365.2l0.5,2      c0.1,0.6-0.2,1.1-0.8,1.1"></path>
				<path class="st3" d="M486.2,403.2l1.6-7.9L486.2,403.2z M522.6,363.1l0.5,2.1L522.6,363.1z M489.4,387.5l0.4-2.1l1.7-8l-1.9,9      L489.4,387.5L489.4,387.5z M481.8,361.7l-0.4,1.7l-4.2,19.9l4.5-20.9L481.8,361.7L481.8,361.7z"></path>
				<path class="st3" d="M523.6,367.2l-0.5-2l-0.7-3.2c-1-3.7-3.8-5.9-10-5.9h-28.3c-0.6,0-1.2,0.5-1.3,1.1l-0.4,2.1l-0.6,3.1      l-8.7,40.8c-0.1,0.6-0.2,1.3-0.1,1.6s1.2,0.5,1.8,0.5h9c0.6,0,1.4-0.1,1.7-0.2c0.3-0.1,0.8-1.3,1-1.9l3.4-16.8l3.6-17      c0.1-0.6,0.7-1.1,1.3-1.1H523C523.4,368.3,523.8,367.8,523.6,367.2L523.6,367.2z M559.9,348.8h-2.2h-9c-0.7,0-1.3,0.4-1.7,0.9      l-20,29.2c-0.3,0.5-0.7,0.4-0.9-0.2l-1.5-6.4c-0.2-0.6-0.7-1-1.3-1.1h-12.8c-0.6,0-1,0.5-0.8,1l5.7,20.1c0.2,0.6,0.2,1.5,0,2.1      l-2.5,9.7c-0.1,0.4,0.1,0.9,0.5,1c0.1,0,0.2,0.1,0.3,0h12.7c0.6,0,1.2-0.5,1.4-1l2.5-9.7c0.2-0.7,0.5-1.3,0.9-1.9l32.4-43      c0.4-0.5,0.2-0.9-0.4-0.9L559.9,348.8L559.9,348.8z M458,374c-0.1,0.6-0.7,1.1-1.3,1.1h-16.3c-0.6,0-0.8-0.4-0.8-0.9v-0.1      l0.1-0.3c1.6-4.1,4.7-6.8,10.7-6.8C457.2,367.1,458.5,370.4,458,374L458,374z M453.2,355.3c-20.9,0-25.8,12.7-28.6,25.5      c-2.8,13-2.5,25.2,19.1,25.2h3.4h2.6l13.7-0.1c0.6,0,1.1-0.5,1.3-1.1l2.1-10.2c0.1-0.6-0.3-1.1-0.9-1.1h-19.4      c-7.7,0-10-2.1-9.2-8.1h31c0.5,0,1-0.3,1.2-0.8c0-0.1,0.1-0.2,0.1-0.3C474.3,367,473,355.3,453.2,355.3L453.2,355.3z M354.6,374      l-0.3,1l-2.3,8.3l-2.3,8.3c-0.2,0.6-0.7,1-1.4,1h-12.4c-9.4,0-11.7-7.4-9.4-18.2c2.3-11.1,6.8-18,16-18.7      C355.1,354.8,357.6,363.7,354.6,374L354.6,374z M363.1,392c0,0,5.8-14.2,7.2-22.4c1.8-11-3.7-26.9-24.9-26.9      c-21.1,0-30.3,15.2-33.8,31.8c-3.5,16.6,1.1,31.3,22.1,31.1l32-0.1c0.6,0,1.2-0.5,1.4-1.1l2.7-10.3c0.1-0.4-0.1-0.9-0.5-1      c-0.1,0-0.2-0.1-0.3,0h-5.2c-0.5,0-0.8-0.3-0.7-0.8C363,392.2,363,392.2,363.1,392L363.1,392z"></path>
				<path class="st3" d="M467.6,382.5c0,0.4-0.3,0.7-0.7,0.7c-0.4,0-0.7-0.3-0.7-0.7s0.3-0.7,0.7-0.7      C467.3,381.8,467.6,382.1,467.6,382.5z"></path>
			</g>
		</g>
		<g>
			<g>
				<path class="st2" d="M569.4,109.5c-45.1-45.1-105.1-69.9-168.8-69.9s-123.7,24.8-168.8,69.9s-69.9,105.1-69.9,168.8      c0,63.8,24.8,123.7,69.9,168.8S336.9,517,400.6,517s123.7-24.8,168.8-69.9s69.9-105,69.9-168.8S614.5,154.6,569.4,109.5z       M400.6,499.7c-122.1,0-221.4-99.3-221.4-221.4S278.5,56.9,400.6,56.9S622,156.2,622,278.3S522.7,499.7,400.6,499.7z"></path>
			</g>
		</g>
	</g>
</g>
</svg>
