<?xml version="1.0" encoding="UTF-8"?>
<!-- Generator: Adobe Illustrator 28.0.0, SVG Export Plug-In . SVG Version: 6.00 Build 0)  -->
<svg xmlns="http://www.w3.org/2000/svg" xmlns:xlink="http://www.w3.org/1999/xlink" version="1.1" id="Layer_1" x="0px" y="0px" viewBox="0 0 801.2 831.3" style="enable-background:new 0 0 801.2 831.3;" xml:space="preserve">
<style type="text/css">
	.st0{opacity:0.39;enable-background:new    ;}
	.st1{fill:#FFFFFF;}
	.st2{fill:#EDDB3A;}
</style>
<g>
	<ellipse class="st0" cx="401" cy="286.1" rx="262.8" ry="266.3"></ellipse>
	<circle class="st1" cx="401" cy="278.3" r="261.4"></circle>
	<g>
		<g>
			<path class="st2" d="M400.1,39.6c-131.9,0.5-238.4,107.8-237.9,239.6C162.8,411,270,517.5,401.9,517s238.4-107.8,237.9-239.6     S532,39.1,400.1,39.6z M382.1,314.6c0.1,38.2-22.2,55.6-54.8,55.7c-29.5,0.1-46.6-15.1-55.4-33.5l29.9-18.3     c5.8,10.2,11.1,18.9,23.7,18.9c12.1,0,19.7-4.8,19.7-23.2L344.9,189l36.8-0.1L382.1,314.6z M469.5,369.8     c-34.2,0.1-56.4-16.1-67.2-37.4l0,0l29.9-17.5c7.9,12.9,18.2,22.3,36.4,22.2c15.3-0.1,25-7.7,24.9-18.2     c0-12.6-10.1-17.1-26.9-24.4l-9.2-3.9c-26.6-11.2-44.3-25.4-44.4-55.4c-0.1-27.6,20.9-48.8,53.8-48.9c23.4-0.1,40.3,8,52.5,29.3     l-28.6,18.5c-6.4-11.3-13.2-15.7-23.7-15.7c-10.8,0-17.6,6.9-17.6,15.9c0,11.1,6.9,15.5,22.7,22.3l9.2,3.9     c31.4,13.3,49,26.9,49.2,57.7C530.5,351.4,504.5,369.7,469.5,369.8z"></path>
			<path d="M345.4,314.2c0.1,18.4-7.5,23.2-19.7,23.2c-12.6,0-17.9-8.6-23.7-18.9l-30,18.3c8.8,18.4,25.9,33.6,55.4,33.5     c32.6-0.1,54.9-17.6,54.8-55.7l-0.5-125.8l-36.8,0.1L345.4,314.2z"></path>
			<path d="M481.1,260.6l-9.2-3.9c-15.8-6.8-22.7-11.2-22.7-22.3c0-8.9,6.8-15.8,17.6-15.9c10.5,0,17.4,4.4,23.7,15.7l28.6-18.5     c-12.2-21.3-29.1-29.4-52.5-29.3c-32.9,0.1-53.9,21.2-53.8,48.9c0.1,30,17.8,44.1,44.4,55.4l9.2,3.9     c16.9,7.3,26.9,11.7,26.9,24.4c0,10.5-9.7,18.2-24.9,18.2c-18.2,0.1-28.5-9.4-36.4-22.2l-29.9,17.5l0,0     c10.9,21.3,33,37.5,67.2,37.4c35-0.1,61-18.4,60.9-51.5C530.3,287.5,512.5,273.9,481.1,260.6z"></path>
		</g>
	</g>
</g>
<g>
	<path class="st1" d="M175.1,671.8l6-6.1c1.3-1.2,2.4-0.9,3.5,0.1c1.5,1.6,3.8,3.7,7.7,3.7c4.5,0,9.3-3.7,9.3-11.7V603   c0-1.2,0.9-2.2,2.2-2.2h10.9c1.3,0,2.2,1,2.2,2.2v54.8c0,16.1-10.8,25.4-24.4,25.4c-10.1,0-15.7-6-17.6-8.5   C174.3,673.8,174.4,672.6,175.1,671.8z"></path>
	<path class="st1" d="M245.7,652.7c4.6,0,8.5,1.3,8.5,1.3c0.1-5.9-1.7-8-6-8s-10.3,0.9-13,1.7c-1.6,0.5-2.4-0.6-2.7-2.1l-1-6   c-0.3-1.7,0.6-2.6,1.6-2.9c0.9-0.3,8.4-2.2,15.8-2.2c14.5,0,17.9,7.5,17.9,20.2v25.2c0,1.2-1,2.2-2.2,2.2h-4.2   c-0.8,0-1.4-0.3-2-1.6l-1.4-3.1c-2.7,2.4-7,5.9-14.2,5.9c-9.3,0-15.7-6-15.7-15.9C227.2,659.1,233.9,652.7,245.7,652.7z M246,673.3   c3.7,0,7.3-3.1,8-4.5v-6.4c0,0-3.1-1.4-6.5-1.4c-4.5,0-7.5,2.6-7.5,6.3C239.9,670.8,242.4,673.3,246,673.3z"></path>
	<path class="st1" d="M273.9,638.4c-0.7-1.5-0.1-2.8,1.6-2.8h10.1c1.2,0,1.7,0.6,2.1,1.3l9.4,21.6c0.1,0,0.2,0,0.2,0l10-21.6   c0.6-1.2,1.5-1.3,2.8-1.3h9c1.7,0,2.4,1.3,1.6,2.8L299.6,682c-0.3,0.6-0.9,1.2-2,1.2H297c-1,0-1.6-0.6-2-1.2L273.9,638.4z"></path>
	<path class="st1" d="M343.7,652.7c4.6,0,8.5,1.3,8.5,1.3c0.1-5.9-1.7-8-6-8s-10.3,0.9-13,1.7c-1.6,0.5-2.4-0.6-2.7-2.1l-1-6   c-0.3-1.7,0.6-2.6,1.6-2.9c0.9-0.3,8.4-2.2,15.8-2.2c14.5,0,17.9,7.5,17.9,20.2v25.2c0,1.2-1,2.2-2.2,2.2h-4.2   c-0.8,0-1.4-0.3-2-1.6l-1.4-3.1c-2.7,2.4-7,5.9-14.2,5.9c-9.3,0-15.7-6-15.7-15.9C325.2,659.1,331.9,652.7,343.7,652.7z M344,673.3   c3.7,0,7.3-3.1,8-4.5v-6.4c0,0-3.1-1.4-6.5-1.4c-4.5,0-7.5,2.6-7.5,6.3C337.9,670.8,340.4,673.3,344,673.3z"></path>
	<path class="st1" d="M375.5,676.5l3.1-6.3c0.5-1.2,1.6-1.4,2.7-0.8c0,0,5.2,2.8,10.6,2.8c2.3,0,3.9-0.9,3.9-2.9   c0-2.1-1.6-3.4-7.8-5.8c-8.9-3.5-13.1-8.2-13.1-15.3s5.2-13.7,17.1-13.7c6.8,0,11.8,2,14.3,3.6c1,0.7,1.6,2,1,3.1l-2.9,5.9   c-0.6,1-1.9,1.2-2.8,0.8c0,0-5.2-2.4-9.6-2.4c-2.8,0-3.9,1.2-3.9,2.7c0,2.1,2.1,2.8,6.4,4.5c8.9,3.5,15.7,7.3,15.7,16.4   c0,7.7-6.7,14.2-18.4,14.2c-7.7,0-13-2.4-15.4-4.3C375.5,678.3,375.1,677.4,375.5,676.5z"></path>
	<path class="st1" d="M441.4,634.5c7.2,0,12.8,2.9,17.2,8.2c0.8,1,0.6,2.4-0.6,3.2l-5.3,5.1c-1,0.9-2.1,0.3-2.9-0.3   c-1.9-2.1-4.8-3.7-8-3.7c-6.3,0-11.4,5.3-11.4,11.8c0,6.6,5,11.8,11.3,11.8c5,0,7.2-2.4,9.3-4.4c0.8-0.8,2-1,2.9-0.3l5,4.3   c1.2,0.9,1.6,2.1,0.8,3.2c-3.9,6.1-10.1,9.7-18.3,9.7c-13.1,0-24.6-10.4-24.6-24.4C416.7,645.1,428.4,634.5,441.4,634.5z"></path>
	<path class="st1" d="M469.7,637.8c0-1.3,1-2.2,2.2-2.2h4.4c1,0,1.7,0.6,2.1,1.5l1.6,4.5c1.6-2.3,5.9-7.2,13.1-7.2   c5.5,0,10.3,1.7,8.9,4.6l-4.3,7.5c-0.6,1-1.7,1.5-2.7,1c-0.3-0.1-2.1-0.7-3.4-0.7c-4.6,0-7.4,3.1-8.2,4.8v28.1c0,1.6-1,2.2-2.7,2.2   h-8.9c-1.2,0-2.2-1-2.2-2.2V637.8z"></path>
	<path class="st1" d="M508.2,611.2c0-4.4,3.5-8,7.9-8c4.5,0,8.1,3.6,8.1,8c0,4.4-3.6,8-8.1,8C511.7,619.2,508.2,615.6,508.2,611.2z    M509.3,637.8c0-1.3,1-2.2,2.2-2.2h9.6c1.2,0,2.2,0.9,2.2,2.2v42c0,1.2-1,2.2-2.2,2.2h-9.6c-1.2,0-2.2-1-2.2-2.2V637.8z"></path>
	<path class="st1" d="M551.5,714.6c0,1.4-0.7,2.2-2.8,2.2h-9.3c-1.2,0-2.2-1-2.2-2.2v-76.8c0-1.3,1-2.2,2.2-2.2h4.5   c0.8,0,1.6,0.5,2,1.4l1.5,3.8c1.7-2.3,7.4-6.4,15-6.4c12.8,0,22.4,11,22.4,24.4c0,13.7-10.4,24.4-23,24.4c-4.5,0-8.7-1.6-10.3-2.6   V714.6z M560,670.7c6.5,0,11.3-5.3,11.3-11.8s-4.4-11.8-10.8-11.8c-5.9,0-8.8,4.6-9.5,7.1V668C550.9,668,554.2,670.7,560,670.7z"></path>
	<path class="st1" d="M597.7,647.8h-3.9c-1.2,0-2.1-1-2.1-2.2v-7.8c0-1.3,0.9-2.2,2.1-2.2h3.9v-12.9c0-1.2,1-2.2,2.2-2.2l9.5-0.1   c1.2,0,2.1,1,2.1,2.2v13h10.2c1.3,0,2.2,0.9,2.2,2.2v7.8c0,1.2-0.9,2.2-2.2,2.2h-10.2v18.6c0,3.2,1.7,3.7,3.6,3.7   c2,0,4.4-0.8,5.7-1.3c1.3-0.5,2.2,0.1,2.6,1.3l2.3,7.3c0.5,1.2-0.1,2.3-1.3,2.8c-0.6,0.3-8.1,3-13.8,3c-8.9,0-12.9-5.6-12.9-15   V647.8z"></path>
</g>
</svg>
