<?xml version="1.0" encoding="UTF-8"?>
<!-- Generator: Adobe Illustrator 28.0.0, SVG Export Plug-In . SVG Version: 6.00 Build 0)  -->
<svg xmlns="http://www.w3.org/2000/svg" xmlns:xlink="http://www.w3.org/1999/xlink" version="1.1" id="Layer_1" x="0px" y="0px" viewBox="0 0 801.2 831.3" style="enable-background:new 0 0 801.2 831.3;" xml:space="preserve">
<style type="text/css">
	.st0{opacity:0.39;enable-background:new    ;}
	.st1{fill:#FFFFFF;}
	.st2{fill:#476CB3;}
</style>
<g id="Layer_1_00000126319611283165893900000009671449297570272657_">
	<ellipse class="st0" cx="401" cy="286.1" rx="262.8" ry="266.3"></ellipse>
	<circle class="st1" cx="401" cy="278.3" r="261.4"></circle>
</g>
<g id="Layer_2_00000124860130044071783570000014505208236637643674_">
	<g>
		<circle class="st2" cx="400.6" cy="281.3" r="238.8"></circle>
		<g>
			<path class="st2" d="M343.9,421.6c-7.3,0-14.2-3.2-18.9-9.1l-71-88.2c-4.7-5.9-6.5-13.4-4.7-20.7l25.3-110.1     c1.6-7.3,6.5-13.2,13.2-16.4L390.6,128c3.2-1.6,6.9-2.4,10.5-2.4s7.3,0.8,10.5,2.4l102.6,48.9c6.7,3.2,11.6,9.1,13.2,16.4     l25.3,110.1c1.6,7.3,0,14.8-4.7,20.7l-71,88.2c-4.7,5.7-11.6,9.1-18.9,9.1L343.9,421.6L343.9,421.6z"></path>
			<path class="st1" d="M400.9,130.7c2.8,0,5.7,0.6,8.3,1.8l102.6,48.9c5.3,2.6,9.3,7.5,10.5,13.2l25.3,110.1c1.4,5.9,0,12-3.9,16.6     l-71,88.2c-3.6,4.7-9.3,7.3-15.2,7.3H343.9c-5.9,0-11.6-2.6-15.2-7.3l-71-88.2c-3.6-4.7-5.1-10.7-3.9-16.6l25.3-110.1     c1.4-5.9,5.3-10.7,10.5-13.2l102.6-49.1C395,131.3,398.1,130.7,400.9,130.7L400.9,130.7z M400.9,121.1L400.9,121.1     c-4.3,0-8.5,1-12.6,2.8L285.8,173c-8.1,3.9-13.8,10.9-15.8,19.7l-25.3,110.1c-2,8.7,0,17.6,5.7,24.7l71,88.2     c5.5,6.9,13.8,10.7,22.5,10.7h113.7c8.7,0,17-3.9,22.5-10.7l71-88.2c5.7-6.9,7.7-16,5.7-24.7l-25.3-110.1     c-2-8.7-7.7-15.8-15.8-19.7l-102.4-49C409.4,122.1,405.2,121.1,400.9,121.1L400.9,121.1L400.9,121.1z"></path>
			<path class="st1" d="M503.7,295.9L503.7,295.9L503.7,295.9C503.5,295.9,503.5,295.9,503.7,295.9h-0.2c-0.2,0-0.4,0-0.4-0.2     c-0.4,0-0.8-0.2-1.2-0.2c-1.4-0.2-2.6-0.4-3.9-0.4c-0.6,0-1.2,0-2-0.2h-0.2c-4.3-0.4-7.7-0.8-10.9-1.8c-1.4-0.6-1.8-1.4-2.2-2.2     c0-0.2-0.2-0.2-0.2-0.4l0,0l-2.6-0.8c1.2-9.3,0.8-19.1-1.4-28.6c-2.2-9.5-6.1-18.4-11.4-26.6l2-1.8v-0.4c0-1,0.2-2,1-3     c2.4-2.2,5.5-4.1,9.1-6.3l0,0c0.6-0.4,1.2-0.6,1.8-1c1.2-0.6,2.2-1.2,3.4-2c0.2-0.2,0.6-0.4,1-0.8c0.2-0.2,0.4-0.2,0.4-0.4l0,0     c2.8-2.4,3.4-6.5,1.4-9.1c-1-1.4-2.8-2.2-4.7-2.2c-1.6,0-3,0.6-4.5,1.6l0,0l0,0c-0.2,0.2-0.2,0.2-0.4,0.4c-0.4,0.2-0.6,0.6-1,0.8     c-1,1-1.8,1.8-2.6,2.8c-0.4,0.4-0.8,1-1.4,1.4l0,0c-2.8,3-5.5,5.5-8.1,7.3c-0.6,0.4-1.2,0.6-1.8,0.6c-0.4,0-0.8,0-1.2-0.2h-0.4     l0,0l-2.4,1.6c-2.6-2.8-5.5-5.3-8.3-7.7c-12.2-9.5-27-15.4-42.4-16.8l-0.2-2.6c-0.2-0.2-0.2-0.2-0.4-0.4     c-0.6-0.6-1.4-1.2-1.6-2.6c-0.2-3.2,0.2-6.9,0.6-10.9v-0.2c0-0.6,0.2-1.4,0.4-2c0.2-1.2,0.4-2.4,0.6-3.9v-1.2v-0.6l0,0l0,0     c0-3.6-2.8-6.7-6.3-6.7c-1.6,0-3.2,0.8-4.5,2s-1.8,2.8-1.8,4.7l0,0l0,0v0.4v1.2c0,1.4,0.2,2.6,0.6,3.9c0.2,0.6,0.2,1.2,0.4,2v0.2     c0.4,4.1,1,7.7,0.6,10.9c-0.2,1.4-1,2-1.6,2.6c-0.2,0.2-0.2,0.2-0.4,0.4l0,0l-0.2,2.6c-3.6,0.4-7.3,0.8-10.9,1.6     c-15.6,3.4-29.4,11.4-40.1,22.7l-2-1.4h-0.4c-0.4,0-0.8,0.2-1.2,0.2c-0.6,0-1.2-0.2-1.8-0.6c-2.6-1.8-5.3-4.5-8.1-7.5l0,0     c-0.4-0.4-0.8-1-1.4-1.4c-0.8-1-1.6-1.8-2.6-2.8c-0.2-0.2-0.6-0.4-1-0.8c-0.2-0.2-0.4-0.2-0.4-0.4l0,0c-1.2-1-2.8-1.6-4.5-1.6     c-1.8,0-3.6,0.8-4.7,2.2c-2,2.6-1.4,6.7,1.4,9.1l0,0l0,0c0.2,0,0.2,0.2,0.4,0.2c0.4,0.2,0.6,0.6,1,0.8c1.2,0.8,2.2,1.4,3.4,2     c0.6,0.2,1.2,0.6,1.8,1l0,0c3.6,2.2,6.7,4.1,9.1,6.3c1,1,1,2,1,3v0.4l0,0l2,1.8c-0.4,0.6-0.8,1-1,1.6c-10.1,16-14,34.9-11.4,53.5     l-2.6,0.8c0,0.2-0.2,0.2-0.2,0.4c-0.4,0.8-1,1.6-2.2,2.2c-3,1-6.7,1.4-10.9,1.8h-0.2c-0.6,0-1.4,0-2,0.2c-1.2,0-2.4,0.2-3.9,0.4     c-0.4,0-0.8,0.2-1.2,0.2c-0.2,0-0.4,0-0.6,0.2l0,0l0,0c-3.6,0.8-5.9,4.3-5.3,7.5c0.6,2.8,3.2,4.7,6.5,4.7c0.6,0,1,0,1.6-0.2l0,0     l0,0c0.2,0,0.4,0,0.4-0.2c0.4,0,0.8-0.2,1.2-0.2c1.4-0.4,2.4-0.8,3.6-1.4c0.6-0.2,1.2-0.6,1.8-0.8h0.2c3.9-1.4,7.3-2.6,10.5-3     h0.4c1.2,0,2,0.6,2.6,1c0.2,0,0.2,0.2,0.4,0.2l0,0l2.8-0.4c4.9,15,14.2,28.4,26.6,38.1c2.8,2.2,5.7,4.1,8.7,5.9l-1,2.6     c0,0.2,0.2,0.2,0.2,0.4c0.4,0.8,0.8,1.8,0.4,3.2c-1.2,3-3,6.1-5.3,9.5v0.2c-0.4,0.6-0.8,1-1.2,1.6c-0.8,1-1.4,2-2.2,3.2     c-0.2,0.2-0.4,0.6-0.6,1c0,0.2-0.2,0.4-0.2,0.4l0,0l0,0c-1.6,3.4-0.4,7.3,2.6,8.7c0.8,0.4,1.6,0.6,2.4,0.6c2.4,0,4.9-1.6,6.1-3.9     l0,0l0,0c0-0.2,0.2-0.4,0.2-0.4c0.2-0.4,0.4-0.8,0.6-1c0.6-1.4,0.8-2.4,1.2-3.6c0.2-0.6,0.4-1.2,0.6-1.8l0,0     c1.4-4.1,2.4-7.3,4.3-10.1c0.8-1.2,1.8-1.4,2.6-1.8c0.2,0,0.2,0,0.4-0.2l0,0l1.4-2.6c8.9,3.4,18.7,5.3,28.4,5.3     c5.9,0,12-0.6,17.6-2c3.6-0.8,7.1-1.8,10.5-3l1.2,2.2c0.2,0,0.2,0,0.4,0.2c1,0.2,1.8,0.6,2.6,1.8c1.6,2.8,2.8,6.3,4.3,10.1v0.2     c0.2,0.6,0.4,1.2,0.6,1.8c0.4,1.2,0.6,2.4,1.2,3.6c0.2,0.4,0.4,0.6,0.6,1c0,0.2,0.2,0.4,0.2,0.4l0,0l0,0c1.2,2.4,3.6,3.9,6.1,3.9     c0.8,0,1.6-0.2,2.4-0.6c1.4-0.8,2.6-2,3-3.6s0.4-3.4-0.4-5.1l0,0l0,0c0-0.2-0.2-0.2-0.2-0.4c-0.2-0.4-0.4-0.8-0.6-1     c-0.6-1.2-1.4-2.2-2.2-3.2c-0.4-0.6-0.8-1-1.2-1.6v-0.2c-2.2-3.4-4.3-6.5-5.3-9.5c-0.4-1.4,0-2.2,0.2-3.2c0-0.2,0.2-0.2,0.2-0.4     l0,0l-1-2.4c10.7-6.3,19.9-15.2,26.8-26.2c3.6-5.7,6.5-12,8.5-18.2l2.4,0.4c0.2,0,0.2-0.2,0.4-0.2c0.8-0.4,1.4-1,2.6-1h0.4     c3.2,0.4,6.7,1.6,10.5,3h0.2c0.6,0.2,1.2,0.6,1.8,0.8c1.2,0.6,2.2,1,3.6,1.4c0.4,0,0.8,0.2,1.2,0.2c0.2,0,0.4,0,0.6,0.2l0,0     c0.6,0.2,1,0.2,1.6,0.2c3,0,5.7-2,6.5-4.7C509.6,300.1,507.3,296.9,503.7,295.9L503.7,295.9z M409.8,286l-8.9,4.3L392,286     l-2.2-9.5l6.1-7.7h9.9l6.1,7.7L409.8,286L409.8,286z M462.7,264.9c1.6,6.9,2,13.8,1.4,20.5l-31-8.9c-2.8-0.8-4.5-3.6-3.9-6.5     c0.2-0.8,0.6-1.6,1.2-2.2l24.5-22.1C458.5,251.3,461.1,257.8,462.7,264.9L462.7,264.9z M445.3,233.4l-26.6,18.9     c-2.2,1.4-5.3,1-7.1-1.2c-0.6-0.6-0.8-1.4-1-2.2l-1.8-33C422.8,217.4,435.6,223.7,445.3,233.4L445.3,233.4z M386.5,216.8     c2.2-0.4,4.3-0.8,6.5-1.2l-1.8,32.4c-0.2,2.8-2.4,5.3-5.5,5.3c-0.8,0-1.8-0.2-2.4-0.6l-27-19.3     C364.6,225.1,375,219.5,386.5,216.8L386.5,216.8z M346.6,245.6l24.1,21.5c2.2,1.8,2.4,5.3,0.6,7.5c-0.6,0.8-1.4,1.4-2.4,1.6     l-31.4,9.1C336.2,271.6,339.3,257.6,346.6,245.6L346.6,245.6z M341.1,300.6l32.2-5.5c2.6-0.2,5.1,1.6,5.7,4.3     c0.2,1.2,0.2,2.2-0.2,3.2l0,0l-12.4,29.8C355.1,325.1,346,313.9,341.1,300.6L341.1,300.6z M415.1,340.9c-4.7,1-9.3,1.6-14.2,1.6     c-7.1,0-14-1.2-20.5-3.2l16-29c1.6-1.8,4.3-2.6,6.5-1.4c1,0.6,1.8,1.4,2.4,2.2l0,0l15.6,28.2     C419.2,339.9,417.1,340.3,415.1,340.9L415.1,340.9z M454.6,312.7c-5.1,8.1-11.8,14.6-19.5,19.7l-12.8-30.6     c-0.6-2.4,0.4-5.1,2.8-6.3c0.8-0.4,1.8-0.6,2.8-0.6l32.4,5.5C459.3,304.8,457.3,308.9,454.6,312.7L454.6,312.7z"></path>
		</g>
	</g>
</g>
<g>
	<path class="st1" d="M150.3,603.6c0-1.5,1.2-2.8,2.8-2.8h10.2c1.5,0,2.8,1.3,2.8,2.8v31.3l29.2-32.9c0.5-0.6,1.2-1.2,2.2-1.2h11.6   c2.2,0,3.4,2.4,1.9,4.2l-30.3,34.1l32.5,38.9c1.2,1.5,0.2,4.1-2.1,4.1h-12.6c-1.2,0-1.9-0.5-2.1-0.8L166,643.9v35.4   c0,1.5-1.3,2.8-2.8,2.8H153c-1.6,0-2.8-1.3-2.8-2.8V603.6z"></path>
	<path class="st1" d="M218.2,637.8c0-1.3,1-2.2,2.2-2.2h9.5c1.2,0,2.2,0.9,2.2,2.2v22.9c0,6.1,3.1,10,8.5,10c4.9,0,8.6-4.5,9.3-8.7   v-24.1c0-1.7,0.7-2.2,2.6-2.2h8.8c1.2,0,2.2,0.9,2.2,2.2v42c0,1.2-1,2.2-2.2,2.2H257c-1.2,0-1.9-0.8-2.2-1.7l-1.4-3.8   c-2.1,1.9-6.4,6.7-15.5,6.7c-14.4,0-19.6-11-19.6-22.9V637.8z"></path>
	<path class="st1" d="M277.4,603c0-1.2,1-2.2,2.2-2.2h9.9c1.2,0,2.2,1,2.2,2.2v33.5c2.1-0.8,5.7-2.1,10.3-2.1   c13.8,0,23,10.8,23,24.4c0,13.3-9.6,24.4-22.3,24.4c-9.7,0-15.2-7-15.2-7l-1.2,3.6c-0.3,1.3-1.2,2.2-2.2,2.2h-4.5   c-1.2,0-2.2-1-2.2-2.2V603z M300.9,670.7c6.1,0,10.6-5.3,10.6-11.8s-4.8-11.8-11.3-11.8c-5.8,0-9,2.7-9,2.7v13.5   C292,665.9,294.8,670.7,300.9,670.7z"></path>
	<path class="st1" d="M355.6,634.5c11.9,0,21.7,9,21.7,21.6c0,0.8-0.1,2.3-0.2,3.1c-0.1,1.2-1.2,2-2.2,2h-29.7   c0.3,4.8,4.4,10.1,11.1,10.1c3.6,0,7-1.4,9-2.9c1.2-0.7,2.2-0.9,3,0l4.8,5.5c0.8,0.8,1,2.1-0.1,3c-3.8,3.6-9.7,6.4-17.3,6.4   c-13.9,0-23.8-11-23.8-24.4C331.9,645.7,341.8,634.5,355.6,634.5z M363.7,653c-0.3-4.3-4.1-7.9-8.5-7.9c-4.6,0-8.5,3.5-9,7.9H363.7   z"></path>
	<path class="st1" d="M387,637.8c0-1.3,1-2.2,2.2-2.2h4.4c1,0,1.7,0.6,2.1,1.5l1.6,4.5c1.6-2.3,5.9-7.2,13.1-7.2   c5.5,0,10.3,1.7,8.9,4.6l-4.3,7.5c-0.6,1-1.7,1.5-2.7,1c-0.3-0.1-2.1-0.7-3.4-0.7c-4.6,0-7.4,3.1-8.2,4.8v28.1c0,1.6-1,2.2-2.7,2.2   h-8.9c-1.2,0-2.2-1-2.2-2.2V637.8z"></path>
	<path class="st1" d="M426.6,637.8c0-1.3,1-2.2,2.2-2.2h4.4c1,0,1.6,0.6,2,1.4l1.6,4.3c1.7-1.9,7.4-6.8,16.4-6.8   c14.7,0,20.6,11,20.6,23.1v22.3c0,1.2-1,2.2-2.2,2.2h-9.5c-1.3,0-2.2-1-2.2-2.2v-23c0-6-3.1-9.9-8.7-9.9c-6,0-9.7,4.2-10.9,7.3   v25.5c0,1.6-0.7,2.2-2.9,2.2h-8.6c-1.2,0-2.2-1-2.2-2.2V637.8z"></path>
	<path class="st1" d="M507,634.5c11.9,0,21.7,9,21.7,21.6c0,0.8-0.1,2.3-0.2,3.1c-0.1,1.2-1.2,2-2.2,2h-29.7   c0.3,4.8,4.4,10.1,11.1,10.1c3.6,0,7-1.4,9-2.9c1.2-0.7,2.2-0.9,3,0l4.8,5.5c0.8,0.8,1,2.1-0.1,3c-3.8,3.6-9.7,6.4-17.3,6.4   c-13.9,0-23.8-11-23.8-24.4C483.3,645.7,493.2,634.5,507,634.5z M515.1,653c-0.3-4.3-4.1-7.9-8.5-7.9c-4.6,0-8.5,3.5-9,7.9H515.1z"></path>
	<path class="st1" d="M540.8,647.8h-3.9c-1.2,0-2.1-1-2.1-2.2v-7.8c0-1.3,0.9-2.2,2.1-2.2h3.9v-12.9c0-1.2,1-2.2,2.2-2.2l9.5-0.1   c1.2,0,2.1,1,2.1,2.2v13h10.2c1.3,0,2.2,0.9,2.2,2.2v7.8c0,1.2-0.9,2.2-2.2,2.2h-10.2v18.6c0,3.2,1.7,3.7,3.6,3.7   c2,0,4.4-0.8,5.7-1.3c1.3-0.5,2.2,0.1,2.6,1.3l2.3,7.3c0.5,1.2-0.1,2.3-1.3,2.8c-0.6,0.3-8.1,3-13.8,3c-8.9,0-12.9-5.6-12.9-15   V647.8z"></path>
	<path class="st1" d="M598.6,634.5c11.9,0,21.7,9,21.7,21.6c0,0.8-0.1,2.3-0.2,3.1c-0.1,1.2-1.2,2-2.2,2h-29.7   c0.3,4.8,4.4,10.1,11.1,10.1c3.6,0,7-1.4,9-2.9c1.2-0.7,2.2-0.9,3,0l4.8,5.5c0.8,0.8,1,2.1-0.1,3c-3.8,3.6-9.7,6.4-17.3,6.4   c-13.9,0-23.8-11-23.8-24.4C574.9,645.7,584.8,634.5,598.6,634.5z M606.7,653c-0.3-4.3-4.1-7.9-8.5-7.9c-4.6,0-8.5,3.5-9,7.9H606.7   z"></path>
	<path class="st1" d="M627.5,676.5l3.1-6.3c0.5-1.2,1.6-1.4,2.7-0.8c0,0,5.2,2.8,10.6,2.8c2.3,0,3.9-0.9,3.9-2.9   c0-2.1-1.6-3.4-7.8-5.8c-8.9-3.5-13.1-8.2-13.1-15.3s5.2-13.7,17.1-13.7c6.8,0,11.8,2,14.3,3.6c1,0.7,1.6,2,1,3.1l-2.9,5.9   c-0.6,1-1.9,1.2-2.8,0.8c0,0-5.2-2.4-9.6-2.4c-2.8,0-3.9,1.2-3.9,2.7c0,2.1,2.1,2.8,6.4,4.5c8.9,3.5,15.7,7.3,15.7,16.4   c0,7.7-6.7,14.2-18.4,14.2c-7.7,0-13-2.4-15.4-4.3C627.5,678.3,627,677.4,627.5,676.5z"></path>
</g>
</svg>
