<?xml version="1.0" encoding="UTF-8"?>
<!-- Generator: Adobe Illustrator 28.0.0, SVG Export Plug-In . SVG Version: 6.00 Build 0)  -->
<svg xmlns="http://www.w3.org/2000/svg" xmlns:xlink="http://www.w3.org/1999/xlink" version="1.1" id="Layer_1" x="0px" y="0px" viewBox="0 0 801.2 831.3" style="enable-background:new 0 0 801.2 831.3;" xml:space="preserve">
<style type="text/css">
	.st0{opacity:0.39;enable-background:new    ;}
	.st1{fill:#FFFFFF;}
	.st2{fill:#2F5083;}
</style>
<g id="Layer_1_00000003073362898370997470000017394138581137911936_">
	<ellipse class="st0" cx="401" cy="286.1" rx="262.8" ry="266.3"></ellipse>
	<circle class="st1" cx="401" cy="278.3" r="261.4"></circle>
</g>
<g id="Layer_2_00000039096832058404448680000008457355293445880233_">
	<g>
		<path class="st2" d="M440.5,276.3c-8.7-3.4-16.9-5.7-19.5-10.2c-5.5-17.4,23.3-12.2,33-3c0-0.1,0.5-0.7,1.3-1.8    c3.3-4.3,11.4-15.1,12.4-16.4c-10.5-9.1-29.1-17-49-12.1c-28.2,6.6-35.1,37.9-15,52.8c8.5,7.2,25,10.9,32.2,15.9    c16.3,13.3-11.5,25.1-35.4,5.1l-13.5,20c10.4,8.6,26.2,14.5,39.4,14.5c27.6,0,42.5-14.5,42.5-33.5    C468.8,288.7,454,280.8,440.5,276.3z"></path>
		<path class="st2" d="M338.6,231.1c-25.2,0-49.4,21.1-48.7,54.2c0,34.2,22.4,54.2,52.1,54.2c12.4,0,26.2-4.5,37-11.7l-10.4-18.3    c-18.4,11.2-45.6,9.6-49.7-15.9c0,0,55.2,0,61.9,0c1.1,0.9,1.5-5.8,1.7-12.8C382.8,252.8,367.6,231.1,338.6,231.1z M356.2,274.6    h-37.3C322.5,246.7,357.6,247.7,356.2,274.6z"></path>
		<path class="st2" d="M401.5,40.8c-131.9,0-238.8,106.9-238.8,238.8s106.9,238.8,238.8,238.8s238.8-106.9,238.8-238.8    S533.4,40.8,401.5,40.8z M584.9,279.6c-6.1,1.6-10,4.3-12.5,9.7c-8.8,23.8,9.6,65.6-12.8,63.3v0.3h-4.1v15.8    c-1.7,0.3-3.5,0.4-5.3,0.4H252.8c-2.1,0-4.1-0.2-6.1-0.5V353h-4.1c-8.6,0-11.4-3.5-11.4-14.8s1-21.1,1-33.8    c0-15.5-4.9-21.8-14.8-24.3v-1.4c9.9-2.5,14.8-8.8,14.8-24.3c0-12.4-1-22.4-1-33.8c0-11.4,2.4-14.5,11.4-14.5h9.3V305    c0,21.1,7.3,34.9,28.3,34.9c6.6,0,11.7-1,15.5-2.4l-3.5-22.4c-2.1,0.3-3.1,0.3-4.1,0.3c-2.4,0-5.5-2.1-5.5-8.6V190h267.5    c1.8,0,3.6,0.1,5.3,0.4v15.1c11-0.1,15.3,0,15.5,12.8c0.1,36.4-7,53.7,14.5,60.3c0,0.1,0,0.2,0,0.2v0.4    C585.5,279.5,585.4,279.5,584.9,279.6z"></path>
		<path class="st2" d="M524.1,276.3c-8.5-3.4-16.8-5.7-19.2-10.3c-3.5-8.5,5.2-12.6,14.6-11.2c6.3,0.7,13.2,4.6,18.5,8.4    c0.2-0.2,1-1.3,2.1-2.8c3.7-4.9,10.8-14.3,11.6-15.4c-13.9-11.8-38-19.2-59.2-8.2c-11.2,6.1-18,17.7-16,31.6    c4.7,24.8,37.5,26.2,45.7,35.2c10.8,15.9-19.7,19.2-37.8,3.1l-13.8,20c10.4,8.6,26.2,14.5,39.4,14.5c27.6,0,42.5-14.5,42.5-33.5    C552.4,288.7,537.5,280.8,524.1,276.3z"></path>
	</g>
</g>
<g>
	<path class="st1" d="M286.8,603c0-1.2,0.9-2.2,2.2-2.2h10.7c1.2,0,2.2,1,2.2,2.2v65.1h29.6c1.3,0,2.2,1,2.2,2.2v9.5   c0,1.2-0.9,2.2-2.2,2.2H289c-1.3,0-2.2-1-2.2-2.2V603z"></path>
	<path class="st1" d="M345.4,603c0-1.2,0.9-2.2,2.2-2.2h47.2c1.3,0,2.2,1,2.2,2.2v9.5c0,1.2-0.9,2.2-2.2,2.2h-34.3v19h28.7   c1.2,0,2.2,1,2.2,2.2v9.6c0,1.3-1,2.2-2.2,2.2h-28.7v20.3h34.3c1.3,0,2.2,1,2.2,2.2v9.5c0,1.2-0.9,2.2-2.2,2.2h-47.2   c-1.3,0-2.2-1-2.2-2.2V603z"></path>
	<path class="st1" d="M408.8,670.7l4.2-7.2c0.9-1.6,2.9-1.6,3.9-0.8c0.6,0.3,10,7.2,17.5,7.2c6,0,10.6-3.9,10.6-8.9   c0-5.9-5-10-14.7-13.9c-10.9-4.4-21.8-11.4-21.8-25.1c0-10.3,7.7-22.3,26.1-22.3c11.8,0,20.9,6,23.2,7.8c1.2,0.7,1.5,2.7,0.7,3.8   l-4.4,6.6c-0.9,1.4-2.7,2.3-4.1,1.4c-0.9-0.6-9.7-6.4-16.1-6.4c-6.6,0-10.2,4.4-10.2,8.1c0,5.5,4.3,9.2,13.7,13   c11.3,4.5,24.2,11.3,24.2,26.2c0,11.9-10.3,23-26.7,23c-14.6,0-23.2-6.8-25.5-9C408.4,673.1,407.8,672.5,408.8,670.7z"></path>
	<path class="st1" d="M471.7,670.7l4.2-7.2c0.9-1.6,2.9-1.6,3.9-0.8c0.6,0.3,10,7.2,17.5,7.2c6,0,10.6-3.9,10.6-8.9   c0-5.9-5-10-14.7-13.9c-10.9-4.4-21.8-11.4-21.8-25.1c0-10.3,7.7-22.3,26.1-22.3c11.8,0,20.9,6,23.2,7.8c1.2,0.7,1.5,2.7,0.7,3.8   l-4.4,6.6c-0.9,1.4-2.7,2.3-4.1,1.4c-0.9-0.6-9.7-6.4-16.1-6.4c-6.6,0-10.2,4.4-10.2,8.1c0,5.5,4.3,9.2,13.7,13   c11.3,4.5,24.2,11.3,24.2,26.2c0,11.9-10.3,23-26.7,23c-14.6,0-23.2-6.8-25.5-9C471.2,673.1,470.6,672.5,471.7,670.7z"></path>
</g>
</svg>
