<?xml version="1.0" encoding="UTF-8"?>
<!-- Generator: Adobe Illustrator 28.0.0, SVG Export Plug-In . SVG Version: 6.00 Build 0)  -->
<svg xmlns="http://www.w3.org/2000/svg" xmlns:xlink="http://www.w3.org/1999/xlink" version="1.1" id="Layer_1" x="0px" y="0px" viewBox="0 0 801.2 831.3" style="enable-background:new 0 0 801.2 831.3;" xml:space="preserve">
<style type="text/css">
	.st0{opacity:0.39;enable-background:new    ;}
	.st1{fill:#FFFFFF;}
	.st2{fill:#6DAC46;}
	.st3{fill:#589542;}
	.st4{fill:#C2BEBE;}
</style>
<g id="Layer_1_1_">
	<ellipse class="st0" cx="401" cy="286.1" rx="262.8" ry="266.3"></ellipse>
	<circle class="st1" cx="401" cy="278.3" r="261.4"></circle>
</g>
<g id="Layer_2_1_">
	<g>
		<g>
			<g>
				<path class="st2" d="M569.4,111.1c-45.1-45.1-105-69.9-168.8-69.9S276.9,66,231.8,111.1s-69.9,105.1-69.9,168.8      c0,63.8,24.8,123.7,69.9,168.8s105.1,69.9,168.8,69.9s123.7-24.8,168.8-69.9s69.9-105,69.9-168.8S614.5,156.2,569.4,111.1z       M400.6,501.3c-122.1,0-221.4-99.3-221.4-221.4S278.5,58.5,400.6,58.5S622,157.8,622,279.9S522.7,501.3,400.6,501.3z"></path>
			</g>
		</g>
	</g>
	<g>
		<path class="st3" d="M400.2,113.5l8.6,16.1c1.9,2.9,4,5.6,6.5,8c7.2,7.2,14,14.7,20.1,22.7c14.5,19.1,24.3,40.2,31.3,63.1    c4.2,14,6.5,28.3,6.6,42.8c0.7,43.4-14.2,80.6-44.2,111.5c-4.9,4.9-10.1,9.4-15.7,13.5c-3,0-4.4-2.4-5.6-4.4    c-2.4-3.9-3.7-8.2-4.4-12.6c-1.1-5.2-1.8-10.5-1.4-15.9V356C401.8,355.4,399.1,114.7,400.2,113.5L400.2,113.5z"></path>
		<path class="st2" d="M400.2,113c-0.4-0.7-0.7-0.2-1.1,0.2c0.2,3.5-1.1,6.6-3,9.6c-2.1,3-4.9,5.2-7.7,7.7    c-15.6,13.5-27.8,29.7-37.6,47.9c-12.9,24.5-19.8,50.7-21.7,78.3c-0.9,10,3.1,45.1,6.3,55.2c8.6,26.9,23.9,49.5,44,69.1    c4.9,4.7,10.1,9.1,15.6,13.3c1.6,0,1.8-1.4,2.1-2.4c0.7-2.2,1.2-4.5,1.6-6.8c1.6-8.7,2.4-17.5,3.5-26.2L400.2,113L400.2,113z"></path>
		<path class="st4" d="M408.8,401.9c0.4-4,2.4-7.3,4.4-10.7c-2.1-0.9-3.7-2.6-4.9-4.6c-1.1-1.8-1.9-3.9-2.6-5.8    c-2.4-7.3-3-15-3.7-22.6v-4.6c-0.9,0.7-1.1,6.6-1.1,7.5c-0.5,8-1.6,15.9-3.1,23.6c-0.5,3.1-0.9,6.3-2.8,9.1c0,0.4,0,0.7,0.2,1.2    c3.1,9.3,4,18.7,4.6,28.3v3.5c0,4.2-0.2,3.3,3.3,4.7c1.4,0.5,3,0.7,4.4,1.8c1.1,0,1.2-0.9,1.2-1.6l-0.5-5.8v-16.1    C407.9,407.3,408.5,404.5,408.8,401.9L408.8,401.9z"></path>
	</g>
</g>
<g>
	<path class="st1" d="M183.1,601.4c0.1-0.9,0.8-1.7,2.1-1.7h1.9c0.9,0,1.6,0.5,2,1.2l25.5,54.8c0.2,0,0.2,0,0.3,0l25.5-54.8   c0.3-0.7,0.9-1.2,2-1.2h1.9c1.3,0,2,0.8,2.1,1.7l13.7,78c0.3,1.6-0.6,2.7-2.1,2.7h-10.6c-1,0-2-0.9-2.2-1.7l-6.8-44   c-0.1,0-0.3,0-0.3,0l-20.3,45.6c-0.2,0.7-0.9,1.3-2,1.3h-2.1c-1,0-1.6-0.6-2-1.3l-20.5-45.6c0,0-0.2,0-0.3,0l-6.7,44   c-0.1,0.8-1,1.7-2.1,1.7h-10.4c-1.5,0-2.4-1-2.2-2.7L183.1,601.4z"></path>
	<path class="st1" d="M291,634.5c13.1,0,23.8,11.1,23.8,24.2c0,13.3-10.7,24.5-23.8,24.5c-13.1,0-23.8-11.1-23.8-24.5   C267.2,645.6,277.9,634.5,291,634.5z M291,670.7c6.1,0,11.1-5.3,11.1-11.9c0-6.5-5-11.7-11.1-11.7c-6.3,0-11.1,5.2-11.1,11.7   C279.8,665.3,284.7,670.7,291,670.7z"></path>
	<path class="st1" d="M325.1,637.8c0-1.3,1-2.2,2.2-2.2h4.4c1,0,1.6,0.6,2,1.4l1.6,4.3c1.7-1.9,7.4-6.8,16.4-6.8   c14.7,0,20.6,11,20.6,23.1v22.3c0,1.2-1,2.2-2.2,2.2h-9.5c-1.3,0-2.2-1-2.2-2.2v-23c0-6-3.1-9.9-8.7-9.9c-6,0-9.7,4.2-10.9,7.3   v25.5c0,1.6-0.7,2.2-2.9,2.2h-8.6c-1.2,0-2.2-1-2.2-2.2V637.8z"></path>
	<path class="st1" d="M389.1,665.6c0,0-3.5-3.9-3.5-10.9c0-10.8,8.7-20.2,20.2-20.2h21.1c1.3,0,2.2,0.9,2.2,2.2v3.8   c0,0.8-0.5,1.7-1.3,2l-6.5,2.1c0,0,4.6,3.6,4.6,11.8c0,9.2-7.7,18.2-19.8,18.2c-4.4,0-7.4-0.9-9.3-0.9c-1.6,0-4.3,1.6-4.3,4.4   c0,2.4,2.1,3.9,4.6,3.9h14.8c10.6,0,19.1,6,19.1,16.2c0,10.7-8.6,19.7-25.4,19.7c-17.2,0-23.7-8.5-23.7-15.9c0-7,5.8-10.3,7-11   v-0.3c-2-0.6-8.7-3.7-8.7-12.2C380.4,669.5,389.1,665.6,389.1,665.6z M405.7,706.4c6.5,0,10.8-2.9,10.8-7.3c0-2.1-1.6-5.7-8.5-5.7   c-2.6,0-5.1,0.1-7.5,0.5c-1.4,0.5-5,2.1-5,5.7C395.5,703.6,399.4,706.4,405.7,706.4z M406.2,663.6c4.8,0,8-3.5,8-8.4   c0-4.9-3.2-8.4-8-8.4c-4.6,0-8.1,3.5-8.1,8.4C398,660.1,401.5,663.6,406.2,663.6z"></path>
	<path class="st1" d="M459,634.5c13.1,0,23.8,11.1,23.8,24.2c0,13.3-10.7,24.5-23.8,24.5s-23.8-11.1-23.8-24.5   C435.3,645.6,445.9,634.5,459,634.5z M459,670.7c6.1,0,11.1-5.3,11.1-11.9c0-6.5-5-11.7-11.1-11.7c-6.3,0-11.1,5.2-11.1,11.7   C447.9,665.3,452.8,670.7,459,670.7z"></path>
	<path class="st1" d="M494.3,603c0-1.2,0.9-2.2,2.1-2.2h27.5c22.4,0,40.7,18.2,40.7,40.5c0,22.5-18.3,40.7-40.7,40.7h-27.5   c-1.2,0-2.1-1-2.1-2.2V603z M522.5,667.9c15.1,0,26.1-11.4,26.1-26.6c0-15.1-11-26.4-26.1-26.4h-13.2v53H522.5z"></path>
	<path class="st1" d="M579.9,603c0-1.2,0.9-2.2,2.2-2.2h26.6c13.8,0,24.5,9.3,24.5,21.5c0,8.9-7.3,15.9-12.8,18.4   c6.1,2,15.1,8.2,15.1,18.9c0,13-11.1,22.4-25.3,22.4h-28.1c-1.3,0-2.2-1-2.2-2.2V603z M607.3,634.9c5.9,0,10-4.6,10-10.4   c0-5.8-4.1-9.9-10-9.9h-12.4v20.3H607.3z M608.9,668.3c5.8,0,10.4-4.5,10.4-10.6c0-5.8-5.8-10.1-11.8-10.1h-12.6v20.6H608.9z"></path>
</g>
</svg>
