<?xml version="1.0" encoding="UTF-8"?>
<!-- Generator: Adobe Illustrator 28.0.0, SVG Export Plug-In . SVG Version: 6.00 Build 0)  -->
<svg xmlns="http://www.w3.org/2000/svg" xmlns:xlink="http://www.w3.org/1999/xlink" version="1.1" id="Layer_1" x="0px" y="0px" viewBox="0 0 801.2 831.3" style="enable-background:new 0 0 801.2 831.3;" xml:space="preserve">
<style type="text/css">
	.st0{opacity:0.39;enable-background:new    ;}
	.st1{fill:#FFFFFF;}
	.st2{fill:#E92D2F;stroke:#E92D2F;stroke-width:9.375000e-02;stroke-miterlimit:10;}
	.st3{fill:url(#SVGID_1_);}
	.st4{fill:url(#SVGID_00000119084036894001347470000010365022098546716094_);}
	.st5{fill:url(#SVGID_00000026155738038389427970000004813610682124466616_);}
	.st6{fill:#241F1F;}
</style>
<g id="Layer_1_1_">
	<ellipse class="st0" cx="401" cy="286.1" rx="262.8" ry="266.3"></ellipse>
	<circle class="st1" cx="401" cy="278.3" r="261.4"></circle>
</g>
<g id="Layer_2_1_">
	<g>
		<g>
			<g>
				<path class="st2" d="M569.4,111.4c-45.1-45.1-105.1-69.9-168.8-69.9s-123.7,24.8-168.8,69.9s-69.9,105.1-69.9,168.8      c0,63.8,24.8,123.7,69.9,168.8s105,70,168.8,70s123.7-24.8,168.8-69.9s69.9-105,69.9-168.8S614.5,156.5,569.4,111.4z       M400.6,501.7c-122.1,0-221.4-99.3-221.4-221.4S278.5,58.8,400.6,58.8S622,158.1,622,280.2S522.7,501.7,400.6,501.7z"></path>
			</g>
		</g>
		<g transform="matrix(.569 0 0 .569 199.451 -82.735)">
			
				<linearGradient id="SVGID_1_" gradientUnits="userSpaceOnUse" x1="-10976.25" y1="-50473.1328" x2="-10859.6201" y2="-50542.0469" gradientTransform="matrix(3.843043e-02 0 0 3.843043e-02 744.0723 2604.4976)">
				<stop offset="0" style="stop-color:#8F9BA8"></stop>
				<stop offset="1" style="stop-color:#EDECEC"></stop>
			</linearGradient>
			<path class="st3" d="M465.4,518.9l-67.3,22l-58.5,25.8l-16.4,4.3c-4.2,4-8.5,8-13.3,12.1c-5.2,4.5-10,8.5-13.7,11.5     c-4.1,3.3-10.2,9.4-13.3,13.2c-4.6,5.8-8.3,12-9.9,16.7c-2.8,8.5-1.4,17.2,4,25.2c6.9,10.2,20.7,20.5,36.8,27.6     c8.2,3.6,22,8.2,32.3,10.8c17.2,4.4,50.6,9.1,69,9.8c3.7,0.2,8.7,0.2,8.9,0c0.4-0.3,3.3-5.7,6.6-12.5     c11.3-23,19.4-44.7,23.9-63.1c2.6-11.2,4.7-26.1,6.1-43.7c0.4-4.9,0.5-21.5,0.2-27.1c-0.5-9.2-1.3-16.6-2.5-23.9     c-0.2-1.1-0.3-2-0.2-2.1c0.2-0.2,0.8-0.4,9.1-2.7L465.4,518.9L465.4,518.9L465.4,518.9L465.4,518.9z M450.1,527.9     c0.6,0,2.2,15.6,2.6,25.5c0.1,2.1,0.1,3.5-0.1,3.5c-0.4,0-8.6-4.8-14.4-8.5c-5.1-3.2-14.7-9.6-16.3-10.8     c-0.5-0.4-0.5-0.4,3.7-1.8C432.7,533.3,449.5,527.9,450.1,527.9z M415.8,539.2c0.5,0,1.6,0.7,4.4,2.4     c10.5,6.6,24.7,14.5,30.8,17.1c1.9,0.8,2.1,0.5-2.2,3.5c-9.3,6.3-20.8,12.5-34.9,18.8c-2.5,1.1-4.6,2-4.6,2     c-0.1,0,0.2-1.3,0.6-2.8c3.4-12.7,5.3-25.5,5.4-35.8C415.3,539.3,415.3,539.3,415.8,539.2C415.7,539.2,415.8,539.2,415.8,539.2     L415.8,539.2z M408.7,541.9c0.3,0.3,0.1,11.7-0.3,14.8c-0.9,7.4-2.3,14.3-4.7,22.1c-0.6,1.9-1.1,3.5-1.2,3.6     c-0.2,0.3-7.2-6.6-9.5-9.2c-4-4.6-7.1-9.2-9.4-13.6c-1.2-2.3-3-6.8-2.8-6.9C381.7,552.1,408.5,541.7,408.7,541.9L408.7,541.9z      M375.5,555c0.1,0,0.1,0,0.2,0.1s0.5,0.9,0.8,1.8c1.6,4.4,5.3,10.9,8.4,15.1c3.5,4.6,8,9.5,11.7,12.7c1.2,1,2.3,2,2.5,2.1     c0.3,0.3,0.4,0.3-7.9,3.4c-9.6,3.7-20.1,7.3-32.1,11.2c-2.9,0.9-5.7,1.9-8.6,2.8c-0.5,0.2-0.3-0.1,1-2.2c6-9.3,15-27.6,20.1-40.5     c0.9-2.2,1.7-4.5,1.9-5c0.2-0.7,0.5-1,1.1-1.3C375,555.1,375.3,555,375.5,555L375.5,555z M365.3,559.2c0.2,0.1-2.4,5.5-5,10.5     c-4.9,9.6-10.3,19.1-17.5,30.6c-1.2,2-2.4,3.8-2.5,4c-0.3,0.4-0.4,0.3-1.2-1.3c-1.7-3.4-3.2-7.8-3.9-11.8     c-0.8-4-0.6-10.9,0.3-15.2c0.7-3.2,0.6-3.1,2.1-3.9C344,568.8,365.1,559,365.3,559.2L365.3,559.2z M453,562.7v2.1     c0,11.3-1.2,26.9-3,38.2c-0.3,2-0.6,3.6-0.6,3.7c0,0-1.5-0.4-3.2-0.9c-7.6-2.4-15.9-5.9-23.4-10c-4.9-2.7-12.1-7.1-11.9-7.3     c0-0.1,2.2-1.2,4.7-2.5c10-5.2,19.5-10.8,27.8-16.3c3.1-2.1,7.8-5.4,8.8-6.4L453,562.7L453,562.7z M326.9,577.8     c0.2,0,0.2,0.4-0.2,2.2c-0.2,1.3-0.5,3.8-0.6,5.4c-0.4,7.4,0.8,12.9,4.5,20.4c1,2.1,1.8,3.8,1.8,3.9c-0.4,0.3-34,10.2-44.6,13.1     c-3.2,0.9-5.9,1.6-6.1,1.7c-0.4,0.1-0.4,0.1-0.3-0.8c1.2-7.5,6.9-17.2,14.8-25.5c5.3-5.5,9.5-8.7,16.7-12.8     c5.2-2.9,13.2-7.4,13.8-7.6C326.8,577.8,326.9,577.8,326.9,577.8L326.9,577.8z M406.2,592c0.1-0.1,1.3,0.6,2.7,1.5     c10.9,6.3,26,12.2,39,15.2l1.2,0.3l-1.6,0.9c-6.8,3.8-29,13-51.7,21.5c-3.3,1.2-6.6,2.4-7.2,2.7s-1.2,0.4-1.2,0.4     c0-0.1,0.9-1.8,2.1-4c6.4-11.9,12.8-26.4,16-36.5C405.9,592.9,406.2,592,406.2,592L406.2,592z M398.2,594.6     c0.1,0.1-0.4,1.1-0.9,2.3c-4.4,10.7-10.2,22.4-17.6,35.5c-1.9,3.4-3.5,6.1-3.5,6.1s-1.6-0.9-3.4-2c-10.8-6.6-20.3-14.7-26.6-22.6     l-0.9-1.1l4.6-1.3c16.6-4.5,30.7-9.4,44.7-15.4C396.5,595.3,398.1,594.6,398.2,594.6z M448.4,612.2     C448.4,612.2,448.5,612.2,448.4,612.2c0.1,1.2-2.5,11.6-4.7,19.2c-1.8,6.4-3.3,11.3-6.1,20.1c-1.2,3.9-2.3,7.1-2.3,7.1     c-0.1,0-0.4-0.1-0.7-0.2c-15.1-2.7-28.6-6.6-41.3-11.6c-3.6-1.4-8.6-3.7-9-4c-0.1-0.1,3-1.5,6.8-3.2     c23.1-10.1,47.1-21.6,55.4-26.5C447.5,612.5,448.3,612.2,448.4,612.2L448.4,612.2z M332.4,616.1c0.1,0.1-6.4,9.4-15.4,22.1     c-3.2,4.4-6.8,9.6-8.2,11.5c-1.4,1.9-3.5,5-4.6,6.8l-2.1,3.3l-2.3-1.9c-2.7-2.2-7.4-7-9.5-9.7c-4.4-5.4-7.3-11.2-8.5-16.4     c-0.6-2.4-0.6-3.7-0.1-3.8c0.8-0.2,14.3-3.4,27.1-6.4c7.1-1.6,15.3-3.6,18.2-4.3C330,616.7,332.3,616.1,332.4,616.1L332.4,616.1z      M338.9,618.6l1.6,1.8c7.3,8.2,14.8,14.2,23.9,19.5c1.6,0.9,2.8,1.7,2.7,1.8c-0.4,0.3-31.4,11.3-45.8,16.3     c-8.1,2.8-14.7,5.1-14.8,5.1c-0.1,0-0.5-0.3-1-0.7l-0.9-0.7l1.5-2.1c4.8-6.9,10.8-14.5,23.9-30.3L338.9,618.6L338.9,618.6z      M379.5,647.7c0-0.1,2.3,0.8,5,1.8c6.6,2.5,11.8,4.1,18.9,5.8c8.6,2.2,21.2,4.3,28.5,4.9c1.1,0.1,1.7,0.2,1.5,0.4     c-0.4,0.2-7.8,2.7-13.3,4.4c-8.7,2.7-35.4,10.6-57.2,16.9c-4,1.2-7.5,2.1-7.7,2.2c-0.5,0.1-2.2-0.4-2.2-0.6     c0-0.1,1.2-1.7,2.7-3.4c7.3-8.7,14.6-18.5,20.6-27.8C378.1,649.8,379.5,647.7,379.5,647.7L379.5,647.7z M370.5,647.9     c0.1,0.1-3.6,5.8-9.9,15.8c-2.7,4.2-5.7,9-6.8,10.7c-1,1.6-2.5,4.2-3.4,5.6l-1.5,2.6l-0.8-0.2c-1.8-0.5-14.7-5-18.1-6.4     c-4.2-1.7-8.6-3.7-11.9-5.4c-4.1-2.2-9.2-5.4-8.7-5.5c0.1-0.1,7.1-1.9,15.5-4.2c22.3-6.1,34.6-9.6,42.7-12.1     C369.2,648.2,370.5,647.9,370.5,647.9L370.5,647.9z M433.9,662.8L433.9,662.8c0.3,0.5-8,23.4-11,30.6c-0.7,1.6-0.9,2-1.3,2     c-0.9,0-12.8-1.7-20.1-2.8c-12.7-1.9-33.9-5.6-39.3-6.9l-1.2-0.3l7.6-1.7c16.3-3.7,24.1-5.6,32-8.1c10-3.1,19.9-6.9,30-11.5     C432.2,663.4,433.5,662.8,433.9,662.8L433.9,662.8z"></path>
			
				<linearGradient id="SVGID_00000070799816854355162790000014120116834456288134_" gradientUnits="userSpaceOnUse" x1="-10961.5908" y1="-57520.8125" x2="-10867.748" y2="-57520.8125" gradientTransform="matrix(3.843043e-02 0 0 3.843043e-02 744.0723 2604.4976)">
				<stop offset="0" style="stop-color:#929EAA"></stop>
				<stop offset="1" style="stop-color:#DBDDE0"></stop>
			</linearGradient>
			<path style="fill:url(#SVGID_00000070799816854355162790000014120116834456288134_);" d="M396.1,362.1     c-1.1-0.2-19.2,6.4-30.8,11.1c-15.7,6.4-27.9,12.5-35.4,17.8c-2.8,2-6.3,5.5-6.9,6.9c-0.2,0.5-0.3,1.1-0.3,1.7l6.8,6.5l16.2,5.2     l38.6,6.9l44.1,7.6l0.5-3.8c-0.2,0-0.3-0.1-0.4-0.1l-5.8-0.9l-1.2-2.1c-6-10.6-12.6-23.7-16.5-32.5c-3-6.9-5.8-14.8-7.4-20.5     C396.7,362.3,396.6,362.1,396.1,362.1L396.1,362.1L396.1,362.1L396.1,362.1z M395.3,364.7L395.3,364.7c0.1,0.1,0.3,1.5,0.5,3.2     c0.9,7.1,2.4,14,4.9,21.4c1.9,5.6,1.9,5.3-0.3,4.6c-5.2-1.4-28.4-5.4-45.3-7.8c-2.7-0.4-5-0.7-5-0.8c-0.2-0.2,12.2-6.7,17.6-9.2     C374.7,372.9,393.8,364.9,395.3,364.7L395.3,364.7z M346.2,387.4l2,0.7c10.8,3.7,37.9,8.9,52.8,10.1c1.7,0.2,3.1,0.3,3.2,0.3     c0.1,0.1-1.4,0.8-3.2,1.7c-7.2,3.6-15.2,8-20.6,11.4c-1.6,1-3.1,1.8-3.3,1.8c-0.2,0-1.3-0.2-2.4-0.4l-2-0.3l-5.1-5     c-9-8.7-16-15.4-18.7-18L346.2,387.4z M344.2,389l7.2,9c3.9,4.9,7.9,9.8,8.7,10.8c0.9,1.1,1.6,1.9,1.5,2     c-0.2,0.2-10.4-1.8-15.8-3.1c-5.5-1.3-7.8-1.9-11.2-2.9l-2.8-0.9v-0.7c0.1-3.4,4.4-8.5,11.7-13.7L344.2,389L344.2,389z      M405.1,401.2c0.2,0,0.5,0.5,1.1,1.8c1.7,3.8,7.1,14.1,8.4,16.1c0.4,0.7,1.1,0.7-6.1-0.5c-17.2-2.8-22.8-3.7-22.8-3.8     c0-0.1,0.5-0.4,1.2-0.8c5.3-2.9,10.7-6.7,15.5-10.7c1.2-1,2.2-1.9,2.4-2S405.1,401.2,405.1,401.2L405.1,401.2z"></path>
			
				<radialGradient id="SVGID_00000091717791431504296140000006921433141391497374_" cx="-77088.1406" cy="-26531.0527" r="124.5803" gradientTransform="matrix(-3.690875e-02 -5.536313e-03 1.120213e-02 -7.379930e-02 -2126.4155 -1901.7357)" gradientUnits="userSpaceOnUse">
				<stop offset="0" style="stop-color:#EE392D"></stop>
				<stop offset="1" style="stop-color:#A91F24"></stop>
			</radialGradient>
			<path style="fill:url(#SVGID_00000091717791431504296140000006921433141391497374_);" d="M323.3,397.1c0,0-1.1,1.8-0.1,4.4     c0.7,1.6,2.6,3.6,4.8,5.6c0,0,22.6,22.1,25.4,25.2c12.5,14.4,18,28.7,18.5,48.3c0.3,12.6-2.1,23.7-8,36.6     c-10.6,23.1-32.9,48.6-67.3,76.8l5-1.7c3.3-2.4,7.7-5,18.1-10.7c24-13.1,50.9-25.2,84-37.6c47.6-17.9,125.9-38.9,170.4-45.7     l4.6-0.7l-0.7-1.1c-4.1-6.3-6.9-10.2-10.2-14.4c-9.8-12.1-21.6-21.9-36.1-30.1c-19.9-11.1-45.7-19.8-78.4-26.3     c-6.2-1.2-19.7-3.6-30.7-5.2c-23.3-3.6-38.3-6.1-54.9-9c-5.9-1-14.9-2.5-20.8-3.8c-3.1-0.7-8.9-2-13.5-3.6     C329.7,402.8,324.4,401.4,323.3,397.1L323.3,397.1z M336.4,409.8c0.1-0.1,0.9,0.3,1.9,0.6c1.9,0.7,4.4,1.4,7.4,2.2     c2.2,0.6,4.5,1.2,6.7,1.8c3.1,0.8,5.6,1.5,5.6,1.5c0.4,0.4,5.5,16.8,7.2,23.1c0.7,2.4,1.2,4.4,1.1,4.4c-0.1,0.1-0.6-0.8-1.3-2     c-6-10.5-15.4-21.1-26.2-29.7C337.5,410.8,336.4,409.9,336.4,409.8L336.4,409.8z M361.4,416.7c0.3,0,1.4,0.2,2.7,0.5     c8.6,1.9,24.2,4.9,34.1,6.6c1.7,0.3,3,0.6,3,0.7s-0.6,0.5-1.4,0.9c-1.7,0.9-8.4,4.9-10.7,6.4c-5.6,3.8-10.7,7.8-14.4,11.5     c-1.5,1.5-2.7,2.7-2.7,2.7s-0.3-0.9-0.6-1.9c-1.8-7.1-5.6-17.5-9.1-24.9C361.8,417.8,361.4,416.8,361.4,416.7     C361.4,416.8,361.4,416.7,361.4,416.7L361.4,416.7z M405.5,425.1c0.3,0.1,0.8,1.8,1.8,5.6c1.9,7.4,2.7,15.6,2.4,23.3     c-0.1,2.1-0.2,4.1-0.3,4.4l-0.2,0.5l-2.6-0.9c-5.4-1.7-14.3-4.3-21.9-6.5c-4.3-1.2-7.8-2.2-7.8-2.3c0-0.3,6.3-6.6,9-9     C391.1,435.8,405,425,405.5,425.1L405.5,425.1z M409,425.6c0.2-0.2,21.1,3.5,30.6,5.3c7.1,1.4,17.3,3.5,18,3.8     c0.3,0.1-0.8,0.7-4.2,2.2C440,443,430,448.4,420.1,455c-2.6,1.7-4.8,3.2-4.8,3.2c-0.1,0-0.1-1.5-0.1-3.3c0-9.7-1.9-19.4-5.5-27.7     C409.2,426.4,408.9,425.7,409,425.6z M463.1,436.3c0.2,0.2-0.5,4.3-1.1,6.7c-1.8,7.6-6.8,18.8-12.8,29.4c-1.1,1.9-2,3.4-2.1,3.5     s-1.5-0.7-3.1-1.6c-5.9-3.5-12.6-6.7-19.9-9.8c-2-0.9-3.8-1.6-3.9-1.7c-0.4-0.3,16-11.1,24.7-16.3     C451.7,442.3,462.8,436.1,463.1,436.3L463.1,436.3z M466.9,436.9c0.5,0,9.7,2.5,14.5,4c12,3.6,25.7,8.6,34.6,12.7l3.7,1.7     l-2.6,0.6c-21.9,5-40.6,10.8-58.6,18.2c-1.5,0.6-2.8,1.1-2.9,1.1s0.4-1.2,1.1-2.6c5.4-11.5,9-23.6,9.8-33.9     C466.6,437.7,466.8,436.9,466.9,436.9L466.9,436.9z M374.8,458.1c0.2-0.2,7.2,1.5,11,2.6c5.8,1.6,18.1,5.7,18.1,6.1     c0,0.1-1.4,1.2-3,2.6c-6.7,5.5-13.1,11.4-20.8,18.8c-2.3,2.2-4.2,4-4.3,4c-0.1,0-0.2-0.3-0.1-0.7c1.2-8.5,0.9-19.5-0.7-30.7     C374.9,459.3,374.7,458.1,374.8,458.1z M523.3,458.2c0.1,0.1-3.3,5.4-5.4,8.4c-3.1,4.4-7.5,10.2-17.6,22.9     c-5.3,6.7-11.3,14.3-13.3,16.8s-3.7,4.7-3.8,4.7c-0.1,0-0.7-0.9-1.4-2c-5.7-8.5-12.5-16-20.6-22.7c-1.5-1.3-3.2-2.6-3.8-3.1     c-0.6-0.4-1-0.8-1-0.9c0-0.2,8.6-3.9,15.2-6.5c11.5-4.7,27.2-10.3,38.9-13.9C516.7,460,523.2,458.1,523.3,458.2L523.3,458.2z      M527.2,459.2c0.2-0.1,1.4,0.6,2.9,1.4c12.4,7.1,24.5,16.2,34,25.5c2.7,2.6,9.4,9.6,9.3,9.6c0,0-2.3,0.2-5.1,0.4     c-21.4,1.6-48.8,6.2-75.2,12.5c-1.8,0.4-3.4,0.8-3.5,0.8s1.9-2,4.4-4.4c15.5-14.9,22.5-24.3,30.9-41.1     C526.1,461.5,527.1,459.4,527.2,459.2L527.2,459.2L527.2,459.2z M414,470.8c0.7,0.2,7.3,3.3,12.3,5.7c4.6,2.3,11.4,6,11.8,6.3     c0.1,0.1-2.4,1.3-5.4,2.8c-9.6,4.8-17.7,9.3-26.3,14.5c-2.4,1.5-4.5,2.7-4.5,2.7c-0.2,0-0.2-0.2,1.2-2.7     c4.6-8.3,8.2-18.3,10.3-28C413.6,471.4,413.8,470.8,414,470.8L414,470.8z M407.4,472.1c0.2,0.2-1.6,6.4-2.6,9.8     c-2.1,6.5-5.6,14.5-9,20.6c-0.8,1.4-2,3.5-2.7,4.7l-1.3,2l-2.8-2.7c-3.3-3.2-6-5.2-9.5-7c-1.4-0.7-2.4-1.3-2.4-1.4     c0-0.4,8.7-8.3,15.4-14C397.1,480,407.2,471.9,407.4,472.1L407.4,472.1z M447.8,488.7l2.5,1.6c5.7,3.7,12.4,8.6,17.5,13     c2.9,2.4,8.5,7.4,9.6,8.6l0.6,0.7l-4.1,1.2c-23.3,6.5-41.3,12.2-62.3,19.9c-2.3,0.9-4.3,1.6-4.5,1.6c-0.3,0-0.6,0.3,4.7-4.6     c13.4-12.4,25.3-26,34.2-39.3L447.8,488.7L447.8,488.7z M437.2,491.3c0.1,0.1-6.9,9.9-11,15.5c-5,6.6-13.8,17.7-19.9,24.9     c-2.5,3-4.7,5.5-4.8,5.5c-0.2,0.1-0.2-0.7-0.2-1.9c0-6.2-1.6-12.7-4.3-18.3c-1.2-2.3-1.4-2.9-1.1-3.2c1-0.9,15.8-9.3,25.1-14.3     C427.1,496.2,437,491.2,437.2,491.3L437.2,491.3z M372.9,507.1c0.2,0,1.3,0.6,2.6,1.3c3.3,1.8,6.2,3.8,8.7,5.9     c0.1,0.1-1.2,1.2-2.9,2.4c-4.8,3.5-12.2,9-16.4,12.4c-4.5,3.6-4.6,3.7-4.1,2.9c3.4-5.1,5-8,6.8-11.7c1.6-3.3,3.2-7.2,4.3-10.6     C372.3,508.2,372.8,507.1,372.9,507.1L372.9,507.1z M390,520.5c0.3-0.1,0.6,0.4,1.9,2.4c2.9,4.3,5.1,10.1,5.7,14.8l0.1,1l-7,2.7     c-12.5,4.8-24,9.6-31.7,13.2c-2.2,1-6,2.8-8.5,4.1s-4.5,2.2-4.5,2.2c0-0.1,1.6-1.2,3.5-2.6c15.2-11,28.4-23.1,38.2-35.2     c1.1-1.3,2-2.4,2.1-2.5L390,520.5L390,520.5z M382.1,522.5c0.2,0.2-5.6,6.8-9.6,10.8c-9.8,10-19.5,17.9-31.6,25.5     c-1.5,1-2.9,1.8-3.1,1.9c-0.4,0.2,0.1-0.3,5.4-6.1c3.4-3.6,5.9-6.7,8.8-10.4c1.9-2.5,2.3-2.8,5.1-4.8     C364.7,534,381.9,522.3,382.1,522.5z"></path>
		</g>
		<path class="st6" d="M291.6,334.4c-0.5,0-1.1,0.1-1.6,0.1c-10.8,0.6-18.1,5.3-22.3,14.6c-3.6,8.4-3.2,19.3,0,27.8    c3.8,8.2,10,12.6,20.3,14.2c2.2,0.4,3.6,1.6,7.9,6.5l5.2,6.1h9.4l-6.3-6.3c-3.5-3.5-6.3-6.5-6.3-6.7c0-0.3,1.3-0.8,2.9-1.3    c5.3-1.6,9.7-5.7,12.7-11.9c2.5-5,2.8-6.6,3.2-12.8C317.7,345.9,307.9,334.2,291.6,334.4L291.6,334.4L291.6,334.4z M299.8,383    c-4.6,2.2-11.2,2.7-15.6,1.1c-4.5-1.6-8.8-6.3-10.8-11.6c-2.2-5.8-1.9-16.4,0.6-21.2c4-7.6,9.3-11.1,17-11.1    c11.4,0,18,7,18.8,20.2C310.6,371.3,306.9,379.6,299.8,383L299.8,383z M462.4,350.2c-3.9,0-7,1.6-9,4.7l-1.6,2.5V351H445v38.9h6.8    v-12.4c0-11.4,0.1-12.7,1.7-15.8c2.2-4.3,6-6.4,9.6-5.4l2.4,0.7v-6.7L462.4,350.2L462.4,350.2L462.4,350.2z M422.2,349.9    c-1.3,0-2.8,0.2-4.2,0.5c-9.1,2.4-14.3,11.1-14,20.1c0,7.5,1.5,11.3,5.1,15.3c7.5,6.1,14.2,6.6,23.3,3.3c1.6-0.7,3.2-1.4,3.2-1.4    v-6.1l-3.2,1.7c-7.4,3.2-12.9,3.2-17.3-0.6c-2.8-2.9-4.1-6.3-4.7-10.3H438v-5.2C438,356.5,431.6,349.7,422.2,349.9L422.2,349.9    L422.2,349.9z M411.1,366.9c0,0,1-6.7,4.8-9.3c1.8-1.3,3.9-1.9,5.9-1.9s4.1,0.7,5.8,1.9c3.5,2.7,4,9.2,4,9.2L411.1,366.9    L411.1,366.9L411.1,366.9L411.1,366.9z M246.4,359.9c-7.4-4.5-10.7-7.7-10.3-11.5c1.1-10.6,14.2-9.1,21.4-5.1l0.1-7.1    c0,0-4-1.7-9.7-1.8c-8.8-0.1-14.5,2.7-17.1,8.6c-3.9,8.6-0.4,15.2,12.1,22.4c7,4.1,10.1,7.6,10.1,11.5c0,8-9.6,10.8-19.6,5.8    c-2-1-3.8-1.9-3.9-1.9c-0.4,2.3-0.2,7.7-0.2,7.7s3.1,1.3,7.6,2.2c11.4,2.3,21.7-3.1,22.7-11.7    C260.5,370.8,257.6,366.6,246.4,359.9L246.4,359.9L246.4,359.9z M522.8,349.8c-1.3,0-2.7,0.2-4.2,0.5    c-9.1,2.4-14.3,11.1-13.9,20.1c0,7.5,1.5,11.3,5.1,15.2c7.5,6.1,14.2,6.6,23.3,3.3c1.5-0.7,3.2-1.4,3.2-1.4v-6.1l-3.2,1.7    c-7.4,3.2-12.9,3.2-17.3-0.6c-2.8-2.9-4.1-6.3-4.7-10.3h27.5V367C538.6,356.4,532.1,349.6,522.8,349.8L522.8,349.8L522.8,349.8z     M511.7,366.8c0,0,1-6.7,4.8-9.3c1.8-1.3,3.9-1.9,5.9-1.9s4.1,0.7,5.8,2c3.5,2.7,4,9.2,4,9.2L511.7,366.8L511.7,366.8L511.7,366.8    z M386.5,360c-7.4-4.5-10.7-7.7-10.3-11.5c1.1-10.6,14.2-9.1,21.4-5.1l0.1-7.1c0,0-4-1.7-9.7-1.8c-8.8-0.1-14.5,2.7-17.1,8.6    c-3.9,8.6-0.4,15.2,12.1,22.4c7,4.1,10.1,7.6,10.1,11.4c0,8-9.6,10.8-19.6,5.8c-2-1-3.8-1.9-3.9-1.9c-0.4,2.3-0.2,7.7-0.2,7.7    s3,1.2,7.6,2.2c11.4,2.3,21.7-3.1,22.7-11.7C400.5,370.9,397.6,366.7,386.5,360L386.5,360L386.5,360z M562.9,350.2    c-3.9,0-7,1.6-9,4.8l-1.6,2.5V351h-6.8v38.8h6.8v-12.4c0-11.4,0.1-12.7,1.7-15.8c2.2-4.3,5.9-6.4,9.6-5.4l2.4,0.7v-6.7H562.9    L562.9,350.2z M332.2,359.8V335h-6.9v54.8h29v-6.5h-22.1V359.8L332.2,359.8z M491.4,367.5l-5.7,14.8l-5.5-14.9l-5.5-16.5h-7    c4.6,12.9,9.5,26.1,14.5,38.9c2.2,0.1,4.3,0,6.5,0l7.7-19.2l7.8-19.6h-6.7C497.5,351,494.5,358.8,491.4,367.5L491.4,367.5    L491.4,367.5z M348,320.1c1.1,0,2-0.4,2.8-1.1c0.8-0.8,1.1-1.6,1.1-2.7s-0.4-2-1.1-2.7c-0.8-0.7-1.6-1.1-2.7-1.1s-2,0.4-2.8,1.1    c-0.8,0.8-1.1,1.7-1.1,2.7c0,1.1,0.4,2,1.1,2.7S346.9,320.1,348,320.1L348,320.1L348,320.1z M345.6,313.8c0.7-0.7,1.5-1,2.5-1    s1.8,0.3,2.4,1c0.7,0.7,1,1.5,1,2.4c0,1-0.4,1.8-1,2.5c-0.7,0.7-1.5,1-2.4,1c-1,0-1.8-0.3-2.4-1c-0.7-0.7-1-1.5-1-2.5    C344.6,315.3,344.9,314.5,345.6,313.8z M347.2,316.6h0.4c0.3,0,0.6,0.3,0.9,0.9l0.5,1.2h0.8l-0.7-1.3c-0.3-0.5-0.5-0.8-0.8-0.9    c0.4-0.1,0.7-0.2,0.9-0.5c0.2-0.2,0.3-0.5,0.3-0.9s-0.1-0.7-0.4-0.9c-0.3-0.3-0.8-0.4-1.4-0.4h-1.4v5h0.7L347.2,316.6L347.2,316.6    L347.2,316.6z M347.2,314.3h0.6c0.4,0,0.8,0.1,0.9,0.2c0.2,0.1,0.2,0.3,0.2,0.6c0,0.6-0.4,0.8-1,0.8h-0.8L347.2,314.3L347.2,314.3    L347.2,314.3z M233.5,316.1c0-1.7-0.1-3-0.1-3.8l0,0c0.2,0.9,0.4,1.6,0.6,2l6.6,14.8h1.1l6.6-14.9c0.2-0.4,0.4-1,0.6-1.9h0.1    c-0.1,1.5-0.2,2.8-0.2,3.8v13h2.3v-19.4h-2.8l-6.1,13.5c-0.2,0.5-0.5,1.3-0.9,2.4h-0.1c-0.1-0.5-0.4-1.3-0.9-2.3l-5.9-13.6h-3    v19.4h2.2L233.5,316.1L233.5,316.1L233.5,316.1z M256,316.2h2v12.1h-2V316.2z M257,311.8c0.4,0,0.8-0.1,1-0.4    c0.3-0.3,0.4-0.6,0.4-1s-0.1-0.8-0.4-1c-0.3-0.3-0.6-0.4-1-0.4s-0.8,0.1-1,0.4c-0.3,0.3-0.4,0.6-0.4,1s0.1,0.8,0.4,1    S256.6,311.8,257,311.8L257,311.8L257,311.8z M271.9,328.5v-2.1c-1.1,0.8-2.2,1.2-3.4,1.2c-1.4,0-2.6-0.5-3.4-1.4    s-1.3-2.2-1.3-3.8c0-1.7,0.4-3,1.4-4c0.9-1,2-1.5,3.5-1.5c1.2,0,2.3,0.4,3.3,1.1v-2.3c-0.9-0.5-2-0.7-3.2-0.7    c-2.2,0-3.9,0.7-5.2,2.1c-1.3,1.4-1.9,3.2-1.9,5.5c0,2,0.6,3.7,1.8,5c1.2,1.3,2.8,2,4.8,2C269.6,329.5,270.8,329.1,271.9,328.5    L271.9,328.5z M277.5,322.1c0-1.6,0.4-2.9,1-3.8c0.6-0.8,1.4-1.2,2.3-1.2c0.8,0,1.3,0.1,1.7,0.4v-2.3c-0.3-0.1-0.7-0.2-1.3-0.2    c-0.8,0-1.5,0.3-2.1,0.8c-0.7,0.5-1.2,1.3-1.5,2.3h-0.1v-2.8h-2.2v13.8h2.2V322.1L277.5,322.1z M290.2,329.5c2.1,0,3.8-0.7,5-2    s1.9-3.1,1.9-5.3c0-2.3-0.6-4-1.7-5.3s-2.7-1.9-4.8-1.9s-3.8,0.6-5,1.8c-1.3,1.3-2,3.2-2,5.6c0,2.1,0.6,3.8,1.8,5.1    C286.5,328.8,288.1,329.5,290.2,329.5L290.2,329.5L290.2,329.5z M287.1,318.2c0.8-0.9,2-1.3,3.3-1.3c1.4,0,2.5,0.4,3.3,1.3    s1.2,2.3,1.2,4s-0.4,3-1.1,3.9c-0.8,0.9-1.9,1.4-3.3,1.4s-2.5-0.5-3.4-1.4c-0.8-0.9-1.2-2.2-1.2-3.9    C285.7,320.5,286.2,319.2,287.1,318.2L287.1,318.2z M306.8,328.3c0.8-0.8,1.3-1.7,1.3-2.8c0-1-0.4-1.9-1-2.5    c-0.5-0.5-1.4-1-2.6-1.5c-1.1-0.4-1.7-0.8-2.1-1.2c-0.4-0.4-0.6-0.8-0.6-1.4s0.2-1,0.7-1.4c0.4-0.4,1-0.5,1.8-0.5    c1.2,0,2.2,0.3,3.2,1v-2.2c-0.9-0.4-1.9-0.7-3-0.7c-1.4,0-2.6,0.4-3.5,1.1c-0.9,0.8-1.4,1.7-1.4,2.9c0,1,0.3,1.9,0.9,2.5    c0.5,0.5,1.3,1.1,2.5,1.6c1.1,0.5,1.9,0.9,2.3,1.3s0.6,0.8,0.6,1.3c0,1.3-0.9,2-2.6,2c-1.3,0-2.5-0.4-3.6-1.3v2.4    c1,0.6,2.1,0.8,3.4,0.8C304.6,329.5,305.9,329.1,306.8,328.3L306.8,328.3L306.8,328.3z M317.3,314.9c-2.1,0-3.8,0.6-5,1.8    c-1.3,1.3-2,3.2-2,5.6c0,2.1,0.6,3.8,1.8,5.1c1.2,1.3,2.9,2,5,2s3.8-0.7,5-2s1.9-3.1,1.9-5.3c0-2.3-0.6-4-1.7-5.3    C321,315.6,319.4,314.9,317.3,314.9L317.3,314.9L317.3,314.9z M321.6,322.2c0,1.7-0.4,3-1.1,3.9c-0.8,0.9-1.9,1.4-3.3,1.4    s-2.5-0.5-3.4-1.4c-0.8-0.9-1.2-2.2-1.2-3.9c0-1.8,0.4-3.2,1.3-4.1c0.8-0.9,1.9-1.3,3.3-1.3s2.5,0.4,3.3,1.3    C321.2,319.1,321.6,320.4,321.6,322.2L321.6,322.2L321.6,322.2z M327.6,329.1h2.2v-12h3.2v-1.9h-3.2v-2.1c0-1.9,0.8-2.9,2.3-2.9    c0.5,0,1.1,0.1,1.5,0.4v-2c-0.4-0.2-0.9-0.2-1.6-0.2c-1.2,0-2.2,0.4-3,1.1c-0.9,0.9-1.4,2-1.4,3.6v2.3h-2.3v1.9h2.3V329.1    L327.6,329.1z M336.7,325.4c0,2.7,1.2,4.1,3.6,4.1c0.9,0,1.6-0.1,2.1-0.5v-1.9c-0.4,0.3-0.9,0.4-1.4,0.4c-0.8,0-1.3-0.2-1.6-0.6    c-0.3-0.4-0.5-1.1-0.5-2v-7.8h3.5v-1.9h-3.5v-4.1c-0.8,0.3-1.5,0.5-2.2,0.7v3.4h-2.4v1.9h2.4V325.4L336.7,325.4z M574.7,350.9    c-0.8-0.7-1.6-1.1-2.7-1.1c-1.1,0-2,0.4-2.8,1.1s-1.1,1.7-1.1,2.7c0,1.1,0.4,2,1.1,2.7c0.8,0.7,1.7,1.1,2.8,1.1s2-0.4,2.8-1.1    c0.7-0.8,1.1-1.6,1.1-2.7C575.9,352.5,575.5,351.6,574.7,350.9L574.7,350.9z M574.4,356.1c-0.7,0.7-1.5,1-2.4,1    c-1,0-1.8-0.3-2.4-1c-0.7-0.7-1-1.5-1-2.5s0.3-1.8,1-2.4c0.7-0.7,1.5-1,2.5-1s1.8,0.3,2.4,1c0.7,0.7,1,1.5,1,2.4    C575.4,354.6,575.1,355.4,574.4,356.1z M572.4,353.8c0.4-0.1,0.7-0.3,0.9-0.5s0.3-0.5,0.3-0.9s-0.1-0.7-0.4-0.9    c-0.3-0.3-0.8-0.4-1.4-0.4h-1.4v5h0.7V354h0.4c0.3,0,0.6,0.3,0.9,0.9l0.5,1.2h0.8l-0.7-1.3C572.9,354.2,572.6,353.9,572.4,353.8    L572.4,353.8L572.4,353.8z M571.9,353.4h-0.8v-1.7h0.6c0.4,0,0.8,0.1,0.9,0.2c0.2,0.1,0.2,0.3,0.2,0.6    C572.9,353.1,572.6,353.4,571.9,353.4L571.9,353.4L571.9,353.4z M448.2,314.7h0.6v-5h1.6v-0.6h-3.9v0.6h1.6L448.2,314.7    L448.2,314.7z M451.9,311c0-0.5,0-0.9,0-1.1c0,0.3,0.1,0.4,0.2,0.6l1.9,4.3h0.3l1.9-4.3c0.1-0.1,0.1-0.3,0.2-0.5    c0,0.4,0,0.8,0,1.1v3.8h0.7v-5.6h-0.8l-1.7,3.9c0,0.1-0.2,0.4-0.3,0.7h-0.1c0-0.2-0.1-0.4-0.3-0.7l-1.7-3.9h-0.9v5.6h0.6    L451.9,311L451.9,311L451.9,311z"></path>
	</g>
</g>
<g>
	<path class="st1" d="M232.3,601.4c0.1-0.9,0.8-1.7,2.1-1.7h1.9c0.9,0,1.6,0.5,2,1.2l25.5,54.8c0.2,0,0.2,0,0.3,0l25.5-54.8   c0.3-0.7,0.9-1.2,2-1.2h1.9c1.3,0,2,0.8,2.1,1.7l13.7,78c0.3,1.6-0.6,2.7-2.1,2.7h-10.6c-1,0-2-0.9-2.2-1.7l-6.8-44   c-0.1,0-0.3,0-0.3,0l-20.3,45.6c-0.2,0.7-0.9,1.3-2,1.3h-2.1c-1,0-1.6-0.6-2-1.3l-20.5-45.6c0,0-0.2,0-0.3,0l-6.7,44   c-0.1,0.8-1,1.7-2.1,1.7h-10.4c-1.5,0-2.4-1-2.2-2.7L232.3,601.4z"></path>
	<path class="st1" d="M320.3,670.7l4.2-7.2c0.9-1.6,2.9-1.6,3.9-0.8c0.6,0.3,10,7.2,17.5,7.2c6,0,10.6-3.9,10.6-8.9   c0-5.9-5-10-14.7-13.9c-10.9-4.4-21.8-11.4-21.8-25.1c0-10.3,7.7-22.3,26.1-22.3c11.8,0,20.9,6,23.2,7.8c1.2,0.7,1.5,2.7,0.7,3.8   l-4.4,6.6c-0.9,1.4-2.7,2.3-4.1,1.4c-0.9-0.6-9.7-6.4-16.1-6.4c-6.6,0-10.2,4.4-10.2,8.1c0,5.5,4.3,9.2,13.7,13   c11.3,4.5,24.2,11.3,24.2,26.2c0,11.9-10.3,23-26.7,23c-14.6,0-23.2-6.8-25.5-9C319.9,673.1,319.3,672.5,320.3,670.7z"></path>
	<path class="st1" d="M383.2,670.7l4.2-7.2c0.9-1.6,2.9-1.6,3.9-0.8c0.6,0.3,10,7.2,17.5,7.2c6,0,10.6-3.9,10.6-8.9   c0-5.9-5-10-14.7-13.9c-10.9-4.4-21.8-11.4-21.8-25.1c0-10.3,7.7-22.3,26.1-22.3c11.8,0,20.9,6,23.2,7.8c1.2,0.7,1.5,2.7,0.7,3.8   l-4.4,6.6c-0.9,1.4-2.7,2.3-4.1,1.4c-0.9-0.6-9.7-6.4-16.1-6.4c-6.6,0-10.2,4.4-10.2,8.1c0,5.5,4.3,9.2,13.7,13   c11.3,4.5,24.2,11.3,24.2,26.2c0,11.9-10.3,23-26.7,23c-14.6,0-23.2-6.8-25.5-9C382.7,673.1,382.1,672.5,383.2,670.7z"></path>
	<path class="st1" d="M486.7,599.7c23.2,0,41.8,18.7,41.8,41.9c0,15.8-9.2,29.7-22.6,37.1l14.5,22.9c1,1.6,0,3.5-1.9,3.5h-12.3   c-0.5,0-1.5-0.5-1.9-1.2l-12.4-21c-1.9,0.2-3.8,0.3-5.2,0.3c-23.2,0-41.6-18.4-41.6-41.6C445,618.4,463.5,599.7,486.7,599.7z    M486.7,668.1c14.6,0,26.7-11.9,26.7-26.6c0-14.6-12.1-26.8-26.7-26.8c-14.6,0-26.6,12.2-26.6,26.8   C460.1,656.2,472,668.1,486.7,668.1z"></path>
	<path class="st1" d="M543.7,603c0-1.2,0.9-2.2,2.2-2.2h10.7c1.2,0,2.2,1,2.2,2.2v65.1h29.6c1.3,0,2.2,1,2.2,2.2v9.5   c0,1.2-0.9,2.2-2.2,2.2h-42.5c-1.3,0-2.2-1-2.2-2.2V603z"></path>
</g>
</svg>
