<?xml version="1.0" encoding="UTF-8"?>
<!-- Generator: Adobe Illustrator 28.0.0, SVG Export Plug-In . SVG Version: 6.00 Build 0)  -->
<svg xmlns="http://www.w3.org/2000/svg" xmlns:xlink="http://www.w3.org/1999/xlink" version="1.1" id="Layer_1" x="0px" y="0px" viewBox="0 0 801.2 831.3" style="enable-background:new 0 0 801.2 831.3;" xml:space="preserve">
<style type="text/css">
	.st0{opacity:0.39;enable-background:new    ;}
	.st1{fill:#FFFFFF;}
	.st2{fill:#00768F;}
</style>
<g>
	<ellipse class="st0" cx="401" cy="286.1" rx="262.8" ry="266.3"></ellipse>
	<circle class="st1" cx="401" cy="278.3" r="261.4"></circle>
	<path class="st2" d="M400.6,41.5c-131.9,0-238.8,106.9-238.8,238.8S268.7,519,400.6,519s238.8-106.9,238.8-238.8   S532.5,41.5,400.6,41.5z M544.1,421.1c-2.7-1-4.1-3.5-6.2-5.1c-4.3-2.9-8.6-6.4-12.9-9.2c-7.4-4.7-16-7.4-23.6-12.1   c-4.3-2.7-8.4-5.8-12.5-9c-3.7-2.7-7.8-8-10.1-11.9c-1.4-2.2-1.6-4.7-3.1-6.3c0.4-3.7,5.1-3.7,8-4.9c10.1-4.3,22.2-5.9,37.9-5.5   c-0.6-3.9-10.3-8.8-13.5-11.1c-6.3-4.5-12.9-9.2-19.5-13.3c-3.5-2.1-9.6-3.7-13.5-5.5c-5.3-2.1-17-4.3-19.9-8.4   c-5.9-7.6-9.8-17-13.9-26.2c-4.1-9.4-9.2-19.1-13.3-28.7c-2.1-4.7-3.1-8.8-5.5-13.3c-14.2-27.5-35.3-50.5-60.9-66.7   c-8.4-5.3-17.8-10.1-28.1-13.5c-5.9-1.8-12.9-0.8-19.1-2.1h-4.1c-3.5-1-6.4-4.7-9.2-6.6c-6-4.1-12.1-6.8-19.3-9.8   c-2.5-1.2-9.8-3.9-12.3-1.8c-1.6,0.4-2.4,1-2.7,2.5c-1.6,2.3-0.2,5.8,0.8,8c2.9,6.2,7,9.9,10.7,15.2c3.3,4.7,7.4,9.9,9.8,15   c5.1,10.9,7.4,23,12.1,34c1.7,4.1,4.5,8.8,7,12.5c2.1,2.9,6,5.1,7.2,8.8c2.4,3.9-3.5,16.8-4.9,20.9c-5.1,16-4.1,38.2,1.8,52.1   c2.3,5.4,4.5,11.9,10.7,13.4c0.4-0.4,0-0.2,0.8-0.4c1.4-10.7,1.8-21.1,5.5-29.5c2.1-5.3,6.4-9,9.4-13.3c2,1.2,2,4.7,3.1,7   c2.5,6,5.3,12.7,8.4,18.7c6.4,12.5,13.7,24.6,21.8,35.5c2.7,3.9,6.6,8.2,10.2,11.7c1.6,1.4,3.3,2.1,4.5,3.9h0.4v0.6   c-5.9-2.2-9.6-8.2-14.2-11.7c-8.8-6.6-19.3-16.6-25.4-26.1c-2.5-5.5-5.3-10.7-8-16.2v-0.4c-1.2,1.6-0.8,3.1-1.4,5.5   c-2.5,9.8-0.6,20.9-9.4,24.4c-10,4.1-17.4-6.6-20.5-11.5c-10-16.2-12.7-43.5-5.7-65.6c1.6-4.9,1.8-10.7,4.5-14.6   c-0.6-3.5-3.3-4.5-4.9-6.6c-2.7-3.7-5.1-8-7.2-12.1c-4.1-8-7-17.6-10.1-26.2c-1.4-3.5-1.8-7-3.1-10.3c-2.3-5.1-6.6-10.1-9.9-14.6   c-4.5-6.4-17.6-18.9-12.3-31.6c8.2-20.1,36.9-4.9,48,2.1c2.7,1.8,5.9,5.5,9,6.8c4.9,0.2,9.8,0.6,14.6,0.8c9.2,2.1,17.7,3.9,25,8   c33.6,19.7,55.4,39.8,75.5,73c4.3,7,6.4,14.6,10,22.2c4.9,11.3,10.3,23.2,16,34c2.5,5.1,4.5,10.7,8,15c1.4,2,5.3,2.5,7.6,3.7   c6.4,3.3,14.2,5.9,20.3,9.8c11.3,7,22.3,15.4,32.2,24c3.7,3.3,6.2,8,9.8,11.5v1.8c-3.1,1-6.3,1.9-9.4,2.7   c-6.8,1.8-12.9,1.4-19.5,3.1c-4.1,1.2-9.2,2.7-13.5,3.1c0.2,0.2,0.4,0.4,0.4,0.4c2.5,7.2,16.2,13.1,22.4,17.4   c7.6,5.5,14.6,12.1,20.3,19.7c2,1.9,3.9,3.7,5.9,5.6c1.4,2,1.7,4.5,3.1,6.3L544.1,421.1L544.1,421.1z M330,196.2   c0,4.7-1.4,7.8-4.1,9.8c0,0-0.2,0.2-0.4,0.4c-1.6-3.1-2.9-6.2-4.5-9.4c-1.9-2.7-4.7-4.9-6.2-8h-0.4v-0.4c2.4-0.6,4.7-1,8-1   c1.6,1.6,4.1,2.5,5.3,4.5C328.6,193.5,328.8,194.9,330,196.2z"></path>
</g>
<g>
	<path class="st1" d="M239.4,601.4c0.1-0.9,0.8-1.7,2.1-1.7h1.9c0.9,0,1.6,0.5,2,1.2l25.5,54.8c0.2,0,0.2,0,0.3,0l25.5-54.8   c0.3-0.7,0.9-1.2,2-1.2h1.9c1.3,0,2,0.8,2.1,1.7l13.7,78c0.3,1.6-0.6,2.7-2.1,2.7h-10.6c-1,0-2-0.9-2.2-1.7l-6.8-44   c-0.1,0-0.3,0-0.3,0L274,681.9c-0.2,0.7-0.9,1.3-2,1.3h-2.1c-1,0-1.6-0.6-2-1.3l-20.5-45.6c0,0-0.2,0-0.3,0l-6.7,44   c-0.1,0.8-1,1.7-2.1,1.7h-10.4c-1.5,0-2.4-1-2.2-2.7L239.4,601.4z"></path>
	<path class="st1" d="M319.9,638.7c-0.7-1.5,0.2-3,2-3h10.4c1,0,1.6,0.6,2,1.3l11.7,26.2h0.1l11.6-26.2c0.6-1.2,1.4-1.3,2.8-1.3h9.3   c1.9,0,2.8,1.5,2,3l-35.5,76.8c-0.3,0.7-1,1.4-2,1.4h-10c-1.7,0-2.8-1.5-2-3.1l16.5-34.9L319.9,638.7z"></path>
	<path class="st1" d="M376.1,670.7l4.2-7.2c0.9-1.6,2.9-1.6,3.9-0.8c0.6,0.3,10,7.2,17.5,7.2c6,0,10.6-3.9,10.6-8.9   c0-5.9-5-10-14.7-13.9c-10.9-4.4-21.8-11.4-21.8-25.1c0-10.3,7.7-22.3,26.1-22.3c11.8,0,20.9,6,23.2,7.8c1.2,0.7,1.5,2.7,0.7,3.8   l-4.4,6.6c-0.9,1.4-2.7,2.3-4.1,1.4c-0.9-0.6-9.7-6.4-16.1-6.4c-6.6,0-10.2,4.4-10.2,8.1c0,5.5,4.3,9.2,13.7,13   c11.3,4.5,24.2,11.3,24.2,26.2c0,11.9-10.3,23-26.7,23c-14.6,0-23.2-6.8-25.5-9C375.6,673.1,375,672.5,376.1,670.7z"></path>
	<path class="st1" d="M479.5,599.7c23.2,0,41.8,18.7,41.8,41.9c0,15.8-9.2,29.7-22.6,37.1l14.5,22.9c1,1.6,0,3.5-1.9,3.5H499   c-0.5,0-1.5-0.5-1.9-1.2l-12.4-21c-1.9,0.2-3.8,0.3-5.2,0.3c-23.2,0-41.6-18.4-41.6-41.6C437.9,618.4,456.3,599.7,479.5,599.7z    M479.5,668.1c14.6,0,26.7-11.9,26.7-26.6c0-14.6-12.1-26.8-26.7-26.8c-14.6,0-26.6,12.2-26.6,26.8   C453,656.2,464.9,668.1,479.5,668.1z"></path>
	<path class="st1" d="M536.6,603c0-1.2,0.9-2.2,2.2-2.2h10.7c1.2,0,2.2,1,2.2,2.2v65.1h29.6c1.3,0,2.2,1,2.2,2.2v9.5   c0,1.2-0.9,2.2-2.2,2.2h-42.5c-1.3,0-2.2-1-2.2-2.2V603z"></path>
</g>
</svg>
