<?xml version="1.0" encoding="UTF-8"?>
<!-- Generator: Adobe Illustrator 28.0.0, SVG Export Plug-In . SVG Version: 6.00 Build 0)  -->
<svg xmlns="http://www.w3.org/2000/svg" xmlns:xlink="http://www.w3.org/1999/xlink" version="1.1" id="Layer_2_00000090290981126415512080000011109470130988275375_" x="0px" y="0px" viewBox="0 0 801.2 831.3" style="enable-background:new 0 0 801.2 831.3;" xml:space="preserve">
<style type="text/css">
	.st0{opacity:0.39;enable-background:new    ;}
	.st1{fill:#FFFFFF;}
	.st2{fill:#5D2E8F;}
	.st3{opacity:0.1;fill:#FFFFFF;enable-background:new    ;}
</style>
<g id="Layer_1_2_">
	<ellipse class="st0" cx="401" cy="286.1" rx="262.8" ry="266.3"></ellipse>
	<circle class="st1" cx="401" cy="278.3" r="261.4"></circle>
</g>
<g>
	<path class="st2" d="M388.7,372.3c-4.2-0.2-8.2,1.6-10.9,4.7c-2.9,3.7-4.3,8.3-4,13c-0.3,4.5,1.2,9,4,12.5   c2.8,3.1,6.8,4.8,10.9,4.6c4.1,0.2,8-1.4,10.7-4.5c2.7-3.7,4-8.2,3.7-12.8c0.3-4.6-1-9.2-3.7-12.9   C396.7,373.8,392.8,372.1,388.7,372.3z"></path>
	<path class="st3" d="M388.7,372.3c-4.2-0.2-8.2,1.6-10.9,4.7c-2.9,3.7-4.3,8.3-4,13c-0.3,4.5,1.2,9,4,12.5   c2.8,3.1,6.8,4.8,10.9,4.6c4.1,0.2,8-1.4,10.7-4.5c2.7-3.7,4-8.2,3.7-12.8c0.3-4.6-1-9.2-3.7-12.9   C396.7,373.8,392.8,372.1,388.7,372.3z"></path>
	<g>
		<path class="st2" d="M401.5,40.8c-131.9,0-238.8,106.9-238.8,238.8s106.9,238.8,238.8,238.8s238.8-106.9,238.8-238.8    S533.4,40.8,401.5,40.8z M225.4,315.6c-2,2-4.7,3.2-7.5,3.1c-2.8,0-5.5-1.1-7.5-3.1s-3.1-4.7-3.1-7.5s1.1-5.5,3.1-7.5    c1.9-2.1,4.6-3.2,7.5-3.2c2.8,0,5.5,1.2,7.5,3.2s3.1,4.7,3.1,7.5C228.6,311,227.4,313.7,225.4,315.6z M401.5,180.9h68.9v14.4    h-52.7v45.2h49.1v14.3h-49.1V302h56.1l-0.1,14.9h-72.3v-136H401.5z M357.8,358.6c-4.6-2.5-9.7-3.8-14.9-3.7    c-6.7-0.2-13.1,2.5-17.5,7.5c-4.7,5.3-7.1,12.2-6.7,19.2c-0.3,6.7,1.9,13.2,6.3,18.3c4.2,4.6,10.3,7,16.5,6.8    c5.7,0.2,11.4-1.3,16.3-4.2l-0.1,6.9c-5.4,2.6-11.3,3.9-17.3,3.7c-8,0.4-15.8-2.8-21.4-8.6c-5.5-6.1-8.4-14.2-8.1-22.4    c-0.4-9,2.9-17.8,9-24.3c6-6.2,14.4-9.5,23-9.3c5.1-0.2,10.2,0.7,14.9,2.6L357.8,358.6L357.8,358.6z M366.2,316.9h-19.5    l-69.9-108.5c-1.7-2.7-3.2-5.5-4.3-8.5h-0.6c0.7,6.2,0.9,12.4,0.7,18.7v98.3h-15.9v-136h20.7l68,106.5c2.8,4.4,4.7,7.5,5.5,9.1    h0.4c-0.8-6.6-1.1-13.3-1-20v-95.7h15.9L366.2,316.9L366.2,316.9z M404.3,406.3c-4.2,4.5-10.1,7-16.2,6.8    c-6,0.2-11.8-2.2-15.9-6.6c-4.1-4.6-6.2-10.5-5.9-16.6c-0.4-6.5,1.9-12.8,6.2-17.6c4.4-4.3,10.5-6.6,16.6-6.3    c5.9-0.3,11.5,2,15.6,6.2c4,4.8,6,10.9,5.6,17.1C410.7,395.4,408.5,401.6,404.3,406.3z M445.2,374.5c-1.6-1.1-3.5-1.6-5.4-1.4    c-3.1,0.1-5.8,1.7-7.5,4.3c-2.2,3.5-3.3,7.6-3.1,11.8V412h-7.5v-44.8h7.5v9.3c0.8-2.9,2.5-5.5,4.7-7.5c1.9-1.7,4.4-2.6,7-2.6    c1.4-0.1,2.9,0.1,4.3,0.6V374.5z M461.2,403c2.8,2.8,6.7,4.3,10.6,4c5.1-0.1,9.9-1.8,13.9-5v6.7c-4.6,3-10.1,4.5-15.6,4.3    c-5.6,0.3-11.1-2-14.9-6.1c-3.9-4.8-5.8-11-5.4-17.2c-0.3-6.2,1.8-12.3,5.9-17c3.7-4.3,9.2-6.7,14.9-6.6    c5.2-0.3,10.2,1.8,13.6,5.7c3.4,4.5,5.1,10.1,4.8,15.8l0.1,3.9h-31.6C457.2,395.7,458.5,399.8,461.2,403z M541,195.3v121.6h-15.9    V195.3H486v-14.4h94.5v14.4H541z"></path>
		<path class="st2" d="M470.3,372.4c-3.2,0-6.4,1.3-8.6,3.7c-2.5,2.6-4,5.9-4.4,9.5l24.2-0.1c0.2-3.5-0.9-6.9-3-9.6    C476.4,373.5,473.4,372.2,470.3,372.4z"></path>
	</g>
	<g>
		<path class="st3" d="M444.9,316.9h-43.4v-43.4l-35.3-35.3v78.7h-19.5l-69.9-108.5c-1.7-2.7-3.2-5.5-4.3-8.5h-0.6    c0.7,6.2,0.9,12.4,0.7,18.7v98.3h-15.9v-136h20.7l68,106.5c2.8,4.4,4.7,7.5,5.5,9.1h0.4c-0.8-6.6-1.1-13.3-1-20v-54.2L236,108    c-2.2,2-4.3,4-6.5,6.1c-41.3,42.9-66.8,101.2-66.8,165.5c0,131.9,106.9,238.8,238.8,238.8c64.1,0,122.2-25.3,165.1-66.4    c2.2-2.3,4.4-4.5,6.5-6.9L444.9,316.9z M225.4,315.6c-2,2-4.7,3.2-7.5,3.1c-2.8,0-5.5-1.1-7.5-3.1s-3.1-4.7-3.1-7.5    s1.1-5.5,3.1-7.5c1.9-2.1,4.6-3.2,7.5-3.2c2.8,0,5.5,1.2,7.5,3.2s3.1,4.7,3.1,7.5C228.6,311,227.4,313.7,225.4,315.6z     M357.8,358.6c-4.6-2.5-9.7-3.8-14.9-3.7c-6.7-0.2-13.1,2.5-17.5,7.5c-4.7,5.3-7.1,12.2-6.7,19.2c-0.3,6.7,1.9,13.2,6.3,18.3    c4.2,4.6,10.3,7,16.5,6.8c5.7,0.2,11.4-1.3,16.3-4.2l-0.1,6.9c-5.4,2.6-11.3,3.9-17.3,3.7c-8,0.4-15.8-2.8-21.4-8.6    c-5.5-6.1-8.4-14.2-8.1-22.4c-0.4-9,2.9-17.8,9-24.3c6-6.2,14.4-9.5,23-9.3c5.1-0.2,10.2,0.7,14.9,2.6L357.8,358.6L357.8,358.6z     M404.3,406.3c-4.2,4.5-10.1,7-16.2,6.8c-6,0.2-11.8-2.2-15.9-6.6c-4.1-4.6-6.2-10.5-5.9-16.6c-0.4-6.5,1.9-12.8,6.2-17.6    c4.4-4.3,10.5-6.6,16.6-6.3c5.9-0.3,11.5,2,15.6,6.2c4,4.8,6,10.9,5.6,17.1C410.7,395.4,408.5,401.6,404.3,406.3z M445.2,374.5    c-1.6-1.1-3.5-1.6-5.4-1.4c-3.1,0.1-5.8,1.7-7.5,4.3c-2.2,3.5-3.3,7.6-3.1,11.8V412h-7.5v-44.8h7.5v9.3c0.8-2.9,2.5-5.5,4.7-7.5    c1.9-1.7,4.4-2.6,7-2.6c1.4-0.1,2.9,0.1,4.3,0.6V374.5z M461.2,403c2.8,2.8,6.7,4.3,10.6,4c5.1-0.1,9.9-1.8,13.9-5v6.7    c-4.6,3-10.1,4.5-15.6,4.3c-5.6,0.3-11.1-2-14.9-6.1c-3.9-4.8-5.8-11-5.4-17.2c-0.3-6.2,1.8-12.3,5.9-17c3.7-4.3,9.2-6.7,14.9-6.6    c5.2-0.3,10.2,1.8,13.6,5.7c3.4,4.5,5.1,10.1,4.8,15.8l0.1,3.9h-31.6C457.2,395.7,458.5,399.8,461.2,403z"></path>
		<path class="st3" d="M470.3,372.4c-3.2,0-6.4,1.3-8.6,3.7c-2.5,2.6-4,5.9-4.4,9.5l24.2-0.1c0.2-3.5-0.9-6.9-3-9.6    C476.4,373.5,473.4,372.2,470.3,372.4z"></path>
	</g>
</g>
<g>
	<path class="st1" d="M170.7,664.1c5.2,0,9.6,4.4,9.6,9.6s-4.4,9.5-9.6,9.5s-9.5-4.3-9.5-9.5S165.5,664.1,170.7,664.1z"></path>
	<path class="st1" d="M194.1,601.8c0-1.2,1-2.1,2.2-2.1h2.9l48.3,51.3h0.1V603c0-1.2,0.9-2.2,2.2-2.2h10.7c1.2,0,2.2,1,2.2,2.2v78.1   c0,1.2-1,2.1-2.2,2.1h-2.8L209.2,630h-0.1v49.9c0,1.2-0.9,2.2-2.2,2.2h-10.6c-1.2,0-2.2-1-2.2-2.2V601.8z"></path>
	<path class="st1" d="M283.8,603c0-1.2,0.9-2.2,2.2-2.2h47.2c1.3,0,2.2,1,2.2,2.2v9.5c0,1.2-0.9,2.2-2.2,2.2h-34.3v19h28.7   c1.2,0,2.2,1,2.2,2.2v9.6c0,1.3-1,2.2-2.2,2.2h-28.7v20.3h34.3c1.3,0,2.2,1,2.2,2.2v9.5c0,1.2-0.9,2.2-2.2,2.2H286   c-1.3,0-2.2-1-2.2-2.2V603z"></path>
	<path class="st1" d="M362.9,614.8h-17.7c-1.3,0-2.2-1-2.2-2.2V603c0-1.2,0.9-2.2,2.2-2.2h50.7c1.3,0,2.2,1,2.2,2.2v9.5   c0,1.2-0.9,2.2-2.2,2.2h-17.7v65.1c0,1.2-1,2.2-2.2,2.2h-10.8c-1.2,0-2.2-1-2.2-2.2V614.8z"></path>
	<path class="st1" d="M471.7,599.7c11.7,0,20.2,3.7,28.1,10.8c1,0.9,1,2.3,0.1,3.2l-7.1,7.3c-0.8,0.9-2,0.9-2.9,0   c-4.9-4.3-11.4-6.8-17.9-6.8c-14.8,0-25.9,12.4-25.9,27c0,14.5,11.1,26.8,26,26.8c7,0,12.9-2.7,17.7-6.6c0.9-0.8,2.2-0.7,2.9,0   l7.2,7.4c0.9,0.8,0.7,2.3-0.1,3.1c-7.9,7.7-17.9,11.3-28.2,11.3c-23.2,0-41.9-18.4-41.9-41.6C429.8,618.4,448.5,599.7,471.7,599.7z   "></path>
	<path class="st1" d="M529.9,634.5c13.1,0,23.8,11.1,23.8,24.2c0,13.3-10.7,24.5-23.8,24.5s-23.8-11.1-23.8-24.5   C506.1,645.6,516.8,634.5,529.9,634.5z M529.9,670.7c6.1,0,11.1-5.3,11.1-11.9c0-6.5-5-11.7-11.1-11.7c-6.3,0-11.1,5.2-11.1,11.7   C518.8,665.3,523.7,670.7,529.9,670.7z"></path>
	<path class="st1" d="M564,637.8c0-1.3,1-2.2,2.2-2.2h4.4c1,0,1.7,0.6,2.1,1.5l1.6,4.5c1.6-2.3,5.9-7.2,13.1-7.2   c5.5,0,10.3,1.7,8.9,4.6l-4.3,7.5c-0.6,1-1.7,1.5-2.7,1c-0.3-0.1-2.1-0.7-3.4-0.7c-4.6,0-7.4,3.1-8.2,4.8v28.1c0,1.6-1,2.2-2.7,2.2   h-8.9c-1.2,0-2.2-1-2.2-2.2V637.8z"></path>
	<path class="st1" d="M623.4,634.5c11.9,0,21.7,9,21.7,21.6c0,0.8-0.1,2.3-0.2,3.1c-0.1,1.2-1.2,2-2.2,2H613   c0.3,4.8,4.4,10.1,11.1,10.1c3.6,0,7-1.4,9-2.9c1.2-0.7,2.2-0.9,3,0l4.8,5.5c0.8,0.8,1,2.1-0.1,3c-3.8,3.6-9.7,6.4-17.3,6.4   c-13.9,0-23.8-11-23.8-24.4C599.8,645.7,609.6,634.5,623.4,634.5z M631.5,653c-0.3-4.3-4.1-7.9-8.5-7.9c-4.6,0-8.5,3.5-9,7.9H631.5   z"></path>
</g>
</svg>
