<?xml version="1.0" encoding="UTF-8"?>
<!-- Generator: Adobe Illustrator 28.0.0, SVG Export Plug-In . SVG Version: 6.00 Build 0)  -->
<svg xmlns="http://www.w3.org/2000/svg" xmlns:xlink="http://www.w3.org/1999/xlink" version="1.1" id="Layer_1" x="0px" y="0px" viewBox="0 0 801.2 831.3" style="enable-background:new 0 0 801.2 831.3;" xml:space="preserve">
<style type="text/css">
	.st0{opacity:0.39;enable-background:new    ;}
	.st1{fill:#FFFFFF;}
	.st2{fill:#231F20;}
	.st3{fill:url(#path12339_00000005256552243238278600000000442294368499971757_);}
	.st4{fill:url(#path12367_00000039841213237016195350000009365094283431643319_);}
	.st5{fill:#11569A;}
	.st6{fill:url(#path12459_00000080915688765867443220000014836279645292660653_);}
	.st7{fill:#3292C4;}
	.st8{fill:#256AB3;}
	.st9{fill:url(#path12553_00000167388008833090538960000012990537590243715461_);}
	.st10{fill:url(#path12581_00000038373834936347035530000015895090198162876837_);}
	.st11{fill:url(#path12651_00000080892169900498211290000010341359748998177981_);}
	.st12{fill:#2975B1;}
	.st13{fill:#115A9E;}
	.st14{fill:url(#path12741_00000136384540773960062070000005339705347348025770_);}
	.st15{fill:url(#path12803_00000086650815558371260890000009210834287910927767_);}
	.st16{fill:#1A81C4;}
	.st17{fill:url(#path12831_00000141432695642832735690000005642463458972273061_);}
	.st18{fill:#257ABE;}
	.st19{fill:url(#path12923_00000131356331201707766020000009934549125698023299_);}
	.st20{fill:url(#path12949_00000096029402981199679350000007612923558835182514_);}
	.st21{fill:#249ED9;}
	.st22{fill:url(#path12981_00000155844576633911555410000003476961321773757831_);}
	.st23{fill:url(#path13003_00000060737260504898658330000009923108108461300633_);}
	.st24{fill:url(#path13093_00000028317527565339502730000005762779863044428210_);}
	.st25{fill:#2697D3;}
	.st26{fill:#2A5EAA;}
	.st27{fill:#2761AD;}
	.st28{fill:#1B60AA;}
	.st29{fill:url(#path13139_00000017501347419208609300000012569745790791793851_);}
	.st30{fill:#7DCAEA;}
	.st31{fill:#61C4EB;}
	.st32{fill:url(#path13245_00000021093370178414901290000002172416688297884863_);}
	.st33{fill:url(#path13255_00000111180787745086956960000008152444627912180396_);}
	.st34{fill:url(#path13333_00000062171112219002480590000003396952024126823559_);}
</style>
<g>
	<ellipse class="st0" cx="401" cy="286.1" rx="262.8" ry="266.3"></ellipse>
	<circle class="st1" cx="401" cy="278.3" r="261.4"></circle>
	<path class="st2" d="M570.3,110.8c-45.1-45.1-105.1-69.9-168.8-69.9s-123.7,24.8-168.8,69.9s-69.9,105.1-69.9,168.8   c0,63.8,24.8,123.7,69.9,168.8s105.1,69.9,168.8,69.9s123.7-24.8,168.8-69.9s69.9-105,69.9-168.8S615.4,155.9,570.3,110.8z    M401.5,501c-122.1,0-221.4-99.3-221.4-221.4S279.4,58.2,401.5,58.2s221.4,99.3,221.4,221.4S523.6,501,401.5,501z"></path>
	<path id="path12245_1_" d="M504.3,243.2h-2.8v8.6h-1.1v-8.6h-2.8v-1h6.7L504.3,243.2L504.3,243.2z"></path>
	<path id="path12257_1_" d="M515.6,251.8h-1.1v-6.5c0-0.5,0-1.1,0.1-1.9l0,0c-0.1,0.4-0.2,0.7-0.3,0.9l-3.3,7.4h-0.5l-3.3-7.3   c-0.1-0.2-0.2-0.5-0.3-1l0,0c0,0.4,0.1,1,0.1,1.9v6.5h-1.1v-9.6h1.5l3,6.7c0.2,0.5,0.4,0.9,0.4,1.2l0,0c0.2-0.5,0.4-0.9,0.5-1.2   l3-6.7h1.4L515.6,251.8L515.6,251.8z"></path>
	<path id="path12261_1_" d="M506.9,287.5c0-0.5-0.1-0.9-0.4-1.1c-0.3-0.3-0.9-0.4-1.7-0.4h-1.1v3.1h1.4   C506.2,289.1,506.9,288.6,506.9,287.5 M508.6,294H507l-1-2.2c-0.5-1.1-1-1.6-1.6-1.6h-0.8v3.8h-1.3v-9.1h2.6c1.1,0,2,0.2,2.6,0.8   c0.5,0.4,0.7,1,0.7,1.7c0,0.6-0.2,1.2-0.6,1.6s-1,0.7-1.7,0.9l0,0c0.5,0.1,1,0.7,1.5,1.7L508.6,294L508.6,294z M511.5,289.5   c0-1.8-0.6-3.3-1.8-4.5c-1.2-1.2-2.7-1.8-4.5-1.8s-3.3,0.6-4.5,1.8s-1.8,2.7-1.8,4.5s0.6,3.3,1.9,4.6c1.2,1.2,2.7,1.8,4.5,1.8   s3.3-0.6,4.5-1.8C510.9,292.9,511.5,291.3,511.5,289.5 M512.4,289.5c0,2-0.7,3.7-2.1,5.1s-3.1,2.1-5.1,2.1c-2.1,0-3.8-0.7-5.1-2   c-1.4-1.3-2-3-2-5.1c0-2,0.7-3.7,2.1-5.1s3.1-2.1,5.2-2.1c2,0,3.7,0.7,5.1,2C511.7,285.7,512.4,287.4,512.4,289.5"></path>
	<path id="path12265_1_" d="M316.9,315h-4.4v-25.4c0-2,0.1-4.4,0.4-7.3h-0.1c-0.4,1.7-0.8,2.9-1.1,3.7l-12.9,29h-2.2l-12.9-28.8   c-0.4-0.8-0.7-2.1-1.1-3.9h-0.1c0.1,1.5,0.2,4,0.2,7.4V315h-4.3v-37.8h5.8l11.6,26.3c0.9,2,1.4,3.5,1.7,4.5h0.2   c0.8-2.1,1.4-3.6,1.8-4.6l11.8-26.2h5.5L316.9,315L316.9,315z"></path>
	<path id="path12267_1_" d="M330.5,315h-4.3v-27h4.3V315z M331.3,278.3c0,0.8-0.3,1.5-0.8,2s-1.2,0.8-2,0.8s-1.4-0.3-2-0.8   c-0.5-0.5-0.8-1.2-0.8-2s0.3-1.4,0.8-2c0.5-0.5,1.2-0.8,2-0.8s1.5,0.3,2,0.8C331,276.9,331.3,277.6,331.3,278.3"></path>
	<path id="path12271_1_" d="M357.4,313.7c-2.1,1.3-4.5,1.9-7.4,1.9c-3.9,0-7-1.3-9.4-3.8c-2.3-2.5-3.5-5.7-3.5-9.6   c0-4.4,1.3-8,3.8-10.7s5.9-4.1,10.2-4.1c2.3,0,4.4,0.5,6.2,1.4v4.4c-2-1.4-4.1-2.1-6.4-2.1c-2.7,0-5,1-6.7,2.9   c-1.8,2-2.7,4.6-2.7,7.8c0,3.1,0.8,5.6,2.5,7.5c1.7,1.8,3.9,2.7,6.7,2.7c2.4,0,4.6-0.8,6.6-2.3L357.4,313.7L357.4,313.7z"></path>
	<path id="path12275_1_" d="M378,292.4c-0.8-0.6-1.9-0.9-3.3-0.9c-1.8,0-3.2,0.8-4.4,2.4c-1.4,1.8-2,4.2-2,7.3V315H364v-27h4.3v5.6   h0.1c0.6-2,1.6-3.5,2.9-4.6c1.2-1,2.6-1.5,4.1-1.5c1.1,0,2,0.1,2.6,0.4V292.4L378,292.4z"></path>
	<path id="path12279_1_" d="M402.1,301.6c0-3.5-0.8-6.1-2.3-7.9c-1.5-1.7-3.6-2.6-6.4-2.6c-2.7,0-4.8,0.9-6.4,2.6   c-1.7,1.9-2.6,4.5-2.6,8c0,3.2,0.8,5.8,2.4,7.6s3.8,2.7,6.6,2.7c2.8,0,5-0.9,6.5-2.8C401.4,307.4,402.1,304.8,402.1,301.6    M406.5,301.4c0,4.3-1.2,7.8-3.6,10.3c-2.4,2.6-5.7,3.9-9.8,3.9c-4,0-7.3-1.3-9.6-3.9c-2.3-2.5-3.5-5.8-3.5-9.9   c0-4.7,1.3-8.3,4-10.9c2.4-2.4,5.7-3.6,9.8-3.6c4,0,7.2,1.3,9.4,3.7C405.4,293.6,406.5,297,406.5,301.4"></path>
	<path id="path12283_1_" d="M428,307.8c0,2.2-0.8,4-2.5,5.5c-1.8,1.6-4.3,2.4-7.4,2.4c-2.6,0-4.8-0.5-6.7-1.6v-4.6   c2.1,1.7,4.4,2.6,7,2.6c3.4,0,5.1-1.3,5.1-3.8c0-1.1-0.4-1.9-1.1-2.6c-0.8-0.7-2.2-1.5-4.4-2.5c-2.3-1-3.9-2-4.8-3.1   c-1.1-1.2-1.7-2.9-1.7-4.9c0-2.2,0.9-4.1,2.7-5.6c1.8-1.5,4.1-2.2,6.9-2.2c2.1,0,4.1,0.4,5.8,1.3v4.3c-1.8-1.3-3.8-1.9-6.1-1.9   c-1.4,0-2.6,0.4-3.4,1c-0.9,0.7-1.3,1.6-1.3,2.7c0,1.2,0.4,2.1,1.1,2.8c0.6,0.6,2,1.4,4,2.2c2.3,1,4,2,5,3   C427.3,304.1,428,305.8,428,307.8"></path>
	<path id="path12287_1_" d="M454.3,301.6c0-3.5-0.8-6.1-2.3-7.9c-1.5-1.7-3.6-2.6-6.3-2.6c-2.7,0-4.8,0.9-6.5,2.6   c-1.7,1.9-2.5,4.5-2.5,8c0,3.2,0.8,5.8,2.4,7.6s3.8,2.7,6.6,2.7c2.8,0,5-0.9,6.5-2.8C453.6,307.4,454.3,304.8,454.3,301.6    M458.8,301.4c0,4.3-1.2,7.8-3.6,10.3c-2.4,2.6-5.7,3.9-9.8,3.9c-4.1,0-7.3-1.3-9.6-3.9c-2.3-2.5-3.5-5.8-3.5-9.9   c0-4.7,1.3-8.3,3.9-10.9c2.4-2.4,5.7-3.6,9.8-3.6c4,0,7.2,1.3,9.4,3.7C457.6,293.6,458.8,297,458.8,301.4"></path>
	<path id="path12291_1_" d="M477.8,278.8c-0.8-0.5-1.8-0.7-2.9-0.7c-3,0-4.5,1.9-4.5,5.7v4.2h6.3v3.7h-6.3V315h-4.3v-23.3h-4.6V288   h4.6v-4.4c0-3,0.9-5.3,2.8-7c1.6-1.5,3.5-2.2,5.8-2.2c1.3,0,2.4,0.2,3.1,0.5V278.8z"></path>
	<path id="path12295_1_" d="M494.8,314.7c-1,0.6-2.4,0.9-4.1,0.9c-4.7,0-7.1-2.7-7.1-8v-16H479v-3.7h4.6v-6.6   c1.4-0.4,2.8-0.9,4.3-1.4v8h6.8v3.7h-6.8v15.2c0,1.8,0.3,3.1,0.9,3.9s1.6,1.2,3.1,1.2c1.1,0,2-0.3,2.8-0.9L494.8,314.7L494.8,314.7   z"></path>
	<path id="path12299_1_" d="M261.4,420.3c0,2.1-0.8,3.9-2.3,5.5c-1.5,1.5-3.4,2.3-5.5,2.3s-3.9-0.8-5.4-2.3s-2.2-3.4-2.2-5.5   c0-2.2,0.7-4,2.2-5.5s3.3-2.3,5.4-2.3c2.2,0,4,0.8,5.5,2.3C260.7,416.3,261.4,418.2,261.4,420.3"></path>
	<path id="path12303_1_" d="M358.1,426.5H344l-51.1-78.9c-1.2-1.9-2.2-4-3.1-6.2h-0.4c0.4,2.1,0.6,6.7,0.6,13.6v71.6h-11.6v-99h15.1   l49.6,77.7c2,3.1,3.3,5.3,4,6.6h0.3c-0.5-2.8-0.7-7.7-0.7-14.6v-69.8h11.5L358.1,426.5L358.1,426.5z"></path>
	<path id="path12307_1_" d="M432.5,426.5H380v-99h50.2V338h-38.6v32.9h35.8v10.5h-35.8V416h40.9V426.5z"></path>
	<path id="path12311_1_" d="M512.2,337.9h-28.5v88.6h-11.6v-88.6h-28.7v-10.5h68.7L512.2,337.9L512.2,337.9z"></path>
	
		<linearGradient id="path12339_00000057147209009448438840000017537437824676923290_" gradientUnits="userSpaceOnUse" x1="-5703.542" y1="-4863.1724" x2="-5702.5522" y2="-4863.1724" gradientTransform="matrix(0 149.7346 -149.7346 0 -727803.125 854150.5)">
		<stop offset="0" style="stop-color:#2392D0"></stop>
		<stop offset="0.35" style="stop-color:#67CDF5"></stop>
		<stop offset="0.35" style="stop-color:#67CDF5"></stop>
		<stop offset="0.8462" style="stop-color:#257ABE"></stop>
		<stop offset="0.8462" style="stop-color:#257ABE"></stop>
		<stop offset="1" style="stop-color:#257ABE"></stop>
	</linearGradient>
	<path id="path12339_1_" style="fill:url(#path12339_00000057147209009448438840000017537437824676923290_);" d="M354.2,156.4   c11.2,34.2,15.4,95.3,48.2,95.3l0,0c2.5,0,5-0.2,7.5-0.7l0,0c-29.8-6.9-33.3-67.4-51.5-98.7l0,0C357,153.6,355.6,155,354.2,156.4"></path>
	
		<linearGradient id="path12367_00000057866802351771247790000002153197745892291744_" gradientUnits="userSpaceOnUse" x1="-5704.0596" y1="-4862.0254" x2="-5703.0698" y2="-4862.0254" gradientTransform="matrix(0 153.5506 -153.5506 0 -746179.25 875991)">
		<stop offset="0" style="stop-color:#0D77BC"></stop>
		<stop offset="0.36" style="stop-color:#3BACE2"></stop>
		<stop offset="0.36" style="stop-color:#3BACE2"></stop>
		<stop offset="0.8462" style="stop-color:#2EAAE1"></stop>
		<stop offset="0.8462" style="stop-color:#2EAAE1"></stop>
		<stop offset="1" style="stop-color:#2EAAE1"></stop>
	</linearGradient>
	<path id="path12367_1_" style="fill:url(#path12367_00000057866802351771247790000002153197745892291744_);" d="M358.4,152.3   c18.2,31.3,21.7,91.7,51.5,98.7l0,0c2.3-0.4,4.7-1.1,7-1.9l0,0c-26.7-13.1-34.1-71.8-54.7-100l0,0   C360.9,150.1,359.7,151.2,358.4,152.3"></path>
	<path id="path12379_1_" class="st5" d="M384.6,133.7c-2.5,0-5,0.2-7.5,0.7c-6.6,1.2-13.4,4.1-20.1,8.4c1.9,1.8,3.6,3.9,5.3,6.2   c6.9-5.7,13.8-10,20.6-12.5c2.6-0.9,5.1-1.7,7.7-2.1C388.6,134,386.7,133.7,384.6,133.7"></path>
	
		<linearGradient id="path12459_00000126304239562504528080000012246319908597354415_" gradientUnits="userSpaceOnUse" x1="-5749.9375" y1="-4760.5264" x2="-5748.9478" y2="-4760.5264" gradientTransform="matrix(0 -122.178 122.178 0 582049.8125 -702267.5)">
		<stop offset="0" style="stop-color:#2964AF"></stop>
		<stop offset="0.5" style="stop-color:#3FBCEC"></stop>
		<stop offset="1" style="stop-color:#3FBCEC"></stop>
	</linearGradient>
	<path id="path12459_1_" style="fill:url(#path12459_00000126304239562504528080000012246319908597354415_);" d="M437.8,237   c2.7-2.2,5.5-4.6,8.2-7.2c-11.4-34.1-15.5-96.1-48.4-96.1c-2.4,0-4.7,0.2-7.1,0.7C420.5,141.9,424.4,207.2,437.8,237"></path>
	<path id="path12521_1_" class="st7" d="M390.5,134.4c-1.8-0.5-3.8-0.7-5.9-0.7h13C395.2,133.8,392.8,134,390.5,134.4"></path>
	<path id="path12525_1_" class="st8" d="M437.2,244.3c-1.3-1.2-2.5-2.6-3.7-4c-5.5,3.9-11.1,6.9-16.6,8.8c2,1,4,1.7,6.2,2.1   c1.7,0.3,3.4,0.5,5.3,0.5c6.2,0,11-0.7,15.2-2.7C441.3,247.8,439.2,246.2,437.2,244.3"></path>
	
		<linearGradient id="path12553_00000183246114029760961210000003094693896083336597_" gradientUnits="userSpaceOnUse" x1="-5704.8081" y1="-4860.3716" x2="-5703.8184" y2="-4860.3716" gradientTransform="matrix(0 159.4252 -159.4252 0 -774455.4375 909603.875)">
		<stop offset="0" style="stop-color:#1D6BB4"></stop>
		<stop offset="0.4" style="stop-color:#3BACE2"></stop>
		<stop offset="0.4" style="stop-color:#3BACE2"></stop>
		<stop offset="0.8462" style="stop-color:#1F96D3"></stop>
		<stop offset="0.8462" style="stop-color:#1F96D3"></stop>
		<stop offset="1" style="stop-color:#1F96D3"></stop>
	</linearGradient>
	<path id="path12553_1_" style="fill:url(#path12553_00000183246114029760961210000003094693896083336597_);" d="M382.8,136.6   c26.9,14.1,29.2,77.8,50.7,103.7l0,0c1.4-1,2.9-2.1,4.3-3.2l0,0c-13.4-29.8-17.3-95.1-47.3-102.6l0,0   C387.9,134.9,385.3,135.6,382.8,136.6"></path>
	
		<linearGradient id="path12581_00000119820165613108019130000004896744543318809008_" gradientUnits="userSpaceOnUse" x1="-5705.9756" y1="-4857.7886" x2="-5704.9854" y2="-4857.7886" gradientTransform="matrix(0 169.5276 -169.5276 0 -823131.375 967434.875)">
		<stop offset="0" style="stop-color:#184479"></stop>
		<stop offset="0.39" style="stop-color:#1B86C8"></stop>
		<stop offset="0.39" style="stop-color:#1B86C8"></stop>
		<stop offset="0.7802" style="stop-color:#145295"></stop>
		<stop offset="0.7802" style="stop-color:#145295"></stop>
		<stop offset="1" style="stop-color:#145295"></stop>
	</linearGradient>
	<path id="path12581_1_" style="fill:url(#path12581_00000119820165613108019130000004896744543318809008_);" d="M362.2,149.1   c20.6,28.3,28,86.9,54.7,100l0,0c5.5-1.9,11-4.9,16.6-8.8l0,0c-21.5-25.9-23.8-89.6-50.7-103.7l0,0   C376,139.1,369.1,143.3,362.2,149.1"></path>
	
		<linearGradient id="path12651_00000107566057419546204360000012264783961629767587_" gradientUnits="userSpaceOnUse" x1="-3055.3354" y1="-1975.1104" x2="-3049.4597" y2="-1975.1104" gradientTransform="matrix(4.0385 0 0 4.0385 12669.4033 8142.6328)">
		<stop offset="0" style="stop-color:#3FBCEC"></stop>
		<stop offset="1" style="stop-color:#1DABD7"></stop>
	</linearGradient>
	<path id="path12651_1_" style="fill:url(#path12651_00000107566057419546204360000012264783961629767587_);" d="M341,155.5   c-3.2,7.3-6.5,16.9-10.5,29.5c7.9-11.2,15.9-20.8,23.7-28.6c-1.1-3.3-2.2-6.4-3.5-9.1C347.4,149.7,344.2,152.5,341,155.5"></path>
	<path id="path12655_1_" class="st12" d="M353.5,145.1c-0.9,0.7-1.9,1.4-2.9,2.1c1.3,2.7,2.4,5.8,3.5,9.1c1.4-1.4,2.8-2.8,4.3-4   C356.9,149.7,355.3,147.3,353.5,145.1"></path>
	<path id="path12659_1_" class="st13" d="M356.9,142.9c-1.1,0.7-2.3,1.5-3.4,2.3c1.8,2.2,3.4,4.6,4.9,7.2c1.3-1.1,2.5-2.2,3.8-3.3   C360.5,146.8,358.8,144.7,356.9,142.9"></path>
	
		<linearGradient id="path12741_00000127046080329753266250000013959653836722768016_" gradientUnits="userSpaceOnUse" x1="-5750.6162" y1="-4759.0337" x2="-5749.626" y2="-4759.0337" gradientTransform="matrix(0 -119.0183 119.0183 0 566920.6875 -684183.25)">
		<stop offset="0" style="stop-color:#146BB4"></stop>
		<stop offset="0.6" style="stop-color:#5DC8F3"></stop>
		<stop offset="1" style="stop-color:#5DC8F3"></stop>
	</linearGradient>
	<path id="path12741_1_" style="fill:url(#path12741_00000127046080329753266250000013959653836722768016_);" d="M540.4,131.1   c-15.2,58.7-47,105.8-73.6,117.7h-0.1c-0.5,0.2-1,0.4-1.4,0.6c-0.1,0-0.1,0-0.2,0.1s-0.3,0.1-0.4,0.2c-0.1,0-0.1,0.1-0.2,0.1   c-0.2,0.1-0.4,0.1-0.7,0.2c-0.1,0-0.2,0.1-0.3,0.1c-0.1,0-0.2,0.1-0.3,0.1c-0.1,0-0.2,0.1-0.3,0.1c-0.1,0-0.2,0.1-0.3,0.1   c-0.2,0.1-0.4,0.1-0.6,0.2c-0.1,0-0.2,0-0.2,0.1c-0.1,0-0.3,0.1-0.4,0.1s-0.2,0.1-0.3,0.1c-0.1,0-0.3,0.1-0.4,0.1   c-0.2,0-0.3,0.1-0.5,0.1c1.2,0.4,2.5,0.7,3.8,0.7c25.3,0,50.7-45.3,92.9-120.6L540.4,131.1L540.4,131.1z"></path>
	
		<linearGradient id="path12803_00000089554625297524825850000000390959068633411221_" gradientUnits="userSpaceOnUse" x1="-3076.1926" y1="-1968.1399" x2="-3054.4023" y2="-1968.1399" gradientTransform="matrix(4.0385 0 0 4.0385 12669.4033 8142.6328)">
		<stop offset="0" style="stop-color:#249ED9"></stop>
		<stop offset="1" style="stop-color:#249ED9"></stop>
	</linearGradient>
	<path id="path12803_1_" style="fill:url(#path12803_00000089554625297524825850000000390959068633411221_);" d="M325,136.1   C325,136.1,325,136,325,136.1C325.1,136.1,325.1,136.1,325,136.1L325,136.1c0.2-0.1,0.4-0.2,0.5-0.3h0.1h0.1c0.2,0,0.3-0.1,0.4-0.2   l0,0c0.3-0.1,0.6-0.2,1-0.3h0.1c0.1,0,0.3-0.1,0.4-0.1s0.1,0,0.2-0.1c0.1,0,0.3-0.1,0.4-0.1s0.1,0,0.2,0c0.5-0.1,0.9-0.2,1.4-0.4   c0.1,0,0.1,0,0.2,0s0.3-0.1,0.4-0.1s0.1,0,0.2-0.1c0.1,0,0.3,0,0.4-0.1h0.1c0.3-0.1,0.6-0.1,0.8-0.2c0.1,0,0.1,0,0.2,0   s0.3,0,0.4-0.1c0.1,0,0.1,0,0.2,0s0.2,0,0.4-0.1c0.1,0,0.1,0,0.2,0c0.3,0,0.6-0.1,0.9-0.1c-0.9-0.1-1.8-0.1-2.7-0.1   c-28.5,0-67.7,52.8-85.3,121.2c0,0,1.3,0,3.4,0c5.7-10.1,10.7-19.6,15.4-28.6C277.4,177.9,302.6,144.8,325,136.1"></path>
	<path id="path12807_1_" class="st16" d="M341,155.5c3.2-3.1,6.5-5.9,9.7-8.3c-0.7-1.6-1.5-3.1-2.3-4.5   C345.8,145.9,343.4,150.1,341,155.5"></path>
	<path id="path12811_1_" class="st16" d="M343.3,136.5c1.9,1.6,3.5,3.7,5,6.3c0.5-0.6,1-1.1,1.5-1.6c-2.1-2-4.4-3.6-6.9-4.8   C343,136.4,343.1,136.4,343.3,136.5C343.3,136.4,343.3,136.5,343.3,136.5"></path>
	
		<linearGradient id="path12831_00000165919652625413848960000006544903028637918892_" gradientUnits="userSpaceOnUse" x1="-5750.0039" y1="-4760.3633" x2="-5749.0137" y2="-4760.3633" gradientTransform="matrix(0 -121.8652 121.8652 0 580417.5625 -700477.125)">
		<stop offset="0" style="stop-color:#378CCB"></stop>
		<stop offset="1" style="stop-color:#3FA5DD"></stop>
	</linearGradient>
	<path id="path12831_1_" style="fill:url(#path12831_00000165919652625413848960000006544903028637918892_);" d="M265,226.3   c25.9-50,38.2-81.6,59.9-90.2l0,0C302.6,144.8,277.4,177.9,265,226.3"></path>
	<path id="path12843_1_" class="st18" d="M349.8,141.1c-0.5,0.5-1,1.1-1.5,1.6c0.8,1.4,1.6,2.8,2.3,4.5c1-0.7,1.9-1.4,2.9-2.1   C352.4,143.7,351.1,142.3,349.8,141.1"></path>
	
		<linearGradient id="path12923_00000151539699317762537990000015412061984400913285_" gradientUnits="userSpaceOnUse" x1="-5750.7397" y1="-4758.7363" x2="-5749.75" y2="-4758.7363" gradientTransform="matrix(0 -118.4596 118.4596 0 564020.4375 -680981.625)">
		<stop offset="0" style="stop-color:#249ED9"></stop>
		<stop offset="1" style="stop-color:#249ED9"></stop>
	</linearGradient>
	<path id="path12923_1_" style="fill:url(#path12923_00000151539699317762537990000015412061984400913285_);" d="M276.8,254.6   L276.8,254.6c-0.2,0-0.3,0-0.5,0.1h-0.1c-0.1,0-0.3,0-0.4,0h-0.1c-0.3,0-0.6,0-1,0.1h-0.1c26.3-0.7,38.3-13.9,44.2-33   c4.5-14.5,8.2-26.6,11.5-36.9c-11,15.5-22,33.9-33.2,54.6C291.9,249.6,283.8,253.7,276.8,254.6"></path>
	
		<linearGradient id="path12949_00000028292284262913767600000001099445059889138332_" gradientUnits="userSpaceOnUse" x1="-5755.5708" y1="-4748.0435" x2="-5754.5811" y2="-4748.0435" gradientTransform="matrix(0 -100.1002 100.1002 0 475589 -575879.1875)">
		<stop offset="0" style="stop-color:#1B5BA6"></stop>
		<stop offset="0.5" style="stop-color:#249ED9"></stop>
		<stop offset="0.5" style="stop-color:#249ED9"></stop>
		<stop offset="0.9176" style="stop-color:#7FC4E8"></stop>
		<stop offset="1" style="stop-color:#7FC4E8"></stop>
	</linearGradient>
	<path id="path12949_1_" style="fill:url(#path12949_00000028292284262913767600000001099445059889138332_);" d="M276.8,254.6   L276.8,254.6c7-0.9,15.1-5,20.5-15l0,0c11.1-20.7,22.2-39.1,33.2-54.6l0,0c4-12.5,7.3-22.2,10.5-29.5l0,0   C319.1,176.4,297.1,211,276.8,254.6"></path>
	<path id="path12961_1_" class="st21" d="M265,226.3c-4.6,9-9.7,18.5-15.4,28.6c2.4,0,6,0,9.9,0C260.8,244.9,262.7,235.3,265,226.3"></path>
	
		<linearGradient id="path12981_00000175294368372007896610000017664949739851453831_" gradientUnits="userSpaceOnUse" x1="-5763.1636" y1="-4760.2446" x2="-5762.1733" y2="-4760.2446" gradientTransform="matrix(-19.138 -108.5369 108.5369 -19.138 406679.5312 -716369.0625)">
		<stop offset="0" style="stop-color:#175194"></stop>
		<stop offset="1" style="stop-color:#1A81C4"></stop>
	</linearGradient>
	<path id="path12981_1_" style="fill:url(#path12981_00000175294368372007896610000017664949739851453831_);" d="M333.3,133.9   c-0.1,0-0.1,0-0.2,0l0,0c-0.1,0-0.2,0-0.4,0.1l0,0c-0.1,0-0.1,0-0.2,0l0,0c-0.1,0-0.3,0-0.4,0.1l0,0c-0.1,0-0.1,0-0.2,0l0,0   c-0.3,0-0.6,0.1-0.8,0.1l0,0H331l0,0c-0.1,0-0.3,0.1-0.4,0.1l0,0c-0.1,0-0.1,0-0.2,0.1l0,0c-0.1,0-0.3,0.1-0.4,0.1l0,0   c-0.1,0-0.1,0-0.2,0l0,0c-0.5,0.1-0.9,0.2-1.4,0.4l0,0c0,0-0.1,0-0.2,0l0,0c-0.1,0-0.3,0.1-0.4,0.1l0,0c-0.1,0-0.1,0-0.2,0.1l0,0   c-0.1,0-0.3,0.1-0.4,0.1l0,0c-0.1,0-0.1,0-0.2,0l0,0c-0.3,0.1-0.6,0.2-1,0.3l0,0l0,0l0,0c-0.1,0-0.3,0.1-0.4,0.2l0,0   c-0.1,0-0.1,0-0.2,0.1l0,0c-0.1,0-0.3,0.1-0.4,0.2l0,0c0,0-0.1,0-0.1,0.1l0,0c-21.7,8.6-34,40.2-59.9,90.2l0,0   c-2.3,9-4.2,18.6-5.5,28.6l0,0h1.4c3.9,0,5,0,9.5,0l0,0h0.2h0.7h0.2h0.1h0.2h0.1h0.1h0.2h0.6h0.6h0.5h0.1c0.3,0,0.5,0,0.8,0l0,0   c0.3,0,0.6,0,1-0.1l0,0h0.1l0,0c0.1,0,0.3,0,0.4,0l0,0h0.1l0,0c0.1,0,0.3,0,0.5-0.1l0,0l0,0c20.3-43.6,42.3-78.2,64.2-99.1l0,0   c2.4-5.5,4.8-9.6,7.4-12.8l0,0c-1.5-2.6-3.2-4.7-5-6.3l0,0h-0.1l0,0c-0.1,0-0.2-0.1-0.3-0.1l0,0c-0.1-0.1-0.2-0.1-0.3-0.2l0,0   c-0.1,0-0.2-0.1-0.3-0.1l0,0c-0.1,0-0.2-0.1-0.3-0.1l0,0c-0.1,0-0.2-0.1-0.3-0.1l0,0c-0.2-0.1-0.4-0.2-0.6-0.2l0,0   c-0.1,0-0.2-0.1-0.2-0.1l0,0c-0.1,0-0.3-0.1-0.4-0.2l0,0c-0.1,0-0.1,0-0.2-0.1l0,0c-0.2-0.1-0.4-0.1-0.6-0.2l0,0l0,0l0,0   c-0.2-0.1-0.5-0.1-0.7-0.2l0,0c-0.1,0-0.1,0-0.2,0l0,0c-0.2-0.1-0.4-0.1-0.6-0.2l0,0h-0.1l0,0c-0.5-0.1-1-0.2-1.4-0.3l0,0   c-0.1,0-0.1,0-0.1,0l0,0c-0.2,0-0.4-0.1-0.6-0.1l0,0c-0.1,0-0.1,0-0.1,0l0,0c-0.2,0-0.5-0.1-0.7-0.1l0,0h-0.1l0,0   c-0.2,0-0.4,0-0.6-0.1l0,0C334,133.9,333.7,134,333.3,133.9"></path>
	
		<linearGradient id="path13003_00000181803471660318778680000018040620512951902624_" gradientUnits="userSpaceOnUse" x1="-5779.4277" y1="-4695.3062" x2="-5778.438" y2="-4695.3062" gradientTransform="matrix(0 -56.7206 56.7206 0 266809 -327625.0312)">
		<stop offset="0" style="stop-color:#249ED9"></stop>
		<stop offset="0.8736" style="stop-color:#1494D2"></stop>
		<stop offset="1" style="stop-color:#1494D2"></stop>
	</linearGradient>
	<path id="path13003_1_" style="fill:url(#path13003_00000181803471660318778680000018040620512951902624_);" d="M481,163.6   c-5,16-9,29.2-12.6,40l0,0c13.7-18.9,27.2-42.6,40-69.9l0,0C493.5,138.4,485.5,149.2,481,163.6"></path>
	
		<linearGradient id="path13093_00000016071072562616653110000002472535436483337386_" gradientUnits="userSpaceOnUse" x1="-5710.2729" y1="-4872.333" x2="-5709.2832" y2="-4872.333" gradientTransform="matrix(-23.0627 130.7947 -130.7947 -23.0627 -768454.8125 634630.5)">
		<stop offset="0" style="stop-color:#3FA5DD"></stop>
		<stop offset="0.9615" style="stop-color:#2386C7"></stop>
		<stop offset="0.9615" style="stop-color:#2386C7"></stop>
		<stop offset="1" style="stop-color:#2386C7"></stop>
	</linearGradient>
	<path id="path13093_1_" style="fill:url(#path13093_00000016071072562616653110000002472535436483337386_);" d="M468.9,247.8   c-0.7,0.4-1.4,0.7-2.1,1c26.6-11.9,58.4-59,73.6-117.7h-3.1C502.4,193.6,491.2,235.4,468.9,247.8"></path>
	<path id="path13097_1_" class="st25" d="M451.5,242.6c5.8-7.1,10.5-19.1,17-38.9c-7.4,10.2-14.9,19-22.4,26.2c0,0,0,0,0,0.1   C447.6,234.7,449.4,239.1,451.5,242.6"></path>
	<path id="path13101_1_" class="st8" d="M451.5,242.6c-2,2.4-4.1,4.2-6.4,5.6c-0.5,0.3-1,0.6-1.5,0.8c2.5,1.3,5.1,2.2,8.1,2.6l0,0   l0,0c0.4,0,0.9,0.1,1.3,0.1h0.1c0.2,0,0.4,0,0.6,0h0.1c0.2,0,0.4,0,0.7,0c0.2,0,0.5,0,0.7,0c0.1,0,0.1,0,0.2,0c0.2,0,0.3,0,0.5,0   c0.1,0,0.2,0,0.2,0c0.2,0,0.3,0,0.5,0c0,0,0,0,0.1,0s0.1,0,0.2,0c0.2,0,0.3,0,0.5-0.1l0,0c0.1,0,0.1,0,0.2,0c0.2,0,0.4-0.1,0.6-0.1   c0.1,0,0.1,0,0.2,0c0.2,0,0.4-0.1,0.6-0.1l0,0c0,0,0,0,0.1,0c0.4-0.1,0.8-0.2,1.2-0.3C456.8,249.8,453.9,246.9,451.5,242.6"></path>
	<path id="path13105_1_" class="st26" d="M402.4,251.7c2.5,0,5-0.2,7.5-0.7c2.3-0.4,4.7-1.1,7-1.9c2,1,4,1.7,6.2,2.1   c1.7,0.3,3.4,0.5,5.3,0.5L402.4,251.7L402.4,251.7z"></path>
	<path id="path13109_1_" class="st26" d="M428.4,251.7c6.2,0,11-0.7,15.2-2.7c2.5,1.3,5.1,2.2,8.1,2.6l0,0l0,0   c0.4,0,0.9,0.1,1.3,0.1h0.1c0.2,0,0.4,0,0.6,0h0.1c0.2,0,0.4,0,0.7,0L428.4,251.7L428.4,251.7z"></path>
	<path id="path13113_1_" class="st27" d="M454.5,251.7c0.2,0,0.5,0,0.7,0c0.1,0,0.1,0,0.2,0c0.2,0,0.3,0,0.5,0c0.1,0,0.2,0,0.2,0   c0.2,0,0.3,0,0.5,0c0,0,0,0,0.1,0s0.1,0,0.2,0c0.2,0,0.3,0,0.5-0.1l0,0c0.1,0,0.1,0,0.2,0c0.2,0,0.4-0.1,0.6-0.1c0.1,0,0.1,0,0.2,0   c0.2,0,0.4-0.1,0.6-0.1l0,0c0,0,0,0,0.1,0c0.4-0.1,0.8-0.2,1.2-0.3l0,0c1.2,0.4,2.5,0.7,3.8,0.7L454.5,251.7L454.5,251.7z"></path>
	<path id="path13117_1_" class="st28" d="M446,229.9L446,229.9c-2.7,2.6-5.5,5-8.2,7.2c-1.4,1.1-2.9,2.2-4.3,3.2   c1.2,1.4,2.4,2.8,3.7,4c2,1.9,4.1,3.5,6.3,4.7c0.5-0.3,1-0.5,1.5-0.8c2.3-1.4,4.4-3.2,6.4-5.6C449.5,239.1,447.7,234.7,446,229.9"></path>
	
		<linearGradient id="path13139_00000050647676579884490230000016628902625700594308_" gradientUnits="userSpaceOnUse" x1="-5699.1602" y1="-4872.8584" x2="-5698.1704" y2="-4872.8584" gradientTransform="matrix(0 123.7424 -123.7424 0 -602484.625 705358.6875)">
		<stop offset="0" style="stop-color:#228BCB"></stop>
		<stop offset="0.5" style="stop-color:#2086C7"></stop>
		<stop offset="1" style="stop-color:#174C8C"></stop>
	</linearGradient>
	<path id="path13139_1_" style="fill:url(#path13139_00000050647676579884490230000016628902625700594308_);" d="M527.6,131.1h-13   c-0.4,0-0.9,0-1.3,0l0,0c-0.4,0-0.8,0-1.2,0l0,0l0,0c-0.8,0-1.7,0.1-2.5,0.1l0,0c-0.4,0.8-0.8,1.6-1.1,2.4l0,0   c-12.8,27.4-26.3,51.1-40,69.9l0,0c-6.4,19.8-11.2,31.9-17,38.9l0,0c2.5,4.2,5.4,7.2,8.8,8.5l0,0c0.1,0,0.2,0,0.3-0.1l0,0   c0,0,0,0,0.1,0l0,0c0.1,0,0.1,0,0.2,0l0,0c0.1,0,0.3-0.1,0.4-0.1l0,0c0.1,0,0.2,0,0.3-0.1l0,0c0.1,0,0.3-0.1,0.4-0.1l0,0   c0.1,0,0.2-0.1,0.2-0.1l0,0c0.2-0.1,0.4-0.1,0.6-0.2l0,0c0.1,0,0.2-0.1,0.3-0.1l0,0c0.1,0,0.2-0.1,0.3-0.1l0,0   c0.1,0,0.2-0.1,0.3-0.1l0,0c0.1,0,0.2-0.1,0.3-0.1l0,0c0.2-0.1,0.4-0.1,0.7-0.2l0,0c0.1,0,0.1-0.1,0.2-0.1l0,0   c0.1-0.1,0.3-0.1,0.4-0.2l0,0c0,0,0.1,0,0.2-0.1l0,0c0.5-0.2,1-0.4,1.4-0.6l0,0h0.1l0,0c0.7-0.3,1.4-0.6,2.1-1l0,0   c22.3-12.4,33.5-54.3,68.5-116.7l0,0L527.6,131.1L527.6,131.1z"></path>
	<path id="path13231_1_" class="st30" d="M334.2,133.8c0.1,0,0.1,0,0.2,0s0.3,0,0.4,0s0.1,0,0.1,0c0.2,0,0.5,0.1,0.7,0.1h0.1   c0.2,0,0.4,0.1,0.6,0.1c0,0,0.1,0,0.2,0c0.5,0.1,1,0.2,1.4,0.3h0.1c0.2,0,0.4,0.1,0.6,0.2c0.1,0,0.1,0,0.2,0   c0.2,0.1,0.5,0.1,0.7,0.2c0,0,0,0,0.1,0c0.2,0.1,0.4,0.1,0.6,0.2c0.1,0,0.2,0.1,0.2,0.1c0.1,0.1,0.3,0.1,0.4,0.2   c0.1,0,0.2,0.1,0.2,0.1c0.2,0.1,0.4,0.2,0.6,0.2c0.1,0,0.2,0.1,0.3,0.1c0.1,0.1,0.2,0.1,0.3,0.1c0.1,0,0.2,0.1,0.3,0.1   c0.1,0.1,0.2,0.1,0.3,0.2c2.5,1.2,4.8,2.8,6.9,4.8c0.8-0.8,1.6-1.6,2.4-2.2c-4.6-3.3-9.9-5.1-15.9-5.1   C335.7,133.8,335,133.9,334.2,133.8"></path>
	<path id="path13235_1_" class="st31" d="M349.8,141.1c1.3,1.2,2.5,2.5,3.7,4c1.1-0.8,2.3-1.5,3.4-2.3c-1.5-1.5-3-2.8-4.7-4   C351.4,139.6,350.6,140.3,349.8,141.1"></path>
	<g id="g13243_1_" transform="matrix(5.0481458,0,0,-5.0481458,-9064.2597,2270.6096)">
		
			<linearGradient id="path13245_00000043441305304661257900000001549742958659683492_" gradientUnits="userSpaceOnUse" x1="2224.8555" y1="358.2661" x2="2225.8455" y2="358.2661" gradientTransform="matrix(3666.8296 -1520.8896 -1520.8896 -3666.8296 -7611420.5 4697884.5)">
			<stop offset="0" style="stop-color:#97D4EC"></stop>
			<stop offset="0.7033" style="stop-color:#56C0E9"></stop>
			<stop offset="1" style="stop-color:#56C0E9"></stop>
		</linearGradient>
		<path id="path13245_1_" style="fill:url(#path13245_00000043441305304661257900000001549742958659683492_);" d="M1861.8,423.3    c0.1,0,0.3,0,0.4,0c1.2,0,2.2-0.4,3.2-1c1,0.8,2.1,1,3.8,1h-7.9C1861.5,423.3,1861.6,423.3,1861.8,423.3"></path>
	</g>
	<g id="g13253_1_" transform="matrix(5.0481458,0,0,-5.0481458,-9064.2597,2270.6096)">
		
			<linearGradient id="path13255_00000155851038928126454980000018005244179372884399_" gradientUnits="userSpaceOnUse" x1="2224.7891" y1="358.6089" x2="2225.7791" y2="358.6089" gradientTransform="matrix(2896.05 1312.8809 1312.8809 -2896.05 -6912045.5 -1881911.75)">
			<stop offset="0" style="stop-color:#7CCBEA"></stop>
			<stop offset="1" style="stop-color:#46B6E8"></stop>
		</linearGradient>
		<path id="path13255_1_" style="fill:url(#path13255_00000155851038928126454980000018005244179372884399_);" d="M1869.1,423.3    c-1.6,0-2.8-0.3-3.8-1c0.3-0.2,0.6-0.5,0.9-0.8c1.3,0.9,2.7,1.4,4,1.7c0.5,0.1,1,0.1,1.5,0.1L1869.1,423.3L1869.1,423.3z"></path>
	</g>
	
		<linearGradient id="path13333_00000049193869489539083040000012642488026526476217_" gradientUnits="userSpaceOnUse" x1="-5698.5977" y1="-4874.1055" x2="-5697.6074" y2="-4874.1055" gradientTransform="matrix(0 121.0325 -121.0325 0 -589447.1875 689853.0625)">
		<stop offset="0" style="stop-color:#2BA4DD"></stop>
		<stop offset="1" style="stop-color:#3DA9DF"></stop>
	</linearGradient>
	<path id="path13333_1_" style="fill:url(#path13333_00000049193869489539083040000012642488026526476217_);" d="M468.5,203.6   c3.5-10.9,7.6-24.1,12.6-40.1c4.5-14.4,12.5-25.2,27.5-29.9c0.4-0.8,0.8-1.6,1.2-2.4c-24.4,1.5-35.9,13.9-41.6,32.3   c-10.1,32.1-16.1,53-22,66.2C453.5,222.6,461,213.8,468.5,203.6"></path>
</g>
<g>
	<path class="st1" d="M182.8,679l36.1-78.1c0.3-0.7,0.9-1.3,2-1.3h1.2c1.2,0,1.6,0.6,2,1.3l35.7,78.1c0.7,1.5-0.2,3-2,3h-10.1   c-1.7,0-2.6-0.7-3.4-2.3l-5.7-12.5h-34.7l-5.7,12.5c-0.5,1.2-1.5,2.3-3.4,2.3h-10.1C183,682,182.1,680.5,182.8,679z M232.9,654.3   l-11.6-25.5H221l-11.4,25.5H232.9z"></path>
	<path class="st1" d="M265.5,670.7l4.2-7.2c0.9-1.6,2.9-1.6,3.9-0.8c0.6,0.3,10,7.2,17.5,7.2c6,0,10.6-3.9,10.6-8.9   c0-5.9-5-10-14.7-13.9c-10.9-4.4-21.8-11.4-21.8-25.1c0-10.3,7.7-22.3,26.1-22.3c11.8,0,20.9,6,23.2,7.8c1.2,0.7,1.5,2.7,0.7,3.8   l-4.4,6.6c-0.9,1.4-2.7,2.3-4.1,1.4c-0.9-0.6-9.7-6.4-16.1-6.4c-6.6,0-10.2,4.4-10.2,8.1c0,5.5,4.3,9.2,13.7,13   c11.3,4.5,24.2,11.3,24.2,26.2c0,11.9-10.3,23-26.7,23c-14.6,0-23.2-6.8-25.5-9C265,673.1,264.5,672.5,265.5,670.7z"></path>
	<path class="st1" d="M333.1,603c0-1.2,0.9-2.2,2.2-2.2h27.3c14.3,0,26,11.6,26,25.6c0,14.4-11.7,26.1-25.9,26.1h-14.5v27.3   c0,1.2-1,2.2-2.2,2.2h-10.7c-1.3,0-2.2-1-2.2-2.2V603z M361.7,638.4c6.5,0,11.9-5.2,11.9-12.1c0-6.4-5.5-11.3-11.9-11.3h-13.5v23.3   H361.7z"></path>
	<path class="st1" d="M430.5,664.1c5.2,0,9.6,4.4,9.6,9.6s-4.4,9.5-9.6,9.5c-5.2,0-9.5-4.3-9.5-9.5S425.2,664.1,430.5,664.1z"></path>
	<path class="st1" d="M453.9,601.8c0-1.2,1-2.1,2.2-2.1h2.9l48.3,51.3h0.1V603c0-1.2,0.9-2.2,2.2-2.2h10.7c1.2,0,2.2,1,2.2,2.2v78.1   c0,1.2-1,2.1-2.2,2.1h-2.8L469,630h-0.1v49.9c0,1.2-0.9,2.2-2.2,2.2h-10.6c-1.2,0-2.2-1-2.2-2.2V601.8z"></path>
	<path class="st1" d="M557.7,634.5c11.9,0,21.7,9,21.7,21.6c0,0.8-0.1,2.3-0.2,3.1c-0.1,1.2-1.2,2-2.2,2h-29.7   c0.3,4.8,4.4,10.1,11.1,10.1c3.6,0,7-1.4,9-2.9c1.2-0.7,2.2-0.9,3,0l4.8,5.5c0.8,0.8,1,2.1-0.1,3c-3.8,3.6-9.7,6.4-17.3,6.4   c-13.9,0-23.8-11-23.8-24.4C534,645.7,543.9,634.5,557.7,634.5z M565.8,653c-0.3-4.3-4.1-7.9-8.5-7.9c-4.6,0-8.5,3.5-9,7.9H565.8z"></path>
	<path class="st1" d="M591.6,647.8h-3.9c-1.2,0-2.1-1-2.1-2.2v-7.8c0-1.3,0.9-2.2,2.1-2.2h3.9v-12.9c0-1.2,1-2.2,2.2-2.2l9.5-0.1   c1.2,0,2.1,1,2.1,2.2v13h10.2c1.3,0,2.2,0.9,2.2,2.2v7.8c0,1.2-0.9,2.2-2.2,2.2h-10.2v18.6c0,3.2,1.7,3.7,3.6,3.7   c2,0,4.4-0.8,5.7-1.3c1.3-0.5,2.2,0.1,2.6,1.3l2.3,7.3c0.5,1.2-0.1,2.3-1.3,2.8c-0.6,0.3-8.1,3-13.8,3c-8.9,0-12.9-5.6-12.9-15   V647.8z"></path>
</g>
</svg>
