<?xml version="1.0" encoding="UTF-8"?>
<!-- Generator: Adobe Illustrator 28.0.0, SVG Export Plug-In . SVG Version: 6.00 Build 0)  -->
<svg xmlns="http://www.w3.org/2000/svg" xmlns:xlink="http://www.w3.org/1999/xlink" version="1.1" id="Layer_1" x="0px" y="0px" viewBox="0 0 801.2 831.3" style="enable-background:new 0 0 801.2 831.3;" xml:space="preserve">
<style type="text/css">
	.st0{opacity:0.39;enable-background:new    ;}
	.st1{fill:#FFFFFF;}
	.st2{fill-rule:evenodd;clip-rule:evenodd;fill:#679E63;}
</style>
<ellipse class="st0" cx="401" cy="286.1" rx="262.8" ry="266.3"></ellipse>
<circle class="st1" cx="401" cy="278.3" r="261.4"></circle>
<g>
	<path class="st2" d="M569.4,110.8c-45.1-45.1-105.1-69.9-168.8-69.9c-63.8,0-123.7,24.8-168.8,69.9s-69.9,105.1-69.9,168.8   c0,63.8,24.8,123.7,69.9,168.8s105.1,69.9,168.8,69.9c63.8,0,123.7-24.8,168.8-69.9s69.9-105,69.9-168.8   C639.4,215.9,614.5,155.9,569.4,110.8z M345.3,206.5l0.2,0.3h-0.7L345.3,206.5z M287.7,298.2c0,0.8-0.4,1.6-1.1,2s-1.6,0.4-2.3,0   l-22.5-12.9c-1.4-0.8-2.3-2.3-2.3-4v-27.4c0-1.6-0.9-3.1-2.3-4l-9.6-5.5c-0.7-0.4-1.5-0.6-2.3-0.6s-1.6,0.2-2.3,0.6l-9.6,5.5   c-1.4,0.8-2.3,2.3-2.3,4v27.4c0,1.6-0.9,3.1-2.3,4l-22.5,12.9c-0.7,0.4-1.6,0.4-2.3,0s-1.1-1.2-1.1-2l-0.1-58.7   c0-1.6,0.9-3.2,2.3-4l37.8-21.8c0.6-0.4,1.4-0.6,2.1-0.6c0.1,0,0.3,0,0.4,0c0.7,0,1.4,0.2,2.1,0.6l37.8,21.8c1.4,0.8,2.3,2.3,2.3,4   L287.7,298.2z M349.5,309.9L349.5,309.9c-0.1,0-0.2,0-0.2,0c-0.1,0-0.1,0-0.2,0s-0.2,0-0.3,0h-0.1c-0.2,0-0.4,0-0.7-0.1   c0,0,0,0-0.1,0c-0.2,0-0.4-0.1-0.5-0.1l0,0c-0.3-0.1-0.6-0.2-0.8-0.4l-5.2-3l-32.6-18.7c-0.2-0.1-0.4-0.3-0.6-0.4   c0,0-0.1,0-0.1-0.1c-0.2-0.2-0.4-0.3-0.5-0.5l0,0l0,0c-0.3-0.4-0.6-0.8-0.8-1.3v-0.1c-0.1-0.2-0.1-0.4-0.2-0.6c0-0.1,0-0.1,0-0.2   c0-0.2-0.1-0.5-0.1-0.7v-43.5c0-1.6,1-3.1,2.4-3.9l0.2-0.1l37.5-21.6c0.2-0.1,0.5-0.3,0.8-0.4c0.1,0,0.2-0.1,0.4-0.1h0.1   c0.1,0,0.2-0.1,0.3-0.1c0.1,0,0.1,0,0.2,0c0.3,0,0.5,0,0.8,0l0,0c0.7,0,1.4,0.2,2.1,0.6l13,7.5l24.7,14.2c0.2,0.1,0.4,0.2,0.5,0.4   l0,0c0.2,0.1,0.3,0.3,0.5,0.4l0,0l0,0c0.2,0.2,0.4,0.4,0.5,0.6l0.1,0.1c0.2,0.2,0.3,0.5,0.4,0.7l0,0c0.1,0.2,0.2,0.5,0.2,0.7   c0,0.1,0,0.1,0,0.2c0.1,0.3,0.1,0.5,0.1,0.8v43.5c0,0.2,0,0.4,0,0.5c0,0.2-0.1,0.3-0.1,0.5l0,0l1,1.8l0.2,0.4l-0.2,0.1l-41.9,24.2   L349.5,309.9z M441.5,372.6c0,2.7-1.4,5.2-3.7,6.5l-35.7,20.6c-1.1,0.7-2.4,1-3.8,1c-1.3,0-2.6-0.3-3.7-1l-11.9-7.1   c-1.8-1-0.9-1.3-0.3-1.6c2.4-0.8,2.9-1,5.4-2.5c0.3-0.1,0.6-0.1,0.9,0.1l9.2,5.4c0.3,0.2,0.8,0.2,1.1,0l35.7-20.6   c0.3-0.2,0.5-0.6,0.5-1v-41.2c0-0.4-0.2-0.8-0.6-1l-35.7-20.6c-0.3-0.2-0.8-0.2-1.1,0l-35.7,20.6c-0.3,0.2-0.6,0.6-0.6,1v41.2   c0,0.4,0.2,0.8,0.6,1l9.8,5.7c5.3,2.7,8.6-0.5,8.6-3.6v-40.7c0-0.6,0.5-1,1-1h4.5c0.6,0,1,0.5,1,1v40.7c0,7.1-3.9,11.1-10.6,11.1   c-2.1,0-3.7,0-8.2-2.2l-9.4-5.4c-2.3-1.3-3.7-3.8-3.7-6.5v-41.2c0-2.7,1.4-5.2,3.7-6.5l35.7-20.6c2.3-1.3,5.3-1.3,7.5,0l35.7,20.6   c2.3,1.3,3.7,3.8,3.7,6.5v41.3L441.5,372.6L441.5,372.6z M407.5,355.2c-9.8-1-15.8-3.1-15.8-10.9c0-7.2,6.1-11.5,16.3-11.5   c11.4,0,17.1,4,17.8,12.5c0,0.3-0.1,0.6-0.3,0.8c-0.2,0.2-0.5,0.3-0.8,0.3h-4.6c-0.5,0-0.9-0.3-1-0.8c-1.1-4.9-3.8-6.5-11.1-6.5   c-8.2,0-9.2,2.9-9.2,5c0,2.6,1.1,3.4,12.2,4.8c11,1.4,16.2,3.5,16.2,11.2c0,7.8-6.5,12.2-17.8,12.2c-15.6,0-18.9-7.2-18.9-13.2   c0-0.6,0.5-1,1-1h4.6c0.5,0,0.9,0.4,1,0.9c0.7,4.7,2.8,7.1,12.2,7.1c7.5,0,10.7-1.7,10.7-5.7C420.1,358.1,419.2,356.3,407.5,355.2z    M454,336c-3.8,0-6.9-3.1-6.9-6.9c0-3.9,3.2-6.9,6.9-6.9c3.7,0,6.9,3,6.9,6.9C460.8,332.9,457.7,336,454,336z M494.8,284.4   c0,1.6-0.9,3.1-2.3,4l-37.9,21.9c-1.4,0.8-3.2,0.8-4.6,0l-37.9-21.9c-1.4-0.8-2.3-2.3-2.3-4v-43.7c0-1.6,0.9-3.1,2.3-4l37.9-21.9   c1.4-0.8,3.2-0.8,4.6,0l9.5,5.5c0.5,0.3,1.1,0.3,1.6,0s0.8-0.8,0.8-1.4v-58.1c0-0.8,0.4-1.6,1.1-2s1.6-0.4,2.3,0l22.5,12.6   c1.4,0.8,2.3,2.3,2.3,4v109L494.8,284.4L494.8,284.4z M596,254.7l-22.7,13.2c-0.7,0.4-1.6,0.4-2.3,0s-1.1-1.2-1.1-2v-10.8   c0-0.8-0.4-1.6-1.1-2l-11.9-6.8c-0.7-0.4-1.6-0.4-2.3,0l-11.9,6.8c-0.7,0.4-1.1,1.2-1.1,2v13.7c0,0.8,0.4,1.6,1.1,2l38.1,21.9   c0.7,0.4,1.2,1.2,1.1,2c0,0.8-0.5,1.6-1.2,2L558,309.2c-1.4,0.8-3.1,0.8-4.5,0l-37.6-21.4c-1.4-0.8-2.3-2.3-2.3-4v-43.7   c0-1.6,0.9-3.1,2.3-4l37.8-21.9c1.4-0.8,3.2-0.8,4.6,0l37.6,21.8c1.4,0.8,2.3,2.3,2.3,4v10.6C598.3,252.3,597.4,253.8,596,254.7z    M564.1,257.6v8.4c0,0.3-0.2,0.6-0.4,0.8l-7.3,4.2c-0.3,0.2-0.6,0.2-0.9,0l-7.3-4.2c-0.3-0.2-0.4-0.4-0.4-0.8v-8.4   c0-0.3,0.2-0.6,0.4-0.8l7.3-4.2c0.3-0.2,0.6-0.2,0.9,0l7.3,4.2C563.9,257,564.1,257.2,564.1,257.6z"></path>
	<path class="st2" d="M453.9,323.3c-3.1,0-5.8,2.5-5.8,5.8c0,3.2,2.6,5.8,5.8,5.8c3.2,0,5.8-2.6,5.8-5.8   C459.7,325.9,457.1,323.3,453.9,323.3z M455.3,333c0-0.4-0.3-2.3-0.3-2.4c-0.1-0.4-0.3-0.7-0.8-0.7h-1.3v3.1h-1.5v-7.7h2.7   c0.9,0,2.7,0,2.7,2c0,1.4-0.9,1.7-1.5,1.9c1.1,0.1,1.1,0.8,1.3,1.7c0.1,0.6,0.2,1.7,0.4,2h-1.7L455.3,333L455.3,333z"></path>
	<path class="st2" d="M454.1,326.5h-1.2v2.1h1.2c1,0,1.2-0.7,1.2-1.1C455.2,326.5,454.5,326.5,454.1,326.5z"></path>
	<path class="st2" d="M465.8,254.1l-13-7.5c-0.4-0.2-0.8-0.2-1.1,0l-13,7.5c-0.4,0.2-0.6,0.6-0.6,1v15c0,0.4,0.2,0.8,0.6,1l13,7.5   c0.4,0.2,0.8,0.2,1.1,0l13-7.5c0.4-0.2,0.6-0.6,0.6-1v-15C466.4,254.6,466.2,254.3,465.8,254.1z"></path>
</g>
<g>
	<path class="st1" d="M242.9,601.8c0-1.2,1-2.1,2.2-2.1h2.9l48.3,51.3h0.1V603c0-1.2,0.9-2.2,2.2-2.2h10.7c1.2,0,2.2,1,2.2,2.2v78.1   c0,1.2-1,2.1-2.2,2.1h-2.8L258,630h-0.1v49.9c0,1.2-0.9,2.2-2.2,2.2h-10.6c-1.2,0-2.2-1-2.2-2.2V601.8z"></path>
	<path class="st1" d="M346.6,634.5c13.1,0,23.8,11.1,23.8,24.2c0,13.3-10.7,24.5-23.8,24.5c-13.1,0-23.8-11.1-23.8-24.5   C322.9,645.6,333.5,634.5,346.6,634.5z M346.6,670.7c6.1,0,11.1-5.3,11.1-11.9c0-6.5-5-11.7-11.1-11.7c-6.3,0-11.1,5.2-11.1,11.7   C335.5,665.3,340.4,670.7,346.6,670.7z"></path>
	<path class="st1" d="M400.2,634.5c4.6,0,8.2,1.3,10.3,2.1V603c0-1.2,1-2.2,2.2-2.2h9.9c1.2,0,2.2,1,2.2,2.2v76.8   c0,1.2-1,2.2-2.2,2.2h-4.5c-1,0-1.9-0.9-2.2-2.2l-1.2-3.6c0,0-5.5,7-15.2,7c-12.6,0-22.3-11-22.3-24.4   C377.3,645.3,386.4,634.5,400.2,634.5z M401.3,670.7c6.1,0,8.9-4.8,9.7-7.5v-13.5c0,0-3.2-2.7-9-2.7c-6.5,0-11.3,5.3-11.3,11.8   S395.1,670.7,401.3,670.7z"></path>
	<path class="st1" d="M458.9,634.5c11.9,0,21.7,9,21.7,21.6c0,0.8-0.1,2.3-0.2,3.1c-0.1,1.2-1.2,2-2.2,2h-29.7   c0.3,4.8,4.4,10.1,11.1,10.1c3.6,0,7-1.4,9-2.9c1.2-0.7,2.2-0.9,3,0l4.8,5.5c0.8,0.8,1,2.1-0.1,3c-3.8,3.6-9.7,6.4-17.3,6.4   c-13.9,0-23.8-11-23.8-24.4C435.3,645.7,445.1,634.5,458.9,634.5z M467.1,653c-0.3-4.3-4.1-7.9-8.5-7.9c-4.6,0-8.5,3.5-9,7.9H467.1   z"></path>
	<path class="st1" d="M481.8,671.8l6-6.1c1.3-1.2,2.4-0.9,3.5,0.1c1.5,1.6,3.8,3.7,7.7,3.7c4.5,0,9.3-3.7,9.3-11.7V603   c0-1.2,0.9-2.2,2.2-2.2h10.9c1.3,0,2.2,1,2.2,2.2v54.8c0,16.1-10.8,25.4-24.4,25.4c-10.1,0-15.7-6-17.6-8.5   C481,673.8,481.1,672.6,481.8,671.8z"></path>
	<path class="st1" d="M534.8,676.5l3.1-6.3c0.5-1.2,1.6-1.4,2.7-0.8c0,0,5.2,2.8,10.6,2.8c2.3,0,3.9-0.9,3.9-2.9   c0-2.1-1.6-3.4-7.8-5.8c-8.9-3.5-13.1-8.2-13.1-15.3s5.2-13.7,17.1-13.7c6.8,0,11.8,2,14.3,3.6c1,0.7,1.6,2,1,3.1l-2.9,5.9   c-0.6,1-1.9,1.2-2.8,0.8c0,0-5.2-2.4-9.6-2.4c-2.8,0-3.9,1.2-3.9,2.7c0,2.1,2.1,2.8,6.4,4.5c8.9,3.5,15.7,7.3,15.7,16.4   c0,7.7-6.7,14.2-18.4,14.2c-7.7,0-13-2.4-15.4-4.3C534.8,678.3,534.3,677.4,534.8,676.5z"></path>
</g>
</svg>
