<?xml version="1.0" encoding="UTF-8"?>
<!-- Generator: Adobe Illustrator 28.0.0, SVG Export Plug-In . SVG Version: 6.00 Build 0)  -->
<svg xmlns="http://www.w3.org/2000/svg" xmlns:xlink="http://www.w3.org/1999/xlink" version="1.1" id="Layer_1" x="0px" y="0px" viewBox="0 0 801.2 831.3" style="enable-background:new 0 0 801.2 831.3;" xml:space="preserve">
<style type="text/css">
	.st0{opacity:0.39;enable-background:new    ;}
	.st1{fill:#FFFFFF;}
	.st2{fill:#EE3E28;}
</style>
<g id="Layer_1_1_">
	<ellipse class="st0" cx="401" cy="286.1" rx="262.8" ry="266.3"></ellipse>
	<circle class="st1" cx="401" cy="278.3" r="261.4"></circle>
</g>
<g id="Layer_2_1_">
	<g>
		<path class="st2" d="M601,258c0-0.6-0.6-0.7-1.1-0.7h-1v1.6h0.9C600.4,258.8,601,258.8,601,258z"></path>
		<path class="st2" d="M599.7,255.5c-2,0-3.6,1.6-3.6,3.6c0,2.1,1.6,3.7,3.6,3.7s3.5-1.6,3.5-3.7    C603.3,257.1,601.7,255.5,599.7,255.5z M601,261.7l-1.3-2.2h-0.9v2.2H598v-5h1.9c1.2,0,1.8,0.4,1.8,1.4c0,0.9-0.6,1.3-1.3,1.4    l1.4,2.2H601z"></path>
		<path class="st2" d="M569.4,110.8c-45.1-45.1-105.1-69.9-168.8-69.9c-63.8,0-123.7,24.8-168.8,69.9s-69.9,105.1-69.9,168.8    c0,63.8,24.8,123.7,69.9,168.8s105.1,69.9,168.8,69.9c63.8,0,123.7-24.8,168.8-69.9s69.9-105,69.9-168.8S614.5,155.9,569.4,110.8z     M270.2,304.4h-34.7c-13.5,0-22.4-11-22.4-24.5s8.9-24.5,22.4-24.5h34.7c13.5,0,22.4,11,22.4,24.5S283.7,304.4,270.2,304.4z     M341.5,304.3l-28.8-27.8h25.5c3.6,0,6.6-2.9,6.6-6.6s-2.9-6.6-6.6-6.6h-31.9v41h-9v-49h40.8c8,0,14.5,6.5,14.5,14.5    s-6.5,14.5-14.5,14.5h-5.8l20.6,19.8h-11.4L341.5,304.3L341.5,304.3z M413.7,304.4l-24.1-38.2l-10.3,16.1h18.9l-5,8h-18.9    l-8.9,14.1h-9.7l29.4-46.6c2.1-3.2,6.9-3.2,8.7-0.1l29.6,46.7H413.7z M442,296.4h37.8l-5.1,7.9h-32.9c-13.5,0-22.4-11-22.4-24.5    s8.9-24.5,22.4-24.5h38.9l-5,8H442c-9.1,0-14.5,7.4-14.5,16.5C427.6,289,432.9,296.4,442,296.4z M524.5,304.4h-37.6v-49h8v41h34.7    L524.5,304.4z M585.9,275.8l-5.1,8h-42.4c1.3,7.3,6.3,12.6,14.1,12.6h37.8l-5.1,7.9h-32.9c-13.5,0-22.4-11-22.4-24.5    s8.9-24.5,22.4-24.5h38.9l-5,8h-33.7c-7.7,0-12.7,5.3-14.1,12.4h47.5V275.8z M599.7,263.5c-2.4,0-4.4-1.9-4.4-4.4s2-4.4,4.4-4.4    s4.4,1.9,4.4,4.4C604.2,261.7,602.1,263.5,599.7,263.5z"></path>
		<path class="st2" d="M270.2,263.4h-34.7c-9.1,0-14.5,7.4-14.5,16.5s5.3,16.5,14.5,16.5h34.7c9.1,0,14.5-7.4,14.5-16.5    S279.3,263.4,270.2,263.4z"></path>
	</g>
</g>
<g>
	<path class="st1" d="M294.3,599.7c23.2,0,41.8,18.7,41.8,41.9c0,23.2-18.6,41.6-41.8,41.6s-41.6-18.4-41.6-41.6   C252.7,618.4,271.1,599.7,294.3,599.7z M294.3,668.1c14.6,0,26.7-11.9,26.7-26.6c0-14.6-12.1-26.8-26.7-26.8s-26.6,12.2-26.6,26.8   C267.8,656.2,279.7,668.1,294.3,668.1z"></path>
	<path class="st1" d="M345.8,637.8c0-1.3,1-2.2,2.2-2.2h4.4c1,0,1.7,0.6,2.1,1.5l1.6,4.5c1.6-2.3,5.9-7.2,13.1-7.2   c5.5,0,10.3,1.7,8.9,4.6l-4.3,7.5c-0.6,1-1.7,1.5-2.7,1c-0.3-0.1-2.1-0.7-3.4-0.7c-4.6,0-7.4,3.1-8.2,4.8v28.1c0,1.6-1,2.2-2.7,2.2   H348c-1.2,0-2.2-1-2.2-2.2V637.8z"></path>
	<path class="st1" d="M400.6,652.7c4.6,0,8.5,1.3,8.5,1.3c0.1-5.9-1.7-8-6-8c-4.3,0-10.3,0.9-13,1.7c-1.6,0.5-2.4-0.6-2.7-2.1l-1-6   c-0.3-1.7,0.6-2.6,1.6-2.9c0.9-0.3,8.4-2.2,15.8-2.2c14.5,0,17.9,7.5,17.9,20.2v25.2c0,1.2-1,2.2-2.2,2.2h-4.2   c-0.8,0-1.4-0.3-2-1.6l-1.4-3.1c-2.7,2.4-7,5.9-14.2,5.9c-9.3,0-15.7-6-15.7-15.9C382,659.1,388.8,652.7,400.6,652.7z M400.8,673.3   c3.7,0,7.3-3.1,8-4.5v-6.4c0,0-3.1-1.4-6.5-1.4c-4.5,0-7.5,2.6-7.5,6.3C394.8,670.8,397.2,673.3,400.8,673.3z"></path>
	<path class="st1" d="M456,634.5c7.2,0,12.8,2.9,17.2,8.2c0.8,1,0.6,2.4-0.6,3.2l-5.3,5.1c-1,0.9-2.1,0.3-2.9-0.3   c-1.9-2.1-4.8-3.7-8-3.7c-6.3,0-11.4,5.3-11.4,11.8c0,6.6,5,11.8,11.3,11.8c5,0,7.2-2.4,9.3-4.4c0.8-0.8,2-1,2.9-0.3l5,4.3   c1.2,0.9,1.6,2.1,0.8,3.2c-3.9,6.1-10.1,9.7-18.3,9.7c-13.1,0-24.6-10.4-24.6-24.4C431.3,645.1,443,634.5,456,634.5z"></path>
	<path class="st1" d="M484.3,603c0-1.2,1-2.2,2.2-2.2h9.7c1.2,0,2.2,1,2.2,2.2v76.8c0,1.2-1,2.2-2.2,2.2h-9.7c-1.2,0-2.2-1-2.2-2.2   V603z"></path>
	<path class="st1" d="M532.6,634.5c11.9,0,21.7,9,21.7,21.6c0,0.8-0.1,2.3-0.2,3.1c-0.1,1.2-1.2,2-2.2,2h-29.7   c0.3,4.8,4.4,10.1,11.1,10.1c3.6,0,7-1.4,9-2.9c1.2-0.7,2.2-0.9,3,0l4.8,5.5c0.8,0.8,1,2.1-0.1,3c-3.8,3.6-9.7,6.4-17.3,6.4   c-13.9,0-23.8-11-23.8-24.4C508.9,645.7,518.8,634.5,532.6,634.5z M540.7,653c-0.3-4.3-4.1-7.9-8.5-7.9c-4.6,0-8.5,3.5-9,7.9H540.7   z"></path>
</g>
</svg>
