<?xml version="1.0" encoding="UTF-8"?>
<!-- Generator: Adobe Illustrator 28.0.0, SVG Export Plug-In . SVG Version: 6.00 Build 0)  -->
<svg xmlns="http://www.w3.org/2000/svg" xmlns:xlink="http://www.w3.org/1999/xlink" version="1.1" id="Layer_1" x="0px" y="0px" viewBox="0 0 801.2 831.3" style="enable-background:new 0 0 801.2 831.3;" xml:space="preserve">
<style type="text/css">
	.st0{opacity:0.39;enable-background:new    ;}
	.st1{fill:#FFFFFF;}
	.st2{fill:#356891;}
</style>
<g>
	<ellipse class="st0" cx="401" cy="286.1" rx="262.8" ry="266.3"></ellipse>
	<circle class="st1" cx="401" cy="278.3" r="261.4"></circle>
	<g>
		<path class="st2" d="M335,267.2c2.3-16.7,1.5-31.5,1-39.5c-0.1-2.1-0.2-3.7-0.2-4.8c-0.1-2.1-1-49.9,26.7-77.8l0.1-0.1    c-17.2-5.6-57.8-15.8-82.6,1.8c-15.5,11-22.6,31.4-21.1,60.8c0.5,9.3,6.3,42.4,16.4,75.4c6.1,20,12.7,36.1,19.1,47.5    c5.8,10,11.5,16.1,16.8,17.9c1.7,0.6,7,2.4,14.7-6.9c10.9-13.1,21-24.2,25.7-29.2c-1.2-1-2.3-2.1-3.4-3.2    C337.6,298,332.8,282.8,335,267.2z"></path>
		<path class="st2" d="M502.7,225.8c0.7-4.5,1.3-8.8,1.4-13.5c-11.3-1.4-24.3-1.1-29.5,6.3c-10,14.3,9.5,49.2,17.8,64.2    c2.1,3.8,3.7,6.6,4.4,8.3c0.8,1.9,1.7,3.6,2.5,5.2c5.7-12.2,4.2-24.5,2.8-36.5c-0.7-5.9-1.5-12.1-1.3-18    C501.2,235.7,502,230.7,502.7,225.8z M494,222.1c-1.6,2.2-4,3.6-6.3,4c-0.3,0-0.7,0.1-1,0.1c-4,0-7.3-3.2-7.6-5    c-0.3-2.4,3.6-4.2,7.6-4.8s8.3,0.1,8.6,2.5C495.4,220,494.4,221.5,494,222.1z"></path>
		<path class="st2" d="M384.1,299.7l0.7-1.9c0.9-2.5,2-4.9,3.1-7.4c5.5-12.3,12.4-27.5,4.5-64.1c-1.5-7.1-5.2-11.2-11.2-12.6    c-13.2-3-31.8,6.9-35.8,10.4c0,0.8,0.1,1.8,0.2,3c0.5,8.3,1.4,23.7-1.1,41.4c-1.8,12.6,2.1,25,10.6,33.8    c6.7,7,15.5,10.8,24.5,10.9C380.6,309,382.3,304.5,384.1,299.7z M371.6,225.8c-0.6-0.8-1.6-2.4-1.4-3.9c0.1-0.5,0.4-1.3,1.3-2    c1.6-1.2,4.8-1.7,8.2-1.2c2.1,0.3,4.1,0.9,5.6,1.7c2.6,1.4,2.8,3.1,2.7,3.9c-0.2,1.6-1.7,3.1-3.1,4c-1.6,1.1-3.5,1.7-5.3,1.7    c-0.4,0-0.8,0-1.1-0.1C375.9,229.7,373.4,228.1,371.6,225.8z"></path>
		<path class="st2" d="M394.9,325.6c-2.2-0.9-3.6-1.5-5.9,0.6c-0.2,0.6-0.5,1.2-1,1.7c-2.1,2.4-3.6,4.3-5,6    c-5.9,7.4-8.5,10-25.9,13.5c-3.3,0.7-5.3,1.4-6.5,1.9c1.4,0.9,3.5,1.8,5.8,2.4c12.8,3.2,30.6,3.4,42.8-13.7c1.4-2,1-4.6,0.6-6    C399.1,329.1,397,326.4,394.9,325.6z"></path>
		<path class="st2" d="M400.6,41.3c-131.9,0-238.8,106.9-238.8,238.8s106.9,238.8,238.8,238.8s238.8-107,238.8-238.9    C639.4,148.2,532.5,41.3,400.6,41.3z M540.2,344c-8.4,3.9-22.8,6.3-34.2,5.8c-0.1,0-0.1,0-0.2,0l-3.4-0.3c-0.2,0-0.4,0-0.6-0.1    c-4.8-1.1-5.8-0.4-5.8-0.4c-0.3,0.2-0.5,0.8-0.8,1.7c-1.9,16.6-5.3,43.8-7.3,55.6c-4,23.5-14.5,34.1-38.6,39.3    c-4.1,0.9-7.8,1.3-11.2,1.3c-23.1,0-30.4-18.3-33.4-25.8c-3.6-9.1-4.9-38.7-4.7-68.8c-11.7,10.4-27.5,13.7-45.6,9.2    c-1.3-0.3-10.7-2.8-13.7-8.6c-0.8-1.3-1.3-2.8-1.2-4.4c0.2-7.8,11.3-10.1,15.5-11c14.8-3,15.7-4.2,20.3-10.1    c0.9-1.2,2-2.6,3.4-4.1l0,0c-6.5-0.2-12.9-1.9-18.8-5.1c-4.8,5.2-15.5,16.8-26.3,29.9c-9.8,11.8-19.1,11.9-25.1,9.8    c-8-2.7-15.7-10.8-23.2-24.2c-6.7-11.9-13.2-28.1-19.4-48.4c-9.9-32.6-16.3-66.6-16.8-77.7c-1.6-32.9,6.8-56.2,25.2-69.2    c15.4-10.9,37-14.2,64.2-9.9c15.7,2.5,28.6,6.9,33.5,8.8c11.4-7.8,25.3-11.6,41.3-11.4c6.3,0.1,12.2,0.7,17.7,1.7    c2.4,0.3,4.7,0.7,7,1.1c4.7-1.8,22-6.7,42.2-6.5c31,0.3,56.6,12.3,74,34.6c0.8,1,1.4,2,2,3.2c9.1,16.3,2,49.8-1.7,64    c-8.1,31.2-23,64.7-41.1,92.4c3.1,2,11.8,4.9,34.2,0.3c7.2-1.5,11.7-0.4,13.6,3.1c0.3,0.5,0.6,1,0.8,1.6    C564.7,330,549,339.9,540.2,344z"></path>
		<path class="st2" d="M490.5,162.4c15.3,17.8,22.8,37.4,23.4,44c0.1,1,0,1.9-0.2,2.6c0.2,6.8-0.6,12.7-1.5,18.3    c-0.7,4.6-1.4,9.3-1.6,14.8c-0.2,5.2,0.5,10.7,1.2,16.5c1.7,14.2,3.6,30.3-6.2,46.5c0.2,0.2,0.3,0.4,0.5,0.6    c0.4,0.5,0.8,1,1.2,1.5c36.7-57.7,50.2-124.2,40.4-142.6c-0.3-0.5-0.6-0.9-0.9-1.4c-15.6-19.9-37.5-30.3-65.3-30.9    c-10.7-0.2-20.3,1.1-27.4,2.5C470.3,142.2,482.2,152.9,490.5,162.4z"></path>
		<path class="st2" d="M508.2,324.9c-0.7-0.5-1.3-0.9-1.8-1.4c-0.7,0.3-1.4,0.4-1.8,0.6c-4.4,1.2-8.6,2.4-8.1,13.7    c3.6,3.4,26.8,3,39.5-2.9c5.9-2.7,10.2-5.7,12.9-8.1C529.6,330.6,515.9,330,508.2,324.9z"></path>
		<path class="st2" d="M498.6,311.7c-3.1-3.8-7.3-9.1-10.5-17c-0.5-1.2-2.1-4-3.9-7.3c-10-17.9-30.8-55.2-17.3-74.4    c6.2-8.8,18.4-12.4,36.2-10.5c-2.4-7.1-8.3-20.2-19.4-33.2c-10.7-12.7-28.4-27.4-54.6-32.2c-5-0.6-10.4-1-15.9-1.1    c-14.9-0.2-27.7,3.5-37.9,11.3c-0.6,0.4-1.3,0.7-2,0.9c-1.4,1.2-2.8,2.4-4.1,3.8c-17.6,17.7-22.2,45.7-23.5,60.6    c0.8-0.5,1.7-0.9,2.7-1.4c4.4-2.3,13.4-6.2,23.1-7.2c16.3-1.7,27,5.6,30.2,20.4c8.6,39.7,0.7,57.2-5.1,70    c-1.1,2.4-2.1,4.6-2.9,6.8l-0.7,1.9c-1.7,4.6-3.3,8.8-4.2,12.5c4.2-1.1,7.8,0.4,9.7,1.2c4.8,2,8.9,6.9,10.5,12.6    c0.3,0.9,0.4,1.9,0.6,2.8c0.2,0.5,0.2,1,0.2,1.5c-0.1,4.1-0.2,8.1-0.3,12.1c4.1,10.1,4.7,28.2,4.5,35.8    c-0.5,15.5-0.8,26.6,2.1,34.6c0.3,0.9,0.7,2,1,3.1c3.2,9.8,6.8,20.9,27.3,16.5c20.8-4.5,31.2-15.5,32.7-34.6    c0.6-7.7,1.6-11.2,2.4-14.3c0.8-3,1.5-5.3,1.6-11.8c0-0.5,0.1-1,0.2-1.5l2-5.9c0.4-3,0.6-5.7,0.8-8.1c0.4-4.1,0.7-7.6,1.3-10.4    c0.6-5,1-8.9,1.1-11c-0.9-18,8.9-21.6,14.3-23.2C500.4,314,499.5,312.9,498.6,311.7z"></path>
	</g>
</g>
<g>
	<path class="st1" d="M134.4,603c0-1.2,0.9-2.2,2.2-2.2h27.3c14.3,0,26,11.6,26,25.6c0,14.4-11.7,26.1-25.9,26.1h-14.5v27.3   c0,1.2-1,2.2-2.2,2.2h-10.7c-1.3,0-2.2-1-2.2-2.2V603z M163,638.4c6.5,0,11.9-5.2,11.9-12.1c0-6.4-5.5-11.3-11.9-11.3h-13.5v23.3   H163z"></path>
	<path class="st1" d="M215.7,634.5c13.1,0,23.8,11.1,23.8,24.2c0,13.3-10.7,24.5-23.8,24.5c-13.1,0-23.8-11.1-23.8-24.5   C192,645.6,202.6,634.5,215.7,634.5z M215.7,670.7c6.1,0,11.1-5.3,11.1-11.9c0-6.5-5-11.7-11.1-11.7c-6.3,0-11.1,5.2-11.1,11.7   C204.6,665.3,209.5,670.7,215.7,670.7z"></path>
	<path class="st1" d="M247.3,676.5l3.1-6.3c0.5-1.2,1.6-1.4,2.7-0.8c0,0,5.2,2.8,10.6,2.8c2.3,0,3.9-0.9,3.9-2.9   c0-2.1-1.6-3.4-7.8-5.8c-8.9-3.5-13.1-8.2-13.1-15.3s5.2-13.7,17.1-13.7c6.8,0,11.8,2,14.3,3.6c1,0.7,1.6,2,1,3.1l-2.9,5.9   c-0.6,1-1.9,1.2-2.8,0.8c0,0-5.2-2.4-9.6-2.4c-2.8,0-3.9,1.2-3.9,2.7c0,2.1,2.1,2.8,6.4,4.5c8.9,3.5,15.7,7.3,15.7,16.4   c0,7.7-6.7,14.2-18.4,14.2c-7.7,0-13-2.4-15.4-4.3C247.3,678.3,246.8,677.4,247.3,676.5z"></path>
	<path class="st1" d="M294.5,647.8h-3.9c-1.2,0-2.1-1-2.1-2.2v-7.8c0-1.3,0.9-2.2,2.1-2.2h3.9v-12.9c0-1.2,1-2.2,2.2-2.2l9.5-0.1   c1.2,0,2.1,1,2.1,2.2v13h10.2c1.3,0,2.2,0.9,2.2,2.2v7.8c0,1.2-0.9,2.2-2.2,2.2h-10.2v18.6c0,3.2,1.7,3.7,3.6,3.7   c2,0,4.4-0.8,5.7-1.3c1.3-0.5,2.2,0.1,2.6,1.3l2.3,7.3c0.5,1.2-0.1,2.3-1.3,2.8c-0.6,0.3-8.1,3-13.8,3c-8.9,0-12.9-5.6-12.9-15   V647.8z"></path>
	<path class="st1" d="M335.9,665.6c0,0-3.5-3.9-3.5-10.9c0-10.8,8.7-20.2,20.2-20.2h21.1c1.3,0,2.2,0.9,2.2,2.2v3.8   c0,0.8-0.5,1.7-1.3,2l-6.5,2.1c0,0,4.6,3.6,4.6,11.8c0,9.2-7.7,18.2-19.8,18.2c-4.4,0-7.4-0.9-9.3-0.9c-1.6,0-4.3,1.6-4.3,4.4   c0,2.4,2.1,3.9,4.6,3.9h14.8c10.6,0,19.1,6,19.1,16.2c0,10.7-8.6,19.7-25.4,19.7c-17.2,0-23.7-8.5-23.7-15.9c0-7,5.8-10.3,7-11   v-0.3c-2-0.6-8.7-3.7-8.7-12.2C327.2,669.5,335.9,665.6,335.9,665.6z M352.5,706.4c6.5,0,10.8-2.9,10.8-7.3c0-2.1-1.6-5.7-8.5-5.7   c-2.6,0-5.1,0.1-7.5,0.5c-1.4,0.5-5,2.1-5,5.7C342.3,703.6,346.2,706.4,352.5,706.4z M353,663.6c4.8,0,8-3.5,8-8.4   c0-4.9-3.2-8.4-8-8.4c-4.6,0-8.1,3.5-8.1,8.4C344.8,660.1,348.3,663.6,353,663.6z"></path>
	<path class="st1" d="M385.7,637.8c0-1.3,1-2.2,2.2-2.2h4.4c1,0,1.7,0.6,2.1,1.5l1.6,4.5c1.6-2.3,5.9-7.2,13.1-7.2   c5.5,0,10.3,1.7,8.9,4.6l-4.3,7.5c-0.6,1-1.7,1.5-2.7,1c-0.3-0.1-2.1-0.7-3.4-0.7c-4.6,0-7.4,3.1-8.2,4.8v28.1c0,1.6-1,2.2-2.7,2.2   h-8.9c-1.2,0-2.2-1-2.2-2.2V637.8z"></path>
	<path class="st1" d="M445.1,634.5c11.9,0,21.7,9,21.7,21.6c0,0.8-0.1,2.3-0.2,3.1c-0.1,1.2-1.2,2-2.2,2h-29.7   c0.3,4.8,4.4,10.1,11.1,10.1c3.6,0,7-1.4,9-2.9c1.2-0.7,2.2-0.9,3,0l4.8,5.5c0.8,0.8,1,2.1-0.1,3c-3.8,3.6-9.7,6.4-17.3,6.4   c-13.9,0-23.8-11-23.8-24.4C421.4,645.7,431.3,634.5,445.1,634.5z M453.2,653c-0.3-4.3-4.1-7.9-8.5-7.9c-4.6,0-8.5,3.5-9,7.9H453.2   z"></path>
	<path class="st1" d="M472.6,670.7l4.2-7.2c0.9-1.6,2.9-1.6,3.9-0.8c0.6,0.3,10,7.2,17.5,7.2c6,0,10.6-3.9,10.6-8.9   c0-5.9-5-10-14.7-13.9c-10.9-4.4-21.8-11.4-21.8-25.1c0-10.3,7.7-22.3,26.1-22.3c11.8,0,20.9,6,23.2,7.8c1.2,0.7,1.5,2.7,0.7,3.8   l-4.4,6.6c-0.9,1.4-2.7,2.3-4.1,1.4c-0.9-0.6-9.7-6.4-16.1-6.4c-6.6,0-10.2,4.4-10.2,8.1c0,5.5,4.3,9.2,13.7,13   c11.3,4.5,24.2,11.3,24.2,26.2c0,11.9-10.3,23-26.7,23c-14.6,0-23.2-6.8-25.5-9C472.1,673.1,471.5,672.5,472.6,670.7z"></path>
	<path class="st1" d="M576,599.7c23.2,0,41.8,18.7,41.8,41.9c0,15.8-9.2,29.7-22.6,37.1l14.5,22.9c1,1.6,0,3.5-1.9,3.5h-12.3   c-0.5,0-1.5-0.5-1.9-1.2l-12.4-21c-1.9,0.2-3.8,0.3-5.2,0.3c-23.2,0-41.6-18.4-41.6-41.6C534.4,618.4,552.8,599.7,576,599.7z    M576,668.1c14.6,0,26.7-11.9,26.7-26.6c0-14.6-12.1-26.8-26.7-26.8c-14.6,0-26.6,12.2-26.6,26.8   C549.5,656.2,561.4,668.1,576,668.1z"></path>
	<path class="st1" d="M633.1,603c0-1.2,0.9-2.2,2.2-2.2H646c1.2,0,2.2,1,2.2,2.2v65.1h29.6c1.3,0,2.2,1,2.2,2.2v9.5   c0,1.2-0.9,2.2-2.2,2.2h-42.5c-1.3,0-2.2-1-2.2-2.2V603z"></path>
</g>
</svg>
