<?xml version="1.0" encoding="UTF-8"?>
<!-- Generator: Adobe Illustrator 28.0.0, SVG Export Plug-In . SVG Version: 6.00 Build 0)  -->
<svg xmlns="http://www.w3.org/2000/svg" xmlns:xlink="http://www.w3.org/1999/xlink" version="1.1" id="Layer_1" x="0px" y="0px" viewBox="0 0 801.2 831.3" style="enable-background:new 0 0 801.2 831.3;" xml:space="preserve">
<style type="text/css">
	.st0{opacity:0.39;enable-background:new    ;}
	.st1{fill:#FFFFFF;}
	.st2{fill:url(#path1948_00000052073416235118048650000004624948548518216335_);}
	.st3{fill:url(#path1950_00000083802377069923393260000007151270939520812961_);}
	.st4{fill:#FFD737;}
</style>
<ellipse class="st0" cx="401" cy="286.1" rx="262.8" ry="266.3"></ellipse>
<circle class="st1" cx="401" cy="278.3" r="261.4"></circle>
<g>
	<g>
		
			<linearGradient id="path1948_00000139283364060536324740000012646421112662232209_" gradientUnits="userSpaceOnUse" x1="499.3048" y1="1419.5261" x2="776.387" y2="1181.1339" gradientTransform="matrix(0.5625 0 0 -0.568 -28.5237 951.2859)">
			<stop offset="0" style="stop-color:#5B9ED1"></stop>
			<stop offset="1" style="stop-color:#306A98"></stop>
		</linearGradient>
		<path id="path1948" style="fill:url(#path1948_00000139283364060536324740000012646421112662232209_);" d="M398.9,136.8    c-11.7,0.1-22.8,1-32.6,2.8c-28.8,5.1-34.1,15.8-34.1,35.4v26h68.1v8.7h-68.1h-25.6c-19.8,0-37.1,11.9-42.6,34.5    c-6.3,26-6.5,42.2,0,69.3c4.8,20.2,16.4,34.5,36.2,34.5h23.4v-31.1c0-22.5,19.5-42.3,42.6-42.3h68.1c18.9,0,34.1-15.6,34.1-34.6    v-65c0-18.5-15.6-32.3-34.1-35.4C422.7,137.6,410.6,136.7,398.9,136.8z M362.1,157.7c7,0,12.8,5.8,12.8,13s-5.7,12.9-12.8,12.9    c-7.1,0-12.8-5.8-12.8-12.9C349.3,163.5,355,157.7,362.1,157.7z"></path>
		
			<linearGradient id="path1950_00000080890161017705941980000014883157213276598169_" gradientUnits="userSpaceOnUse" x1="883.6096" y1="1037.0114" x2="784.6688" y2="1176.9952" gradientTransform="matrix(0.5625 0 0 -0.568 -28.5237 951.2859)">
			<stop offset="0" style="stop-color:#FFD43C"></stop>
			<stop offset="1" style="stop-color:#FDE774"></stop>
		</linearGradient>
		<path id="path1950" style="fill:url(#path1950_00000080890161017705941980000014883157213276598169_);" d="M477,209.6v30.3    c0,23.5-19.9,43.2-42.6,43.2h-68.1c-18.6,0-34.1,16-34.1,34.6v64.9c0,18.5,16.1,29.3,34.1,34.6c21.6,6.3,42.3,7.5,68.1,0    c17.2-5,34.1-15,34.1-34.6v-26h-68.1V348h68.1h34.1c19.8,0,27.2-13.8,34.1-34.5c7.1-21.3,6.8-41.9,0-69.3    c-4.9-19.7-14.2-34.5-34.1-34.5L477,209.6L477,209.6z M438.7,373.9c7.1,0,12.8,5.8,12.8,12.9c0,7.2-5.7,13-12.8,13    c-7,0-12.8-5.8-12.8-13C425.9,379.7,431.7,373.9,438.7,373.9z"></path>
	</g>
	<g>
		<g>
			<g>
				<path class="st4" d="M569.4,110.8c-45.1-45.1-105.1-69.9-168.8-69.9s-123.7,24.8-168.8,69.9s-69.9,105.1-69.9,168.8      c0,63.8,24.8,123.7,69.9,168.8s105.1,69.9,168.8,69.9s123.7-24.8,168.8-69.9s69.9-105,69.9-168.8S614.5,155.9,569.4,110.8z       M400.6,501c-122.1,0-221.4-99.3-221.4-221.4S278.5,58.2,400.6,58.2S622,157.5,622,279.6S522.7,501,400.6,501z"></path>
			</g>
		</g>
	</g>
</g>
<g>
	<path class="st1" d="M244.5,603c0-1.2,0.9-2.2,2.2-2.2h27.3c14.3,0,26,11.6,26,25.6c0,14.4-11.7,26.1-25.9,26.1h-14.5v27.3   c0,1.2-1,2.2-2.2,2.2h-10.7c-1.3,0-2.2-1-2.2-2.2V603z M273,638.4c6.5,0,11.9-5.2,11.9-12.1c0-6.4-5.5-11.3-11.9-11.3h-13.5v23.3   H273z"></path>
	<path class="st1" d="M303.5,638.7c-0.7-1.5,0.2-3,2-3h10.4c1,0,1.6,0.6,2,1.3l11.7,26.2h0.1l11.6-26.2c0.6-1.2,1.4-1.3,2.8-1.3h9.3   c1.9,0,2.8,1.5,2,3l-35.5,76.8c-0.3,0.7-1,1.4-2,1.4h-10c-1.7,0-2.8-1.5-2-3.1l16.5-34.9L303.5,638.7z"></path>
	<path class="st1" d="M365.7,647.8h-3.9c-1.2,0-2.1-1-2.1-2.2v-7.8c0-1.3,0.9-2.2,2.1-2.2h3.9v-12.9c0-1.2,1-2.2,2.2-2.2l9.5-0.1   c1.2,0,2.1,1,2.1,2.2v13h10.2c1.3,0,2.2,0.9,2.2,2.2v7.8c0,1.2-0.9,2.2-2.2,2.2h-10.2v18.6c0,3.2,1.7,3.7,3.6,3.7   c2,0,4.4-0.8,5.7-1.3c1.3-0.5,2.2,0.1,2.6,1.3l2.3,7.3c0.5,1.2-0.1,2.3-1.3,2.8c-0.6,0.3-8.1,3-13.8,3c-8.9,0-12.9-5.6-12.9-15   V647.8z"></path>
	<path class="st1" d="M403.3,603c0-1.2,1-2.2,2.2-2.2h9.9c1.2,0,2.2,1,2.2,2.2v35.3c2.3-1.7,6.8-3.8,12.3-3.8   c14.7,0,20.8,11.4,20.8,23.1v22.3c0,1.2-1,2.2-2.2,2.2H439c-1.3,0-2.2-1-2.2-2.2v-22.4c0-6.4-3.6-10.4-9.2-10.4   c-5.3,0-8.9,3.5-10.1,8.2v24.6c0,1.3-0.7,2.2-2.4,2.2h-9.6c-1.2,0-2.2-1-2.2-2.2V603z"></path>
	<path class="st1" d="M483.8,634.5c13.1,0,23.8,11.1,23.8,24.2c0,13.3-10.7,24.5-23.8,24.5S460,672.1,460,658.7   C460,645.6,470.6,634.5,483.8,634.5z M483.8,670.7c6.1,0,11.1-5.3,11.1-11.9c0-6.5-5-11.7-11.1-11.7c-6.3,0-11.1,5.2-11.1,11.7   C472.6,665.3,477.5,670.7,483.8,670.7z"></path>
	<path class="st1" d="M517.9,637.8c0-1.3,1-2.2,2.2-2.2h4.4c1,0,1.6,0.6,2,1.4l1.6,4.3c1.7-1.9,7.4-6.8,16.4-6.8   c14.7,0,20.6,11,20.6,23.1v22.3c0,1.2-1,2.2-2.2,2.2h-9.5c-1.3,0-2.2-1-2.2-2.2v-23c0-6-3.1-9.9-8.7-9.9c-6,0-9.7,4.2-10.9,7.3   v25.5c0,1.6-0.7,2.2-2.9,2.2h-8.6c-1.2,0-2.2-1-2.2-2.2V637.8z"></path>
</g>
</svg>
