<?xml version="1.0" encoding="UTF-8"?>
<!-- Generator: Adobe Illustrator 28.0.0, SVG Export Plug-In . SVG Version: 6.00 Build 0)  -->
<svg xmlns="http://www.w3.org/2000/svg" xmlns:xlink="http://www.w3.org/1999/xlink" version="1.1" id="Layer_1" x="0px" y="0px" viewBox="0 0 801.2 831.3" style="enable-background:new 0 0 801.2 831.3;" xml:space="preserve">
<style type="text/css">
	.st0{opacity:0.39;enable-background:new    ;}
	.st1{fill:#FFFFFF;}
	.st2{fill:#6DCEF5;}
</style>
<g>
	<ellipse class="st0" cx="401" cy="286.1" rx="262.8" ry="266.3"></ellipse>
	<circle class="st1" cx="401" cy="278.3" r="261.4"></circle>
	<g>
		<g>
			<path class="st2" d="M570.3,110.8c-45.1-45.1-105.1-69.9-168.8-69.9s-123.7,24.8-168.8,69.9s-69.9,105.1-69.9,168.8     c0,63.8,24.8,123.7,69.9,168.8s105.1,69.9,168.8,69.9s123.7-24.8,168.8-69.9s69.9-105,69.9-168.8S615.4,155.9,570.3,110.8z      M401.5,501c-122.1,0-221.4-99.3-221.4-221.4S279.4,58.2,401.5,58.2s221.4,99.3,221.4,221.4S523.6,501,401.5,501z"></path>
			<path class="st2" d="M499.4,226.1c9.9-43.8,5.5-78.6-13.9-89.7c-4.5-2.6-9.7-3.8-15.3-3.9v-0.1c-18.9,0-43.7,13.5-68.8,36.9     c-25.1-23.3-49.8-36.6-68.8-36.6v0.1c-5.8,0-11,1.2-15.6,3.9c-19.3,11.1-23.7,45.9-13.7,89.5c-42.8,13.2-70.7,34.3-70.7,56.6     c0,22.4,28,43.6,71,56.7c-9.9,43.8-5.5,78.6,13.9,89.7c4.5,2.6,9.7,3.9,15.5,3.9c18.9,0,43.7-13.5,68.8-36.9     c25.1,23.3,49.8,36.6,68.8,36.6c5.8,0,11-1.2,15.6-3.9c19.3-11.1,23.7-45.9,13.7-89.5c42.7-13.1,70.5-34.3,70.5-56.6     C570.3,260.4,542.3,239.2,499.4,226.1z M470,147.8L470,147.8c3.2,0.1,5.7,0.7,7.8,1.9c9.4,5.4,13.4,25.8,10.3,52.1     c-0.8,6.5-2,13.3-3.5,20.2c-13.5-3.3-28.2-5.9-43.7-7.5c-9.3-12.7-18.9-24.3-28.6-34.4C434.7,159.2,455.7,147.8,470,147.8z      M340.5,318.1c3.2,5.5,6.5,10.9,9.9,16.1c-9.8-1.4-19.2-3.2-28.2-5.4c2.5-8.9,5.7-18,9.3-27.2C334.3,307,337.3,312.5,340.5,318.1     z M322,236.9c9-2.1,18.5-4,28.4-5.4c-3.4,5.3-6.7,10.7-9.9,16.3c-3.2,5.5-6.1,11-8.9,16.5C327.8,255.1,324.6,245.9,322,236.9z      M339.6,283c4.3-9.2,9.1-18.4,14.2-27.5c5.4-9.3,10.9-18.1,16.6-26.3c10.3-0.9,20.6-1.4,31.1-1.4c10.4,0,20.8,0.5,31,1.3     c5.7,8.2,11.3,16.9,16.7,26.2c5.2,9,10,18.2,14.3,27.4c-4.3,9.2-9.1,18.4-14.2,27.5c-5.4,9.3-10.9,18.1-16.6,26.3     c-10.3,0.9-20.6,1.4-31.1,1.4c-10.4,0-20.8-0.5-31-1.3c-5.7-8.2-11.3-16.9-16.7-26.2C348.6,301.4,343.9,292.2,339.6,283z      M462.5,317.8c3.2-5.5,6.1-11.1,8.9-16.6c3.7,9.2,6.9,18.4,9.5,27.4c-9,2.2-18.5,4.1-28.4,5.5     C455.9,328.9,459.3,323.4,462.5,317.8z M462.4,247.6c-3.2-5.5-6.5-10.9-9.9-16.1c9.8,1.4,19.2,3.2,28.2,5.4     c-2.5,8.9-5.7,18-9.3,27.2C468.6,258.6,465.6,253.1,462.4,247.6z M420.4,213c-6.2-0.3-12.5-0.5-18.9-0.5     c-6.5,0-12.9,0.1-19.1,0.5c6.2-8.1,12.6-15.4,18.9-22C407.7,197.5,414.1,204.9,420.4,213z M324.7,149.9c2.1-1.2,4.7-1.8,7.9-1.8     V148c14.2,0,35.4,11.4,57.8,32.1c-9.6,10.1-19.3,21.6-28.4,34.3c-15.6,1.7-30.3,4.2-43.8,7.6c-1.6-6.9-2.8-13.6-3.6-20     C311.4,175.8,315.4,155.4,324.7,149.9z M307.3,324.7c-6.8-2.1-13.3-4.5-19.3-7c-24.4-10.4-40.1-24-40.1-34.8s15.8-24.5,40.1-34.8     c5.9-2.5,12.4-4.8,19.1-7c3.9,13.5,9.1,27.5,15.5,41.9C316.3,297.3,311.2,311.2,307.3,324.7z M332.9,417.8     c-3.1-0.1-5.7-0.7-7.8-1.9c-9.4-5.4-13.4-25.8-10.3-52.1c0.8-6.5,2-13.3,3.5-20.2c13.5,3.3,28.2,5.9,43.7,7.5     c9.3,12.7,18.9,24.3,28.6,34.4C368.3,406.4,347.2,417.8,332.9,417.8z M401.6,374.7c-6.4-6.6-12.8-14-19.1-22     c6.2,0.3,12.5,0.5,18.9,0.5c6.5,0,12.9-0.1,19.1-0.5C414.4,360.7,408,368.1,401.6,374.7z M478.3,415.7c-2.1,1.2-4.7,1.8-7.9,1.8     c-14.2,0-35.4-11.4-57.8-32.1c9.6-10.1,19.3-21.6,28.4-34.3c15.6-1.7,30.3-4.2,43.8-7.6c1.6,7,2.8,13.6,3.6,20     C491.6,389.8,487.6,410.3,478.3,415.7z M514.9,317.6c-5.9,2.5-12.4,4.8-19.1,7c-3.9-13.5-9.1-27.5-15.5-41.9     c6.3-14.3,11.4-28.3,15.3-41.7c6.8,2.1,13.3,4.5,19.3,7c24.4,10.4,40.1,24,40.1,34.8C555,293.6,539.2,307.3,514.9,317.6z"></path>
			<ellipse class="st2" cx="401.4" cy="282.8" rx="31.5" ry="31.5"></ellipse>
		</g>
	</g>
</g>
<g>
	<path class="st1" d="M235.8,603c0-1.2,0.9-2.2,2.2-2.2h33.2c13.9,0,25.3,11.1,25.3,24.9c0,10.7-7.1,19.4-17.2,23.4l15.9,29.5   c0.8,1.5,0,3.4-2,3.4H281c-1,0-1.6-0.6-1.9-1l-15.4-30.7h-12.9v29.6c0,1.2-1,2.2-2.2,2.2H238c-1.3,0-2.2-1-2.2-2.2V603z    M269.9,637.8c6.1,0,11.5-5.3,11.5-11.8c0-6.1-5.3-11.3-11.5-11.3h-18.9v23.1H269.9z"></path>
	<path class="st1" d="M326,634.5c11.9,0,21.7,9,21.7,21.6c0,0.8-0.1,2.3-0.2,3.1c-0.1,1.2-1.2,2-2.2,2h-29.7   c0.3,4.8,4.4,10.1,11.1,10.1c3.6,0,7-1.4,9-2.9c1.2-0.7,2.2-0.9,3,0l4.8,5.5c0.8,0.8,1,2.1-0.1,3c-3.8,3.6-9.7,6.4-17.3,6.4   c-13.9,0-23.8-11-23.8-24.4C302.3,645.7,312.2,634.5,326,634.5z M334.1,653c-0.3-4.3-4.1-7.9-8.5-7.9c-4.6,0-8.5,3.5-9,7.9H334.1z"></path>
	<path class="st1" d="M372.6,652.7c4.6,0,8.5,1.3,8.5,1.3c0.1-5.9-1.7-8-6-8s-10.3,0.9-13,1.7c-1.6,0.5-2.4-0.6-2.7-2.1l-1-6   c-0.3-1.7,0.6-2.6,1.6-2.9c0.9-0.3,8.4-2.2,15.8-2.2c14.5,0,17.9,7.5,17.9,20.2v25.2c0,1.2-1,2.2-2.2,2.2h-4.2   c-0.8,0-1.4-0.3-2-1.6l-1.4-3.1c-2.7,2.4-7,5.9-14.2,5.9c-9.3,0-15.7-6-15.7-15.9C354.1,659.1,360.8,652.7,372.6,652.7z    M372.9,673.3c3.7,0,7.3-3.1,8-4.5v-6.4c0,0-3.1-1.4-6.5-1.4c-4.5,0-7.5,2.6-7.5,6.3C366.8,670.8,369.3,673.3,372.9,673.3z"></path>
	<path class="st1" d="M428.1,634.5c7.2,0,12.8,2.9,17.2,8.2c0.8,1,0.6,2.4-0.6,3.2l-5.3,5.1c-1,0.9-2.1,0.3-2.9-0.3   c-1.9-2.1-4.8-3.7-8-3.7c-6.3,0-11.4,5.3-11.4,11.8c0,6.6,5,11.8,11.3,11.8c5,0,7.2-2.4,9.3-4.4c0.8-0.8,2-1,2.9-0.3l5,4.3   c1.2,0.9,1.6,2.1,0.8,3.2c-3.9,6.1-10.1,9.7-18.3,9.7c-13.1,0-24.6-10.4-24.6-24.4C403.4,645.1,415.1,634.5,428.1,634.5z"></path>
	<path class="st1" d="M458.8,647.8h-3.9c-1.2,0-2.1-1-2.1-2.2v-7.8c0-1.3,0.9-2.2,2.1-2.2h3.9v-12.9c0-1.2,1-2.2,2.2-2.2l9.5-0.1   c1.2,0,2.1,1,2.1,2.2v13h10.2c1.3,0,2.2,0.9,2.2,2.2v7.8c0,1.2-0.9,2.2-2.2,2.2h-10.2v18.6c0,3.2,1.7,3.7,3.6,3.7   c2,0,4.4-0.8,5.7-1.3c1.3-0.5,2.2,0.1,2.6,1.3l2.3,7.3c0.5,1.2-0.1,2.3-1.3,2.8c-0.6,0.3-8.1,3-13.8,3c-8.9,0-12.9-5.6-12.9-15   V647.8z"></path>
	<path class="st1" d="M489,671.8l6-6.1c1.3-1.2,2.4-0.9,3.5,0.1c1.5,1.6,3.8,3.7,7.7,3.7c4.5,0,9.3-3.7,9.3-11.7V603   c0-1.2,0.9-2.2,2.2-2.2h10.9c1.3,0,2.2,1,2.2,2.2v54.8c0,16.1-10.8,25.4-24.4,25.4c-10.1,0-15.7-6-17.6-8.5   C488.2,673.8,488.3,672.6,489,671.8z"></path>
	<path class="st1" d="M542,676.5l3.1-6.3c0.5-1.2,1.6-1.4,2.7-0.8c0,0,5.2,2.8,10.6,2.8c2.3,0,3.9-0.9,3.9-2.9   c0-2.1-1.6-3.4-7.8-5.8c-8.9-3.5-13.1-8.2-13.1-15.3s5.2-13.7,17.1-13.7c6.8,0,11.8,2,14.3,3.6c1,0.7,1.6,2,1,3.1l-2.9,5.9   c-0.6,1-1.9,1.2-2.8,0.8c0,0-5.2-2.4-9.6-2.4c-2.8,0-3.9,1.2-3.9,2.7c0,2.1,2.1,2.8,6.4,4.5c8.9,3.5,15.7,7.3,15.7,16.4   c0,7.7-6.7,14.2-18.4,14.2c-7.7,0-13-2.4-15.4-4.3C542,678.3,541.5,677.4,542,676.5z"></path>
</g>
</svg>
