<?xml version="1.0" encoding="UTF-8"?>
<!-- Generator: Adobe Illustrator 28.0.0, SVG Export Plug-In . SVG Version: 6.00 Build 0)  -->
<svg xmlns="http://www.w3.org/2000/svg" xmlns:xlink="http://www.w3.org/1999/xlink" version="1.1" id="Layer_1" x="0px" y="0px" viewBox="0 0 801.2 831.3" style="enable-background:new 0 0 801.2 831.3;" xml:space="preserve">
<style type="text/css">
	.st0{opacity:0.39;enable-background:new    ;}
	.st1{fill:#FFFFFF;}
	.st2{fill:#A32022;}
	.st3{fill:#D62E27;}
	.st4{fill:#781414;}
	.st5{fill:#AB2524;}
</style>
<g id="Layer_1_1_">
	<ellipse class="st0" cx="401" cy="286.1" rx="262.8" ry="266.3"></ellipse>
	<circle class="st1" cx="401" cy="278.3" r="261.4"></circle>
</g>
<g id="Layer_2_1_">
	<g>
		<g transform="matrix(.848327 0 0 .848327 -7.883573 -9.449691)">
			<g>
				<path id="a" class="st2" d="M635.1,418.9c-17.8,9.3-109.9,47.2-129.6,57.4c-19.6,10.2-30.5,10.1-46,2.7s-113.6-47-131.2-55.5      c-8.8-4.2-13.5-7.8-13.5-11.1v-33.7c0,0,127.7-27.8,148.3-35.2c20.6-7.4,27.8-7.7,45.3-1.2c17.6,6.4,122.4,25.3,139.8,31.7v33.2      C648.2,410.6,644.2,414.3,635.1,418.9L635.1,418.9z"></path>
			</g>
			<path class="st3" d="M635.1,385.2c-17.8,9.3-109.9,47.2-129.6,57.4c-19.6,10.2-30.5,10.1-46,2.7s-113.6-47-131.2-55.5     c-17.7-8.4-18-14.3-0.7-21.1l135.5-52.5c20.6-7.4,27.8-7.7,45.3-1.2c17.6,6.4,109.1,42.9,126.5,49.3S652.9,376,635.1,385.2     L635.1,385.2z"></path>
			<g>
				<path class="st2" d="M635.1,364c-17.8,9.3-109.9,47.2-129.6,57.4c-19.6,10.2-30.5,10.1-46,2.7s-113.6-47-131.2-55.5      c-8.8-4.2-13.5-7.8-13.5-11.1v-33.7c0,0,127.7-27.8,148.3-35.2c20.6-7.4,27.8-7.7,45.3-1.2c17.6,6.4,122.4,25.3,139.8,31.7v33.2      C648.2,355.6,644.2,359.4,635.1,364L635.1,364z"></path>
			</g>
			<g>
				<path id="b" class="st3" d="M635.1,330.3c-17.8,9.3-109.9,47.2-129.6,57.4c-19.6,10.2-30.5,10.1-46,2.7s-113.6-47-131.2-55.5      c-17.7-8.4-18-14.3-0.7-21.1l135.5-52.5c20.6-7.4,27.8-7.7,45.3-1.2c17.6,6.4,109.1,42.9,126.5,49.2      C652.3,315.7,652.9,321,635.1,330.3L635.1,330.3z"></path>
			</g>
			<path class="st2" d="M635.1,307c-17.8,9.3-109.9,47.2-129.6,57.4c-19.6,10.2-30.5,10.1-46,2.7s-113.6-47-131.2-55.5     c-8.8-4.2-13.5-7.8-13.5-11.1v-33.7c0,0,127.7-27.8,148.3-35.2s27.8-7.7,45.3-1.2c17.6,6.4,122.4,25.3,139.8,31.7v33.2     C648.2,298.6,644.2,302.4,635.1,307L635.1,307z"></path>
			<g>
				<path class="st3" d="M635.1,273.3c-17.8,9.3-109.9,47.2-129.6,57.4c-19.6,10.2-30.5,10.1-46,2.7s-113.6-47-131.2-55.5      c-17.7-8.4-18-14.3-0.7-21.1l135.5-52.5c20.6-7.4,27.8-7.7,45.3-1.2c17.6,6.4,109.1,42.9,126.5,49.2      C652.3,258.8,652.9,264,635.1,273.3L635.1,273.3z"></path>
			</g>
			<g>
				<path class="st1" d="M489.8,259.4L479.4,242l-33.4-3l24.9-9l-7.5-13.8l23.3,9.1l22-7.2l-5.9,14.2l22.4,8.4l-28.9,3L489.8,259.4z       M434.2,294l77.2-11.9l-23.3,34.2L434.2,294z"></path>
				<ellipse class="st1" cx="413.4" cy="265.5" rx="41.3" ry="16"></ellipse>
			</g>
			<path class="st4" d="M605,263.2l-45.7,18v-36.1L605,263.2z"></path>
			<path class="st5" d="M559.4,281.2l-4.9,1.9l-45.7-18l50.6-20L559.4,281.2z"></path>
		</g>
		<g>
			<g>
				<g>
					<path class="st3" d="M569.4,111.4c-45.1-45.1-105.1-69.9-168.8-69.9s-123.7,24.8-168.8,69.9s-69.9,105.1-69.9,168.8       c0,63.8,24.8,123.7,69.9,168.8s105,70,168.8,70s123.7-24.8,168.8-69.9s69.9-105,69.9-168.8S614.5,156.5,569.4,111.4z        M400.6,501.7c-122.1,0-221.4-99.3-221.4-221.4S278.5,58.9,400.6,58.9S622,158.2,622,280.3C622,402.3,522.7,501.7,400.6,501.7z       "></path>
				</g>
			</g>
		</g>
	</g>
</g>
<g>
	<path class="st1" d="M286.3,603c0-1.2,0.9-2.2,2.2-2.2h33.2c13.9,0,25.3,11.1,25.3,24.9c0,10.7-7.1,19.4-17.2,23.4l15.9,29.5   c0.8,1.5,0,3.4-2,3.4h-12.2c-1,0-1.6-0.6-1.9-1l-15.4-30.7h-12.9v29.6c0,1.2-1,2.2-2.2,2.2h-10.7c-1.3,0-2.2-1-2.2-2.2V603z    M320.4,637.8c6.1,0,11.5-5.3,11.5-11.8c0-6.1-5.3-11.3-11.5-11.3h-18.9v23.1H320.4z"></path>
	<path class="st1" d="M376.6,634.5c11.9,0,21.7,9,21.7,21.6c0,0.8-0.1,2.3-0.2,3.1c-0.1,1.2-1.2,2-2.2,2h-29.7   c0.3,4.8,4.4,10.1,11.1,10.1c3.6,0,7-1.4,9-2.9c1.2-0.7,2.2-0.9,3,0l4.8,5.5c0.8,0.8,1,2.1-0.1,3c-3.8,3.6-9.7,6.4-17.3,6.4   c-13.9,0-23.8-11-23.8-24.4C352.9,645.7,362.8,634.5,376.6,634.5z M384.7,653c-0.3-4.3-4.1-7.9-8.5-7.9c-4.6,0-8.5,3.5-9,7.9H384.7   z"></path>
	<path class="st1" d="M427.5,634.5c4.6,0,8.2,1.3,10.3,2.1V603c0-1.2,1-2.2,2.2-2.2h9.9c1.2,0,2.2,1,2.2,2.2v76.8   c0,1.2-1,2.2-2.2,2.2h-4.5c-1,0-1.9-0.9-2.2-2.2l-1.2-3.6c0,0-5.5,7-15.2,7c-12.6,0-22.3-11-22.3-24.4   C404.5,645.3,413.7,634.5,427.5,634.5z M428.5,670.7c6.1,0,8.9-4.8,9.7-7.5v-13.5c0,0-3.2-2.7-9-2.7c-6.5,0-11.3,5.3-11.3,11.8   S422.4,670.7,428.5,670.7z"></path>
	<path class="st1" d="M465,611.2c0-4.4,3.5-8,7.9-8c4.5,0,8.1,3.6,8.1,8c0,4.4-3.6,8-8.1,8C468.4,619.2,465,615.6,465,611.2z    M466,637.8c0-1.3,1-2.2,2.2-2.2h9.6c1.2,0,2.2,0.9,2.2,2.2v42c0,1.2-1,2.2-2.2,2.2h-9.6c-1.2,0-2.2-1-2.2-2.2V637.8z"></path>
	<path class="st1" d="M491.4,676.5l3.1-6.3c0.5-1.2,1.6-1.4,2.7-0.8c0,0,5.2,2.8,10.6,2.8c2.3,0,3.9-0.9,3.9-2.9   c0-2.1-1.6-3.4-7.8-5.8c-8.9-3.5-13.1-8.2-13.1-15.3s5.2-13.7,17.1-13.7c6.8,0,11.8,2,14.3,3.6c1,0.7,1.6,2,1,3.1l-2.9,5.9   c-0.6,1-1.9,1.2-2.8,0.8c0,0-5.2-2.4-9.6-2.4c-2.8,0-3.9,1.2-3.9,2.7c0,2.1,2.1,2.8,6.4,4.5c8.9,3.5,15.7,7.3,15.7,16.4   c0,7.7-6.7,14.2-18.4,14.2c-7.7,0-13-2.4-15.4-4.3C491.4,678.3,490.9,677.4,491.4,676.5z"></path>
</g>
</svg>
