<?xml version="1.0" encoding="UTF-8"?>
<!-- Generator: Adobe Illustrator 28.0.0, SVG Export Plug-In . SVG Version: 6.00 Build 0)  -->
<svg xmlns="http://www.w3.org/2000/svg" xmlns:xlink="http://www.w3.org/1999/xlink" version="1.1" id="Layer_1" x="0px" y="0px" viewBox="0 0 801.2 831.3" style="enable-background:new 0 0 801.2 831.3;" xml:space="preserve">
<style type="text/css">
	.st0{opacity:0.39;enable-background:new    ;}
	.st1{fill:#FFFFFF;}
	.st2{fill:#CF659A;}
</style>
<g id="Layer_1_00000114784726207614675540000008396290645614574251_">
	<ellipse class="st0" cx="401" cy="286.1" rx="262.8" ry="266.3"></ellipse>
	<circle class="st1" cx="401" cy="278.3" r="261.4"></circle>
</g>
<g id="Layer_2_00000134231391247513886250000008168948171367385217_">
	<g>
		<path class="st2" d="M440.5,350.4c0,0-1.1,1-0.6,1.3c0.6,0.4,2-0.1,3.6-0.9c4.3-2.7,13.9-9.4,13.9-19.4v-0.8    c-2.2,2.9-4.3,5.5-6.1,7.7C448.2,342.1,440.5,350.4,440.5,350.4z"></path>
		<path class="st2" d="M377.4,294c-3.5,3.9-9.4,13.9-12.2,22.4c-5.5,16.7-3.1,33.7,0.8,34.7c4.5,1.3,12.1-21.1,15.6-29.8    c2.2-5.4,10.9-29.7,9.1-33C389.2,285.7,383,287.8,377.4,294z"></path>
		<path class="st2" d="M315.6,329.5c0,0-0.3,0.1-0.7,0.4c-2.6,1.6-4.9,2.9-6.3,3.8c-6.6,4.1-16.5,10.8-24.2,18.1    c-12.6,11.9-15.2,28.4-8.6,32.3c6.1,3.6,20.6-0.6,30.8-11.8c10.8-11.8,15.3-26.7,10.6-43.7C316.7,328.9,316.1,329.2,315.6,329.5z"></path>
		<path class="st2" d="M400.6,40.8c-131.9,0-238.8,106.9-238.8,238.8s106.9,238.8,238.8,238.8s238.8-106.9,238.8-238.8    S532.5,40.8,400.6,40.8z M578.6,353c-1.9,0.3-2.9,0.3-3.1-1.1c-0.2-1,0.5-1.5,2.6-2.8c2.2-1.4,8.6-5.9,9.8-13.9    c1.2-8.1-4.9-27.5-36-31.1c-14.4-1.7-25.8,0.3-34.6,4c1.6,4.2,2.8,8.6,3,13c0.3,9.7-6.3,16.9-13.3,22c-4,3-8.4,5-12.1,6.2    c-2.9,1.3-6.8,2.5-9.5,2c-6.1-1.3-9.3-6.6-5.2-18.5c2.2-6.4,8.7-16.2,19-24.6c-2.4-4.9-5-9.8-6.3-14.4c-2.6-8.9-3.4-14.4-3.4-14.4    s-8.5,17.7-19.5,33.8c-0.6,1-1.3,1.9-1.9,2.8c2.2,5,3.9,10.3,4.1,15.7c0.4,9.8-3.8,17.1-10.8,22.2c-3.8,2.8-7.8,4.7-11.3,5.9    c-2.2,1-6.7,2.6-13.1,3c-3.6,0.3-6.9,0-8.8-1.4c-2.6-2-2.9-4.4-1.5-7.7c1.1-2.8,9.6-12.5,16.7-21c2-2.4,3.8-4.7,5.5-7l-0.1-0.1    c0,0,1.3-1.7,3.3-4.6c-2.6-5.6-5.9-11.4-7.5-16.7c-2.6-8.9-3.4-14.4-3.4-14.4s-8.6,22.2-17.6,39.9c-7,13.7-11.6,22-13.7,25.6v0.1    c-0.3,0.4-0.5,0.9-0.8,1.3c-0.3,0.5-0.4,0.7-0.4,0.7v-0.1c-2.4,3.5-7.6,10.2-12.8,10.2c-14.3,0-9.1-29.1-9.1-29.1    s-4.2,10.7-8.9,20c-3.8,7.6-7.3,13.9-15,13.9c-2.2,0-5.6-0.1-8.6-2.8c-6.6-6.3-11.6-22.2-10.7-34.4c0.8-10.5,2.4-17.6,4.7-23.7    c-4,2.2-8.5,4.7-13.1,7.4l-7.1,4.2l0.2,0.4c5.9,11.4,7.5,36.2-5.4,55.4c-12.9,19.2-36.7,30.8-60,24.3c-7.5-2.1-18.8-17.6-9.1-39.2    c8.6-19.1,43.1-37.1,52.2-41.6c0.8-0.4,1.6-0.9,2.5-1.4c-18.1-15.8-63.3-37.2-69.7-70c-1.8-9.2,2.5-31.4,29.7-56.7    c22.9-21.4,54.6-37.7,84-48.2c49.3-17.5,101.4-7.2,109.4,24.3c7.9,30.9-19,67.8-53.3,81.1c-30.7,11.8-56,10-66.4,6.6    c-11.8-3.9-18.8-11.7-20.5-16.1c-0.7-1.7-1.8-4.7,0-5.6c1.1-0.6,1.5-0.5,4.5,2.8c2.9,3.1,14.2,11.5,35.8,9.1    c56.7-6.3,90.9-50.4,80.1-74.1c-7.6-16.6-51.3-24-105.9,3.1c-66.6,33.2-70.3,60.6-70.8,70.9c-1.5,28.6,35.3,43.6,55.3,64.9    l0.8,0.8c3.8-2,7.7-4.3,11.6-6.3c10-5.5,19.5-10.7,24-13.1c7-10.2,21.3-21.5,31.6-21.5c16.4,0,10.8,23.6,10.8,23.6    s0.3-1.1,0.8-1.1c0.4,0,2.2-3.1,7.3-1.3c5.2,1.9,4,5.6,4,5.9c0.1,0.8-6.2,21.7-8.8,35.2c-1.2,6.4-0.5,11.1-0.1,11.1    c0.5,0,1.5-1.7,2.5-3.4v-0.1c0,0,0.7-1.3,2-3.7c0.1-0.3-1.3,2.3,0.2-0.5s3.5-6.9,5.8-12.1c4.5-10.1,22-48.9,23.4-53.2    c1.5-4.3,2.3-8.8,3-10.7c0.7-1.9,6.9-3.3,14.1-3.3c7.2,0.1,7.9,3.1,7.9,3.8c0,0.7-3.5,9.2-4.3,15.2s0,9.1,0.6,14.1    c0.4,3.3,2.5,7.5,4.9,12.3c7.5-12.2,20.6-35.4,21.8-42c0.9-4.5,2.3-8.8,3-10.7s6.9-3.3,14.1-3.3c7.2,0.1,7.9,3.1,7.9,3.8    s-3.5,9.2-4.3,15.2s0,9.1,0.6,14.1c0.6,4.3,3.9,10.1,7.2,16.7c9.1-4.5,19.9-7.5,32.3-7.5l0,0c32.3-0.2,50.5,20.7,49.6,39.9    C594.9,346.4,581.2,352.6,578.6,353z"></path>
		<path class="st2" d="M493.8,328.5c-3.8,8.1-3.9,10.7-2.8,11.5c5.4-2,14.4-6.6,14.4-19.2c0.1-1.9-0.3-3.9-1-6    C498.7,319.9,495.3,325.3,493.8,328.5z"></path>
	</g>
</g>
<g>
	<path class="st1" d="M275.5,670.7l4.2-7.2c0.9-1.6,2.9-1.6,3.9-0.8c0.6,0.3,10,7.2,17.5,7.2c6,0,10.6-3.9,10.6-8.9   c0-5.9-5-10-14.7-13.9c-10.9-4.4-21.8-11.4-21.8-25.1c0-10.3,7.7-22.3,26.1-22.3c11.8,0,20.9,6,23.2,7.8c1.2,0.7,1.5,2.7,0.7,3.8   l-4.4,6.6c-0.9,1.4-2.7,2.3-4.1,1.4c-0.9-0.6-9.7-6.4-16.1-6.4c-6.6,0-10.2,4.4-10.2,8.1c0,5.5,4.3,9.2,13.7,13   c11.3,4.5,24.2,11.3,24.2,26.2c0,11.9-10.3,23-26.7,23c-14.6,0-23.2-6.8-25.5-9C275.1,673.1,274.5,672.5,275.5,670.7z"></path>
	<path class="st1" d="M332.6,679l36.1-78.1c0.3-0.7,0.9-1.3,2-1.3h1.2c1.2,0,1.6,0.6,2,1.3l35.7,78.1c0.7,1.5-0.2,3-2,3h-10.1   c-1.7,0-2.6-0.7-3.4-2.3l-5.7-12.5h-34.7l-5.7,12.5c-0.5,1.2-1.5,2.3-3.4,2.3h-10.1C332.8,682,331.9,680.5,332.6,679z M382.7,654.3   l-11.6-25.5h-0.3l-11.4,25.5H382.7z"></path>
	<path class="st1" d="M415.3,670.7l4.2-7.2c0.9-1.6,2.9-1.6,3.9-0.8c0.6,0.3,10,7.2,17.5,7.2c6,0,10.6-3.9,10.6-8.9   c0-5.9-5-10-14.7-13.9c-10.9-4.4-21.8-11.4-21.8-25.1c0-10.3,7.7-22.3,26.1-22.3c11.8,0,20.9,6,23.2,7.8c1.2,0.7,1.5,2.7,0.7,3.8   l-4.4,6.6c-0.9,1.4-2.7,2.3-4.1,1.4c-0.9-0.6-9.7-6.4-16.1-6.4c-6.6,0-10.2,4.4-10.2,8.1c0,5.5,4.3,9.2,13.7,13   c11.3,4.5,24.2,11.3,24.2,26.2c0,11.9-10.3,23-26.7,23c-14.6,0-23.2-6.8-25.5-9C414.9,673.1,414.3,672.5,415.3,670.7z"></path>
	<path class="st1" d="M478.2,670.7l4.2-7.2c0.9-1.6,2.9-1.6,3.9-0.8c0.6,0.3,10,7.2,17.5,7.2c6,0,10.6-3.9,10.6-8.9   c0-5.9-5-10-14.7-13.9c-10.9-4.4-21.8-11.4-21.8-25.1c0-10.3,7.7-22.3,26.1-22.3c11.8,0,20.9,6,23.2,7.8c1.2,0.7,1.5,2.7,0.7,3.8   l-4.4,6.6c-0.9,1.4-2.7,2.3-4.1,1.4c-0.9-0.6-9.7-6.4-16.1-6.4c-6.6,0-10.2,4.4-10.2,8.1c0,5.5,4.3,9.2,13.7,13   c11.3,4.5,24.2,11.3,24.2,26.2c0,11.9-10.3,23-26.7,23c-14.6,0-23.2-6.8-25.5-9C477.7,673.1,477.1,672.5,478.2,670.7z"></path>
</g>
</svg>
