<?xml version="1.0" encoding="UTF-8"?>
<!-- Generator: Adobe Illustrator 28.0.0, SVG Export Plug-In . SVG Version: 6.00 Build 0)  -->
<svg xmlns="http://www.w3.org/2000/svg" xmlns:xlink="http://www.w3.org/1999/xlink" version="1.1" id="Layer_1" x="0px" y="0px" viewBox="0 0 801.2 831.3" style="enable-background:new 0 0 801.2 831.3;" xml:space="preserve">
<style type="text/css">
	.st0{opacity:0.39;enable-background:new    ;}
	.st1{fill:#FFFFFF;}
	.st2{fill:#31A636;}
</style>
<g id="Layer_1_1_">
	<ellipse class="st0" cx="401" cy="286.1" rx="262.8" ry="266.3"></ellipse>
	<circle class="st1" cx="401" cy="278.3" r="261.4"></circle>
</g>
<g>
	<g>
		<g>
			<g>
				<path class="st2" d="M569.8,109.7C524.7,64.6,464.7,39.8,401,39.8c-63.8,0-123.7,24.8-168.8,69.9      c-45.1,45.1-69.9,105.1-69.9,168.8c0,63.8,24.8,123.7,69.9,168.8s105.1,69.9,168.8,69.9c63.8,0,123.7-24.8,168.8-69.9      c45.1-45.1,69.9-105,69.9-168.8S614.9,154.8,569.8,109.7z M401,500c-122.1,0-221.4-99.3-221.4-221.4S278.9,57.1,401,57.1      c122.1,0,221.4,99.3,221.4,221.4S523.1,500,401,500z"></path>
			</g>
		</g>
	</g>
	<g>
		<path class="st2" d="M507.1,144.4c0.7,0,1.3,0.3,1.6,0.9c0.3,0.6,0.3,1.3-0.1,1.8l0,0l-66.3,90.1c-0.5,0.5-1.2,0.9-1.9,0.9    s-1.4-0.3-1.9-0.9l0,0l-23.4-26.1c-0.6-0.6-1.4-0.9-2.2-0.8c-0.8,0.1-1.6,0.5-2,1.2l0,0l-14.2,18c-0.4,1-0.3,2.2,0.4,3.1l0,0    l42.2,43.7c0.5,0.5,1.2,0.9,1.9,0.9c0.7,0,1.4-0.3,1.9-0.9l0,0l82.8-93.1c0.5-0.5,1.2-0.7,1.9-0.5c0.7,0.3,1.1,0.9,1.1,1.6l0,0    v226.5c0,0.5-0.2,1-0.5,1.4c-0.4,0.4-0.9,0.6-1.4,0.5l0,0H274.9c-0.5,0-1-0.2-1.4-0.5c-0.4-0.4-0.6-0.9-0.5-1.4l0,0V146.3    c0-0.5,0.2-1,0.5-1.4c0.4-0.4,0.9-0.6,1.4-0.5l0,0H507.1z M442,297.3c-11.4-0.2-22.4,4.3-30.4,12.4c-8,8.1-12.4,19.1-12.1,30.5    c0,26.4,19.2,43.3,44.1,43.3c11.5,0.3,22.8-3.2,32.2-10c0.9-0.8,1-2.1,0.4-3.1l0,0l-6.9-10.3c-0.8-0.9-2.1-1.1-3.1-0.4    c-6,4.1-13.1,6.4-20.3,6.5c-13.4,0-21.8-8.4-23.4-18.4c0-0.4,0.4-0.7,0.8-0.8l0,0h57.9c1.2-0.1,2.2-1.1,2.3-2.3l0,0v-2.3    C483.4,315.7,466.5,297.3,442,297.3z M384.9,282.8c-11.6-9.5-26.4-14.4-41.4-13.8c-26.1,0-42.2,15.3-42.2,33.7    c0,41.8,63.6,28.4,63.6,47.9c0,6.1-6.1,12.3-19.2,12.3c-12.4,0.1-24.3-4.6-33.3-13c-0.5-0.5-1.3-0.8-2-0.7    c-0.7,0.1-1.4,0.5-1.8,1.1l0,0l-10,13.8c-0.6,1-0.5,2.3,0.4,3.1c10.3,9.6,24.9,16.1,45.2,16.1c29.9,0,44.5-15.3,45.2-35.3    c0-41.4-63.6-29.5-63.6-47.1c0-6.5,5.7-11.1,15.7-11.1c11-0.2,21.7,3.5,30.3,10.3c0.5,0.4,1.2,0.6,1.8,0.5    c0.6-0.1,1.2-0.4,1.6-0.9l0,0l10-13.4c0.4-0.5,0.6-1.2,0.5-1.8C385.7,283.7,385.4,283.2,384.9,282.8z M442.4,314.2    c10.4-0.6,19.4,7.2,20.3,17.6c0,0.4-0.4,0.7-0.8,0.8l0,0h-39.1c-0.4,0-0.7-0.4-0.8-0.8C423.3,321.6,432.1,314,442.4,314.2z"></path>
	</g>
</g>
<g>
	<path class="st1" d="M193.1,670.7l4.2-7.2c0.9-1.6,2.9-1.6,3.9-0.8c0.6,0.3,10,7.2,17.5,7.2c6,0,10.6-3.9,10.6-8.9   c0-5.9-5-10-14.7-13.9c-10.9-4.4-21.8-11.4-21.8-25.1c0-10.3,7.7-22.3,26.1-22.3c11.8,0,20.9,6,23.2,7.8c1.2,0.7,1.5,2.7,0.7,3.8   l-4.4,6.6c-0.9,1.4-2.7,2.3-4.1,1.4c-0.9-0.6-9.7-6.4-16.1-6.4c-6.6,0-10.2,4.4-10.2,8.1c0,5.5,4.3,9.2,13.7,13   c11.3,4.5,24.2,11.3,24.2,26.2c0,11.9-10.3,23-26.7,23c-14.6,0-23.2-6.8-25.5-9C192.7,673.1,192.1,672.5,193.1,670.7z"></path>
	<path class="st1" d="M276.6,634.5c11.9,0,21.7,9,21.7,21.6c0,0.8-0.1,2.3-0.2,3.1c-0.1,1.2-1.2,2-2.2,2h-29.7   c0.3,4.8,4.4,10.1,11.1,10.1c3.6,0,7-1.4,9-2.9c1.2-0.7,2.2-0.9,3,0l4.8,5.5c0.8,0.8,1,2.1-0.1,3c-3.8,3.6-9.7,6.4-17.3,6.4   c-13.9,0-23.8-11-23.8-24.4C253,645.7,262.8,634.5,276.6,634.5z M284.8,653c-0.3-4.3-4.1-7.9-8.5-7.9c-4.6,0-8.5,3.5-9,7.9H284.8z"></path>
	<path class="st1" d="M308.1,603c0-1.2,1-2.2,2.2-2.2h9.7c1.2,0,2.2,1,2.2,2.2v76.8c0,1.2-1,2.2-2.2,2.2h-9.7c-1.2,0-2.2-1-2.2-2.2   V603z"></path>
	<path class="st1" d="M356.3,634.5c11.9,0,21.7,9,21.7,21.6c0,0.8-0.1,2.3-0.2,3.1c-0.1,1.2-1.2,2-2.2,2h-29.7   c0.3,4.8,4.4,10.1,11.1,10.1c3.6,0,7-1.4,9-2.9c1.2-0.7,2.2-0.9,3,0l4.8,5.5c0.8,0.8,1,2.1-0.1,3c-3.8,3.6-9.7,6.4-17.3,6.4   c-13.9,0-23.8-11-23.8-24.4C332.7,645.7,342.5,634.5,356.3,634.5z M364.5,653c-0.3-4.3-4.1-7.9-8.5-7.9c-4.6,0-8.5,3.5-9,7.9H364.5   z"></path>
	<path class="st1" d="M387.8,637.8c0-1.3,1-2.2,2.2-2.2h4.4c1,0,1.6,0.6,2,1.4l1.6,4.3c1.7-1.9,7.4-6.8,16.4-6.8   c14.7,0,20.6,11,20.6,23.1v22.3c0,1.2-1,2.2-2.2,2.2h-9.5c-1.3,0-2.2-1-2.2-2.2v-23c0-6-3.1-9.9-8.7-9.9c-6,0-9.7,4.2-10.9,7.3   v25.5c0,1.6-0.7,2.2-2.9,2.2H390c-1.2,0-2.2-1-2.2-2.2V637.8z"></path>
	<path class="st1" d="M446.9,611.2c0-4.4,3.5-8,7.9-8c4.5,0,8.1,3.6,8.1,8c0,4.4-3.6,8-8.1,8C450.4,619.2,446.9,615.6,446.9,611.2z    M448,637.8c0-1.3,1-2.2,2.2-2.2h9.6c1.2,0,2.2,0.9,2.2,2.2v42c0,1.2-1,2.2-2.2,2.2h-9.6c-1.2,0-2.2-1-2.2-2.2V637.8z"></path>
	<path class="st1" d="M475.1,637.8c0-1.3,1-2.2,2.2-2.2h9.5c1.2,0,2.2,0.9,2.2,2.2v22.9c0,6.1,3.1,10,8.5,10c4.9,0,8.6-4.5,9.3-8.7   v-24.1c0-1.7,0.7-2.2,2.6-2.2h8.8c1.2,0,2.2,0.9,2.2,2.2v42c0,1.2-1,2.2-2.2,2.2h-4.3c-1.2,0-1.9-0.8-2.2-1.7l-1.4-3.8   c-2.1,1.9-6.4,6.7-15.5,6.7c-14.4,0-19.6-11-19.6-22.9V637.8z"></path>
	<path class="st1" d="M534.3,637.8c0-1.3,1-2.2,2.2-2.2h4.3c1,0,1.7,0.6,2,1.3l1.6,4.4c2-2.2,7.3-6.8,15.5-6.8   c6.6,0,11.3,2.6,15.1,7.2c2-2.1,8-7.2,16.4-7.2c14.8,0,20.3,11,20.3,23.2v22.2c0,1.2-0.9,2.2-2.2,2.2H600c-1.3,0-2.2-1-2.2-2.2v-23   c0-6-2.9-9.9-8.7-9.9c-6.7,0-9.7,4.9-9.7,4.9s0.1,2.3,0.1,4.4v23.5c0,1.2-1,2.2-2.2,2.2h-8.7c-1.3,0-2.2-1-2.2-2.2v-23   c0-6-2.7-9.9-8.6-9.9c-5.8,0-8.6,4.2-9.7,7.3v25.5c0,1.2-1,2.2-2.2,2.2h-9.4c-1.2,0-2.2-1-2.2-2.2V637.8z"></path>
</g>
</svg>
