<?xml version="1.0" encoding="UTF-8"?>
<!-- Generator: Adobe Illustrator 28.0.0, SVG Export Plug-In . SVG Version: 6.00 Build 0)  -->
<svg xmlns="http://www.w3.org/2000/svg" xmlns:xlink="http://www.w3.org/1999/xlink" version="1.1" id="Layer_1" x="0px" y="0px" viewBox="0 0 801.2 831.3" style="enable-background:new 0 0 801.2 831.3;" xml:space="preserve">
<style type="text/css">
	.st0{opacity:0.39;enable-background:new    ;}
	.st1{fill:#FFFFFF;}
	.st2{fill:#77963D;}
</style>
<g id="Layer_1_00000058572514624377462140000008285801827891897010_">
	<ellipse class="st0" cx="401" cy="286.1" rx="262.8" ry="266.3"></ellipse>
	<circle class="st1" cx="401" cy="278.3" r="261.4"></circle>
</g>
<g id="Layer_2_00000157282389949287650910000016301557241376573856_">
	<g>
		<path class="st2" d="M267.4,147v262.7h266.3V147H267.4z M338.6,152H420v18.5h-30.5v88.8H369v-88.8h-30.3V152H338.6z M301.3,260.8    c-8.4,0-17.7-2-24.1-5.1v-21.5l3.9,2.4c6.1,3.7,13.9,6,21.1,6c10.7,0,17.1-5,17.1-13.2c0-6.5-2.6-11-16.4-16.3    c-19.3-6.8-28.8-17.3-28.8-31.8c0-18.2,14.8-30.8,36-30.8c10.3,0,17.4,2.3,21.6,4.2V176l-4.9-3c-3.6-1.9-9.5-4.3-17.1-4.3    c-11.1,0-15,6-15,11.2c0,6.1,2.6,10,17.4,15.7c13.8,5.3,27.9,13.4,27.9,32.8C340,244.5,328,260.8,301.3,260.8z M527.1,270.1    L399.4,403.8L340,356l0.1-35.1l58.9,48.6l128.1-134.8V270.1z"></path>
		<g>
			<g>
				<g>
					<path class="st2" d="M569.4,109.5c-45.1-45.1-105.1-69.9-168.8-69.9s-123.7,24.8-168.8,69.9s-69.9,105.1-69.9,168.8       c0,63.8,24.8,123.7,69.9,168.8S336.9,517,400.6,517s123.7-24.8,168.8-69.9s69.9-105,69.9-168.8S614.5,154.6,569.4,109.5z        M400.6,499.7c-122.1,0-221.4-99.3-221.4-221.4S278.5,56.9,400.6,56.9S622,156.2,622,278.3S522.7,499.7,400.6,499.7z"></path>
				</g>
			</g>
		</g>
	</g>
</g>
<g>
	<path class="st1" d="M216.8,670.7l4.2-7.2c0.9-1.6,2.9-1.6,3.9-0.8c0.6,0.3,10,7.2,17.5,7.2c6,0,10.6-3.9,10.6-8.9   c0-5.9-5-10-14.7-13.9c-10.9-4.4-21.8-11.4-21.8-25.1c0-10.3,7.7-22.3,26.1-22.3c11.8,0,20.9,6,23.2,7.8c1.2,0.7,1.5,2.7,0.7,3.8   l-4.4,6.6c-0.9,1.4-2.7,2.3-4.1,1.4c-0.9-0.6-9.7-6.4-16.1-6.4c-6.6,0-10.2,4.4-10.2,8.1c0,5.5,4.3,9.2,13.7,13   c11.3,4.5,24.2,11.3,24.2,26.2c0,11.9-10.3,23-26.7,23c-14.6,0-23.2-6.8-25.5-9C216.3,673.1,215.7,672.5,216.8,670.7z"></path>
	<path class="st1" d="M278.5,611.2c0-4.4,3.5-8,7.9-8c4.5,0,8.1,3.6,8.1,8c0,4.4-3.6,8-8.1,8C282,619.2,278.5,615.6,278.5,611.2z    M279.5,637.8c0-1.3,1-2.2,2.2-2.2h9.6c1.2,0,2.2,0.9,2.2,2.2v42c0,1.2-1,2.2-2.2,2.2h-9.6c-1.2,0-2.2-1-2.2-2.2V637.8z"></path>
	<path class="st1" d="M307.5,603c0-1.2,1-2.2,2.2-2.2h9.7c1.2,0,2.2,1,2.2,2.2v76.8c0,1.2-1,2.2-2.2,2.2h-9.7c-1.2,0-2.2-1-2.2-2.2   V603z"></path>
	<path class="st1" d="M335.6,603c0-1.2,1-2.2,2.2-2.2h9.9c1.2,0,2.2,1,2.2,2.2v50.2l16-16.2c0.8-0.7,1.6-1.4,2.9-1.4h10.6   c2,0,2.7,2.1,1.5,3.4l-17.3,17.6l20.6,22.2c1.2,1.3,0.5,3.2-1.5,3.2h-12.5c-0.7,0-1.6-0.5-2-0.9l-18.3-20.9v19.6   c0,1.2-1,2.2-2.2,2.2h-9.9c-1.2,0-2.2-1-2.2-2.2V603z"></path>
	<path class="st1" d="M432.4,614.8h-17.7c-1.3,0-2.2-1-2.2-2.2V603c0-1.2,0.9-2.2,2.2-2.2h50.7c1.3,0,2.2,1,2.2,2.2v9.5   c0,1.2-0.9,2.2-2.2,2.2h-17.7v65.1c0,1.2-1,2.2-2.2,2.2h-10.8c-1.2,0-2.2-1-2.2-2.2V614.8z"></path>
	<path class="st1" d="M487.3,634.5c11.9,0,21.7,9,21.7,21.6c0,0.8-0.1,2.3-0.2,3.1c-0.1,1.2-1.2,2-2.2,2h-29.7   c0.3,4.8,4.4,10.1,11.1,10.1c3.6,0,7-1.4,9-2.9c1.2-0.7,2.2-0.9,3,0l4.8,5.5c0.8,0.8,1,2.1-0.1,3c-3.8,3.6-9.7,6.4-17.3,6.4   c-13.9,0-23.8-11-23.8-24.4C463.6,645.7,473.5,634.5,487.3,634.5z M495.4,653c-0.3-4.3-4.1-7.9-8.5-7.9c-4.6,0-8.5,3.5-9,7.9H495.4   z"></path>
	<path class="st1" d="M516.2,676.5l3.1-6.3c0.5-1.2,1.6-1.4,2.7-0.8c0,0,5.2,2.8,10.6,2.8c2.3,0,3.9-0.9,3.9-2.9   c0-2.1-1.6-3.4-7.8-5.8c-8.9-3.5-13.1-8.2-13.1-15.3s5.2-13.7,17.1-13.7c6.8,0,11.8,2,14.3,3.6c1,0.7,1.6,2,1,3.1l-2.9,5.9   c-0.6,1-1.9,1.2-2.8,0.8c0,0-5.2-2.4-9.6-2.4c-2.8,0-3.9,1.2-3.9,2.7c0,2.1,2.1,2.8,6.4,4.5c8.9,3.5,15.7,7.3,15.7,16.4   c0,7.7-6.7,14.2-18.4,14.2c-7.7,0-13-2.4-15.4-4.3C516.2,678.3,515.7,677.4,516.2,676.5z"></path>
	<path class="st1" d="M563.4,647.8h-3.9c-1.2,0-2.1-1-2.1-2.2v-7.8c0-1.3,0.9-2.2,2.1-2.2h3.9v-12.9c0-1.2,1-2.2,2.2-2.2l9.5-0.1   c1.2,0,2.1,1,2.1,2.2v13h10.2c1.3,0,2.2,0.9,2.2,2.2v7.8c0,1.2-0.9,2.2-2.2,2.2h-10.2v18.6c0,3.2,1.7,3.7,3.6,3.7   c2,0,4.4-0.8,5.7-1.3c1.3-0.5,2.2,0.1,2.6,1.3l2.3,7.3c0.5,1.2-0.1,2.3-1.3,2.8c-0.6,0.3-8.1,3-13.8,3c-8.9,0-12.9-5.6-12.9-15   V647.8z"></path>
</g>
</svg>
