<?xml version="1.0" encoding="UTF-8"?>
<!-- Generator: Adobe Illustrator 28.0.0, SVG Export Plug-In . SVG Version: 6.00 Build 0)  -->
<svg xmlns="http://www.w3.org/2000/svg" xmlns:xlink="http://www.w3.org/1999/xlink" version="1.1" id="Layer_1" x="0px" y="0px" viewBox="0 0 801.2 831.3" style="enable-background:new 0 0 801.2 831.3;" xml:space="preserve">
<style type="text/css">
	.st0{opacity:0.39;enable-background:new    ;}
	.st1{fill:#FFFFFF;}
	.st2{fill-rule:evenodd;clip-rule:evenodd;fill:#E15B26;}
	.st3{fill-rule:evenodd;clip-rule:evenodd;fill:#3C3A3E;}
	.st4{fill:#3C3A3E;}
</style>
<ellipse class="st0" cx="401" cy="286.1" rx="262.8" ry="266.3"></ellipse>
<circle class="st1" cx="401" cy="278.3" r="261.4"></circle>
<g>
	<path class="st1" d="M126.2,670.7l4.2-7.2c0.9-1.6,2.9-1.6,3.9-0.8c0.6,0.3,10,7.2,17.5,7.2c6,0,10.6-3.9,10.6-8.9   c0-5.9-5-10-14.7-13.9c-10.9-4.4-21.8-11.4-21.8-25.1c0-10.3,7.7-22.3,26.1-22.3c11.8,0,20.9,6,23.2,7.8c1.2,0.7,1.5,2.7,0.7,3.8   l-4.4,6.6c-0.9,1.4-2.7,2.3-4.1,1.4c-0.9-0.6-9.7-6.4-16.1-6.4c-6.6,0-10.2,4.4-10.2,8.1c0,5.5,4.3,9.2,13.7,13   c11.3,4.5,24.2,11.3,24.2,26.2c0,11.9-10.3,23-26.7,23c-14.6,0-23.2-6.8-25.5-9C125.7,673.1,125.1,672.5,126.2,670.7z"></path>
	<path class="st1" d="M203.1,714.6c0,1.4-0.7,2.2-2.8,2.2H191c-1.2,0-2.2-1-2.2-2.2v-76.8c0-1.3,1-2.2,2.2-2.2h4.5   c0.8,0,1.6,0.5,2,1.4l1.5,3.8c1.7-2.3,7.4-6.4,15-6.4c12.8,0,22.4,11,22.4,24.4c0,13.7-10.4,24.4-23,24.4c-4.5,0-8.7-1.6-10.3-2.6   V714.6z M211.6,670.7c6.5,0,11.3-5.3,11.3-11.8S218.4,647,212,647c-5.9,0-8.8,4.6-9.5,7.1V668C202.5,668,205.8,670.7,211.6,670.7z"></path>
	<path class="st1" d="M262,652.7c4.6,0,8.5,1.3,8.5,1.3c0.1-5.9-1.7-8-6-8s-10.3,0.9-13,1.7c-1.6,0.5-2.4-0.6-2.7-2.1l-1-6   c-0.3-1.7,0.6-2.6,1.6-2.9c0.9-0.3,8.4-2.2,15.8-2.2c14.5,0,17.9,7.5,17.9,20.2v25.2c0,1.2-1,2.2-2.2,2.2h-4.2   c-0.8,0-1.4-0.3-2-1.6l-1.4-3.1c-2.7,2.4-7,5.9-14.2,5.9c-9.3,0-15.7-6-15.7-15.9C243.5,659.1,250.2,652.7,262,652.7z M262.3,673.3   c3.7,0,7.3-3.1,8-4.5v-6.4c0,0-3.1-1.4-6.5-1.4c-4.5,0-7.5,2.6-7.5,6.3C256.2,670.8,258.7,673.3,262.3,673.3z"></path>
	<path class="st1" d="M296.4,637.8c0-1.3,1-2.2,2.2-2.2h4.4c1,0,1.7,0.6,2.1,1.5l1.6,4.5c1.6-2.3,5.9-7.2,13.1-7.2   c5.5,0,10.3,1.7,8.9,4.6l-4.3,7.5c-0.6,1-1.7,1.5-2.7,1c-0.3-0.1-2.1-0.7-3.4-0.7c-4.6,0-7.4,3.1-8.2,4.8v28.1c0,1.6-1,2.2-2.7,2.2   h-8.9c-1.2,0-2.2-1-2.2-2.2V637.8z"></path>
	<path class="st1" d="M335.9,603c0-1.2,1-2.2,2.2-2.2h9.9c1.2,0,2.2,1,2.2,2.2v50.2l16-16.2c0.8-0.7,1.6-1.4,2.9-1.4h10.6   c2,0,2.7,2.1,1.5,3.4l-17.3,17.6l20.6,22.2c1.2,1.3,0.5,3.2-1.5,3.2h-12.5c-0.7,0-1.6-0.5-2-0.9l-18.3-20.9v19.6   c0,1.2-1,2.2-2.2,2.2h-9.9c-1.2,0-2.2-1-2.2-2.2V603z"></path>
	<path class="st1" d="M430.3,601.4c0.1-0.9,0.8-1.7,2.1-1.7h1.9c0.9,0,1.6,0.5,2,1.2l25.5,54.8c0.2,0,0.2,0,0.3,0l25.5-54.8   c0.3-0.7,0.9-1.2,2-1.2h1.9c1.3,0,2,0.8,2.1,1.7l13.7,78c0.3,1.6-0.6,2.7-2.1,2.7h-10.6c-1,0-2-0.9-2.2-1.7l-6.8-44   c-0.1,0-0.3,0-0.3,0l-20.3,45.6c-0.2,0.7-0.9,1.3-2,1.3h-2.1c-1,0-1.6-0.6-2-1.3l-20.5-45.6c0,0-0.2,0-0.3,0l-6.7,44   c-0.1,0.8-1,1.7-2.1,1.7h-10.4c-1.5,0-2.4-1-2.2-2.7L430.3,601.4z"></path>
	<path class="st1" d="M523.1,603c0-1.2,0.9-2.2,2.2-2.2H536c1.2,0,2.2,1,2.2,2.2v65.1h29.6c1.3,0,2.2,1,2.2,2.2v9.5   c0,1.2-0.9,2.2-2.2,2.2h-42.5c-1.3,0-2.2-1-2.2-2.2V603z"></path>
	<path class="st1" d="M577.5,603c0-1.2,1-2.2,2.2-2.2h9.7c1.2,0,2.2,1,2.2,2.2v76.8c0,1.2-1,2.2-2.2,2.2h-9.7c-1.2,0-2.2-1-2.2-2.2   V603z"></path>
	<path class="st1" d="M604.6,611.2c0-4.4,3.5-8,7.9-8c4.5,0,8.1,3.6,8.1,8c0,4.4-3.6,8-8.1,8C608,619.2,604.6,615.6,604.6,611.2z    M605.6,637.8c0-1.3,1-2.2,2.2-2.2h9.6c1.2,0,2.2,0.9,2.2,2.2v42c0,1.2-1,2.2-2.2,2.2h-9.6c-1.2,0-2.2-1-2.2-2.2V637.8z"></path>
	<path class="st1" d="M633.6,603c0-1.2,1-2.2,2.2-2.2h9.9c1.2,0,2.2,1,2.2,2.2v33.5c2.1-0.8,5.7-2.1,10.3-2.1   c13.8,0,23,10.8,23,24.4c0,13.3-9.6,24.4-22.3,24.4c-9.7,0-15.2-7-15.2-7l-1.2,3.6c-0.3,1.3-1.2,2.2-2.2,2.2h-4.5   c-1.2,0-2.2-1-2.2-2.2V603z M657.1,670.7c6.1,0,10.6-5.3,10.6-11.8s-4.8-11.8-11.3-11.8c-5.8,0-9,2.7-9,2.7v13.5   C648.2,665.9,651,670.7,657.1,670.7z"></path>
</g>
<g>
	<g id="g4163" transform="matrix(1.25,0,0,-1.25,0,201.85)">
		<g id="g4165" transform="scale(0.1,0.1)">
			<path id="path4167" class="st2" d="M4355.4-484.9c-2.4,5.1-3.5,7.7-4.8,10.2c-34.8,66.1-69.4,132.2-104.5,198.1     c-3.5,6.6-3.1,10.6,1.7,16.2c55.3,64.6,110.3,129.4,165.3,194.2c1.9,2.3,3.7,4.7,4.4,8.7c-16.1-4.2-32.2-8.4-48.3-12.6     c-66.8-17.7-133.6-35.3-200.3-53.3c-6.2-1.7-9.1,0.2-12.1,5.3c-37.9,63.4-76.1,126.6-114.2,189.8c-2,3.3-4.1,6.5-8.3,9.2     c-3.1-16.9-6.2-33.7-9.2-50.6c-10.6-59.6-21.2-119.2-31.8-178.9c-1.2-6.4-2.7-12.8-3.3-19.3c-0.5-6.2-3.7-8.4-9.3-10.2     c-78.7-24.7-157.4-49.7-236-74.6c-3.5-1.1-6.8-2.5-10.5-5.9c64.3-25.6,128.7-51.1,194-77.1c-2.4-1.9-3.9-3.3-5.7-4.5     c-40.2-26-80.5-51.9-120.6-78.1c-4.8-3.1-8.6-3.6-14-1.1c-48,21.6-96.3,42.9-144.4,64.3c-21.6,9.6-41,22.5-56.2,41     c-34.2,41.9-27.5,89.5,18.1,118.5c14.9,9.5,31.9,16.7,48.7,22.2c77.1,25.1,154.5,49.3,231.8,73.6c6.5,2,9.5,4.9,10.7,12     c10.3,59.7,21,119.3,31.7,178.9c5.8,31.9,8.8,64.5,24.3,93.7c6,11.2,13.1,22.2,21.6,31.6c30.7,34.1,73.6,35.4,106,2.9     c11-11,20.4-23.9,28.5-37.1c35.8-58.3,71-117,106-175.8c4.1-7,7.9-8.4,15.5-6.3c86.3,23.1,172.6,45.9,258.9,68.7     c17.8,4.7,35.8,6.4,54.1,3c39.8-7.5,57.2-37.7,43.7-76.2c-6.1-17.5-16.7-32.3-28.6-46.3c-60.2-70.8-120.4-141.8-180.8-212.4     c-4.9-5.8-5-10-1.6-16.4c36.1-68,71.8-136.1,107.7-204.2c8.6-16.3,15.1-33.2,15.3-51.9c0.4-42.6-30.7-77.4-73-83.6     c-23.7-3.5-45.7,1.6-67.9,8.4c-54.1,16.7-108.3,33.2-162.5,49.5c-5,1.5-6.9,3.5-7.8,8.9c-6.2,38.1-13,76.2-19.6,114.3     c-0.2,1,0.1,2.2,0.3,4.5C4230.5-450.5,4291.7-467.3,4355.4-484.9"></path>
			<path id="path4169" class="st3" d="M4249.9-1040.5c-48.8,0.1-97.5,0.3-146.3,0.1c-6.4,0-10.1,1.9-13.7,7.3     c-57.7,88-115.7,175.7-173.7,263.5c-1.8,2.8-3.8,5.5-7.1,10.2c-12.5-94.8-24.7-187.6-36.9-280.5c-42.7,0-84.5,0-127.7,0     c1.5,12.4,2.8,24.5,4.4,36.5c12.5,95.2,25,190.5,37.5,285.7c12,91,23.9,182,36,272.9c0.4,2.7,2.2,6.1,4.4,7.6     c43.9,28.7,88,57.1,132.1,85.5c0.6,0.4,1.5,0.5,3.8,1.1c-13.3-101.7-26.6-202.7-39.8-303.6c0.5-0.4,1-0.7,1.6-1.1     c69.2,76.7,138.4,153.4,209.1,231.7c2-11.8,3.8-21.9,5.5-32c5-28.9,9.7-57.9,15-86.7c1.1-5.8-0.5-9.4-4.4-13.5     c-44.7-46.8-89.3-93.8-133.9-140.8c-1.9-2-3.8-4.2-6-6.6c1.4-2.3,2.6-4.5,4.1-6.5c77-108,153.9-216,230.9-324     c1.4-2,3.4-3.5,5.1-5.2C4249.9-1039.3,4249.9-1039.9,4249.9-1040.5"></path>
			<path id="path4171" class="st3" d="M2735.9-759.7c-1.9,10-3.3,24.6-7.8,38.2c-21.4,66-89.1,102.2-159.2,85.9     c-76.9-17.9-131.8-78.3-139.8-156.8c-5.9-58,25.4-113.9,83.5-134.9c46.8-16.9,91.9-9.8,133.7,15.3     C2701.9-878.8,2732-829.4,2735.9-759.7z M2398.3-1005c-3.8-28.4-7.4-55.2-10.9-81.9c-4.7-35.6-9.3-71.2-13.8-106.8     c-0.5-4.2-1.8-6-6.2-6c-35.1,0.1-70.2,0.1-105.3,0.2c-0.8,0-1.6,0.4-3.5,1c2.1,16.8,4.2,33.7,6.4,50.5     c7.7,59,15.5,118.1,23.3,177.1c9,67.5,16.1,135.3,27.6,202.4c20.4,118.7,121.1,221.1,239.3,246.6c68.5,14.8,134.1,7.9,194-30.6     c59.7-38.5,93.9-94.3,101.7-164.5c11-99.3-25.5-181.7-96-249.8c-46.3-44.8-101.7-73.2-165.6-82.8c-65.8-9.9-127.7,1.1-183.2,39.9     C2404-1008.5,2401.8-1007.2,2398.3-1005"></path>
			<path id="path4173" class="st3" d="M2341.1-440.7c-39.3-29.3-77.3-57.5-115.4-85.9c-6.1,9.7-11.6,19.3-18.1,28.3     c-16.5,23.1-37.1,40.4-66.9,42.4c-24.8,1.7-46.1-6.4-63-24.7c-15.1-16.4-17.1-39.6-3-58.1c15.6-20.4,32.6-39.7,50-58.5     c28.8-31.2,58.9-61.3,87.5-92.7c26-28.6,46.8-60.6,53.2-99.7c7.6-46.4-1.6-90.7-23.6-131.5c-40.6-75.5-104.7-119.3-189.2-133     c-37.3-6-74.5-4.8-110.9,5.9c-48.3,14.2-82,45.9-103.6,90.6c-7.6,15.8-13.5,32.5-20.4,49.4c42.3,22.6,83.4,44.6,125.1,67     c1.5-3.5,2.5-6.4,3.8-9.1c7.1-14.2,12.9-29.4,21.7-42.4c26.1-38.8,68.3-50.7,111.1-31.5c11,4.9,21.6,11.9,30.6,19.9     c27.6,24.5,32.8,58.6,12.3,89.4c-11.7,17.7-26.4,33.6-40.7,49.4c-34.1,37.9-69.7,74.6-103,113.2c-23,26.6-38.6,57.6-43.5,93.2     c-5.4,38.9,2.4,75.6,22.6,108.3c50.3,81.4,123.4,123.7,220.2,120.2c55.1-2,99-27.8,133.1-70.6     C2321.3-413.8,2330.8-427,2341.1-440.7"></path>
			<path id="path4175" class="st3" d="M3275.4-877.7c-6.4-49-12.5-95.6-18.8-142.2c-0.3-2.4-2.2-5.6-4.2-6.5     c-95.2-44.1-220.6-37.9-298.8,50.9c-42,47.7-59.6,104.3-57,167.3c6.1,145.8,127,273.1,271.5,290.9c84.5,10.4,158.5-12.4,215.8-78     c39-44.7,57-98.1,54.3-157c-1.8-38.9-7.9-77.6-12.7-116.4c-6.9-54.9-14.4-109.6-21.6-164.5c-0.3-1.9-0.7-3.9-1.1-6.4     c-37.7,0-75.2,0-113.9,0c1.5,12.6,2.9,24.9,4.5,37.2c8.2,63.3,17.3,126.5,24.5,189.9c4.5,39.5,1.7,78.7-16.4,115.3     c-19.2,38.9-51.4,59.4-93.8,63.9c-87.7,9.3-171.1-51.7-189.8-138c-12.4-57,7.1-111.6,52.5-141.8c44.2-29.4,91.6-29.5,139.8-10.4     C3234.8-913.7,3255.6-898.4,3275.4-877.7"></path>
			<path id="path4177" class="st3" d="M3755-528.5c-5.2-39.5-10.3-78.4-15.6-118.1c-24.1,0-47.7,0.1-71.3,0     c-19.1-0.2-36.6-12.5-42.3-30.4c-2.3-7-3.1-14.5-4-21.8c-12-90.7-23.9-181.3-35.8-272c-3-22.9-5.9-45.7-8.9-69     c-39.5,0-78.5,0-118.5,0c2.2,17.4,4.3,34.3,6.5,51.2c7.7,58.8,15.4,117.5,23.2,176.3c6.7,50.8,12.8,101.8,20.7,152.4     c10.6,67.9,78.2,128.2,146.7,131.2C3688.4-527.3,3721.2-528.5,3755-528.5"></path>
			<path id="path4179" class="st4" d="M4389.7-1039.7v50h-0.3l-19.6-50h-6.3l-19.6,50h-0.3v-50h-9.9v59.9h15.3l17.9-45.5l17.6,45.5     h15.1v-59.9H4389.7L4389.7-1039.7z M4302.7-987.8v-51.9h-9.9v51.9H4274v8h47.4v-8L4302.7-987.8"></path>
			<path id="path4181" class="st4" d="M2499.9-356.6h29.4l-6.9,44.5L2499.9-356.6z M2533.9-385.3H2485l-15.5-30.4h-34.6l76.4,142.7     h33.4l26-142.7h-32.1L2533.9-385.3"></path>
			<path id="path4183" class="st4" d="M2708.9-301.8h-17.4l-5.9-32.9h17.4c10.5,0,18.9,6.9,18.9,19.9     C2721.9-306.2,2716.6-301.8,2708.9-301.8z M2666.7-273h45.8c23.9,0,40.7-14.3,40.7-38.8c0-30.9-21.8-51.6-52.9-51.6h-19.7     l-9.2-52.3h-29.8L2666.7-273"></path>
			<path id="path4185" class="st4" d="M2854.4-356.6h29.4l-6.9,44.5L2854.4-356.6z M2888.4-385.3h-48.9l-15.5-30.4h-34.6l76.4,142.7     h33.4l26-142.7H2893L2888.4-385.3"></path>
			<path id="path4187" class="st4" d="M3081.7-410.7c-10.1-4.6-21.2-7.4-32.3-7.4c-37.8,0-61.5,28.3-61.5,63.8     c0,45.3,38.2,83.5,83.5,83.5c11.3,0,21.6-2.7,30-7.3l-4.2-34.2c-6.3,6.9-16.4,11.8-29,11.8c-26,0-49.1-23.5-49.1-50.8     c0-20.8,13-36.9,33.6-36.9c12.6,0,24.8,4.8,32.9,11.5L3081.7-410.7"></path>
			<path id="path4189" class="st4" d="M3263.8-358.2h-62.1l-10.1-57.5h-29.8L3187-273h29.8l-10.1-56.4h62.1l10.1,56.4h29.8     l-25.2-142.7h-29.8L3263.8-358.2"></path>
			<path id="path4191" class="st4" d="M3373.1-415.7l25.2,142.7h79.1l-5-28.7h-49.3l-5-27.7h45.3l-5-28.7H3413l-5-28.8h49.3l-5-28.8     H3373.1"></path>
		</g>
	</g>
	<g>
		<g>
			<g>
				<path class="st4" d="M569.4,110.8c-45.1-45.1-105.1-69.9-168.8-69.9s-123.7,24.8-168.8,69.9s-69.9,105.1-69.9,168.8      c0,63.8,24.8,123.7,69.9,168.8s105.1,69.9,168.8,69.9s123.7-24.8,168.8-69.9s69.9-105,69.9-168.8S614.5,155.9,569.4,110.8z       M400.6,501.1c-122.1,0-221.4-99.3-221.4-221.4S278.5,58.2,400.6,58.2S622,157.5,622,279.6S522.7,501.1,400.6,501.1z"></path>
			</g>
		</g>
	</g>
</g>
</svg>
