<?xml version="1.0" encoding="UTF-8"?>
<!-- Generator: Adobe Illustrator 28.0.0, SVG Export Plug-In . SVG Version: 6.00 Build 0)  -->
<svg xmlns="http://www.w3.org/2000/svg" xmlns:xlink="http://www.w3.org/1999/xlink" version="1.1" id="Layer_1" x="0px" y="0px" viewBox="0 0 801.2 831.3" style="enable-background:new 0 0 801.2 831.3;" xml:space="preserve">
<style type="text/css">
	.st0{opacity:0.39;enable-background:new    ;}
	.st1{fill:#FFFFFF;}
	.st2{fill:#F3BB38;}
	.st3{fill:#EA8B23;}
	.st4{fill:#E15B29;}
</style>
<ellipse class="st0" cx="401" cy="286.1" rx="262.8" ry="266.3"></ellipse>
<circle class="st1" cx="401" cy="278.3" r="261.4"></circle>
<g>
	<g>
		<g>
			<polygon class="st2" points="379.9,291.6 379.9,292.1 421.9,315.5 463.4,291.6 421.9,267.2    "></polygon>
			<polygon class="st2" points="421.9,123.9 253.7,219.5 295.8,291.1 421.9,219.5 505.5,267.2 547.1,195.1    "></polygon>
		</g>
		<g>
			<polygon class="st3" points="421.9,267.2 421.9,171.7 295.8,243.3 295.8,291.1 337.8,267.8 379.9,291.6    "></polygon>
			<polygon class="st3" points="547.1,195.1 504.9,219.5 504.9,243.4 505.5,267.2 547.5,242.8    "></polygon>
			<polygon class="st3" points="379.9,339.5 379.9,387.1 379.9,435.4 421.9,411 421.9,363.3 463.4,339.5 463.4,291.6 421.3,315.5         "></polygon>
		</g>
		<g>
			<polygon class="st4" points="253.7,266.2 274.4,278.7 295.8,291.1 295.8,243.4 253.7,219.5    "></polygon>
			<polygon class="st4" points="504.9,219.5 421.9,171.7 421.9,219.5 505.5,267.2    "></polygon>
			<polygon class="st4" points="379.3,244.4 337.8,267.8 337.8,410.1 379.9,435.4 379.9,340.9 421.9,363.3 421.9,315.1 379.9,291.6         "></polygon>
		</g>
	</g>
	<g>
		<g>
			<g>
				<path class="st3" d="M569.4,110.8c-45.1-45.1-105.1-69.9-168.8-69.9s-123.7,24.8-168.8,69.9s-69.9,105.1-69.9,168.8      c0,63.8,24.8,123.7,69.9,168.8s105.1,69.9,168.8,69.9s123.7-24.8,168.8-69.9s69.9-105,69.9-168.8S614.5,155.9,569.4,110.8z       M400.6,501.1c-122.1,0-221.4-99.3-221.4-221.4S278.5,58.2,400.6,58.2S622,157.5,622,279.6S522.7,501.1,400.6,501.1z"></path>
			</g>
		</g>
	</g>
</g>
<g>
	<path class="st1" d="M167.8,614.8h-17.7c-1.3,0-2.2-1-2.2-2.2V603c0-1.2,0.9-2.2,2.2-2.2h50.7c1.3,0,2.2,1,2.2,2.2v9.5   c0,1.2-0.9,2.2-2.2,2.2H183v65.1c0,1.2-1,2.2-2.2,2.2H170c-1.2,0-2.2-1-2.2-2.2V614.8z"></path>
	<path class="st1" d="M222.7,634.5c11.9,0,21.7,9,21.7,21.6c0,0.8-0.1,2.3-0.2,3.1c-0.1,1.2-1.2,2-2.2,2h-29.7   c0.3,4.8,4.4,10.1,11.1,10.1c3.6,0,7-1.4,9-2.9c1.2-0.7,2.2-0.9,3,0l4.8,5.5c0.8,0.8,1,2.1-0.1,3c-3.8,3.6-9.7,6.4-17.3,6.4   c-13.9,0-23.8-11-23.8-24.4C199,645.7,208.9,634.5,222.7,634.5z M230.8,653c-0.3-4.3-4.1-7.9-8.5-7.9c-4.6,0-8.5,3.5-9,7.9H230.8z"></path>
	<path class="st1" d="M254.1,637.8c0-1.3,1-2.2,2.2-2.2h4.4c1,0,1.6,0.6,2,1.4l1.6,4.3c1.7-1.9,7.4-6.8,16.4-6.8   c14.7,0,20.6,11,20.6,23.1v22.3c0,1.2-1,2.2-2.2,2.2h-9.5c-1.3,0-2.2-1-2.2-2.2v-23c0-6-3.1-9.9-8.7-9.9c-6,0-9.7,4.2-10.9,7.3   v25.5c0,1.6-0.7,2.2-2.9,2.2h-8.6c-1.2,0-2.2-1-2.2-2.2V637.8z"></path>
	<path class="st1" d="M311.8,676.5l3.1-6.3c0.5-1.2,1.6-1.4,2.7-0.8c0,0,5.2,2.8,10.6,2.8c2.3,0,3.9-0.9,3.9-2.9   c0-2.1-1.6-3.4-7.8-5.8c-8.9-3.5-13.1-8.2-13.1-15.3s5.2-13.7,17.1-13.7c6.8,0,11.8,2,14.3,3.6c1,0.7,1.6,2,1,3.1l-2.9,5.9   c-0.6,1-1.9,1.2-2.8,0.8c0,0-5.2-2.4-9.6-2.4c-2.8,0-3.9,1.2-3.9,2.7c0,2.1,2.1,2.8,6.4,4.5c8.9,3.5,15.7,7.3,15.7,16.4   c0,7.7-6.7,14.2-18.4,14.2c-7.7,0-13-2.4-15.4-4.3C311.8,678.3,311.3,677.4,311.8,676.5z"></path>
	<path class="st1" d="M376.7,634.5c13.1,0,23.8,11.1,23.8,24.2c0,13.3-10.7,24.5-23.8,24.5c-13.1,0-23.8-11.1-23.8-24.5   C353,645.6,363.6,634.5,376.7,634.5z M376.7,670.7c6.1,0,11.1-5.3,11.1-11.9c0-6.5-5-11.7-11.1-11.7c-6.3,0-11.1,5.2-11.1,11.7   C365.6,665.3,370.5,670.7,376.7,670.7z"></path>
	<path class="st1" d="M410.9,637.8c0-1.3,1-2.2,2.2-2.2h4.4c1,0,1.7,0.6,2.1,1.5l1.6,4.5c1.6-2.3,5.9-7.2,13.1-7.2   c5.5,0,10.3,1.7,8.9,4.6l-4.3,7.5c-0.6,1-1.7,1.5-2.7,1c-0.3-0.1-2.1-0.7-3.4-0.7c-4.6,0-7.4,3.1-8.2,4.8v28.1c0,1.6-1,2.2-2.7,2.2   h-8.9c-1.2,0-2.2-1-2.2-2.2V637.8z"></path>
	<path class="st1" d="M451.6,603c0-1.2,0.9-2.2,2.2-2.2H501c1.3,0,2.2,1,2.2,2.2v9.5c0,1.2-0.9,2.2-2.2,2.2h-34.3v21.8h28.7   c1.2,0,2.2,1,2.2,2.2v9.5c0,1.2-1,2.2-2.2,2.2h-28.7v29.3c0,1.2-1,2.2-2.2,2.2h-10.7c-1.3,0-2.2-1-2.2-2.2V603z"></path>
	<path class="st1" d="M511.8,603c0-1.2,1-2.2,2.2-2.2h9.7c1.2,0,2.2,1,2.2,2.2v76.8c0,1.2-1,2.2-2.2,2.2H514c-1.2,0-2.2-1-2.2-2.2   V603z"></path>
	<path class="st1" d="M560,634.5c13.1,0,23.8,11.1,23.8,24.2c0,13.3-10.7,24.5-23.8,24.5s-23.8-11.1-23.8-24.5   C536.2,645.6,546.9,634.5,560,634.5z M560,670.7c6.1,0,11.1-5.3,11.1-11.9c0-6.5-5-11.7-11.1-11.7c-6.3,0-11.1,5.2-11.1,11.7   C548.9,665.3,553.8,670.7,560,670.7z"></path>
	<path class="st1" d="M589.3,638.3c-0.7-1.5,0.3-2.7,2-2.7h8.4c0.7,0,1.9,0.6,2.1,1.4l7,20.8h0.1l11.8-22.3c0.2-0.5,0.8-1,1.9-1h0.9   c1,0,1.5,0.5,1.9,1l11.7,22.3h0.1l7-20.8c0.5-1.3,1.4-1.4,2.7-1.4h7.5c1.6,0,2.7,1.2,2.1,2.7l-14.5,43.6c-0.2,0.7-0.9,1.3-2.1,1.3   h-0.5c-0.9,0-1.5-0.5-1.9-1l-14.6-27h-0.1l-14.5,27c-0.3,0.6-0.9,1-1.9,1h-0.6c-1,0-1.7-0.6-2-1.3L589.3,638.3z"></path>
</g>
</svg>
