<?xml version="1.0" encoding="UTF-8"?>
<!-- Generator: Adobe Illustrator 28.0.0, SVG Export Plug-In . SVG Version: 6.00 Build 0)  -->
<svg xmlns="http://www.w3.org/2000/svg" xmlns:xlink="http://www.w3.org/1999/xlink" version="1.1" id="Layer_1" x="0px" y="0px" viewBox="0 0 801.2 831.3" style="enable-background:new 0 0 801.2 831.3;" xml:space="preserve">
<style type="text/css">
	.st0{opacity:0.39;enable-background:new    ;}
	.st1{fill:#FFFFFF;}
	.st2{fill:#88D3E1;}
</style>
<ellipse class="st0" cx="401" cy="286.1" rx="262.8" ry="266.3"></ellipse>
<circle class="st1" cx="401" cy="278.3" r="261.4"></circle>
<path class="st2" d="M401.5,40.9c-131.9,0-238.8,106.9-238.8,238.8s106.9,238.8,238.8,238.8s238.8-106.9,238.8-238.8  S533.4,40.9,401.5,40.9z M314.7,209c-2.7-0.2-5.4-0.5-8.2-0.7c0,0-3.8-0.2-8.8-0.1c-1.4,0.4-5.1,0.4-5.1,0.4s4.5,0.8,3.1,2.2  c-8.1,11.9-17.5,15-26.6,15.4H269c-0.3,0-0.7,0-1,0c-0.1,0-0.2,0-0.3,0h-0.1c-0.1,0-0.2,0-0.3,0c0,0,0,0-0.1,0  c-9.8-0.2-18.3-4.4-22.6-10.5c-0.4-0.4-0.8-0.8-1.1-1.2c-0.5-0.6-1.1-1.3-1.6-1.9c-0.7-1.2-1.4-2.4-2.2-3.5  c-0.6-1.2-1.2-2.5-1.8-3.7c-0.5-1.5-1.1-3.1-1.6-4.6l0,0c-0.4-2.1-0.8-4.3-1.2-6.4c0.2-12.4,4.3-22.7,15.4-29.4  c1.6-0.9,3.2-1.7,4.8-2.6c1.6-0.6,3.1-1.1,4.7-1.7c0.2-0.2,0.5-0.2,0.7-0.1c1.9-0.3,3.8-0.6,5.7-0.9c0.2-0.2,0.4-0.2,0.7,0  c1.9,0,3.8,0.1,5.7,0.1c0.6,0,1.2,0.1,1.9,0.1c1.2,0.3,2.4,0.6,3.6,0.9c0.6,0.3,1.2,0.5,1.8,0.8c0.9,0.4,1.8,0.7,2.7,1.1  c0.3,0.2,0.6,0.4,0.9,0.6c1.2,0.7,2.4,1.4,3.6,2.1c0.3,0.3,0.6,0.5,1,0.8c0.6,0.5,1.3,1.1,1.9,1.6c0.6,0.6,1.2,1.1,1.8,1.7  c0.6,0.6,1.2,1.3,1.8,1.9c0.6,0.7,1.2,1.4,1.7,2c0.3,0.5,0.7,1,1,1.5c0.6,0.9,1.2,1.9,1.8,2.8c0.3,0.4,0.5,0.8,0.8,1.3  c0.7,2,4.1,7.5-2.4,4.9l6.9,6l13.6,15c2,2,4,4,5.9,5.9C320.3,210.4,317.5,209.7,314.7,209z M424.3,417.2c-0.2,2.2-0.5,4.3-0.7,6.5  c-0.1,0.2-0.1,0.5-0.2,0.7c-0.6,5.5-2.9,10.3-6.2,13.4c-0.9,1.1-1.9,2.2-2.8,3.3c-0.9,0.8-1.9,1.7-2.8,2.5  c-4.3,3.1-2.8,4.4-16.7,8.2c-0.8,0.2-1.8-0.3-2.5,0c-0.9,0-1.8,0-2.7,0c-3.9-1.1-8-1.9-11.8-3.5c-3.1-1.3-5.8-3.6-8.7-5.5  c-1.2-1.2-2.5-2.4-3.7-3.7c-0.5-0.6-1-1.2-1.4-1.9c-0.9-1.5-1.9-3-2.8-4.5c-0.6-1.3-1.1-2.5-1.7-3.8c-0.3-1.2-0.7-2.4-1-3.5l0,0  c-0.3-1.9-0.6-3.7-0.9-5.6l0,0c-0.2-0.2-0.2-0.4,0-0.6c0-1.6,0-3.2,0-4.8c0.1-0.9,0.1-1.8,0.2-2.7c0.5-1.8,1.1-3.7,1.6-5.5  c0.4-0.9,0.7-1.8,1.1-2.7c0.3-0.6,0.6-1.2,0.9-1.8c0.3-0.6,0.7-1.2,1-1.8c0.6-0.9,1.3-1.8,1.9-2.7l0,0c0.5-0.8,1.2-1.6,2-2.2  c0.4-0.4,0.8-0.8,1.2-1.2c0.6-0.9,1.4-1.6,2.4-2.1c0.4-0.3,0.8-0.6,1.1-0.9c0.9-0.6,1.9-1.2,2.8-1.8l0,0c16.6-8.1,8.8-1.3,9.2,4.5  c0,0,1.1-3.9,1.9-6.5l0,0l10-37l6.4,23.5c0,0.1,0,0.1,0.1,0.2c0.6,2.1,1.2,4.3,1.7,6.4l2.3,7.2c0.7,1.1,1.3,1,2.4,1.9  c0.9,0.6,1.8,1.2,2.7,1.8c1.1,0.9,2.3,1.9,3.4,2.8c0.5,0.5,1,1.1,1.5,1.6c0.5,0.7,0.9,1.3,1.4,2c0.7,0.9,1.4,1.8,2.1,2.7  c0.4,0.6,0.7,1.2,1.1,1.7l0,0c0.2,0.4,0.4,0.9,0.6,1.3c2.2,3.5,3.5,8,3.5,12.9c0,0.2,0,0.4,0,0.6C424.3,416.7,424.3,417,424.3,417.2  z M422.7,257.7c-4.3,9.9-12.6,14.9-22.3,18.1c-0.8,0.3-1.7,0.6-2.5,0.9c0.3,3.6,0.5,7.3,0.8,10.9c0,0.6,0,1.3,0,1.9  c0,1.2,0,2.4,0,3.6l0,0c0,3,0,6.1,0,9.1c-0.2,4.9-0.5,9.9-0.7,14.8c-0.1,1.5-0.1,2.9-0.2,4.3l0,0c-0.5,4.8-1,9.6-1.6,14.3  c-0.2,1.4-0.7,2.7-1.1,4.1c-1.2-6.1-2.4-12.3-3.6-18.4c-0.4-2.7-0.8-5.4-1.1-8.2c-0.3-1.8-0.6-3.7-0.8-5.5l0,0  c-0.3-1.8-0.6-3.6-0.8-5.5c-0.3-2.4-0.7-4.7-1-7.1c-0.3-1.6-0.7-3.2-1-4.7c-0.6-2.4-1.2-4.9-1.8-7.3c-0.9-1.8-1.7-3.6-2.6-5.4  c-1.6-1.5-3-3.4-4.9-4.5c-9.4-5.6-15.3-13.7-17.8-24.3c-0.3-1.3-0.8-2.6-1.2-3.9c-1.2-1.6-2.5-3.2-3.7-4.8c-1.5-1.5-3-3-4.4-4.6  c-0.9-0.9-1.8-1.8-2.7-2.7l0,0c-3.8-3.7-7.5-7.3-11.3-11c-2.6-2.5-5.3-5-7.9-7.5c4,1.2,8.1,2.4,12.1,3.6c0.1,0,0.2,0.1,0.3,0.1h0.1  c0,0,17.1,6.1,22.7,9.2c3.7-7.3,9.7-12.1,17.1-15.4c12.7-3.7,24.7-3.4,34.9,6.1c1.6,1.5,2.5,3.7,3.7,5.5l0,0  c2.4,4.5,4.9,9.1,7.3,13.6c12.7,4.1,37.1-3.6,44.6-6C456.7,238.8,431.1,251.4,422.7,257.7z M563.6,246.9c-0.7,1.1-1.4,2.2-2,3.3  c-1.3,1.5-2.5,2.9-3.8,4.4c-0.6,0.6-1.7,1.6-2.3,2.1c-0.9,0.7-1.9,1.4-2.8,2.1c-0.7,0.4-1.4,0.8-2.1,1.3c-0.8,0.4-1.7,0.8-2.5,1.2  l0,0c-0.3,0.1-0.5,0.2-0.8,0.3c-0.6,0.4-1.4,0.6-2.2,0.8c-0.4,0.1-0.9,0.3-1.3,0.4c-1.1,0.4-2.4,0.8-3.9,1c-0.1,0-0.1,0-0.2,0  c-0.1,0-0.2,0-0.2,0c-0.5,0.1-1,0.1-1.6,0.1h0.1c-0.3,0-0.5,0-0.8,0c-0.1,0-0.3,0-0.4,0c-0.4,0-0.7,0-1.1,0c-2,0-4,0-6.1-0.1  c-0.6-0.1-1.2-0.1-1.9-0.2c-1.1-0.3-2.2-0.5-3.3-0.8c-0.7-0.3-1.4-0.6-2.1-0.9c-0.9-0.4-1.8-0.7-2.7-1.1c-0.6-0.3-1.2-0.7-1.9-1  c-0.6-0.4-1.2-0.8-1.9-1.2l0,0c-0.9-0.7-1.9-1.4-2.8-2.1l-1.8-1.6c-2-2.8-4-5.6-6-8.4l0,0c-1.6-1.8-1.5-2.4-1.5-2.4  c-1-2.3-3.5-7.2-2-6.9c7,1.3,8.5,1.5,7.5,1c-15.4-6.4-35.6-7.5-35.6-7.5c-0.6,0.2-1.1,0.3-1.1,0c3.5-1.2,7.9-3.9,11.4-5.1  c2.7-1.2,5.5-2.5,8.2-3.7c1.5-0.6,3-1.2,4.6-1.8l0,0c1.8-0.9,3.7-1.9,5.5-2.8c2-1.2,3-2,4.7-3c2.2-2.5-3.4,3.3-0.8-2.5l0.5-0.8  c0.8-1.1,1.5-1.6,2-2.1c1.5-1.3,3-2.6,4.5-3.8c0.7-0.5,1.3-1,2-1.5c0.6-0.4,1.2-0.8,1.7-1.1c0.8-0.4,1.6-0.9,2.4-1.3  c1.2-0.5,2.3-1.1,3.5-1.6c0.2-0.1,0.4-0.1,0.6-0.2l4.6-1.1c2.2-0.1,5.6-0.4,7.8-0.5c1.4,0.1,2.9,0.3,4.3,0.4  c0.3-0.1,0.5-0.1,0.7,0.1c0.9,0.2,1.8,0.4,2.8,0.6c1.6,0.6,3.2,1.1,4.8,1.7c1.3,0.7,2.7,1.4,4,2.1c0.7,0.4,1.1,0.5,1.3,0.7l0,0  c0,0,1.5,0.8,2.5,1.8l0,0c1.6,1.9,3.2,3.8,4.8,5.7C569.2,220.7,570.4,235.7,563.6,246.9z"></path>
<g>
	<path class="st1" d="M297.8,614.8H280c-1.3,0-2.2-1-2.2-2.2V603c0-1.2,0.9-2.2,2.2-2.2h50.7c1.3,0,2.2,1,2.2,2.2v9.5   c0,1.2-0.9,2.2-2.2,2.2h-17.7v65.1c0,1.2-1,2.2-2.2,2.2H300c-1.2,0-2.2-1-2.2-2.2V614.8z"></path>
	<path class="st1" d="M352.7,634.5c13.1,0,23.8,11.1,23.8,24.2c0,13.3-10.7,24.5-23.8,24.5c-13.1,0-23.8-11.1-23.8-24.5   C329,645.6,339.6,634.5,352.7,634.5z M352.7,670.7c6.1,0,11.1-5.3,11.1-11.9c0-6.5-5-11.7-11.1-11.7c-6.3,0-11.1,5.2-11.1,11.7   C341.6,665.3,346.5,670.7,352.7,670.7z"></path>
	<path class="st1" d="M386.8,637.8c0-1.3,1-2.2,2.2-2.2h4.4c1,0,1.7,0.6,2.1,1.5l1.6,4.5c1.6-2.3,5.9-7.2,13.1-7.2   c5.5,0,10.3,1.7,8.9,4.6l-4.3,7.5c-0.6,1-1.7,1.5-2.7,1c-0.3-0.1-2.1-0.7-3.4-0.7c-4.6,0-7.4,3.1-8.2,4.8v28.1c0,1.6-1,2.2-2.7,2.2   H389c-1.2,0-2.2-1-2.2-2.2V637.8z"></path>
	<path class="st1" d="M447,634.5c7.2,0,12.8,2.9,17.2,8.2c0.8,1,0.6,2.4-0.6,3.2l-5.3,5.1c-1,0.9-2.1,0.3-2.9-0.3   c-1.9-2.1-4.8-3.7-8-3.7c-6.3,0-11.4,5.3-11.4,11.8c0,6.6,5,11.8,11.3,11.8c5,0,7.2-2.4,9.3-4.4c0.8-0.8,2-1,2.9-0.3l5,4.3   c1.2,0.9,1.6,2.1,0.8,3.2c-3.9,6.1-10.1,9.7-18.3,9.7c-13.1,0-24.6-10.4-24.6-24.4C422.3,645.1,434.1,634.5,447,634.5z"></path>
	<path class="st1" d="M475.3,603c0-1.2,1-2.2,2.2-2.2h9.9c1.2,0,2.2,1,2.2,2.2v35.3c2.3-1.7,6.8-3.8,12.3-3.8   c14.7,0,20.8,11.4,20.8,23.1v22.3c0,1.2-1,2.2-2.2,2.2h-9.4c-1.3,0-2.2-1-2.2-2.2v-22.4c0-6.4-3.6-10.4-9.2-10.4   c-5.3,0-8.9,3.5-10.1,8.2v24.6c0,1.3-0.7,2.2-2.4,2.2h-9.6c-1.2,0-2.2-1-2.2-2.2V603z"></path>
</g>
</svg>
